<?xml version="1.0" encoding="UTF-8" standalone="no"?>
<!-- Created with Inkscape (http://www.inkscape.org/) -->

<svg
   width="210mm"
   height="297mm"
   viewBox="0 0 210 297"
   version="1.1"
   id="svg5"
   inkscape:version="1.1.1 (3bf5ae0d25, 2021-09-20)"
   sodipodi:docname="case-outlines.svg"
   xmlns:inkscape="http://www.inkscape.org/namespaces/inkscape"
   xmlns:sodipodi="http://sodipodi.sourceforge.net/DTD/sodipodi-0.dtd"
   xmlns="http://www.w3.org/2000/svg"
   xmlns:svg="http://www.w3.org/2000/svg">
  <sodipodi:namedview
     id="namedview7"
     pagecolor="#ffffff"
     bordercolor="#666666"
     borderopacity="1.0"
     inkscape:pageshadow="2"
     inkscape:pageopacity="0.0"
     inkscape:pagecheckerboard="0"
     inkscape:document-units="mm"
     showgrid="false"
     inkscape:snap-global="false"
     inkscape:zoom="1.8116735"
     inkscape:cx="248.94111"
     inkscape:cy="446.54846"
     inkscape:window-width="2538"
     inkscape:window-height="1387"
     inkscape:window-x="8"
     inkscape:window-y="8"
     inkscape:window-maximized="1"
     inkscape:current-layer="layer2"
     showguides="false" />
  <defs
     id="defs2" />
  <g
     inkscape:groupmode="layer"
     id="layer2"
     inkscape:label="Layer 2"
     style="display:inline">
    <path
       id="path5641"
       style="fill:#26a269;stroke:#99c1f1;stroke-width:0.1;stroke-linecap:butt;stroke-linejoin:miter;stroke-miterlimit:4;stroke-dasharray:none;stroke-opacity:1"
       sodipodi:type="inkscape:offset"
       inkscape:radius="0"
       inkscape:original="M 110.27344 93.857422 C 82.478407 93.257682 70.024962 101.83203 56.056641 101.83203 L 43.742188 101.83203 C 42.151424 101.83203 42.02995 102.88265 42.03125 104.11719 L 42.060547 130.97266 C 42.068333 138.27374 45.028045 138.57394 46.285156 146.84961 C 47.779 156.68371 47.539143 158.84715 49.177734 165.37695 L 54.542969 186.75977 C 54.927337 188.29148 56.45717 189.15133 58.478516 188.58008 C 60.499861 188.00883 82.60119 181.93169 91.484375 179.10938 C 100.36756 176.28705 116.43622 167.7819 125.11523 164.52539 C 133.79425 161.26887 149.81586 160.30773 152.125 159.73633 C 154.43414 159.16493 155.05669 157.39204 155.05469 155.58203 L 155.00586 109.39453 C 155.00172 105.57324 154.00341 105.91219 151.83203 105.90039 L 150.12305 105.89258 C 144.76922 105.86354 136.47132 94.422701 110.27344 93.857422 z "
       d="M 110.27344,93.857422 C 82.478407,93.257682 70.024962,101.83203 56.056641,101.83203 H 43.742188 c -1.590764,0 -1.712238,1.05062 -1.710938,2.28516 l 0.0293,26.85547 c 0.0078,7.30108 2.967498,7.60128 4.224609,15.87695 1.493844,9.8341 1.253987,11.99754 2.892578,18.52734 l 5.365235,21.38282 c 0.384368,1.53171 1.914201,2.39156 3.935547,1.82031 2.021345,-0.57125 24.122674,-6.64839 33.005859,-9.4707 8.883185,-2.82233 24.951845,-11.32748 33.630855,-14.58399 8.67902,-3.25652 24.70063,-4.21766 27.00977,-4.78906 2.30914,-0.5714 2.93169,-2.34429 2.92969,-4.1543 l -0.0488,-46.1875 c -0.004,-3.82129 -1.00245,-3.48234 -3.17383,-3.49414 l -1.70898,-0.008 c -5.35383,-0.029 -13.65173,-11.469879 -39.84961,-12.035158 z" />
    <path
       id="path1048"
       style="fill:none;stroke:#99c1f1;stroke-width:0.1;stroke-linecap:butt;stroke-linejoin:miter;stroke-miterlimit:4;stroke-dasharray:none;stroke-opacity:1"
       sodipodi:type="inkscape:offset"
       inkscape:radius="-1.2995195"
       inkscape:original="M 110.31445 91.949219 C 82.114706 91.340746 69.243564 99.921875 56.056641 99.921875 L 43.742188 99.921875 C 42.526442 99.921875 41.164705 100.59152 40.615234 101.5918 C 40.065763 102.59207 40.120377 103.43867 40.121094 104.11914 L 40.150391 130.97461 C 40.154559 134.88314 41.039163 137.24912 41.958984 139.32031 C 42.878806 141.3915 43.800829 143.21547 44.396484 147.13672 C 45.879526 156.89971 45.65264 159.17276 47.326172 165.8418 L 52.691406 187.22461 C 53.00862 188.48871 53.883619 189.59859 55.056641 190.17383 C 56.229663 190.74906 57.624783 190.80606 58.998047 190.41797 C 60.92461 189.8735 83.062117 183.78923 92.0625 180.92969 C 101.36744 177.97336 117.40419 169.45718 125.78516 166.3125 C 129.82069 164.7983 135.93563 163.72734 141.26172 163.01562 C 143.92476 162.65977 146.39942 162.38775 148.36523 162.16602 C 150.33105 161.94428 151.62808 161.82638 152.58398 161.58984 C 154.14671 161.20315 155.40169 160.26022 156.09375 159.10547 C 156.78581 157.95072 156.96609 156.70469 156.96484 155.58008 L 156.91602 109.39258 C 156.91489 108.35409 156.85774 107.53424 156.66406 106.76953 C 156.47038 106.00483 156.06532 105.21146 155.38281 104.69531 C 154.7003 104.17916 153.95398 104.05198 153.38477 104.00977 C 152.81555 103.96755 152.33417 103.99291 151.8418 103.99023 A 1.9096324 1.9096324 0 0 0 151.83984 103.99023 L 150.13281 103.98242 L 150.13086 103.98242 C 149.46946 103.9784 148.13598 103.46511 146.25391 102.41211 C 144.37101 101.35865 141.9532 99.871687 138.85156 98.359375 C 132.64829 95.334752 123.68681 92.237758 110.31445 91.949219 z "
       d="M 110.28711,93.248047 C 82.359335,92.645442 69.807321,101.2207 56.056641,101.2207 H 43.742188 c -0.738554,0 -1.757187,0.5754 -1.988282,0.9961 -0.383001,0.69722 -0.334773,1.15152 -0.333984,1.90039 l 0.0293,26.85547 c 0.004,3.71301 0.801003,5.80217 1.697265,7.82031 0.903941,2.03543 1.918584,4.08949 2.535157,8.14844 1.490495,9.81205 1.25448,12.00945 2.904297,18.58398 l 5.365234,21.38281 c 0.223609,0.89109 0.868636,1.70284 1.677734,2.09961 0.837771,0.41083 1.896059,0.47655 3.015625,0.16016 1.995512,-0.56396 24.104094,-6.64215 33.025391,-9.47656 9.029208,-2.86873 25.065228,-11.37148 33.658198,-14.59571 4.2511,-1.59508 10.39543,-2.65009 15.76172,-3.36718 2.68163,-0.35834 5.16617,-0.63214 7.12891,-0.85352 1.9781,-0.22313 3.26517,-0.35199 4.05273,-0.54688 1.24205,-0.30733 2.21073,-1.0625 2.70704,-1.89062 0.53131,-0.88654 0.68859,-1.8708 0.6875,-2.85547 l -0.0488,-46.1875 c -0.001,-0.99156 -0.0585,-1.69725 -0.21289,-2.30664 -0.14033,-0.55404 -0.43587,-1.07655 -0.80469,-1.35547 -0.4009,-0.30318 -0.84978,-0.39161 -1.31055,-0.42578 -0.47448,-0.0352 -0.9097,-0.0149 -1.44726,-0.0176 h -0.008 l -1.70312,-0.008 a 1.2996495,1.2996495 0 0 1 -0.008,0 c -1.32309,-0.008 -2.55062,-0.64153 -4.50391,-1.73437 -1.92395,-1.07643 -4.29874,-2.53769 -7.33789,-4.019536 -6.07421,-2.961697 -14.80976,-5.994814 -27.99414,-6.279297 z" />
    <rect
       style="fill:#f66151;stroke:none;stroke-width:0.1;stroke-linejoin:round;stroke-miterlimit:4;stroke-dasharray:none"
       id="rect1306"
       width="5.0549998"
       height="0.5"
       x="102.90393"
       y="93.277359" />
    <rect
       style="display:inline;fill:#9141ac;stroke:none;stroke-width:0.0999999;stroke-linejoin:round;stroke-miterlimit:4;stroke-dasharray:none"
       id="rect1306-3"
       width="5.0549998"
       height="1.5"
       x="102.91232"
       y="91.667702" />
    <path
       id="path2213"
       style="fill:none;stroke:#99c1f1;stroke-width:0.1;stroke-linecap:butt;stroke-linejoin:miter;stroke-miterlimit:4;stroke-dasharray:none;stroke-opacity:1"
       sodipodi:type="inkscape:offset"
       inkscape:radius="1.530498"
       inkscape:original="M 110.28711 93.248047 C 82.359334 92.645442 69.807321 101.2207 56.056641 101.2207 L 43.742188 101.2207 C 43.003633 101.2207 41.985001 101.7961 41.753906 102.2168 C 41.370905 102.91402 41.419133 103.36832 41.419922 104.11719 L 41.449219 130.97266 C 41.453178 134.68567 42.250222 136.77483 43.146484 138.79297 C 44.050425 140.8284 45.065068 142.88246 45.681641 146.94141 C 47.172136 156.75346 46.93612 158.95086 48.585938 165.52539 L 53.951172 186.9082 C 54.174781 187.79929 54.819808 188.61104 55.628906 189.00781 C 56.466677 189.41864 57.524965 189.48436 58.644531 189.16797 C 60.640043 188.60401 82.748625 182.52582 91.669922 179.69141 C 100.69913 176.82268 116.73516 168.31993 125.32812 165.0957 C 129.57923 163.50062 135.72355 162.44561 141.08984 161.72852 C 143.77147 161.37018 146.25601 161.09638 148.21875 160.875 C 150.19685 160.65187 151.48392 160.52301 152.27148 160.32812 C 153.51353 160.02079 154.48221 159.26562 154.97852 158.4375 C 155.50983 157.55096 155.66711 156.5667 155.66602 155.58203 L 155.61719 109.39453 C 155.61611 108.40297 155.55864 107.69728 155.4043 107.08789 C 155.26397 106.53385 154.96843 106.01134 154.59961 105.73242 C 154.19871 105.42924 153.74983 105.34081 153.28906 105.30664 C 152.81458 105.27145 152.37936 105.29173 151.8418 105.28906 L 151.83398 105.28906 L 150.13086 105.28125 A 1.2996495 1.2996495 0 0 1 150.12305 105.28125 C 148.79996 105.27321 147.57243 104.63971 145.61914 103.54688 C 143.69519 102.47044 141.3204 101.00919 138.28125 99.527344 C 132.20704 96.565647 123.47149 93.53253 110.28711 93.248047 z "
       d="M 110.32031,91.71875 C 82.069573,91.109176 69.171017,99.689453 56.056641,99.689453 H 43.742188 c -0.766743,0 -1.354692,0.23451 -1.892579,0.515627 -0.537886,0.28111 -1.006849,0.49141 -1.4375,1.27539 -0.544181,0.99063 -0.524158,1.95486 -0.523437,2.63867 l 0.0293,26.85547 c 0.0042,3.93142 0.911404,6.37085 1.830078,8.43945 0.921348,2.07463 1.829276,3.86955 2.419922,7.75782 1.481797,9.75478 1.255793,12.04052 2.933593,18.72656 l 5.365235,21.38281 c 0.339318,1.35219 1.226967,2.48303 2.488281,3.10156 1.237319,0.60676 2.689635,0.65793 4.105469,0.25781 1.918048,-0.54206 24.057309,-6.62606 33.072265,-9.49023 9.362578,-2.97465 25.381708,-11.48776 33.732418,-14.62109 4.0048,-1.50266 10.10477,-2.5719 15.42774,-3.28321 2.66006,-0.35545 5.13163,-0.62786 7.09765,-0.84961 1.96984,-0.22219 3.23576,-0.33152 4.24805,-0.58203 1.6294,-0.40317 2.91554,-1.36043 3.65235,-2.58984 0.71961,-1.20075 0.90752,-2.49576 0.90625,-3.64453 l -0.0488,-46.1875 c -0.001,-1.04991 -0.0586,-1.88535 -0.25977,-2.67969 -0.20967,-0.82782 -0.57669,-1.60483 -1.36523,-2.20117 -0.72509,-0.54835 -1.53922,-0.68732 -2.1211,-0.73047 -0.58657,-0.0435 -1.05777,-0.021 -1.55273,-0.0234 a 1.5306511,1.5306511 0 0 0 -0.008,0 h -0.004 l -1.69922,-0.008 v 0.004 a 1.5306511,1.5306511 0 0 0 -0.006,-0.004 c -0.84033,-0.005 -1.83083,-0.45658 -3.76562,-1.53906 -1.87723,-1.0503 -4.30291,-2.540691 -7.41602,-4.058596 -6.22379,-3.03463 -15.22649,-6.144364 -28.63086,-6.433594 z m 39.81446,15.08398 c 0.001,0.0897 -0.0362,-0.0288 0,0 z" />
    <rect
       style="fill:#9141ac;stroke:none;stroke-width:0.0999997;stroke-linejoin:round;stroke-miterlimit:4;stroke-dasharray:none"
       id="rect2337"
       width="5"
       height="5"
       x="41.981239"
       y="183.80763" />
  </g>
</svg>
