<?xml version="1.0" encoding="UTF-8" standalone="no"?>
<!-- Created with Inkscape (http://www.inkscape.org/) -->

<svg
   width="210mm"
   height="297mm"
   viewBox="0 0 210 297"
   version="1.1"
   id="svg5"
   inkscape:version="1.1.1 (3bf5ae0d25, 2021-09-20)"
   sodipodi:docname="outline.svg"
   xmlns:inkscape="http://www.inkscape.org/namespaces/inkscape"
   xmlns:sodipodi="http://sodipodi.sourceforge.net/DTD/sodipodi-0.dtd"
   xmlns="http://www.w3.org/2000/svg"
   xmlns:svg="http://www.w3.org/2000/svg">
  <sodipodi:namedview
     id="namedview7"
     pagecolor="#ffffff"
     bordercolor="#666666"
     borderopacity="1.0"
     inkscape:pageshadow="2"
     inkscape:pageopacity="0.0"
     inkscape:pagecheckerboard="0"
     inkscape:document-units="mm"
     showgrid="false"
     inkscape:snap-global="false"
     inkscape:zoom="2.5620932"
     inkscape:cx="328.8327"
     inkscape:cy="505.83641"
     inkscape:window-width="1906"
     inkscape:window-height="1387"
     inkscape:window-x="8"
     inkscape:window-y="8"
     inkscape:window-maximized="1"
     inkscape:current-layer="layer2" />
  <defs
     id="defs2" />
  <g
     inkscape:groupmode="layer"
     id="layer2"
     inkscape:label="Layer 2"
     style="display:inline">
    <path
       style="fill:#cccccc;stroke:#008000;stroke-width:0.465;stroke-linecap:butt;stroke-linejoin:miter;stroke-miterlimit:4;stroke-dasharray:none;stroke-opacity:1"
       d="m 43.741705,101.83294 h 12.315473 c 13.968321,0 26.422162,-8.575226 54.217192,-7.975486 26.19788,0.565279 34.49564,12.005776 39.84947,12.034816 l 1.70907,0.009 c 2.17138,0.0118 3.16828,-0.3285 3.17242,3.49279 l 0.05,46.18759 c 0.002,1.81001 -0.62103,3.58329 -2.93017,4.15469 -2.30914,0.5714 -18.33048,1.53277 -27.0095,4.78929 -8.67901,3.25651 -24.74778,11.76199 -33.630968,14.58432 -8.883185,2.82232 -30.984616,8.89795 -33.005961,9.4692 -2.021346,0.57125 -3.551142,-0.28805 -3.93551,-1.81976 l -5.365955,-21.38338 c -1.638591,-6.5298 -1.39899,-8.69222 -2.892834,-18.52632 -1.257111,-8.27567 -4.216026,-8.57541 -4.223812,-15.87649 l -0.02864,-26.85518 c -0.0013,-1.23454 0.118972,-2.28535 1.709735,-2.28535 z"
       id="path5641"
       sodipodi:nodetypes="ssssssszssssssssss" />
  </g>
</svg>
