  0
SECTION
  2
HEADER
  9
$ACADVER
  1
AC1014
  9
$HANDSEED
  5
FFFF
  9
$MEASUREMENT
 70
     1
  0
ENDSEC
  0
SECTION
  2
TABLES
  0
TABLE
  2
VPORT
  5
8
330
0
100
AcDbSymbolTable
 70
     4
  0
VPORT
  5
2E
330
8
100
AcDbSymbolTableRecord
100
AcDbViewportTableRecord
  2
*ACTIVE
 70
     0
 10
0.0
 20
0.0
 11
1.0
 21
1.0
 12
210.0
 22
148.5
 13
0.0
 23
0.0
 14
10.0
 24
10.0
 15
10.0
 25
10.0
 16
0.0
 26
0.0
 36
1.0
 17
0.0
 27
0.0
 37
0.0
 40
341.0
 41
1.24
 42
50.0
 43
0.0
 44
0.0
 50
0.0
 51
0.0
 71
     0
 72
   100
 73
     1
 74
     3
 75
     0
 76
     0
 77
     0
 78
     0
  0
ENDTAB
  0
TABLE
  2
LTYPE
  5
5
330
0
100
AcDbSymbolTable
 70
     1
  0
LTYPE
  5
14
330
5
100
AcDbSymbolTableRecord
100
AcDbLinetypeTableRecord
  2
BYBLOCK
 70
     0
  3

 72
    65
 73
     0
 40
0.0
  0
LTYPE
  5
15
330
5
100
AcDbSymbolTableRecord
100
AcDbLinetypeTableRecord
  2
BYLAYER
 70
     0
  3

 72
    65
 73
     0
 40
0.0
  0
LTYPE
  5
16
330
5
100
AcDbSymbolTableRecord
100
AcDbLinetypeTableRecord
  2
CONTINUOUS
 70
     0
  3
Solid line
 72
    65
 73
     0
 40
0.0
  0
ENDTAB
  0
TABLE
  2
LAYER
  5
2
100
AcDbSymbolTable
 70
2
  0
LAYER
  5
50
100
AcDbSymbolTableRecord
100
AcDbLayerTableRecord
  2
0
 70
0
  6
CONTINUOUS
  0
LAYER
  5
51
100
AcDbSymbolTableRecord
100
AcDbLayerTableRecord
  2
Layer_1
 70
0
  6
CONTINUOUS
  0
ENDTAB
  0
TABLE
  2
STYLE
  5
3
330
0
100
AcDbSymbolTable
 70
     1
  0
STYLE
  5
11
330
3
100
AcDbSymbolTableRecord
100
AcDbTextStyleTableRecord
  2
STANDARD
 70
     0
 40
0.0
 41
1.0
 50
0.0
 71
     0
 42
2.5
  3
txt
  4

  0
ENDTAB
  0
TABLE
  2
VIEW
  5
6
330
0
100
AcDbSymbolTable
 70
     0
  0
ENDTAB
  0
TABLE
  2
UCS
  5
7
330
0
100
AcDbSymbolTable
 70
     0
  0
ENDTAB
  0
TABLE
  2
APPID
  5
9
330
0
100
AcDbSymbolTable
 70
     2
  0
APPID
  5
12
330
9
100
AcDbSymbolTableRecord
100
AcDbRegAppTableRecord
  2
ACAD
 70
     0
  0
ENDTAB
  0
TABLE
  2
DIMSTYLE
  5
A
330
0
100
AcDbSymbolTable
 70
     1
  0
DIMSTYLE
105
27
330
A
100
AcDbSymbolTableRecord
100
AcDbDimStyleTableRecord
  2
ISO-25
 70
     0
  3

  4

  5

  6

  7

 40
1.0
 41
2.5
 42
0.625
 43
3.75
 44
1.25
 45
0.0
 46
0.0
 47
0.0
 48
0.0
140
2.5
141
2.5
142
0.0
143
0.03937007874016
144
1.0
145
0.0
146
1.0
147
0.625
 71
     0
 72
     0
 73
     0
 74
     0
 75
     0
 76
     0
 77
     1
 78
     8
170
     0
171
     3
172
     1
173
     0
174
     0
175
     0
176
     0
177
     0
178
     0
270
     2
271
     2
272
     2
273
     2
274
     3
340
11
275
     0
280
     0
281
     0
282
     0
283
     0
284
     8
285
     0
286
     0
287
     3
288
     0
  0
ENDTAB
  0
TABLE
  2
BLOCK_RECORD
  5
1
330
0
100
AcDbSymbolTable
 70
     1
  0
BLOCK_RECORD
  5
1F
330
1
100
AcDbSymbolTableRecord
100
AcDbBlockTableRecord
  2
*MODEL_SPACE
  0
BLOCK_RECORD
  5
1B
330
1
100
AcDbSymbolTableRecord
100
AcDbBlockTableRecord
  2
*PAPER_SPACE
  0
ENDTAB
  0
ENDSEC
  0
SECTION
  2
BLOCKS
  0
BLOCK
  5
20
330
1F
100
AcDbEntity
  8
0
100
AcDbBlockBegin
  2
*MODEL_SPACE
 70
     0
 10
0.0
 20
0.0
 30
0.0
  3
*MODEL_SPACE
  1

  0
ENDBLK
  5
21
330
1F
100
AcDbEntity
  8
0
100
AcDbBlockEnd
  0
BLOCK
  5
1C
330
1B
100
AcDbEntity
 67
     1
  8
0
100
AcDbBlockBegin
  2
*PAPER_SPACE
  1

  0
ENDBLK
  5
1D
330
1B
100
AcDbEntity
 67
     1
  8
0
100
AcDbBlockEnd
  0
ENDSEC
  0
SECTION
  2
ENTITIES
  0
LWPOLYLINE
  5
100
100
AcDbEntity
  8
Layer_1
 62
4
100
AcDbPolyline
 90
191
 70
1
 10
116.730700
 20
195.944900
 30
0.0
 10
121.436700
 20
195.716900
 30
0.0
 10
125.745000
 20
195.266700
 30
0.0
 10
129.677700
 20
194.626900
 30
0.0
 10
133.256500
 20
193.830100
 30
0.0
 10
136.503400
 20
192.909000
 30
0.0
 10
139.440400
 20
191.896300
 30
0.0
 10
142.089200
 20
190.824500
 30
0.0
 10
144.471900
 20
189.726400
 30
0.0
 10
146.610300
 20
188.634600
 30
0.0
 10
148.526400
 20
187.581700
 30
0.0
 10
151.779100
 20
185.723300
 30
0.0
 10
153.159500
 20
184.983100
 30
0.0
 10
154.405300
 20
184.412400
 30
0.0
 10
155.538200
 20
184.043900
 30
0.0
 10
156.580100
 20
183.910100
 30
0.0
 10
158.289200
 20
183.901100
 30
0.0
 10
159.048800
 20
183.904100
 30
0.0
 10
159.388000
 20
183.902100
 30
0.0
 10
159.700400
 20
183.888000
 30
0.0
 10
159.986400
 20
183.855700
 30
0.0
 10
160.119500
 20
183.830600
 30
0.0
 10
160.246100
 20
183.798600
 30
0.0
 10
160.366300
 20
183.758600
 30
0.0
 10
160.480000
 20
183.710000
 30
0.0
 10
160.587300
 20
183.651900
 30
0.0
 10
160.688200
 20
183.583500
 30
0.0
 10
160.782700
 20
183.503900
 30
0.0
 10
160.870900
 20
183.412300
 30
0.0
 10
160.952900
 20
183.307900
 30
0.0
 10
161.028600
 20
183.189800
 30
0.0
 10
161.098100
 20
183.057300
 30
0.0
 10
161.161400
 20
182.909500
 30
0.0
 10
161.218500
 20
182.745600
 30
0.0
 10
161.269600
 20
182.564700
 30
0.0
 10
161.314500
 20
182.366100
 30
0.0
 10
161.353400
 20
182.148800
 30
0.0
 10
161.386300
 20
181.912200
 30
0.0
 10
161.413200
 20
181.655300
 30
0.0
 10
161.434200
 20
181.377300
 30
0.0
 10
161.449200
 20
181.077400
 30
0.0
 10
161.461700
 20
180.408500
 30
0.0
 10
161.511700
 20
134.220900
 30
0.0
 10
161.504700
 20
133.882300
 30
0.0
 10
161.481300
 20
133.546200
 30
0.0
 10
161.440200
 20
133.214400
 30
0.0
 10
161.379700
 20
132.888500
 30
0.0
 10
161.298300
 20
132.570400
 30
0.0
 10
161.194600
 20
132.261600
 30
0.0
 10
161.066800
 20
131.964000
 30
0.0
 10
160.993500
 20
131.819800
 30
0.0
 10
160.913500
 20
131.679100
 30
0.0
 10
160.826800
 20
131.542000
 30
0.0
 10
160.733200
 20
131.408800
 30
0.0
 10
160.632400
 20
131.279600
 30
0.0
 10
160.524200
 20
131.154700
 30
0.0
 10
160.408500
 20
131.034200
 30
0.0
 10
160.285000
 20
130.918500
 30
0.0
 10
160.153600
 20
130.807700
 30
0.0
 10
160.014100
 20
130.701900
 30
0.0
 10
159.866200
 20
130.601600
 30
0.0
 10
159.709800
 20
130.506700
 30
0.0
 10
159.544700
 20
130.417700
 30
0.0
 10
159.370700
 20
130.334600
 30
0.0
 10
159.187600
 20
130.257700
 30
0.0
 10
158.995200
 20
130.187200
 30
0.0
 10
158.793400
 20
130.123300
 30
0.0
 10
158.581800
 20
130.066200
 30
0.0
 10
157.114200
 20
129.830000
 30
0.0
 10
154.607900
 20
129.534800
 30
0.0
 10
151.309500
 20
129.158400
 30
0.0
 10
147.465700
 20
128.678500
 30
0.0
 10
143.323400
 20
128.072700
 30
0.0
 10
141.217400
 20
127.715700
 30
0.0
 10
139.129300
 20
127.318800
 30
0.0
 10
137.089800
 20
126.879200
 30
0.0
 10
135.130000
 20
126.394300
 30
0.0
 10
133.280500
 20
125.861100
 30
0.0
 10
131.572300
 20
125.277000
 30
0.0
 10
127.999700
 20
123.831100
 30
0.0
 10
123.905200
 20
122.021200
 30
0.0
 10
114.833400
 20
117.822000
 30
0.0
 10
110.197700
 20
115.688800
 30
0.0
 10
105.723300
 20
113.704200
 30
0.0
 10
101.580900
 20
111.996100
 30
0.0
 10
99.687600
 20
111.285700
 30
0.0
 10
97.941300
 20
110.692600
 30
0.0
 10
89.320800
 20
108.102700
 30
0.0
 10
78.865100
 20
105.113900
 30
0.0
 10
64.935400
 20
101.223400
 30
0.0
 10
64.747300
 20
101.174000
 30
0.0
 10
64.562300
 20
101.132900
 30
0.0
 10
64.380300
 20
101.099900
 30
0.0
 10
64.201700
 20
101.074800
 30
0.0
 10
64.026300
 20
101.057500
 30
0.0
 10
63.854500
 20
101.047500
 30
0.0
 10
63.686300
 20
101.045500
 30
0.0
 10
63.521400
 20
101.050500
 30
0.0
 10
63.360700
 20
101.063100
 30
0.0
 10
63.204000
 20
101.083000
 30
0.0
 10
63.051300
 20
101.109800
 30
0.0
 10
62.902900
 20
101.143400
 30
0.0
 10
62.758700
 20
101.183800
 30
0.0
 10
62.619000
 20
101.230700
 30
0.0
 10
62.483900
 20
101.284100
 30
0.0
 10
62.353400
 20
101.343800
 30
0.0
 10
62.227800
 20
101.409600
 30
0.0
 10
62.107000
 20
101.481500
 30
0.0
 10
61.991300
 20
101.559300
 30
0.0
 10
61.880700
 20
101.642800
 30
0.0
 10
61.775400
 20
101.731900
 30
0.0
 10
61.675500
 20
101.826400
 30
0.0
 10
61.581100
 20
101.926300
 30
0.0
 10
61.492400
 20
102.031400
 30
0.0
 10
61.409400
 20
102.141600
 30
0.0
 10
61.332200
 20
102.256600
 30
0.0
 10
61.261100
 20
102.376400
 30
0.0
 10
61.196100
 20
102.500900
 30
0.0
 10
61.137300
 20
102.629800
 30
0.0
 10
61.084900
 20
102.763200
 30
0.0
 10
61.038900
 20
102.900700
 30
0.0
 10
60.999500
 20
103.042300
 30
0.0
 10
55.633600
 20
124.425700
 30
0.0
 10
55.347500
 20
125.601800
 30
0.0
 10
55.100100
 20
126.693100
 30
0.0
 10
54.886200
 20
127.717400
 30
0.0
 10
54.700400
 20
128.692200
 30
0.0
 10
54.392100
 20
130.564100
 30
0.0
 10
54.132900
 20
132.449700
 30
0.0
 10
53.592500
 20
136.826700
 30
0.0
 10
53.226700
 20
139.600300
 30
0.0
 10
52.740800
 20
142.952000
 30
0.0
 10
52.486200
 20
144.413900
 30
0.0
 10
52.198700
 20
145.710700
 30
0.0
 10
51.884800
 20
146.864600
 30
0.0
 10
51.551500
 20
147.897300
 30
0.0
 10
51.205600
 20
148.830800
 30
0.0
 10
50.853900
 20
149.687100
 30
0.0
 10
50.160300
 20
151.255700
 30
0.0
 10
49.832100
 20
152.011900
 30
0.0
 10
49.525300
 20
152.778600
 30
0.0
 10
49.246800
 20
153.577800
 30
0.0
 10
49.003400
 20
154.431400
 30
0.0
 10
48.801900
 20
155.361300
 30
0.0
 10
48.649100
 20
156.389500
 30
0.0
 10
48.593100
 20
156.947300
 30
0.0
 10
48.551800
 20
157.537900
 30
0.0
 10
48.526200
 20
158.164100
 30
0.0
 10
48.516900
 20
158.828500
 30
0.0
 10
48.488300
 20
185.683700
 30
0.0
 10
48.489800
 20
185.912800
 30
0.0
 10
48.496100
 20
186.136300
 30
0.0
 10
48.509300
 20
186.353000
 30
0.0
 10
48.531200
 20
186.561600
 30
0.0
 10
48.563900
 20
186.760800
 30
0.0
 10
48.609300
 20
186.949300
 30
0.0
 10
48.637300
 20
187.039200
 30
0.0
 10
48.669400
 20
187.125900
 30
0.0
 10
48.705500
 20
187.209300
 30
0.0
 10
48.746100
 20
187.289300
 30
0.0
 10
48.791400
 20
187.365600
 30
0.0
 10
48.841600
 20
187.438200
 30
0.0
 10
48.896900
 20
187.506900
 30
0.0
 10
48.957700
 20
187.571400
 30
0.0
 10
49.024000
 20
187.631700
 30
0.0
 10
49.096300
 20
187.687600
 30
0.0
 10
49.174800
 20
187.738900
 30
0.0
 10
49.259600
 20
187.785500
 30
0.0
 10
49.351100
 20
187.827200
 30
0.0
 10
49.449400
 20
187.863900
 30
0.0
 10
49.554900
 20
187.895400
 30
0.0
 10
49.667800
 20
187.921400
 30
0.0
 10
49.788300
 20
187.942000
 30
0.0
 10
49.916700
 20
187.956900
 30
0.0
 10
50.053200
 20
187.965900
 30
0.0
 10
50.198000
 20
187.968900
 30
0.0
 10
50.198000
 20
187.968600
 30
0.0
 10
62.513500
 20
187.968600
 30
0.0
 10
65.118900
 20
188.064800
 30
0.0
 10
67.713500
 20
188.335900
 30
0.0
 10
70.322000
 20
188.756100
 30
0.0
 10
72.969100
 20
189.299200
 30
0.0
 10
78.477800
 20
190.650300
 30
0.0
 10
84.437100
 20
192.181300
 30
0.0
 10
87.647400
 20
192.949300
 30
0.0
 10
91.044500
 20
193.684200
 30
0.0
 10
94.652900
 20
194.360100
 30
0.0
 10
98.497500
 20
194.951000
 30
0.0
 10
102.602900
 20
195.430800
 30
0.0
 10
106.993700
 20
195.773600
 30
0.0
 10
111.694800
 20
195.953400
 30
0.0
  0
LWPOLYLINE
  5
101
100
AcDbEntity
  8
Layer_1
 62
4
100
AcDbPolyline
 90
4
 70
1
 10
52.507014
 20
163.755910
 30
0.0
 10
64.274197
 20
163.755910
 30
0.0
 10
64.274197
 20
157.200770
 30
0.0
 10
52.507014
 20
157.200770
 30
0.0
  0
LWPOLYLINE
  5
102
100
AcDbEntity
  8
Layer_1
 62
5
100
AcDbPolyline
 90
2
 70
0
 10
140.230700
 20
156.444900
 30
0.0
 10
139.230700
 20
156.444900
 30
0.0
  0
LWPOLYLINE
  5
103
100
AcDbEntity
  8
Layer_1
 62
5
100
AcDbPolyline
 90
2
 70
0
 10
139.230700
 20
170.444900
 30
0.0
 10
140.230700
 20
170.444900
 30
0.0
  0
LWPOLYLINE
  5
104
100
AcDbEntity
  8
Layer_1
 62
5
100
AcDbPolyline
 90
2
 70
0
 10
126.230700
 20
156.444900
 30
0.0
 10
126.230700
 20
157.444900
 30
0.0
  0
LWPOLYLINE
  5
105
100
AcDbEntity
  8
Layer_1
 62
5
100
AcDbPolyline
 90
2
 70
0
 10
126.230700
 20
169.444900
 30
0.0
 10
126.230700
 20
170.444900
 30
0.0
  0
LWPOLYLINE
  5
106
100
AcDbEntity
  8
Layer_1
 62
5
100
AcDbPolyline
 90
3
 70
0
 10
127.230700
 20
156.444900
 30
0.0
 10
126.230700
 20
156.444900
 30
0.0
 10
126.230700
 20
157.444900
 30
0.0
  0
LWPOLYLINE
  5
107
100
AcDbEntity
  8
Layer_1
 62
5
100
AcDbPolyline
 90
2
 70
0
 10
139.230700
 20
170.444900
 30
0.0
 10
140.230700
 20
170.444900
 30
0.0
  0
LWPOLYLINE
  5
108
100
AcDbEntity
  8
Layer_1
 62
5
100
AcDbPolyline
 90
2
 70
0
 10
127.230700
 20
156.444900
 30
0.0
 10
126.230700
 20
156.444900
 30
0.0
  0
LWPOLYLINE
  5
109
100
AcDbEntity
  8
Layer_1
 62
5
100
AcDbPolyline
 90
2
 70
0
 10
140.230700
 20
157.444900
 30
0.0
 10
140.230700
 20
156.444900
 30
0.0
  0
LWPOLYLINE
  5
10a
100
AcDbEntity
  8
Layer_1
 62
5
100
AcDbPolyline
 90
2
 70
0
 10
126.230700
 20
170.444900
 30
0.0
 10
127.230700
 20
170.444900
 30
0.0
  0
LWPOLYLINE
  5
10b
100
AcDbEntity
  8
Layer_1
 62
5
100
AcDbPolyline
 90
2
 70
0
 10
126.230700
 20
169.444900
 30
0.0
 10
126.230700
 20
170.444900
 30
0.0
  0
LWPOLYLINE
  5
10c
100
AcDbEntity
  8
Layer_1
 62
5
100
AcDbPolyline
 90
2
 70
0
 10
140.230700
 20
156.444900
 30
0.0
 10
139.230700
 20
156.444900
 30
0.0
  0
LWPOLYLINE
  5
10d
100
AcDbEntity
  8
Layer_1
 62
5
100
AcDbPolyline
 90
2
 70
0
 10
140.230700
 20
170.444900
 30
0.0
 10
140.230700
 20
169.444900
 30
0.0
  0
LWPOLYLINE
  5
10e
100
AcDbEntity
  8
Layer_1
 62
5
100
AcDbPolyline
 90
2
 70
0
 10
126.230700
 20
170.444900
 30
0.0
 10
127.230700
 20
170.444900
 30
0.0
  0
LWPOLYLINE
  5
10f
100
AcDbEntity
  8
Layer_1
 62
5
100
AcDbPolyline
 90
2
 70
0
 10
140.230700
 20
157.444900
 30
0.0
 10
140.230700
 20
156.444900
 30
0.0
  0
LWPOLYLINE
  5
110
100
AcDbEntity
  8
Layer_1
 62
5
100
AcDbPolyline
 90
2
 70
0
 10
140.230700
 20
170.444900
 30
0.0
 10
140.230700
 20
169.444900
 30
0.0
  0
LWPOLYLINE
  5
111
100
AcDbEntity
  8
Layer_1
 62
5
100
AcDbPolyline
 90
2
 70
0
 10
157.230700
 20
147.444900
 30
0.0
 10
158.230700
 20
147.444900
 30
0.0
  0
LWPOLYLINE
  5
112
100
AcDbEntity
  8
Layer_1
 62
5
100
AcDbPolyline
 90
2
 70
0
 10
144.230700
 20
133.444900
 30
0.0
 10
144.230700
 20
134.444900
 30
0.0
  0
LWPOLYLINE
  5
113
100
AcDbEntity
  8
Layer_1
 62
5
100
AcDbPolyline
 90
2
 70
0
 10
158.230700
 20
134.444900
 30
0.0
 10
158.230700
 20
133.444900
 30
0.0
  0
LWPOLYLINE
  5
114
100
AcDbEntity
  8
Layer_1
 62
5
100
AcDbPolyline
 90
2
 70
0
 10
145.230700
 20
133.444900
 30
0.0
 10
144.230700
 20
133.444900
 30
0.0
  0
LWPOLYLINE
  5
115
100
AcDbEntity
  8
Layer_1
 62
5
100
AcDbPolyline
 90
2
 70
0
 10
158.230700
 20
147.444900
 30
0.0
 10
158.230700
 20
146.444900
 30
0.0
  0
LWPOLYLINE
  5
116
100
AcDbEntity
  8
Layer_1
 62
5
100
AcDbPolyline
 90
2
 70
0
 10
144.230700
 20
133.444900
 30
0.0
 10
144.230700
 20
134.444900
 30
0.0
  0
LWPOLYLINE
  5
117
100
AcDbEntity
  8
Layer_1
 62
5
100
AcDbPolyline
 90
2
 70
0
 10
157.230700
 20
147.444900
 30
0.0
 10
158.230700
 20
147.444900
 30
0.0
  0
LWPOLYLINE
  5
118
100
AcDbEntity
  8
Layer_1
 62
5
100
AcDbPolyline
 90
2
 70
0
 10
158.230700
 20
134.444900
 30
0.0
 10
158.230700
 20
133.444900
 30
0.0
  0
LWPOLYLINE
  5
119
100
AcDbEntity
  8
Layer_1
 62
5
100
AcDbPolyline
 90
2
 70
0
 10
145.230700
 20
133.444900
 30
0.0
 10
144.230700
 20
133.444900
 30
0.0
  0
LWPOLYLINE
  5
11a
100
AcDbEntity
  8
Layer_1
 62
5
100
AcDbPolyline
 90
2
 70
0
 10
158.230700
 20
133.444900
 30
0.0
 10
157.230700
 20
133.444900
 30
0.0
  0
LWPOLYLINE
  5
11b
100
AcDbEntity
  8
Layer_1
 62
5
100
AcDbPolyline
 90
2
 70
0
 10
144.230700
 20
146.444900
 30
0.0
 10
144.230700
 20
147.444900
 30
0.0
  0
LWPOLYLINE
  5
11c
100
AcDbEntity
  8
Layer_1
 62
5
100
AcDbPolyline
 90
2
 70
0
 10
158.230700
 20
133.444900
 30
0.0
 10
157.230700
 20
133.444900
 30
0.0
  0
LWPOLYLINE
  5
11d
100
AcDbEntity
  8
Layer_1
 62
5
100
AcDbPolyline
 90
2
 70
0
 10
144.230700
 20
147.444900
 30
0.0
 10
145.230700
 20
147.444900
 30
0.0
  0
LWPOLYLINE
  5
11e
100
AcDbEntity
  8
Layer_1
 62
5
100
AcDbPolyline
 90
2
 70
0
 10
158.230700
 20
147.444900
 30
0.0
 10
158.230700
 20
146.444900
 30
0.0
  0
LWPOLYLINE
  5
11f
100
AcDbEntity
  8
Layer_1
 62
5
100
AcDbPolyline
 90
2
 70
0
 10
144.230700
 20
147.444900
 30
0.0
 10
145.230700
 20
147.444900
 30
0.0
  0
LWPOLYLINE
  5
120
100
AcDbEntity
  8
Layer_1
 62
5
100
AcDbPolyline
 90
2
 70
0
 10
144.230700
 20
146.444900
 30
0.0
 10
144.230700
 20
147.444900
 30
0.0
  0
LWPOLYLINE
  5
121
100
AcDbEntity
  8
Layer_1
 62
5
100
AcDbPolyline
 90
2
 70
0
 10
140.230700
 20
153.444900
 30
0.0
 10
140.230700
 20
152.444900
 30
0.0
  0
LWPOLYLINE
  5
122
100
AcDbEntity
  8
Layer_1
 62
5
100
AcDbPolyline
 90
2
 70
0
 10
140.230700
 20
140.444900
 30
0.0
 10
140.230700
 20
139.444900
 30
0.0
  0
LWPOLYLINE
  5
123
100
AcDbEntity
  8
Layer_1
 62
5
100
AcDbPolyline
 90
2
 70
0
 10
140.230700
 20
140.444900
 30
0.0
 10
140.230700
 20
139.444900
 30
0.0
  0
LWPOLYLINE
  5
124
100
AcDbEntity
  8
Layer_1
 62
5
100
AcDbPolyline
 90
2
 70
0
 10
126.230700
 20
152.444900
 30
0.0
 10
126.230700
 20
153.444900
 30
0.0
  0
LWPOLYLINE
  5
125
100
AcDbEntity
  8
Layer_1
 62
5
100
AcDbPolyline
 90
2
 70
0
 10
140.230700
 20
153.444900
 30
0.0
 10
140.230700
 20
152.444900
 30
0.0
  0
LWPOLYLINE
  5
126
100
AcDbEntity
  8
Layer_1
 62
5
100
AcDbPolyline
 90
2
 70
0
 10
140.230700
 20
139.444900
 30
0.0
 10
139.230700
 20
139.444900
 30
0.0
  0
LWPOLYLINE
  5
127
100
AcDbEntity
  8
Layer_1
 62
5
100
AcDbPolyline
 90
2
 70
0
 10
127.230700
 20
139.444900
 30
0.0
 10
126.230700
 20
139.444900
 30
0.0
  0
LWPOLYLINE
  5
128
100
AcDbEntity
  8
Layer_1
 62
5
100
AcDbPolyline
 90
2
 70
0
 10
126.230700
 20
153.444900
 30
0.0
 10
127.230700
 20
153.444900
 30
0.0
  0
LWPOLYLINE
  5
129
100
AcDbEntity
  8
Layer_1
 62
5
100
AcDbPolyline
 90
2
 70
0
 10
126.230700
 20
152.444900
 30
0.0
 10
126.230700
 20
153.444900
 30
0.0
  0
LWPOLYLINE
  5
12a
100
AcDbEntity
  8
Layer_1
 62
5
100
AcDbPolyline
 90
3
 70
0
 10
127.230700
 20
139.444900
 30
0.0
 10
126.230700
 20
139.444900
 30
0.0
 10
126.230700
 20
140.444900
 30
0.0
  0
LWPOLYLINE
  5
12b
100
AcDbEntity
  8
Layer_1
 62
5
100
AcDbPolyline
 90
2
 70
0
 10
139.230700
 20
153.444900
 30
0.0
 10
140.230700
 20
153.444900
 30
0.0
  0
LWPOLYLINE
  5
12c
100
AcDbEntity
  8
Layer_1
 62
5
100
AcDbPolyline
 90
2
 70
0
 10
140.230700
 20
139.444900
 30
0.0
 10
139.230700
 20
139.444900
 30
0.0
  0
LWPOLYLINE
  5
12d
100
AcDbEntity
  8
Layer_1
 62
5
100
AcDbPolyline
 90
2
 70
0
 10
126.230700
 20
139.444900
 30
0.0
 10
126.230700
 20
140.444900
 30
0.0
  0
LWPOLYLINE
  5
12e
100
AcDbEntity
  8
Layer_1
 62
5
100
AcDbPolyline
 90
2
 70
0
 10
126.230700
 20
153.444900
 30
0.0
 10
127.230700
 20
153.444900
 30
0.0
  0
LWPOLYLINE
  5
12f
100
AcDbEntity
  8
Layer_1
 62
5
100
AcDbPolyline
 90
2
 70
0
 10
139.230700
 20
153.444900
 30
0.0
 10
140.230700
 20
153.444900
 30
0.0
  0
LWPOLYLINE
  5
130
100
AcDbEntity
  8
Layer_1
 62
5
100
AcDbPolyline
 90
2
 70
0
 10
86.230700
 20
155.444900
 30
0.0
 10
86.230700
 20
154.444900
 30
0.0
  0
LWPOLYLINE
  5
131
100
AcDbEntity
  8
Layer_1
 62
5
100
AcDbPolyline
 90
2
 70
0
 10
73.230700
 20
154.444900
 30
0.0
 10
72.230700
 20
154.444900
 30
0.0
  0
LWPOLYLINE
  5
132
100
AcDbEntity
  8
Layer_1
 62
5
100
AcDbPolyline
 90
2
 70
0
 10
86.230700
 20
168.444900
 30
0.0
 10
86.230700
 20
167.444900
 30
0.0
  0
LWPOLYLINE
  5
133
100
AcDbEntity
  8
Layer_1
 62
5
100
AcDbPolyline
 90
2
 70
0
 10
72.230700
 20
168.444900
 30
0.0
 10
73.230700
 20
168.444900
 30
0.0
  0
LWPOLYLINE
  5
134
100
AcDbEntity
  8
Layer_1
 62
5
100
AcDbPolyline
 90
2
 70
0
 10
72.230700
 20
154.444900
 30
0.0
 10
72.230700
 20
155.444900
 30
0.0
  0
LWPOLYLINE
  5
135
100
AcDbEntity
  8
Layer_1
 62
5
100
AcDbPolyline
 90
2
 70
0
 10
85.230700
 20
168.444900
 30
0.0
 10
86.230700
 20
168.444900
 30
0.0
  0
LWPOLYLINE
  5
136
100
AcDbEntity
  8
Layer_1
 62
5
100
AcDbPolyline
 90
2
 70
0
 10
73.230700
 20
154.444900
 30
0.0
 10
72.230700
 20
154.444900
 30
0.0
  0
LWPOLYLINE
  5
137
100
AcDbEntity
  8
Layer_1
 62
5
100
AcDbPolyline
 90
2
 70
0
 10
72.230700
 20
167.444900
 30
0.0
 10
72.230700
 20
168.444900
 30
0.0
  0
LWPOLYLINE
  5
138
100
AcDbEntity
  8
Layer_1
 62
5
100
AcDbPolyline
 90
2
 70
0
 10
86.230700
 20
154.444900
 30
0.0
 10
85.230700
 20
154.444900
 30
0.0
  0
LWPOLYLINE
  5
139
100
AcDbEntity
  8
Layer_1
 62
5
100
AcDbPolyline
 90
2
 70
0
 10
72.230700
 20
167.444900
 30
0.0
 10
72.230700
 20
168.444900
 30
0.0
  0
LWPOLYLINE
  5
13a
100
AcDbEntity
  8
Layer_1
 62
5
100
AcDbPolyline
 90
2
 70
0
 10
86.230700
 20
154.444900
 30
0.0
 10
85.230700
 20
154.444900
 30
0.0
  0
LWPOLYLINE
  5
13b
100
AcDbEntity
  8
Layer_1
 62
5
100
AcDbPolyline
 90
2
 70
0
 10
86.230700
 20
168.444900
 30
0.0
 10
86.230700
 20
167.444900
 30
0.0
  0
LWPOLYLINE
  5
13c
100
AcDbEntity
  8
Layer_1
 62
5
100
AcDbPolyline
 90
2
 70
0
 10
72.230700
 20
168.444900
 30
0.0
 10
73.230700
 20
168.444900
 30
0.0
  0
LWPOLYLINE
  5
13d
100
AcDbEntity
  8
Layer_1
 62
5
100
AcDbPolyline
 90
2
 70
0
 10
72.230700
 20
154.444900
 30
0.0
 10
72.230700
 20
155.444900
 30
0.0
  0
LWPOLYLINE
  5
13e
100
AcDbEntity
  8
Layer_1
 62
5
100
AcDbPolyline
 90
2
 70
0
 10
86.230700
 20
155.444900
 30
0.0
 10
86.230700
 20
154.444900
 30
0.0
  0
LWPOLYLINE
  5
13f
100
AcDbEntity
  8
Layer_1
 62
5
100
AcDbPolyline
 90
2
 70
0
 10
85.230700
 20
168.444900
 30
0.0
 10
86.230700
 20
168.444900
 30
0.0
  0
LWPOLYLINE
  5
140
100
AcDbEntity
  8
Layer_1
 62
5
100
AcDbPolyline
 90
2
 70
0
 10
126.230700
 20
187.444900
 30
0.0
 10
127.230700
 20
187.444900
 30
0.0
  0
LWPOLYLINE
  5
141
100
AcDbEntity
  8
Layer_1
 62
5
100
AcDbPolyline
 90
2
 70
0
 10
139.230700
 20
187.444900
 30
0.0
 10
140.230700
 20
187.444900
 30
0.0
  0
LWPOLYLINE
  5
142
100
AcDbEntity
  8
Layer_1
 62
5
100
AcDbPolyline
 90
2
 70
0
 10
140.230700
 20
173.444900
 30
0.0
 10
139.230700
 20
173.444900
 30
0.0
  0
LWPOLYLINE
  5
143
100
AcDbEntity
  8
Layer_1
 62
5
100
AcDbPolyline
 90
2
 70
0
 10
140.230700
 20
187.444900
 30
0.0
 10
140.230700
 20
186.444900
 30
0.0
  0
LWPOLYLINE
  5
144
100
AcDbEntity
  8
Layer_1
 62
5
100
AcDbPolyline
 90
2
 70
0
 10
139.230700
 20
187.444900
 30
0.0
 10
140.230700
 20
187.444900
 30
0.0
  0
LWPOLYLINE
  5
145
100
AcDbEntity
  8
Layer_1
 62
5
100
AcDbPolyline
 90
2
 70
0
 10
126.230700
 20
187.444900
 30
0.0
 10
127.230700
 20
187.444900
 30
0.0
  0
LWPOLYLINE
  5
146
100
AcDbEntity
  8
Layer_1
 62
5
100
AcDbPolyline
 90
2
 70
0
 10
140.230700
 20
174.444900
 30
0.0
 10
140.230700
 20
173.444900
 30
0.0
  0
LWPOLYLINE
  5
147
100
AcDbEntity
  8
Layer_1
 62
5
100
AcDbPolyline
 90
2
 70
0
 10
126.230700
 20
173.444900
 30
0.0
 10
126.230700
 20
174.444900
 30
0.0
  0
LWPOLYLINE
  5
148
100
AcDbEntity
  8
Layer_1
 62
5
100
AcDbPolyline
 90
2
 70
0
 10
127.230700
 20
173.444900
 30
0.0
 10
126.230700
 20
173.444900
 30
0.0
  0
LWPOLYLINE
  5
149
100
AcDbEntity
  8
Layer_1
 62
5
100
AcDbPolyline
 90
2
 70
0
 10
140.230700
 20
174.444900
 30
0.0
 10
140.230700
 20
173.444900
 30
0.0
  0
LWPOLYLINE
  5
14a
100
AcDbEntity
  8
Layer_1
 62
5
100
AcDbPolyline
 90
2
 70
0
 10
126.230700
 20
186.444900
 30
0.0
 10
126.230700
 20
187.444900
 30
0.0
  0
LWPOLYLINE
  5
14b
100
AcDbEntity
  8
Layer_1
 62
5
100
AcDbPolyline
 90
2
 70
0
 10
140.230700
 20
173.444900
 30
0.0
 10
139.230700
 20
173.444900
 30
0.0
  0
LWPOLYLINE
  5
14c
100
AcDbEntity
  8
Layer_1
 62
5
100
AcDbPolyline
 90
2
 70
0
 10
126.230700
 20
173.444900
 30
0.0
 10
126.230700
 20
174.444900
 30
0.0
  0
LWPOLYLINE
  5
14d
100
AcDbEntity
  8
Layer_1
 62
5
100
AcDbPolyline
 90
2
 70
0
 10
140.230700
 20
187.444900
 30
0.0
 10
140.230700
 20
186.444900
 30
0.0
  0
LWPOLYLINE
  5
14e
100
AcDbEntity
  8
Layer_1
 62
5
100
AcDbPolyline
 90
2
 70
0
 10
126.230700
 20
186.444900
 30
0.0
 10
126.230700
 20
187.444900
 30
0.0
  0
LWPOLYLINE
  5
14f
100
AcDbEntity
  8
Layer_1
 62
5
100
AcDbPolyline
 90
2
 70
0
 10
127.230700
 20
173.444900
 30
0.0
 10
126.230700
 20
173.444900
 30
0.0
  0
LWPOLYLINE
  5
150
100
AcDbEntity
  8
Layer_1
 62
5
100
AcDbPolyline
 90
2
 70
0
 10
108.230700
 20
145.444900
 30
0.0
 10
108.230700
 20
146.444900
 30
0.0
  0
LWPOLYLINE
  5
151
100
AcDbEntity
  8
Layer_1
 62
5
100
AcDbPolyline
 90
2
 70
0
 10
108.230700
 20
145.444900
 30
0.0
 10
108.230700
 20
146.444900
 30
0.0
  0
LWPOLYLINE
  5
152
100
AcDbEntity
  8
Layer_1
 62
5
100
AcDbPolyline
 90
2
 70
0
 10
122.230700
 20
145.444900
 30
0.0
 10
121.230700
 20
145.444900
 30
0.0
  0
LWPOLYLINE
  5
153
100
AcDbEntity
  8
Layer_1
 62
5
100
AcDbPolyline
 90
2
 70
0
 10
108.230700
 20
159.444900
 30
0.0
 10
109.230700
 20
159.444900
 30
0.0
  0
LWPOLYLINE
  5
154
100
AcDbEntity
  8
Layer_1
 62
5
100
AcDbPolyline
 90
2
 70
0
 10
121.230700
 20
159.444900
 30
0.0
 10
122.230700
 20
159.444900
 30
0.0
  0
LWPOLYLINE
  5
155
100
AcDbEntity
  8
Layer_1
 62
5
100
AcDbPolyline
 90
2
 70
0
 10
122.230700
 20
145.444900
 30
0.0
 10
121.230700
 20
145.444900
 30
0.0
  0
LWPOLYLINE
  5
156
100
AcDbEntity
  8
Layer_1
 62
5
100
AcDbPolyline
 90
2
 70
0
 10
121.230700
 20
159.444900
 30
0.0
 10
122.230700
 20
159.444900
 30
0.0
  0
LWPOLYLINE
  5
157
100
AcDbEntity
  8
Layer_1
 62
5
100
AcDbPolyline
 90
2
 70
0
 10
109.230700
 20
145.444900
 30
0.0
 10
108.230700
 20
145.444900
 30
0.0
  0
LWPOLYLINE
  5
158
100
AcDbEntity
  8
Layer_1
 62
5
100
AcDbPolyline
 90
2
 70
0
 10
122.230700
 20
159.444900
 30
0.0
 10
122.230700
 20
158.444900
 30
0.0
  0
LWPOLYLINE
  5
159
100
AcDbEntity
  8
Layer_1
 62
5
100
AcDbPolyline
 90
2
 70
0
 10
122.230700
 20
146.444900
 30
0.0
 10
122.230700
 20
145.444900
 30
0.0
  0
LWPOLYLINE
  5
15a
100
AcDbEntity
  8
Layer_1
 62
5
100
AcDbPolyline
 90
2
 70
0
 10
122.230700
 20
146.444900
 30
0.0
 10
122.230700
 20
145.444900
 30
0.0
  0
LWPOLYLINE
  5
15b
100
AcDbEntity
  8
Layer_1
 62
5
100
AcDbPolyline
 90
3
 70
0
 10
108.230700
 20
158.444900
 30
0.0
 10
108.230700
 20
159.444900
 30
0.0
 10
109.230700
 20
159.444900
 30
0.0
  0
LWPOLYLINE
  5
15c
100
AcDbEntity
  8
Layer_1
 62
5
100
AcDbPolyline
 90
2
 70
0
 10
109.230700
 20
145.444900
 30
0.0
 10
108.230700
 20
145.444900
 30
0.0
  0
LWPOLYLINE
  5
15d
100
AcDbEntity
  8
Layer_1
 62
5
100
AcDbPolyline
 90
2
 70
0
 10
122.230700
 20
159.444900
 30
0.0
 10
122.230700
 20
158.444900
 30
0.0
  0
LWPOLYLINE
  5
15e
100
AcDbEntity
  8
Layer_1
 62
5
100
AcDbPolyline
 90
2
 70
0
 10
108.230700
 20
158.444900
 30
0.0
 10
108.230700
 20
159.444900
 30
0.0
  0
LWPOLYLINE
  5
15f
100
AcDbEntity
  8
Layer_1
 62
5
100
AcDbPolyline
 90
3
 70
0
 10
63.360200
 20
107.971800
 30
0.0
 10
62.394300
 20
107.713000
 30
0.0
 10
62.135400
 20
108.678900
 30
0.0
  0
LWPOLYLINE
  5
160
100
AcDbEntity
  8
Layer_1
 62
5
100
AcDbPolyline
 90
2
 70
0
 10
71.327800
 20
124.600600
 30
0.0
 10
72.293800
 20
124.859400
 30
0.0
  0
LWPOLYLINE
  5
161
100
AcDbEntity
  8
Layer_1
 62
5
100
AcDbPolyline
 90
2
 70
0
 10
62.394300
 20
107.713000
 30
0.0
 10
62.135400
 20
108.678900
 30
0.0
  0
LWPOLYLINE
  5
162
100
AcDbEntity
  8
Layer_1
 62
5
100
AcDbPolyline
 90
2
 70
0
 10
72.293800
 20
124.859400
 30
0.0
 10
72.552600
 20
123.893500
 30
0.0
  0
LWPOLYLINE
  5
163
100
AcDbEntity
  8
Layer_1
 62
5
100
AcDbPolyline
 90
3
 70
0
 10
75.658400
 20
112.302400
 30
0.0
 10
75.917200
 20
111.336400
 30
0.0
 10
74.951300
 20
111.077600
 30
0.0
  0
LWPOLYLINE
  5
164
100
AcDbEntity
  8
Layer_1
 62
5
100
AcDbPolyline
 90
2
 70
0
 10
71.327800
 20
124.600600
 30
0.0
 10
72.293800
 20
124.859400
 30
0.0
  0
LWPOLYLINE
  5
165
100
AcDbEntity
  8
Layer_1
 62
5
100
AcDbPolyline
 90
2
 70
0
 10
58.770800
 20
121.235900
 30
0.0
 10
59.736700
 20
121.494800
 30
0.0
  0
LWPOLYLINE
  5
166
100
AcDbEntity
  8
Layer_1
 62
5
100
AcDbPolyline
 90
2
 70
0
 10
59.029600
 20
120.270000
 30
0.0
 10
58.770800
 20
121.235900
 30
0.0
  0
LWPOLYLINE
  5
167
100
AcDbEntity
  8
Layer_1
 62
5
100
AcDbPolyline
 90
2
 70
0
 10
75.658400
 20
112.302400
 30
0.0
 10
75.917200
 20
111.336400
 30
0.0
  0
LWPOLYLINE
  5
168
100
AcDbEntity
  8
Layer_1
 62
5
100
AcDbPolyline
 90
2
 70
0
 10
72.293800
 20
124.859400
 30
0.0
 10
72.552600
 20
123.893500
 30
0.0
  0
LWPOLYLINE
  5
169
100
AcDbEntity
  8
Layer_1
 62
5
100
AcDbPolyline
 90
3
 70
0
 10
59.029600
 20
120.270000
 30
0.0
 10
58.770800
 20
121.235900
 30
0.0
 10
59.736700
 20
121.494800
 30
0.0
  0
LWPOLYLINE
  5
16a
100
AcDbEntity
  8
Layer_1
 62
5
100
AcDbPolyline
 90
2
 70
0
 10
63.360200
 20
107.971800
 30
0.0
 10
62.394300
 20
107.713000
 30
0.0
  0
LWPOLYLINE
  5
16b
100
AcDbEntity
  8
Layer_1
 62
5
100
AcDbPolyline
 90
2
 70
0
 10
75.917200
 20
111.336400
 30
0.0
 10
74.951300
 20
111.077600
 30
0.0
  0
LWPOLYLINE
  5
16c
100
AcDbEntity
  8
Layer_1
 62
5
100
AcDbPolyline
 90
2
 70
0
 10
76.157500
 20
125.894700
 30
0.0
 10
77.123400
 20
126.153500
 30
0.0
  0
LWPOLYLINE
  5
16d
100
AcDbEntity
  8
Layer_1
 62
5
100
AcDbPolyline
 90
2
 70
0
 10
93.045100
 20
116.961100
 30
0.0
 10
93.303900
 20
115.995200
 30
0.0
  0
LWPOLYLINE
  5
16e
100
AcDbEntity
  8
Layer_1
 62
5
100
AcDbPolyline
 90
2
 70
0
 10
89.680400
 20
129.518100
 30
0.0
 10
89.939200
 20
128.552200
 30
0.0
  0
LWPOLYLINE
  5
16f
100
AcDbEntity
  8
Layer_1
 62
5
100
AcDbPolyline
 90
2
 70
0
 10
88.714500
 20
129.259300
 30
0.0
 10
89.680400
 20
129.518100
 30
0.0
  0
LWPOLYLINE
  5
170
100
AcDbEntity
  8
Layer_1
 62
5
100
AcDbPolyline
 90
2
 70
0
 10
79.780900
 20
112.371700
 30
0.0
 10
79.522100
 20
113.337600
 30
0.0
  0
LWPOLYLINE
  5
171
100
AcDbEntity
  8
Layer_1
 62
5
100
AcDbPolyline
 90
2
 70
0
 10
93.303900
 20
115.995200
 30
0.0
 10
92.338000
 20
115.736400
 30
0.0
  0
LWPOLYLINE
  5
172
100
AcDbEntity
  8
Layer_1
 62
5
100
AcDbPolyline
 90
2
 70
0
 10
80.746900
 20
112.630500
 30
0.0
 10
79.780900
 20
112.371700
 30
0.0
  0
LWPOLYLINE
  5
173
100
AcDbEntity
  8
Layer_1
 62
5
100
AcDbPolyline
 90
2
 70
0
 10
89.680400
 20
129.518100
 30
0.0
 10
89.939200
 20
128.552200
 30
0.0
  0
LWPOLYLINE
  5
174
100
AcDbEntity
  8
Layer_1
 62
5
100
AcDbPolyline
 90
2
 70
0
 10
93.303900
 20
115.995200
 30
0.0
 10
92.338000
 20
115.736400
 30
0.0
  0
LWPOLYLINE
  5
175
100
AcDbEntity
  8
Layer_1
 62
5
100
AcDbPolyline
 90
2
 70
0
 10
80.746900
 20
112.630500
 30
0.0
 10
79.780900
 20
112.371700
 30
0.0
  0
LWPOLYLINE
  5
176
100
AcDbEntity
  8
Layer_1
 62
5
100
AcDbPolyline
 90
2
 70
0
 10
88.714500
 20
129.259300
 30
0.0
 10
89.680400
 20
129.518100
 30
0.0
  0
LWPOLYLINE
  5
177
100
AcDbEntity
  8
Layer_1
 62
5
100
AcDbPolyline
 90
2
 70
0
 10
79.780900
 20
112.371700
 30
0.0
 10
79.522100
 20
113.337600
 30
0.0
  0
LWPOLYLINE
  5
178
100
AcDbEntity
  8
Layer_1
 62
5
100
AcDbPolyline
 90
3
 70
0
 10
76.416300
 20
124.928800
 30
0.0
 10
76.157500
 20
125.894700
 30
0.0
 10
77.123400
 20
126.153500
 30
0.0
  0
LWPOLYLINE
  5
179
100
AcDbEntity
  8
Layer_1
 62
5
100
AcDbPolyline
 90
2
 70
0
 10
76.416300
 20
124.928800
 30
0.0
 10
76.157500
 20
125.894700
 30
0.0
  0
LWPOLYLINE
  5
17a
100
AcDbEntity
  8
Layer_1
 62
5
100
AcDbPolyline
 90
2
 70
0
 10
93.045100
 20
116.961100
 30
0.0
 10
93.303900
 20
115.995200
 30
0.0
  0
LWPOLYLINE
  5
17b
100
AcDbEntity
  8
Layer_1
 62
5
100
AcDbPolyline
 90
2
 70
0
 10
121.230700
 20
176.444900
 30
0.0
 10
122.230700
 20
176.444900
 30
0.0
  0
LWPOLYLINE
  5
17c
100
AcDbEntity
  8
Layer_1
 62
5
100
AcDbPolyline
 90
2
 70
0
 10
108.230700
 20
176.444900
 30
0.0
 10
109.230700
 20
176.444900
 30
0.0
  0
LWPOLYLINE
  5
17d
100
AcDbEntity
  8
Layer_1
 62
5
100
AcDbPolyline
 90
2
 70
0
 10
122.230700
 20
162.444900
 30
0.0
 10
121.230700
 20
162.444900
 30
0.0
  0
LWPOLYLINE
  5
17e
100
AcDbEntity
  8
Layer_1
 62
5
100
AcDbPolyline
 90
2
 70
0
 10
121.230700
 20
176.444900
 30
0.0
 10
122.230700
 20
176.444900
 30
0.0
  0
LWPOLYLINE
  5
17f
100
AcDbEntity
  8
Layer_1
 62
5
100
AcDbPolyline
 90
2
 70
0
 10
122.230700
 20
163.444900
 30
0.0
 10
122.230700
 20
162.444900
 30
0.0
  0
LWPOLYLINE
  5
180
100
AcDbEntity
  8
Layer_1
 62
5
100
AcDbPolyline
 90
2
 70
0
 10
108.230700
 20
175.444900
 30
0.0
 10
108.230700
 20
176.444900
 30
0.0
  0
LWPOLYLINE
  5
181
100
AcDbEntity
  8
Layer_1
 62
5
100
AcDbPolyline
 90
2
 70
0
 10
109.230700
 20
162.444900
 30
0.0
 10
108.230700
 20
162.444900
 30
0.0
  0
LWPOLYLINE
  5
182
100
AcDbEntity
  8
Layer_1
 62
5
100
AcDbPolyline
 90
2
 70
0
 10
108.230700
 20
176.444900
 30
0.0
 10
109.230700
 20
176.444900
 30
0.0
  0
LWPOLYLINE
  5
183
100
AcDbEntity
  8
Layer_1
 62
5
100
AcDbPolyline
 90
2
 70
0
 10
122.230700
 20
162.444900
 30
0.0
 10
121.230700
 20
162.444900
 30
0.0
  0
LWPOLYLINE
  5
184
100
AcDbEntity
  8
Layer_1
 62
5
100
AcDbPolyline
 90
2
 70
0
 10
122.230700
 20
176.444900
 30
0.0
 10
122.230700
 20
175.444900
 30
0.0
  0
LWPOLYLINE
  5
185
100
AcDbEntity
  8
Layer_1
 62
5
100
AcDbPolyline
 90
2
 70
0
 10
109.230700
 20
162.444900
 30
0.0
 10
108.230700
 20
162.444900
 30
0.0
  0
LWPOLYLINE
  5
186
100
AcDbEntity
  8
Layer_1
 62
5
100
AcDbPolyline
 90
2
 70
0
 10
122.230700
 20
176.444900
 30
0.0
 10
122.230700
 20
175.444900
 30
0.0
  0
LWPOLYLINE
  5
187
100
AcDbEntity
  8
Layer_1
 62
5
100
AcDbPolyline
 90
2
 70
0
 10
108.230700
 20
162.444900
 30
0.0
 10
108.230700
 20
163.444900
 30
0.0
  0
LWPOLYLINE
  5
188
100
AcDbEntity
  8
Layer_1
 62
5
100
AcDbPolyline
 90
2
 70
0
 10
108.230700
 20
175.444900
 30
0.0
 10
108.230700
 20
176.444900
 30
0.0
  0
LWPOLYLINE
  5
189
100
AcDbEntity
  8
Layer_1
 62
5
100
AcDbPolyline
 90
2
 70
0
 10
108.230700
 20
162.444900
 30
0.0
 10
108.230700
 20
163.444900
 30
0.0
  0
LWPOLYLINE
  5
18a
100
AcDbEntity
  8
Layer_1
 62
5
100
AcDbPolyline
 90
2
 70
0
 10
122.230700
 20
163.444900
 30
0.0
 10
122.230700
 20
162.444900
 30
0.0
  0
LWPOLYLINE
  5
18b
100
AcDbEntity
  8
Layer_1
 62
5
100
AcDbPolyline
 90
2
 70
0
 10
108.230700
 20
179.444900
 30
0.0
 10
108.230700
 20
180.444900
 30
0.0
  0
LWPOLYLINE
  5
18c
100
AcDbEntity
  8
Layer_1
 62
5
100
AcDbPolyline
 90
2
 70
0
 10
108.230700
 20
179.444900
 30
0.0
 10
108.230700
 20
180.444900
 30
0.0
  0
LWPOLYLINE
  5
18d
100
AcDbEntity
  8
Layer_1
 62
5
100
AcDbPolyline
 90
2
 70
0
 10
122.230700
 20
180.444900
 30
0.0
 10
122.230700
 20
179.444900
 30
0.0
  0
LWPOLYLINE
  5
18e
100
AcDbEntity
  8
Layer_1
 62
5
100
AcDbPolyline
 90
2
 70
0
 10
108.230700
 20
193.444900
 30
0.0
 10
109.230700
 20
193.444900
 30
0.0
  0
LWPOLYLINE
  5
18f
100
AcDbEntity
  8
Layer_1
 62
5
100
AcDbPolyline
 90
2
 70
0
 10
109.230700
 20
179.444900
 30
0.0
 10
108.230700
 20
179.444900
 30
0.0
  0
LWPOLYLINE
  5
190
100
AcDbEntity
  8
Layer_1
 62
5
100
AcDbPolyline
 90
2
 70
0
 10
109.230700
 20
179.444900
 30
0.0
 10
108.230700
 20
179.444900
 30
0.0
  0
LWPOLYLINE
  5
191
100
AcDbEntity
  8
Layer_1
 62
5
100
AcDbPolyline
 90
2
 70
0
 10
121.230700
 20
193.444900
 30
0.0
 10
122.230700
 20
193.444900
 30
0.0
  0
LWPOLYLINE
  5
192
100
AcDbEntity
  8
Layer_1
 62
5
100
AcDbPolyline
 90
2
 70
0
 10
122.230700
 20
179.444900
 30
0.0
 10
121.230700
 20
179.444900
 30
0.0
  0
LWPOLYLINE
  5
193
100
AcDbEntity
  8
Layer_1
 62
5
100
AcDbPolyline
 90
2
 70
0
 10
108.230700
 20
192.444900
 30
0.0
 10
108.230700
 20
193.444900
 30
0.0
  0
LWPOLYLINE
  5
194
100
AcDbEntity
  8
Layer_1
 62
5
100
AcDbPolyline
 90
2
 70
0
 10
122.230700
 20
180.444900
 30
0.0
 10
122.230700
 20
179.444900
 30
0.0
  0
LWPOLYLINE
  5
195
100
AcDbEntity
  8
Layer_1
 62
5
100
AcDbPolyline
 90
2
 70
0
 10
122.230700
 20
193.444900
 30
0.0
 10
122.230700
 20
192.444900
 30
0.0
  0
LWPOLYLINE
  5
196
100
AcDbEntity
  8
Layer_1
 62
5
100
AcDbPolyline
 90
2
 70
0
 10
121.230700
 20
193.444900
 30
0.0
 10
122.230700
 20
193.444900
 30
0.0
  0
LWPOLYLINE
  5
197
100
AcDbEntity
  8
Layer_1
 62
5
100
AcDbPolyline
 90
2
 70
0
 10
122.230700
 20
179.444900
 30
0.0
 10
121.230700
 20
179.444900
 30
0.0
  0
LWPOLYLINE
  5
198
100
AcDbEntity
  8
Layer_1
 62
5
100
AcDbPolyline
 90
2
 70
0
 10
122.230700
 20
193.444900
 30
0.0
 10
122.230700
 20
192.444900
 30
0.0
  0
LWPOLYLINE
  5
199
100
AcDbEntity
  8
Layer_1
 62
5
100
AcDbPolyline
 90
2
 70
0
 10
108.230700
 20
193.444900
 30
0.0
 10
109.230700
 20
193.444900
 30
0.0
  0
LWPOLYLINE
  5
19a
100
AcDbEntity
  8
Layer_1
 62
5
100
AcDbPolyline
 90
2
 70
0
 10
108.230700
 20
192.444900
 30
0.0
 10
108.230700
 20
193.444900
 30
0.0
  0
LWPOLYLINE
  5
19b
100
AcDbEntity
  8
Layer_1
 62
5
100
AcDbPolyline
 90
2
 70
0
 10
86.230700
 20
185.444900
 30
0.0
 10
86.230700
 20
184.444900
 30
0.0
  0
LWPOLYLINE
  5
19c
100
AcDbEntity
  8
Layer_1
 62
5
100
AcDbPolyline
 90
3
 70
0
 10
86.230700
 20
172.444900
 30
0.0
 10
86.230700
 20
171.444900
 30
0.0
 10
85.230700
 20
171.444900
 30
0.0
  0
LWPOLYLINE
  5
19d
100
AcDbEntity
  8
Layer_1
 62
5
100
AcDbPolyline
 90
2
 70
0
 10
72.230700
 20
171.444900
 30
0.0
 10
72.230700
 20
172.444900
 30
0.0
  0
LWPOLYLINE
  5
19e
100
AcDbEntity
  8
Layer_1
 62
5
100
AcDbPolyline
 90
3
 70
0
 10
72.230700
 20
184.444900
 30
0.0
 10
72.230700
 20
185.444900
 30
0.0
 10
73.230700
 20
185.444900
 30
0.0
  0
LWPOLYLINE
  5
19f
100
AcDbEntity
  8
Layer_1
 62
5
100
AcDbPolyline
 90
2
 70
0
 10
85.230700
 20
185.444900
 30
0.0
 10
86.230700
 20
185.444900
 30
0.0
  0
LWPOLYLINE
  5
1a0
100
AcDbEntity
  8
Layer_1
 62
5
100
AcDbPolyline
 90
2
 70
0
 10
73.230700
 20
171.444900
 30
0.0
 10
72.230700
 20
171.444900
 30
0.0
  0
LWPOLYLINE
  5
1a1
100
AcDbEntity
  8
Layer_1
 62
5
100
AcDbPolyline
 90
2
 70
0
 10
85.230700
 20
185.444900
 30
0.0
 10
86.230700
 20
185.444900
 30
0.0
  0
LWPOLYLINE
  5
1a2
100
AcDbEntity
  8
Layer_1
 62
5
100
AcDbPolyline
 90
2
 70
0
 10
72.230700
 20
184.444900
 30
0.0
 10
72.230700
 20
185.444900
 30
0.0
  0
LWPOLYLINE
  5
1a3
100
AcDbEntity
  8
Layer_1
 62
5
100
AcDbPolyline
 90
2
 70
0
 10
86.230700
 20
185.444900
 30
0.0
 10
86.230700
 20
184.444900
 30
0.0
  0
LWPOLYLINE
  5
1a4
100
AcDbEntity
  8
Layer_1
 62
5
100
AcDbPolyline
 90
2
 70
0
 10
72.230700
 20
171.444900
 30
0.0
 10
72.230700
 20
172.444900
 30
0.0
  0
LWPOLYLINE
  5
1a5
100
AcDbEntity
  8
Layer_1
 62
5
100
AcDbPolyline
 90
2
 70
0
 10
86.230700
 20
171.444900
 30
0.0
 10
85.230700
 20
171.444900
 30
0.0
  0
LWPOLYLINE
  5
1a6
100
AcDbEntity
  8
Layer_1
 62
5
100
AcDbPolyline
 90
2
 70
0
 10
73.230700
 20
171.444900
 30
0.0
 10
72.230700
 20
171.444900
 30
0.0
  0
LWPOLYLINE
  5
1a7
100
AcDbEntity
  8
Layer_1
 62
5
100
AcDbPolyline
 90
2
 70
0
 10
72.230700
 20
185.444900
 30
0.0
 10
73.230700
 20
185.444900
 30
0.0
  0
LWPOLYLINE
  5
1a8
100
AcDbEntity
  8
Layer_1
 62
5
100
AcDbPolyline
 90
2
 70
0
 10
86.230700
 20
172.444900
 30
0.0
 10
86.230700
 20
171.444900
 30
0.0
  0
LWPOLYLINE
  5
1a9
100
AcDbEntity
  8
Layer_1
 62
5
100
AcDbPolyline
 90
2
 70
0
 10
90.230700
 20
139.444900
 30
0.0
 10
90.230700
 20
140.444900
 30
0.0
  0
LWPOLYLINE
  5
1aa
100
AcDbEntity
  8
Layer_1
 62
5
100
AcDbPolyline
 90
2
 70
0
 10
90.230700
 20
152.444900
 30
0.0
 10
90.230700
 20
153.444900
 30
0.0
  0
LWPOLYLINE
  5
1ab
100
AcDbEntity
  8
Layer_1
 62
5
100
AcDbPolyline
 90
2
 70
0
 10
104.230700
 20
140.444900
 30
0.0
 10
104.230700
 20
139.444900
 30
0.0
  0
LWPOLYLINE
  5
1ac
100
AcDbEntity
  8
Layer_1
 62
5
100
AcDbPolyline
 90
2
 70
0
 10
90.230700
 20
153.444900
 30
0.0
 10
91.230700
 20
153.444900
 30
0.0
  0
LWPOLYLINE
  5
1ad
100
AcDbEntity
  8
Layer_1
 62
5
100
AcDbPolyline
 90
2
 70
0
 10
91.230700
 20
139.444900
 30
0.0
 10
90.230700
 20
139.444900
 30
0.0
  0
LWPOLYLINE
  5
1ae
100
AcDbEntity
  8
Layer_1
 62
5
100
AcDbPolyline
 90
2
 70
0
 10
103.230700
 20
153.444900
 30
0.0
 10
104.230700
 20
153.444900
 30
0.0
  0
LWPOLYLINE
  5
1af
100
AcDbEntity
  8
Layer_1
 62
5
100
AcDbPolyline
 90
2
 70
0
 10
90.230700
 20
152.444900
 30
0.0
 10
90.230700
 20
153.444900
 30
0.0
  0
LWPOLYLINE
  5
1b0
100
AcDbEntity
  8
Layer_1
 62
5
100
AcDbPolyline
 90
3
 70
0
 10
104.230700
 20
140.444900
 30
0.0
 10
104.230700
 20
139.444900
 30
0.0
 10
103.230700
 20
139.444900
 30
0.0
  0
LWPOLYLINE
  5
1b1
100
AcDbEntity
  8
Layer_1
 62
5
100
AcDbPolyline
 90
2
 70
0
 10
104.230700
 20
139.444900
 30
0.0
 10
103.230700
 20
139.444900
 30
0.0
  0
LWPOLYLINE
  5
1b2
100
AcDbEntity
  8
Layer_1
 62
5
100
AcDbPolyline
 90
2
 70
0
 10
104.230700
 20
153.444900
 30
0.0
 10
104.230700
 20
152.444900
 30
0.0
  0
LWPOLYLINE
  5
1b3
100
AcDbEntity
  8
Layer_1
 62
5
100
AcDbPolyline
 90
2
 70
0
 10
104.230700
 20
153.444900
 30
0.0
 10
104.230700
 20
152.444900
 30
0.0
  0
LWPOLYLINE
  5
1b4
100
AcDbEntity
  8
Layer_1
 62
5
100
AcDbPolyline
 90
2
 70
0
 10
90.230700
 20
139.444900
 30
0.0
 10
90.230700
 20
140.444900
 30
0.0
  0
LWPOLYLINE
  5
1b5
100
AcDbEntity
  8
Layer_1
 62
5
100
AcDbPolyline
 90
2
 70
0
 10
103.230700
 20
153.444900
 30
0.0
 10
104.230700
 20
153.444900
 30
0.0
  0
LWPOLYLINE
  5
1b6
100
AcDbEntity
  8
Layer_1
 62
5
100
AcDbPolyline
 90
2
 70
0
 10
91.230700
 20
139.444900
 30
0.0
 10
90.230700
 20
139.444900
 30
0.0
  0
LWPOLYLINE
  5
1b7
100
AcDbEntity
  8
Layer_1
 62
5
100
AcDbPolyline
 90
2
 70
0
 10
90.230700
 20
153.444900
 30
0.0
 10
91.230700
 20
153.444900
 30
0.0
  0
LWPOLYLINE
  5
1b8
100
AcDbEntity
  8
Layer_1
 62
5
100
AcDbPolyline
 90
2
 70
0
 10
157.230700
 20
181.444900
 30
0.0
 10
158.230700
 20
181.444900
 30
0.0
  0
LWPOLYLINE
  5
1b9
100
AcDbEntity
  8
Layer_1
 62
5
100
AcDbPolyline
 90
2
 70
0
 10
158.230700
 20
167.444900
 30
0.0
 10
157.230700
 20
167.444900
 30
0.0
  0
LWPOLYLINE
  5
1ba
100
AcDbEntity
  8
Layer_1
 62
5
100
AcDbPolyline
 90
2
 70
0
 10
144.230700
 20
181.444900
 30
0.0
 10
145.230700
 20
181.444900
 30
0.0
  0
LWPOLYLINE
  5
1bb
100
AcDbEntity
  8
Layer_1
 62
5
100
AcDbPolyline
 90
2
 70
0
 10
144.230700
 20
181.444900
 30
0.0
 10
145.230700
 20
181.444900
 30
0.0
  0
LWPOLYLINE
  5
1bc
100
AcDbEntity
  8
Layer_1
 62
5
100
AcDbPolyline
 90
2
 70
0
 10
158.230700
 20
181.444900
 30
0.0
 10
158.230700
 20
180.444900
 30
0.0
  0
LWPOLYLINE
  5
1bd
100
AcDbEntity
  8
Layer_1
 62
5
100
AcDbPolyline
 90
2
 70
0
 10
144.230700
 20
167.444900
 30
0.0
 10
144.230700
 20
168.444900
 30
0.0
  0
LWPOLYLINE
  5
1be
100
AcDbEntity
  8
Layer_1
 62
5
100
AcDbPolyline
 90
2
 70
0
 10
145.230700
 20
167.444900
 30
0.0
 10
144.230700
 20
167.444900
 30
0.0
  0
LWPOLYLINE
  5
1bf
100
AcDbEntity
  8
Layer_1
 62
5
100
AcDbPolyline
 90
2
 70
0
 10
144.230700
 20
180.444900
 30
0.0
 10
144.230700
 20
181.444900
 30
0.0
  0
LWPOLYLINE
  5
1c0
100
AcDbEntity
  8
Layer_1
 62
5
100
AcDbPolyline
 90
2
 70
0
 10
158.230700
 20
168.444900
 30
0.0
 10
158.230700
 20
167.444900
 30
0.0
  0
LWPOLYLINE
  5
1c1
100
AcDbEntity
  8
Layer_1
 62
5
100
AcDbPolyline
 90
2
 70
0
 10
158.230700
 20
181.444900
 30
0.0
 10
158.230700
 20
180.444900
 30
0.0
  0
LWPOLYLINE
  5
1c2
100
AcDbEntity
  8
Layer_1
 62
5
100
AcDbPolyline
 90
2
 70
0
 10
144.230700
 20
167.444900
 30
0.0
 10
144.230700
 20
168.444900
 30
0.0
  0
LWPOLYLINE
  5
1c3
100
AcDbEntity
  8
Layer_1
 62
5
100
AcDbPolyline
 90
2
 70
0
 10
157.230700
 20
181.444900
 30
0.0
 10
158.230700
 20
181.444900
 30
0.0
  0
LWPOLYLINE
  5
1c4
100
AcDbEntity
  8
Layer_1
 62
5
100
AcDbPolyline
 90
3
 70
0
 10
158.230700
 20
168.444900
 30
0.0
 10
158.230700
 20
167.444900
 30
0.0
 10
157.230700
 20
167.444900
 30
0.0
  0
LWPOLYLINE
  5
1c5
100
AcDbEntity
  8
Layer_1
 62
5
100
AcDbPolyline
 90
2
 70
0
 10
144.230700
 20
180.444900
 30
0.0
 10
144.230700
 20
181.444900
 30
0.0
  0
LWPOLYLINE
  5
1c6
100
AcDbEntity
  8
Layer_1
 62
5
100
AcDbPolyline
 90
2
 70
0
 10
145.230700
 20
167.444900
 30
0.0
 10
144.230700
 20
167.444900
 30
0.0
  0
LWPOLYLINE
  5
1c7
100
AcDbEntity
  8
Layer_1
 62
5
100
AcDbPolyline
 90
2
 70
0
 10
144.230700
 20
163.444900
 30
0.0
 10
144.230700
 20
164.444900
 30
0.0
  0
LWPOLYLINE
  5
1c8
100
AcDbEntity
  8
Layer_1
 62
5
100
AcDbPolyline
 90
2
 70
0
 10
158.230700
 20
150.444900
 30
0.0
 10
157.230700
 20
150.444900
 30
0.0
  0
LWPOLYLINE
  5
1c9
100
AcDbEntity
  8
Layer_1
 62
5
100
AcDbPolyline
 90
2
 70
0
 10
158.230700
 20
164.444900
 30
0.0
 10
158.230700
 20
163.444900
 30
0.0
  0
LWPOLYLINE
  5
1ca
100
AcDbEntity
  8
Layer_1
 62
5
100
AcDbPolyline
 90
2
 70
0
 10
158.230700
 20
150.444900
 30
0.0
 10
157.230700
 20
150.444900
 30
0.0
  0
LWPOLYLINE
  5
1cb
100
AcDbEntity
  8
Layer_1
 62
5
100
AcDbPolyline
 90
2
 70
0
 10
144.230700
 20
150.444900
 30
0.0
 10
144.230700
 20
151.444900
 30
0.0
  0
LWPOLYLINE
  5
1cc
100
AcDbEntity
  8
Layer_1
 62
5
100
AcDbPolyline
 90
2
 70
0
 10
158.230700
 20
151.444900
 30
0.0
 10
158.230700
 20
150.444900
 30
0.0
  0
LWPOLYLINE
  5
1cd
100
AcDbEntity
  8
Layer_1
 62
5
100
AcDbPolyline
 90
2
 70
0
 10
144.230700
 20
164.444900
 30
0.0
 10
145.230700
 20
164.444900
 30
0.0
  0
LWPOLYLINE
  5
1ce
100
AcDbEntity
  8
Layer_1
 62
5
100
AcDbPolyline
 90
2
 70
0
 10
144.230700
 20
150.444900
 30
0.0
 10
144.230700
 20
151.444900
 30
0.0
  0
LWPOLYLINE
  5
1cf
100
AcDbEntity
  8
Layer_1
 62
5
100
AcDbPolyline
 90
2
 70
0
 10
157.230700
 20
164.444900
 30
0.0
 10
158.230700
 20
164.444900
 30
0.0
  0
LWPOLYLINE
  5
1d0
100
AcDbEntity
  8
Layer_1
 62
5
100
AcDbPolyline
 90
2
 70
0
 10
144.230700
 20
163.444900
 30
0.0
 10
144.230700
 20
164.444900
 30
0.0
  0
LWPOLYLINE
  5
1d1
100
AcDbEntity
  8
Layer_1
 62
5
100
AcDbPolyline
 90
2
 70
0
 10
145.230700
 20
150.444900
 30
0.0
 10
144.230700
 20
150.444900
 30
0.0
  0
LWPOLYLINE
  5
1d2
100
AcDbEntity
  8
Layer_1
 62
5
100
AcDbPolyline
 90
2
 70
0
 10
144.230700
 20
164.444900
 30
0.0
 10
145.230700
 20
164.444900
 30
0.0
  0
LWPOLYLINE
  5
1d3
100
AcDbEntity
  8
Layer_1
 62
5
100
AcDbPolyline
 90
2
 70
0
 10
145.230700
 20
150.444900
 30
0.0
 10
144.230700
 20
150.444900
 30
0.0
  0
LWPOLYLINE
  5
1d4
100
AcDbEntity
  8
Layer_1
 62
5
100
AcDbPolyline
 90
2
 70
0
 10
158.230700
 20
151.444900
 30
0.0
 10
158.230700
 20
150.444900
 30
0.0
  0
LWPOLYLINE
  5
1d5
100
AcDbEntity
  8
Layer_1
 62
5
100
AcDbPolyline
 90
3
 70
0
 10
157.230700
 20
164.444900
 30
0.0
 10
158.230700
 20
164.444900
 30
0.0
 10
158.230700
 20
163.444900
 30
0.0
  0
LWPOLYLINE
  5
1d6
100
AcDbEntity
  8
Layer_1
 62
5
100
AcDbPolyline
 90
2
 70
0
 10
104.230700
 20
173.444900
 30
0.0
 10
103.230700
 20
173.444900
 30
0.0
  0
LWPOLYLINE
  5
1d7
100
AcDbEntity
  8
Layer_1
 62
5
100
AcDbPolyline
 90
2
 70
0
 10
104.230700
 20
173.444900
 30
0.0
 10
103.230700
 20
173.444900
 30
0.0
  0
LWPOLYLINE
  5
1d8
100
AcDbEntity
  8
Layer_1
 62
5
100
AcDbPolyline
 90
2
 70
0
 10
91.230700
 20
173.444900
 30
0.0
 10
90.230700
 20
173.444900
 30
0.0
  0
LWPOLYLINE
  5
1d9
100
AcDbEntity
  8
Layer_1
 62
5
100
AcDbPolyline
 90
3
 70
0
 10
103.230700
 20
187.444900
 30
0.0
 10
104.230700
 20
187.444900
 30
0.0
 10
104.230700
 20
186.444900
 30
0.0
  0
LWPOLYLINE
  5
1da
100
AcDbEntity
  8
Layer_1
 62
5
100
AcDbPolyline
 90
2
 70
0
 10
90.230700
 20
187.444900
 30
0.0
 10
91.230700
 20
187.444900
 30
0.0
  0
LWPOLYLINE
  5
1db
100
AcDbEntity
  8
Layer_1
 62
5
100
AcDbPolyline
 90
2
 70
0
 10
90.230700
 20
187.444900
 30
0.0
 10
91.230700
 20
187.444900
 30
0.0
  0
LWPOLYLINE
  5
1dc
100
AcDbEntity
  8
Layer_1
 62
5
100
AcDbPolyline
 90
2
 70
0
 10
104.230700
 20
174.444900
 30
0.0
 10
104.230700
 20
173.444900
 30
0.0
  0
LWPOLYLINE
  5
1dd
100
AcDbEntity
  8
Layer_1
 62
5
100
AcDbPolyline
 90
2
 70
0
 10
90.230700
 20
173.444900
 30
0.0
 10
90.230700
 20
174.444900
 30
0.0
  0
LWPOLYLINE
  5
1de
100
AcDbEntity
  8
Layer_1
 62
5
100
AcDbPolyline
 90
2
 70
0
 10
103.230700
 20
187.444900
 30
0.0
 10
104.230700
 20
187.444900
 30
0.0
  0
LWPOLYLINE
  5
1df
100
AcDbEntity
  8
Layer_1
 62
5
100
AcDbPolyline
 90
2
 70
0
 10
91.230700
 20
173.444900
 30
0.0
 10
90.230700
 20
173.444900
 30
0.0
  0
LWPOLYLINE
  5
1e0
100
AcDbEntity
  8
Layer_1
 62
5
100
AcDbPolyline
 90
2
 70
0
 10
104.230700
 20
174.444900
 30
0.0
 10
104.230700
 20
173.444900
 30
0.0
  0
LWPOLYLINE
  5
1e1
100
AcDbEntity
  8
Layer_1
 62
5
100
AcDbPolyline
 90
2
 70
0
 10
90.230700
 20
173.444900
 30
0.0
 10
90.230700
 20
174.444900
 30
0.0
  0
LWPOLYLINE
  5
1e2
100
AcDbEntity
  8
Layer_1
 62
5
100
AcDbPolyline
 90
2
 70
0
 10
104.230700
 20
187.444900
 30
0.0
 10
104.230700
 20
186.444900
 30
0.0
  0
LWPOLYLINE
  5
1e3
100
AcDbEntity
  8
Layer_1
 62
5
100
AcDbPolyline
 90
2
 70
0
 10
90.230700
 20
186.444900
 30
0.0
 10
90.230700
 20
187.444900
 30
0.0
  0
LWPOLYLINE
  5
1e4
100
AcDbEntity
  8
Layer_1
 62
5
100
AcDbPolyline
 90
2
 70
0
 10
90.230700
 20
186.444900
 30
0.0
 10
90.230700
 20
187.444900
 30
0.0
  0
LWPOLYLINE
  5
1e5
100
AcDbEntity
  8
Layer_1
 62
5
100
AcDbPolyline
 90
2
 70
0
 10
72.230700
 20
151.444900
 30
0.0
 10
73.230700
 20
151.444900
 30
0.0
  0
LWPOLYLINE
  5
1e6
100
AcDbEntity
  8
Layer_1
 62
5
100
AcDbPolyline
 90
2
 70
0
 10
86.230700
 20
138.444900
 30
0.0
 10
86.230700
 20
137.444900
 30
0.0
  0
LWPOLYLINE
  5
1e7
100
AcDbEntity
  8
Layer_1
 62
5
100
AcDbPolyline
 90
2
 70
0
 10
73.230700
 20
137.444900
 30
0.0
 10
72.230700
 20
137.444900
 30
0.0
  0
LWPOLYLINE
  5
1e8
100
AcDbEntity
  8
Layer_1
 62
5
100
AcDbPolyline
 90
2
 70
0
 10
72.230700
 20
150.444900
 30
0.0
 10
72.230700
 20
151.444900
 30
0.0
  0
LWPOLYLINE
  5
1e9
100
AcDbEntity
  8
Layer_1
 62
5
100
AcDbPolyline
 90
3
 70
0
 10
85.230700
 20
151.444900
 30
0.0
 10
86.230700
 20
151.444900
 30
0.0
 10
86.230700
 20
150.444900
 30
0.0
  0
LWPOLYLINE
  5
1ea
100
AcDbEntity
  8
Layer_1
 62
5
100
AcDbPolyline
 90
2
 70
0
 10
73.230700
 20
137.444900
 30
0.0
 10
72.230700
 20
137.444900
 30
0.0
  0
LWPOLYLINE
  5
1eb
100
AcDbEntity
  8
Layer_1
 62
5
100
AcDbPolyline
 90
2
 70
0
 10
72.230700
 20
150.444900
 30
0.0
 10
72.230700
 20
151.444900
 30
0.0
  0
LWPOLYLINE
  5
1ec
100
AcDbEntity
  8
Layer_1
 62
5
100
AcDbPolyline
 90
2
 70
0
 10
72.230700
 20
137.444900
 30
0.0
 10
72.230700
 20
138.444900
 30
0.0
  0
LWPOLYLINE
  5
1ed
100
AcDbEntity
  8
Layer_1
 62
5
100
AcDbPolyline
 90
2
 70
0
 10
72.230700
 20
137.444900
 30
0.0
 10
72.230700
 20
138.444900
 30
0.0
  0
LWPOLYLINE
  5
1ee
100
AcDbEntity
  8
Layer_1
 62
5
100
AcDbPolyline
 90
2
 70
0
 10
72.230700
 20
151.444900
 30
0.0
 10
73.230700
 20
151.444900
 30
0.0
  0
LWPOLYLINE
  5
1ef
100
AcDbEntity
  8
Layer_1
 62
5
100
AcDbPolyline
 90
2
 70
0
 10
85.230700
 20
151.444900
 30
0.0
 10
86.230700
 20
151.444900
 30
0.0
  0
LWPOLYLINE
  5
1f0
100
AcDbEntity
  8
Layer_1
 62
5
100
AcDbPolyline
 90
3
 70
0
 10
86.230700
 20
138.444900
 30
0.0
 10
86.230700
 20
137.444900
 30
0.0
 10
85.230700
 20
137.444900
 30
0.0
  0
LWPOLYLINE
  5
1f1
100
AcDbEntity
  8
Layer_1
 62
5
100
AcDbPolyline
 90
2
 70
0
 10
86.230700
 20
137.444900
 30
0.0
 10
85.230700
 20
137.444900
 30
0.0
  0
LWPOLYLINE
  5
1f2
100
AcDbEntity
  8
Layer_1
 62
5
100
AcDbPolyline
 90
2
 70
0
 10
86.230700
 20
151.444900
 30
0.0
 10
86.230700
 20
150.444900
 30
0.0
  0
LWPOLYLINE
  5
1f3
100
AcDbEntity
  8
Layer_1
 62
5
100
AcDbPolyline
 90
4
 70
1
 10
49.340700
 20
165.944900
 30
0.0
 10
67.120700
 20
165.944900
 30
0.0
 10
67.120700
 20
186.944900
 30
0.0
 10
49.340700
 20
186.944900
 30
0.0
  0
LWPOLYLINE
  5
1f4
100
AcDbEntity
  8
Layer_1
 62
5
100
AcDbPolyline
 90
2
 70
0
 10
98.330700
 20
119.644900
 30
0.0
 10
97.330700
 20
119.644900
 30
0.0
  0
LWPOLYLINE
  5
1f5
100
AcDbEntity
  8
Layer_1
 62
5
100
AcDbPolyline
 90
3
 70
0
 10
98.330700
 20
119.644900
 30
0.0
 10
97.330700
 20
119.644900
 30
0.0
 10
97.330700
 20
120.644900
 30
0.0
  0
LWPOLYLINE
  5
1f6
100
AcDbEntity
  8
Layer_1
 62
5
100
AcDbPolyline
 90
2
 70
0
 10
97.330700
 20
132.644900
 30
0.0
 10
97.330700
 20
133.644900
 30
0.0
  0
LWPOLYLINE
  5
1f7
100
AcDbEntity
  8
Layer_1
 62
5
100
AcDbPolyline
 90
2
 70
0
 10
97.330700
 20
132.644900
 30
0.0
 10
97.330700
 20
133.644900
 30
0.0
  0
LWPOLYLINE
  5
1f8
100
AcDbEntity
  8
Layer_1
 62
5
100
AcDbPolyline
 90
2
 70
0
 10
111.330700
 20
133.644900
 30
0.0
 10
111.330700
 20
132.644900
 30
0.0
  0
LWPOLYLINE
  5
1f9
100
AcDbEntity
  8
Layer_1
 62
5
100
AcDbPolyline
 90
2
 70
0
 10
97.330700
 20
133.644900
 30
0.0
 10
98.330700
 20
133.644900
 30
0.0
  0
LWPOLYLINE
  5
1fa
100
AcDbEntity
  8
Layer_1
 62
5
100
AcDbPolyline
 90
2
 70
0
 10
111.330700
 20
120.644900
 30
0.0
 10
111.330700
 20
119.644900
 30
0.0
  0
LWPOLYLINE
  5
1fb
100
AcDbEntity
  8
Layer_1
 62
5
100
AcDbPolyline
 90
2
 70
0
 10
111.330700
 20
120.644900
 30
0.0
 10
111.330700
 20
119.644900
 30
0.0
  0
LWPOLYLINE
  5
1fc
100
AcDbEntity
  8
Layer_1
 62
5
100
AcDbPolyline
 90
2
 70
0
 10
110.330700
 20
133.644900
 30
0.0
 10
111.330700
 20
133.644900
 30
0.0
  0
LWPOLYLINE
  5
1fd
100
AcDbEntity
  8
Layer_1
 62
5
100
AcDbPolyline
 90
2
 70
0
 10
97.330700
 20
133.644900
 30
0.0
 10
98.330700
 20
133.644900
 30
0.0
  0
LWPOLYLINE
  5
1fe
100
AcDbEntity
  8
Layer_1
 62
5
100
AcDbPolyline
 90
2
 70
0
 10
97.330700
 20
119.644900
 30
0.0
 10
97.330700
 20
120.644900
 30
0.0
  0
LWPOLYLINE
  5
1ff
100
AcDbEntity
  8
Layer_1
 62
5
100
AcDbPolyline
 90
3
 70
0
 10
110.330700
 20
133.644900
 30
0.0
 10
111.330700
 20
133.644900
 30
0.0
 10
111.330700
 20
132.644900
 30
0.0
  0
LWPOLYLINE
  5
200
100
AcDbEntity
  8
Layer_1
 62
5
100
AcDbPolyline
 90
2
 70
0
 10
111.330700
 20
119.644900
 30
0.0
 10
110.330700
 20
119.644900
 30
0.0
  0
LWPOLYLINE
  5
201
100
AcDbEntity
  8
Layer_1
 62
5
100
AcDbPolyline
 90
2
 70
0
 10
111.330700
 20
119.644900
 30
0.0
 10
110.330700
 20
119.644900
 30
0.0
  0
LWPOLYLINE
  5
202
100
AcDbEntity
  8
Layer_1
 62
5
100
AcDbPolyline
 90
2
 70
0
 10
103.230700
 20
170.444900
 30
0.0
 10
104.230700
 20
170.444900
 30
0.0
  0
LWPOLYLINE
  5
203
100
AcDbEntity
  8
Layer_1
 62
5
100
AcDbPolyline
 90
2
 70
0
 10
90.230700
 20
156.444900
 30
0.0
 10
90.230700
 20
157.444900
 30
0.0
  0
LWPOLYLINE
  5
204
100
AcDbEntity
  8
Layer_1
 62
5
100
AcDbPolyline
 90
2
 70
0
 10
104.230700
 20
157.444900
 30
0.0
 10
104.230700
 20
156.444900
 30
0.0
  0
LWPOLYLINE
  5
205
100
AcDbEntity
  8
Layer_1
 62
5
100
AcDbPolyline
 90
2
 70
0
 10
104.230700
 20
170.444900
 30
0.0
 10
104.230700
 20
169.444900
 30
0.0
  0
LWPOLYLINE
  5
206
100
AcDbEntity
  8
Layer_1
 62
5
100
AcDbPolyline
 90
2
 70
0
 10
90.230700
 20
170.444900
 30
0.0
 10
91.230700
 20
170.444900
 30
0.0
  0
LWPOLYLINE
  5
207
100
AcDbEntity
  8
Layer_1
 62
5
100
AcDbPolyline
 90
2
 70
0
 10
90.230700
 20
169.444900
 30
0.0
 10
90.230700
 20
170.444900
 30
0.0
  0
LWPOLYLINE
  5
208
100
AcDbEntity
  8
Layer_1
 62
5
100
AcDbPolyline
 90
2
 70
0
 10
104.230700
 20
156.444900
 30
0.0
 10
103.230700
 20
156.444900
 30
0.0
  0
LWPOLYLINE
  5
209
100
AcDbEntity
  8
Layer_1
 62
5
100
AcDbPolyline
 90
3
 70
0
 10
91.230700
 20
156.444900
 30
0.0
 10
90.230700
 20
156.444900
 30
0.0
 10
90.230700
 20
157.444900
 30
0.0
  0
LWPOLYLINE
  5
20a
100
AcDbEntity
  8
Layer_1
 62
5
100
AcDbPolyline
 90
2
 70
0
 10
104.230700
 20
156.444900
 30
0.0
 10
103.230700
 20
156.444900
 30
0.0
  0
LWPOLYLINE
  5
20b
100
AcDbEntity
  8
Layer_1
 62
5
100
AcDbPolyline
 90
2
 70
0
 10
90.230700
 20
169.444900
 30
0.0
 10
90.230700
 20
170.444900
 30
0.0
  0
LWPOLYLINE
  5
20c
100
AcDbEntity
  8
Layer_1
 62
5
100
AcDbPolyline
 90
2
 70
0
 10
103.230700
 20
170.444900
 30
0.0
 10
104.230700
 20
170.444900
 30
0.0
  0
LWPOLYLINE
  5
20d
100
AcDbEntity
  8
Layer_1
 62
5
100
AcDbPolyline
 90
2
 70
0
 10
91.230700
 20
156.444900
 30
0.0
 10
90.230700
 20
156.444900
 30
0.0
  0
LWPOLYLINE
  5
20e
100
AcDbEntity
  8
Layer_1
 62
5
100
AcDbPolyline
 90
2
 70
0
 10
90.230700
 20
170.444900
 30
0.0
 10
91.230700
 20
170.444900
 30
0.0
  0
LWPOLYLINE
  5
20f
100
AcDbEntity
  8
Layer_1
 62
5
100
AcDbPolyline
 90
2
 70
0
 10
104.230700
 20
170.444900
 30
0.0
 10
104.230700
 20
169.444900
 30
0.0
  0
LWPOLYLINE
  5
210
100
AcDbEntity
  8
Layer_1
 62
5
100
AcDbPolyline
 90
2
 70
0
 10
104.230700
 20
157.444900
 30
0.0
 10
104.230700
 20
156.444900
 30
0.0
  0
LWPOLYLINE
  5
211
100
AcDbEntity
  8
Layer_1
 62
5
100
AcDbPolyline
 90
4
 70
1
 10
67.120700
 20
165.944900
 30
0.0
 10
49.340700
 20
165.944900
 30
0.0
 10
49.340700
 20
186.944900
 30
0.0
 10
67.120700
 20
186.944900
 30
0.0
  0
LWPOLYLINE
  5
212
100
AcDbEntity
  8
Layer_1
 62
5
100
AcDbPolyline
 90
2
 70
0
 10
140.230700
 20
156.444900
 30
0.0
 10
139.230700
 20
156.444900
 30
0.0
  0
LWPOLYLINE
  5
213
100
AcDbEntity
  8
Layer_1
 62
5
100
AcDbPolyline
 90
2
 70
0
 10
139.230700
 20
170.444900
 30
0.0
 10
140.230700
 20
170.444900
 30
0.0
  0
LWPOLYLINE
  5
214
100
AcDbEntity
  8
Layer_1
 62
5
100
AcDbPolyline
 90
2
 70
0
 10
126.230700
 20
156.444900
 30
0.0
 10
126.230700
 20
157.444900
 30
0.0
  0
LWPOLYLINE
  5
215
100
AcDbEntity
  8
Layer_1
 62
5
100
AcDbPolyline
 90
2
 70
0
 10
126.230700
 20
169.444900
 30
0.0
 10
126.230700
 20
170.444900
 30
0.0
  0
LWPOLYLINE
  5
216
100
AcDbEntity
  8
Layer_1
 62
5
100
AcDbPolyline
 90
3
 70
0
 10
127.230700
 20
156.444900
 30
0.0
 10
126.230700
 20
156.444900
 30
0.0
 10
126.230700
 20
157.444900
 30
0.0
  0
LWPOLYLINE
  5
217
100
AcDbEntity
  8
Layer_1
 62
5
100
AcDbPolyline
 90
2
 70
0
 10
139.230700
 20
170.444900
 30
0.0
 10
140.230700
 20
170.444900
 30
0.0
  0
LWPOLYLINE
  5
218
100
AcDbEntity
  8
Layer_1
 62
5
100
AcDbPolyline
 90
2
 70
0
 10
127.230700
 20
156.444900
 30
0.0
 10
126.230700
 20
156.444900
 30
0.0
  0
LWPOLYLINE
  5
219
100
AcDbEntity
  8
Layer_1
 62
5
100
AcDbPolyline
 90
2
 70
0
 10
140.230700
 20
157.444900
 30
0.0
 10
140.230700
 20
156.444900
 30
0.0
  0
LWPOLYLINE
  5
21a
100
AcDbEntity
  8
Layer_1
 62
5
100
AcDbPolyline
 90
2
 70
0
 10
126.230700
 20
170.444900
 30
0.0
 10
127.230700
 20
170.444900
 30
0.0
  0
LWPOLYLINE
  5
21b
100
AcDbEntity
  8
Layer_1
 62
5
100
AcDbPolyline
 90
2
 70
0
 10
126.230700
 20
169.444900
 30
0.0
 10
126.230700
 20
170.444900
 30
0.0
  0
LWPOLYLINE
  5
21c
100
AcDbEntity
  8
Layer_1
 62
5
100
AcDbPolyline
 90
2
 70
0
 10
140.230700
 20
156.444900
 30
0.0
 10
139.230700
 20
156.444900
 30
0.0
  0
LWPOLYLINE
  5
21d
100
AcDbEntity
  8
Layer_1
 62
5
100
AcDbPolyline
 90
2
 70
0
 10
140.230700
 20
170.444900
 30
0.0
 10
140.230700
 20
169.444900
 30
0.0
  0
LWPOLYLINE
  5
21e
100
AcDbEntity
  8
Layer_1
 62
5
100
AcDbPolyline
 90
2
 70
0
 10
126.230700
 20
170.444900
 30
0.0
 10
127.230700
 20
170.444900
 30
0.0
  0
LWPOLYLINE
  5
21f
100
AcDbEntity
  8
Layer_1
 62
5
100
AcDbPolyline
 90
2
 70
0
 10
140.230700
 20
157.444900
 30
0.0
 10
140.230700
 20
156.444900
 30
0.0
  0
LWPOLYLINE
  5
220
100
AcDbEntity
  8
Layer_1
 62
5
100
AcDbPolyline
 90
2
 70
0
 10
140.230700
 20
170.444900
 30
0.0
 10
140.230700
 20
169.444900
 30
0.0
  0
LWPOLYLINE
  5
221
100
AcDbEntity
  8
Layer_1
 62
5
100
AcDbPolyline
 90
2
 70
0
 10
157.230700
 20
147.444900
 30
0.0
 10
158.230700
 20
147.444900
 30
0.0
  0
LWPOLYLINE
  5
222
100
AcDbEntity
  8
Layer_1
 62
5
100
AcDbPolyline
 90
2
 70
0
 10
144.230700
 20
133.444900
 30
0.0
 10
144.230700
 20
134.444900
 30
0.0
  0
LWPOLYLINE
  5
223
100
AcDbEntity
  8
Layer_1
 62
5
100
AcDbPolyline
 90
2
 70
0
 10
158.230700
 20
134.444900
 30
0.0
 10
158.230700
 20
133.444900
 30
0.0
  0
LWPOLYLINE
  5
224
100
AcDbEntity
  8
Layer_1
 62
5
100
AcDbPolyline
 90
2
 70
0
 10
145.230700
 20
133.444900
 30
0.0
 10
144.230700
 20
133.444900
 30
0.0
  0
LWPOLYLINE
  5
225
100
AcDbEntity
  8
Layer_1
 62
5
100
AcDbPolyline
 90
2
 70
0
 10
158.230700
 20
147.444900
 30
0.0
 10
158.230700
 20
146.444900
 30
0.0
  0
LWPOLYLINE
  5
226
100
AcDbEntity
  8
Layer_1
 62
5
100
AcDbPolyline
 90
2
 70
0
 10
144.230700
 20
133.444900
 30
0.0
 10
144.230700
 20
134.444900
 30
0.0
  0
LWPOLYLINE
  5
227
100
AcDbEntity
  8
Layer_1
 62
5
100
AcDbPolyline
 90
2
 70
0
 10
157.230700
 20
147.444900
 30
0.0
 10
158.230700
 20
147.444900
 30
0.0
  0
LWPOLYLINE
  5
228
100
AcDbEntity
  8
Layer_1
 62
5
100
AcDbPolyline
 90
2
 70
0
 10
158.230700
 20
134.444900
 30
0.0
 10
158.230700
 20
133.444900
 30
0.0
  0
LWPOLYLINE
  5
229
100
AcDbEntity
  8
Layer_1
 62
5
100
AcDbPolyline
 90
2
 70
0
 10
145.230700
 20
133.444900
 30
0.0
 10
144.230700
 20
133.444900
 30
0.0
  0
LWPOLYLINE
  5
22a
100
AcDbEntity
  8
Layer_1
 62
5
100
AcDbPolyline
 90
2
 70
0
 10
158.230700
 20
133.444900
 30
0.0
 10
157.230700
 20
133.444900
 30
0.0
  0
LWPOLYLINE
  5
22b
100
AcDbEntity
  8
Layer_1
 62
5
100
AcDbPolyline
 90
2
 70
0
 10
144.230700
 20
146.444900
 30
0.0
 10
144.230700
 20
147.444900
 30
0.0
  0
LWPOLYLINE
  5
22c
100
AcDbEntity
  8
Layer_1
 62
5
100
AcDbPolyline
 90
2
 70
0
 10
158.230700
 20
133.444900
 30
0.0
 10
157.230700
 20
133.444900
 30
0.0
  0
LWPOLYLINE
  5
22d
100
AcDbEntity
  8
Layer_1
 62
5
100
AcDbPolyline
 90
2
 70
0
 10
144.230700
 20
147.444900
 30
0.0
 10
145.230700
 20
147.444900
 30
0.0
  0
LWPOLYLINE
  5
22e
100
AcDbEntity
  8
Layer_1
 62
5
100
AcDbPolyline
 90
2
 70
0
 10
158.230700
 20
147.444900
 30
0.0
 10
158.230700
 20
146.444900
 30
0.0
  0
LWPOLYLINE
  5
22f
100
AcDbEntity
  8
Layer_1
 62
5
100
AcDbPolyline
 90
2
 70
0
 10
144.230700
 20
147.444900
 30
0.0
 10
145.230700
 20
147.444900
 30
0.0
  0
LWPOLYLINE
  5
230
100
AcDbEntity
  8
Layer_1
 62
5
100
AcDbPolyline
 90
2
 70
0
 10
144.230700
 20
146.444900
 30
0.0
 10
144.230700
 20
147.444900
 30
0.0
  0
LWPOLYLINE
  5
231
100
AcDbEntity
  8
Layer_1
 62
5
100
AcDbPolyline
 90
2
 70
0
 10
140.230700
 20
153.444900
 30
0.0
 10
140.230700
 20
152.444900
 30
0.0
  0
LWPOLYLINE
  5
232
100
AcDbEntity
  8
Layer_1
 62
5
100
AcDbPolyline
 90
2
 70
0
 10
140.230700
 20
140.444900
 30
0.0
 10
140.230700
 20
139.444900
 30
0.0
  0
LWPOLYLINE
  5
233
100
AcDbEntity
  8
Layer_1
 62
5
100
AcDbPolyline
 90
2
 70
0
 10
140.230700
 20
140.444900
 30
0.0
 10
140.230700
 20
139.444900
 30
0.0
  0
LWPOLYLINE
  5
234
100
AcDbEntity
  8
Layer_1
 62
5
100
AcDbPolyline
 90
2
 70
0
 10
126.230700
 20
152.444900
 30
0.0
 10
126.230700
 20
153.444900
 30
0.0
  0
LWPOLYLINE
  5
235
100
AcDbEntity
  8
Layer_1
 62
5
100
AcDbPolyline
 90
2
 70
0
 10
140.230700
 20
153.444900
 30
0.0
 10
140.230700
 20
152.444900
 30
0.0
  0
LWPOLYLINE
  5
236
100
AcDbEntity
  8
Layer_1
 62
5
100
AcDbPolyline
 90
2
 70
0
 10
140.230700
 20
139.444900
 30
0.0
 10
139.230700
 20
139.444900
 30
0.0
  0
LWPOLYLINE
  5
237
100
AcDbEntity
  8
Layer_1
 62
5
100
AcDbPolyline
 90
2
 70
0
 10
127.230700
 20
139.444900
 30
0.0
 10
126.230700
 20
139.444900
 30
0.0
  0
LWPOLYLINE
  5
238
100
AcDbEntity
  8
Layer_1
 62
5
100
AcDbPolyline
 90
2
 70
0
 10
126.230700
 20
153.444900
 30
0.0
 10
127.230700
 20
153.444900
 30
0.0
  0
LWPOLYLINE
  5
239
100
AcDbEntity
  8
Layer_1
 62
5
100
AcDbPolyline
 90
2
 70
0
 10
126.230700
 20
152.444900
 30
0.0
 10
126.230700
 20
153.444900
 30
0.0
  0
LWPOLYLINE
  5
23a
100
AcDbEntity
  8
Layer_1
 62
5
100
AcDbPolyline
 90
3
 70
0
 10
127.230700
 20
139.444900
 30
0.0
 10
126.230700
 20
139.444900
 30
0.0
 10
126.230700
 20
140.444900
 30
0.0
  0
LWPOLYLINE
  5
23b
100
AcDbEntity
  8
Layer_1
 62
5
100
AcDbPolyline
 90
2
 70
0
 10
139.230700
 20
153.444900
 30
0.0
 10
140.230700
 20
153.444900
 30
0.0
  0
LWPOLYLINE
  5
23c
100
AcDbEntity
  8
Layer_1
 62
5
100
AcDbPolyline
 90
2
 70
0
 10
140.230700
 20
139.444900
 30
0.0
 10
139.230700
 20
139.444900
 30
0.0
  0
LWPOLYLINE
  5
23d
100
AcDbEntity
  8
Layer_1
 62
5
100
AcDbPolyline
 90
2
 70
0
 10
126.230700
 20
139.444900
 30
0.0
 10
126.230700
 20
140.444900
 30
0.0
  0
LWPOLYLINE
  5
23e
100
AcDbEntity
  8
Layer_1
 62
5
100
AcDbPolyline
 90
2
 70
0
 10
126.230700
 20
153.444900
 30
0.0
 10
127.230700
 20
153.444900
 30
0.0
  0
LWPOLYLINE
  5
23f
100
AcDbEntity
  8
Layer_1
 62
5
100
AcDbPolyline
 90
2
 70
0
 10
139.230700
 20
153.444900
 30
0.0
 10
140.230700
 20
153.444900
 30
0.0
  0
LWPOLYLINE
  5
240
100
AcDbEntity
  8
Layer_1
 62
5
100
AcDbPolyline
 90
2
 70
0
 10
86.230700
 20
155.444900
 30
0.0
 10
86.230700
 20
154.444900
 30
0.0
  0
LWPOLYLINE
  5
241
100
AcDbEntity
  8
Layer_1
 62
5
100
AcDbPolyline
 90
2
 70
0
 10
73.230700
 20
154.444900
 30
0.0
 10
72.230700
 20
154.444900
 30
0.0
  0
LWPOLYLINE
  5
242
100
AcDbEntity
  8
Layer_1
 62
5
100
AcDbPolyline
 90
2
 70
0
 10
86.230700
 20
168.444900
 30
0.0
 10
86.230700
 20
167.444900
 30
0.0
  0
LWPOLYLINE
  5
243
100
AcDbEntity
  8
Layer_1
 62
5
100
AcDbPolyline
 90
2
 70
0
 10
72.230700
 20
168.444900
 30
0.0
 10
73.230700
 20
168.444900
 30
0.0
  0
LWPOLYLINE
  5
244
100
AcDbEntity
  8
Layer_1
 62
5
100
AcDbPolyline
 90
2
 70
0
 10
72.230700
 20
154.444900
 30
0.0
 10
72.230700
 20
155.444900
 30
0.0
  0
LWPOLYLINE
  5
245
100
AcDbEntity
  8
Layer_1
 62
5
100
AcDbPolyline
 90
2
 70
0
 10
85.230700
 20
168.444900
 30
0.0
 10
86.230700
 20
168.444900
 30
0.0
  0
LWPOLYLINE
  5
246
100
AcDbEntity
  8
Layer_1
 62
5
100
AcDbPolyline
 90
2
 70
0
 10
73.230700
 20
154.444900
 30
0.0
 10
72.230700
 20
154.444900
 30
0.0
  0
LWPOLYLINE
  5
247
100
AcDbEntity
  8
Layer_1
 62
5
100
AcDbPolyline
 90
2
 70
0
 10
72.230700
 20
167.444900
 30
0.0
 10
72.230700
 20
168.444900
 30
0.0
  0
LWPOLYLINE
  5
248
100
AcDbEntity
  8
Layer_1
 62
5
100
AcDbPolyline
 90
2
 70
0
 10
86.230700
 20
154.444900
 30
0.0
 10
85.230700
 20
154.444900
 30
0.0
  0
LWPOLYLINE
  5
249
100
AcDbEntity
  8
Layer_1
 62
5
100
AcDbPolyline
 90
2
 70
0
 10
72.230700
 20
167.444900
 30
0.0
 10
72.230700
 20
168.444900
 30
0.0
  0
LWPOLYLINE
  5
24a
100
AcDbEntity
  8
Layer_1
 62
5
100
AcDbPolyline
 90
2
 70
0
 10
86.230700
 20
154.444900
 30
0.0
 10
85.230700
 20
154.444900
 30
0.0
  0
LWPOLYLINE
  5
24b
100
AcDbEntity
  8
Layer_1
 62
5
100
AcDbPolyline
 90
2
 70
0
 10
86.230700
 20
168.444900
 30
0.0
 10
86.230700
 20
167.444900
 30
0.0
  0
LWPOLYLINE
  5
24c
100
AcDbEntity
  8
Layer_1
 62
5
100
AcDbPolyline
 90
2
 70
0
 10
72.230700
 20
168.444900
 30
0.0
 10
73.230700
 20
168.444900
 30
0.0
  0
LWPOLYLINE
  5
24d
100
AcDbEntity
  8
Layer_1
 62
5
100
AcDbPolyline
 90
2
 70
0
 10
72.230700
 20
154.444900
 30
0.0
 10
72.230700
 20
155.444900
 30
0.0
  0
LWPOLYLINE
  5
24e
100
AcDbEntity
  8
Layer_1
 62
5
100
AcDbPolyline
 90
2
 70
0
 10
86.230700
 20
155.444900
 30
0.0
 10
86.230700
 20
154.444900
 30
0.0
  0
LWPOLYLINE
  5
24f
100
AcDbEntity
  8
Layer_1
 62
5
100
AcDbPolyline
 90
2
 70
0
 10
85.230700
 20
168.444900
 30
0.0
 10
86.230700
 20
168.444900
 30
0.0
  0
LWPOLYLINE
  5
250
100
AcDbEntity
  8
Layer_1
 62
5
100
AcDbPolyline
 90
2
 70
0
 10
126.230700
 20
187.444900
 30
0.0
 10
127.230700
 20
187.444900
 30
0.0
  0
LWPOLYLINE
  5
251
100
AcDbEntity
  8
Layer_1
 62
5
100
AcDbPolyline
 90
2
 70
0
 10
139.230700
 20
187.444900
 30
0.0
 10
140.230700
 20
187.444900
 30
0.0
  0
LWPOLYLINE
  5
252
100
AcDbEntity
  8
Layer_1
 62
5
100
AcDbPolyline
 90
2
 70
0
 10
140.230700
 20
173.444900
 30
0.0
 10
139.230700
 20
173.444900
 30
0.0
  0
LWPOLYLINE
  5
253
100
AcDbEntity
  8
Layer_1
 62
5
100
AcDbPolyline
 90
2
 70
0
 10
140.230700
 20
187.444900
 30
0.0
 10
140.230700
 20
186.444900
 30
0.0
  0
LWPOLYLINE
  5
254
100
AcDbEntity
  8
Layer_1
 62
5
100
AcDbPolyline
 90
2
 70
0
 10
139.230700
 20
187.444900
 30
0.0
 10
140.230700
 20
187.444900
 30
0.0
  0
LWPOLYLINE
  5
255
100
AcDbEntity
  8
Layer_1
 62
5
100
AcDbPolyline
 90
2
 70
0
 10
126.230700
 20
187.444900
 30
0.0
 10
127.230700
 20
187.444900
 30
0.0
  0
LWPOLYLINE
  5
256
100
AcDbEntity
  8
Layer_1
 62
5
100
AcDbPolyline
 90
2
 70
0
 10
140.230700
 20
174.444900
 30
0.0
 10
140.230700
 20
173.444900
 30
0.0
  0
LWPOLYLINE
  5
257
100
AcDbEntity
  8
Layer_1
 62
5
100
AcDbPolyline
 90
2
 70
0
 10
126.230700
 20
173.444900
 30
0.0
 10
126.230700
 20
174.444900
 30
0.0
  0
LWPOLYLINE
  5
258
100
AcDbEntity
  8
Layer_1
 62
5
100
AcDbPolyline
 90
2
 70
0
 10
127.230700
 20
173.444900
 30
0.0
 10
126.230700
 20
173.444900
 30
0.0
  0
LWPOLYLINE
  5
259
100
AcDbEntity
  8
Layer_1
 62
5
100
AcDbPolyline
 90
2
 70
0
 10
140.230700
 20
174.444900
 30
0.0
 10
140.230700
 20
173.444900
 30
0.0
  0
LWPOLYLINE
  5
25a
100
AcDbEntity
  8
Layer_1
 62
5
100
AcDbPolyline
 90
2
 70
0
 10
126.230700
 20
186.444900
 30
0.0
 10
126.230700
 20
187.444900
 30
0.0
  0
LWPOLYLINE
  5
25b
100
AcDbEntity
  8
Layer_1
 62
5
100
AcDbPolyline
 90
2
 70
0
 10
140.230700
 20
173.444900
 30
0.0
 10
139.230700
 20
173.444900
 30
0.0
  0
LWPOLYLINE
  5
25c
100
AcDbEntity
  8
Layer_1
 62
5
100
AcDbPolyline
 90
2
 70
0
 10
126.230700
 20
173.444900
 30
0.0
 10
126.230700
 20
174.444900
 30
0.0
  0
LWPOLYLINE
  5
25d
100
AcDbEntity
  8
Layer_1
 62
5
100
AcDbPolyline
 90
2
 70
0
 10
140.230700
 20
187.444900
 30
0.0
 10
140.230700
 20
186.444900
 30
0.0
  0
LWPOLYLINE
  5
25e
100
AcDbEntity
  8
Layer_1
 62
5
100
AcDbPolyline
 90
2
 70
0
 10
126.230700
 20
186.444900
 30
0.0
 10
126.230700
 20
187.444900
 30
0.0
  0
LWPOLYLINE
  5
25f
100
AcDbEntity
  8
Layer_1
 62
5
100
AcDbPolyline
 90
2
 70
0
 10
127.230700
 20
173.444900
 30
0.0
 10
126.230700
 20
173.444900
 30
0.0
  0
LWPOLYLINE
  5
260
100
AcDbEntity
  8
Layer_1
 62
5
100
AcDbPolyline
 90
2
 70
0
 10
108.230700
 20
145.444900
 30
0.0
 10
108.230700
 20
146.444900
 30
0.0
  0
LWPOLYLINE
  5
261
100
AcDbEntity
  8
Layer_1
 62
5
100
AcDbPolyline
 90
2
 70
0
 10
108.230700
 20
145.444900
 30
0.0
 10
108.230700
 20
146.444900
 30
0.0
  0
LWPOLYLINE
  5
262
100
AcDbEntity
  8
Layer_1
 62
5
100
AcDbPolyline
 90
2
 70
0
 10
122.230700
 20
145.444900
 30
0.0
 10
121.230700
 20
145.444900
 30
0.0
  0
LWPOLYLINE
  5
263
100
AcDbEntity
  8
Layer_1
 62
5
100
AcDbPolyline
 90
2
 70
0
 10
108.230700
 20
159.444900
 30
0.0
 10
109.230700
 20
159.444900
 30
0.0
  0
LWPOLYLINE
  5
264
100
AcDbEntity
  8
Layer_1
 62
5
100
AcDbPolyline
 90
2
 70
0
 10
121.230700
 20
159.444900
 30
0.0
 10
122.230700
 20
159.444900
 30
0.0
  0
LWPOLYLINE
  5
265
100
AcDbEntity
  8
Layer_1
 62
5
100
AcDbPolyline
 90
2
 70
0
 10
122.230700
 20
145.444900
 30
0.0
 10
121.230700
 20
145.444900
 30
0.0
  0
LWPOLYLINE
  5
266
100
AcDbEntity
  8
Layer_1
 62
5
100
AcDbPolyline
 90
2
 70
0
 10
121.230700
 20
159.444900
 30
0.0
 10
122.230700
 20
159.444900
 30
0.0
  0
LWPOLYLINE
  5
267
100
AcDbEntity
  8
Layer_1
 62
5
100
AcDbPolyline
 90
2
 70
0
 10
109.230700
 20
145.444900
 30
0.0
 10
108.230700
 20
145.444900
 30
0.0
  0
LWPOLYLINE
  5
268
100
AcDbEntity
  8
Layer_1
 62
5
100
AcDbPolyline
 90
2
 70
0
 10
122.230700
 20
159.444900
 30
0.0
 10
122.230700
 20
158.444900
 30
0.0
  0
LWPOLYLINE
  5
269
100
AcDbEntity
  8
Layer_1
 62
5
100
AcDbPolyline
 90
2
 70
0
 10
122.230700
 20
146.444900
 30
0.0
 10
122.230700
 20
145.444900
 30
0.0
  0
LWPOLYLINE
  5
26a
100
AcDbEntity
  8
Layer_1
 62
5
100
AcDbPolyline
 90
2
 70
0
 10
122.230700
 20
146.444900
 30
0.0
 10
122.230700
 20
145.444900
 30
0.0
  0
LWPOLYLINE
  5
26b
100
AcDbEntity
  8
Layer_1
 62
5
100
AcDbPolyline
 90
3
 70
0
 10
108.230700
 20
158.444900
 30
0.0
 10
108.230700
 20
159.444900
 30
0.0
 10
109.230700
 20
159.444900
 30
0.0
  0
LWPOLYLINE
  5
26c
100
AcDbEntity
  8
Layer_1
 62
5
100
AcDbPolyline
 90
2
 70
0
 10
109.230700
 20
145.444900
 30
0.0
 10
108.230700
 20
145.444900
 30
0.0
  0
LWPOLYLINE
  5
26d
100
AcDbEntity
  8
Layer_1
 62
5
100
AcDbPolyline
 90
2
 70
0
 10
122.230700
 20
159.444900
 30
0.0
 10
122.230700
 20
158.444900
 30
0.0
  0
LWPOLYLINE
  5
26e
100
AcDbEntity
  8
Layer_1
 62
5
100
AcDbPolyline
 90
2
 70
0
 10
108.230700
 20
158.444900
 30
0.0
 10
108.230700
 20
159.444900
 30
0.0
  0
LWPOLYLINE
  5
26f
100
AcDbEntity
  8
Layer_1
 62
5
100
AcDbPolyline
 90
3
 70
0
 10
63.360200
 20
107.971800
 30
0.0
 10
62.394300
 20
107.713000
 30
0.0
 10
62.135400
 20
108.678900
 30
0.0
  0
LWPOLYLINE
  5
270
100
AcDbEntity
  8
Layer_1
 62
5
100
AcDbPolyline
 90
2
 70
0
 10
71.327800
 20
124.600600
 30
0.0
 10
72.293800
 20
124.859400
 30
0.0
  0
LWPOLYLINE
  5
271
100
AcDbEntity
  8
Layer_1
 62
5
100
AcDbPolyline
 90
2
 70
0
 10
62.394300
 20
107.713000
 30
0.0
 10
62.135400
 20
108.678900
 30
0.0
  0
LWPOLYLINE
  5
272
100
AcDbEntity
  8
Layer_1
 62
5
100
AcDbPolyline
 90
2
 70
0
 10
72.293800
 20
124.859400
 30
0.0
 10
72.552600
 20
123.893500
 30
0.0
  0
LWPOLYLINE
  5
273
100
AcDbEntity
  8
Layer_1
 62
5
100
AcDbPolyline
 90
3
 70
0
 10
75.658400
 20
112.302400
 30
0.0
 10
75.917200
 20
111.336400
 30
0.0
 10
74.951300
 20
111.077600
 30
0.0
  0
LWPOLYLINE
  5
274
100
AcDbEntity
  8
Layer_1
 62
5
100
AcDbPolyline
 90
2
 70
0
 10
71.327800
 20
124.600600
 30
0.0
 10
72.293800
 20
124.859400
 30
0.0
  0
LWPOLYLINE
  5
275
100
AcDbEntity
  8
Layer_1
 62
5
100
AcDbPolyline
 90
2
 70
0
 10
58.770800
 20
121.235900
 30
0.0
 10
59.736700
 20
121.494800
 30
0.0
  0
LWPOLYLINE
  5
276
100
AcDbEntity
  8
Layer_1
 62
5
100
AcDbPolyline
 90
2
 70
0
 10
59.029600
 20
120.270000
 30
0.0
 10
58.770800
 20
121.235900
 30
0.0
  0
LWPOLYLINE
  5
277
100
AcDbEntity
  8
Layer_1
 62
5
100
AcDbPolyline
 90
2
 70
0
 10
75.658400
 20
112.302400
 30
0.0
 10
75.917200
 20
111.336400
 30
0.0
  0
LWPOLYLINE
  5
278
100
AcDbEntity
  8
Layer_1
 62
5
100
AcDbPolyline
 90
2
 70
0
 10
72.293800
 20
124.859400
 30
0.0
 10
72.552600
 20
123.893500
 30
0.0
  0
LWPOLYLINE
  5
279
100
AcDbEntity
  8
Layer_1
 62
5
100
AcDbPolyline
 90
3
 70
0
 10
59.029600
 20
120.270000
 30
0.0
 10
58.770800
 20
121.235900
 30
0.0
 10
59.736700
 20
121.494800
 30
0.0
  0
LWPOLYLINE
  5
27a
100
AcDbEntity
  8
Layer_1
 62
5
100
AcDbPolyline
 90
2
 70
0
 10
63.360200
 20
107.971800
 30
0.0
 10
62.394300
 20
107.713000
 30
0.0
  0
LWPOLYLINE
  5
27b
100
AcDbEntity
  8
Layer_1
 62
5
100
AcDbPolyline
 90
2
 70
0
 10
75.917200
 20
111.336400
 30
0.0
 10
74.951300
 20
111.077600
 30
0.0
  0
LWPOLYLINE
  5
27c
100
AcDbEntity
  8
Layer_1
 62
5
100
AcDbPolyline
 90
2
 70
0
 10
76.157500
 20
125.894700
 30
0.0
 10
77.123400
 20
126.153500
 30
0.0
  0
LWPOLYLINE
  5
27d
100
AcDbEntity
  8
Layer_1
 62
5
100
AcDbPolyline
 90
2
 70
0
 10
93.045100
 20
116.961100
 30
0.0
 10
93.303900
 20
115.995200
 30
0.0
  0
LWPOLYLINE
  5
27e
100
AcDbEntity
  8
Layer_1
 62
5
100
AcDbPolyline
 90
2
 70
0
 10
89.680400
 20
129.518100
 30
0.0
 10
89.939200
 20
128.552200
 30
0.0
  0
LWPOLYLINE
  5
27f
100
AcDbEntity
  8
Layer_1
 62
5
100
AcDbPolyline
 90
2
 70
0
 10
88.714500
 20
129.259300
 30
0.0
 10
89.680400
 20
129.518100
 30
0.0
  0
LWPOLYLINE
  5
280
100
AcDbEntity
  8
Layer_1
 62
5
100
AcDbPolyline
 90
2
 70
0
 10
79.780900
 20
112.371700
 30
0.0
 10
79.522100
 20
113.337600
 30
0.0
  0
LWPOLYLINE
  5
281
100
AcDbEntity
  8
Layer_1
 62
5
100
AcDbPolyline
 90
2
 70
0
 10
93.303900
 20
115.995200
 30
0.0
 10
92.338000
 20
115.736400
 30
0.0
  0
LWPOLYLINE
  5
282
100
AcDbEntity
  8
Layer_1
 62
5
100
AcDbPolyline
 90
2
 70
0
 10
80.746900
 20
112.630500
 30
0.0
 10
79.780900
 20
112.371700
 30
0.0
  0
LWPOLYLINE
  5
283
100
AcDbEntity
  8
Layer_1
 62
5
100
AcDbPolyline
 90
2
 70
0
 10
89.680400
 20
129.518100
 30
0.0
 10
89.939200
 20
128.552200
 30
0.0
  0
LWPOLYLINE
  5
284
100
AcDbEntity
  8
Layer_1
 62
5
100
AcDbPolyline
 90
2
 70
0
 10
93.303900
 20
115.995200
 30
0.0
 10
92.338000
 20
115.736400
 30
0.0
  0
LWPOLYLINE
  5
285
100
AcDbEntity
  8
Layer_1
 62
5
100
AcDbPolyline
 90
2
 70
0
 10
80.746900
 20
112.630500
 30
0.0
 10
79.780900
 20
112.371700
 30
0.0
  0
LWPOLYLINE
  5
286
100
AcDbEntity
  8
Layer_1
 62
5
100
AcDbPolyline
 90
2
 70
0
 10
88.714500
 20
129.259300
 30
0.0
 10
89.680400
 20
129.518100
 30
0.0
  0
LWPOLYLINE
  5
287
100
AcDbEntity
  8
Layer_1
 62
5
100
AcDbPolyline
 90
2
 70
0
 10
79.780900
 20
112.371700
 30
0.0
 10
79.522100
 20
113.337600
 30
0.0
  0
LWPOLYLINE
  5
288
100
AcDbEntity
  8
Layer_1
 62
5
100
AcDbPolyline
 90
3
 70
0
 10
76.416300
 20
124.928800
 30
0.0
 10
76.157500
 20
125.894700
 30
0.0
 10
77.123400
 20
126.153500
 30
0.0
  0
LWPOLYLINE
  5
289
100
AcDbEntity
  8
Layer_1
 62
5
100
AcDbPolyline
 90
2
 70
0
 10
76.416300
 20
124.928800
 30
0.0
 10
76.157500
 20
125.894700
 30
0.0
  0
LWPOLYLINE
  5
28a
100
AcDbEntity
  8
Layer_1
 62
5
100
AcDbPolyline
 90
2
 70
0
 10
93.045100
 20
116.961100
 30
0.0
 10
93.303900
 20
115.995200
 30
0.0
  0
LWPOLYLINE
  5
28b
100
AcDbEntity
  8
Layer_1
 62
5
100
AcDbPolyline
 90
2
 70
0
 10
121.230700
 20
176.444900
 30
0.0
 10
122.230700
 20
176.444900
 30
0.0
  0
LWPOLYLINE
  5
28c
100
AcDbEntity
  8
Layer_1
 62
5
100
AcDbPolyline
 90
2
 70
0
 10
108.230700
 20
176.444900
 30
0.0
 10
109.230700
 20
176.444900
 30
0.0
  0
LWPOLYLINE
  5
28d
100
AcDbEntity
  8
Layer_1
 62
5
100
AcDbPolyline
 90
2
 70
0
 10
122.230700
 20
162.444900
 30
0.0
 10
121.230700
 20
162.444900
 30
0.0
  0
LWPOLYLINE
  5
28e
100
AcDbEntity
  8
Layer_1
 62
5
100
AcDbPolyline
 90
2
 70
0
 10
121.230700
 20
176.444900
 30
0.0
 10
122.230700
 20
176.444900
 30
0.0
  0
LWPOLYLINE
  5
28f
100
AcDbEntity
  8
Layer_1
 62
5
100
AcDbPolyline
 90
2
 70
0
 10
122.230700
 20
163.444900
 30
0.0
 10
122.230700
 20
162.444900
 30
0.0
  0
LWPOLYLINE
  5
290
100
AcDbEntity
  8
Layer_1
 62
5
100
AcDbPolyline
 90
2
 70
0
 10
108.230700
 20
175.444900
 30
0.0
 10
108.230700
 20
176.444900
 30
0.0
  0
LWPOLYLINE
  5
291
100
AcDbEntity
  8
Layer_1
 62
5
100
AcDbPolyline
 90
2
 70
0
 10
109.230700
 20
162.444900
 30
0.0
 10
108.230700
 20
162.444900
 30
0.0
  0
LWPOLYLINE
  5
292
100
AcDbEntity
  8
Layer_1
 62
5
100
AcDbPolyline
 90
2
 70
0
 10
108.230700
 20
176.444900
 30
0.0
 10
109.230700
 20
176.444900
 30
0.0
  0
LWPOLYLINE
  5
293
100
AcDbEntity
  8
Layer_1
 62
5
100
AcDbPolyline
 90
2
 70
0
 10
122.230700
 20
162.444900
 30
0.0
 10
121.230700
 20
162.444900
 30
0.0
  0
LWPOLYLINE
  5
294
100
AcDbEntity
  8
Layer_1
 62
5
100
AcDbPolyline
 90
2
 70
0
 10
122.230700
 20
176.444900
 30
0.0
 10
122.230700
 20
175.444900
 30
0.0
  0
LWPOLYLINE
  5
295
100
AcDbEntity
  8
Layer_1
 62
5
100
AcDbPolyline
 90
2
 70
0
 10
109.230700
 20
162.444900
 30
0.0
 10
108.230700
 20
162.444900
 30
0.0
  0
LWPOLYLINE
  5
296
100
AcDbEntity
  8
Layer_1
 62
5
100
AcDbPolyline
 90
2
 70
0
 10
122.230700
 20
176.444900
 30
0.0
 10
122.230700
 20
175.444900
 30
0.0
  0
LWPOLYLINE
  5
297
100
AcDbEntity
  8
Layer_1
 62
5
100
AcDbPolyline
 90
2
 70
0
 10
108.230700
 20
162.444900
 30
0.0
 10
108.230700
 20
163.444900
 30
0.0
  0
LWPOLYLINE
  5
298
100
AcDbEntity
  8
Layer_1
 62
5
100
AcDbPolyline
 90
2
 70
0
 10
108.230700
 20
175.444900
 30
0.0
 10
108.230700
 20
176.444900
 30
0.0
  0
LWPOLYLINE
  5
299
100
AcDbEntity
  8
Layer_1
 62
5
100
AcDbPolyline
 90
2
 70
0
 10
108.230700
 20
162.444900
 30
0.0
 10
108.230700
 20
163.444900
 30
0.0
  0
LWPOLYLINE
  5
29a
100
AcDbEntity
  8
Layer_1
 62
5
100
AcDbPolyline
 90
2
 70
0
 10
122.230700
 20
163.444900
 30
0.0
 10
122.230700
 20
162.444900
 30
0.0
  0
LWPOLYLINE
  5
29b
100
AcDbEntity
  8
Layer_1
 62
5
100
AcDbPolyline
 90
2
 70
0
 10
108.230700
 20
179.444900
 30
0.0
 10
108.230700
 20
180.444900
 30
0.0
  0
LWPOLYLINE
  5
29c
100
AcDbEntity
  8
Layer_1
 62
5
100
AcDbPolyline
 90
2
 70
0
 10
108.230700
 20
179.444900
 30
0.0
 10
108.230700
 20
180.444900
 30
0.0
  0
LWPOLYLINE
  5
29d
100
AcDbEntity
  8
Layer_1
 62
5
100
AcDbPolyline
 90
2
 70
0
 10
122.230700
 20
180.444900
 30
0.0
 10
122.230700
 20
179.444900
 30
0.0
  0
LWPOLYLINE
  5
29e
100
AcDbEntity
  8
Layer_1
 62
5
100
AcDbPolyline
 90
2
 70
0
 10
108.230700
 20
193.444900
 30
0.0
 10
109.230700
 20
193.444900
 30
0.0
  0
LWPOLYLINE
  5
29f
100
AcDbEntity
  8
Layer_1
 62
5
100
AcDbPolyline
 90
2
 70
0
 10
109.230700
 20
179.444900
 30
0.0
 10
108.230700
 20
179.444900
 30
0.0
  0
LWPOLYLINE
  5
2a0
100
AcDbEntity
  8
Layer_1
 62
5
100
AcDbPolyline
 90
2
 70
0
 10
109.230700
 20
179.444900
 30
0.0
 10
108.230700
 20
179.444900
 30
0.0
  0
LWPOLYLINE
  5
2a1
100
AcDbEntity
  8
Layer_1
 62
5
100
AcDbPolyline
 90
2
 70
0
 10
121.230700
 20
193.444900
 30
0.0
 10
122.230700
 20
193.444900
 30
0.0
  0
LWPOLYLINE
  5
2a2
100
AcDbEntity
  8
Layer_1
 62
5
100
AcDbPolyline
 90
2
 70
0
 10
122.230700
 20
179.444900
 30
0.0
 10
121.230700
 20
179.444900
 30
0.0
  0
LWPOLYLINE
  5
2a3
100
AcDbEntity
  8
Layer_1
 62
5
100
AcDbPolyline
 90
2
 70
0
 10
108.230700
 20
192.444900
 30
0.0
 10
108.230700
 20
193.444900
 30
0.0
  0
LWPOLYLINE
  5
2a4
100
AcDbEntity
  8
Layer_1
 62
5
100
AcDbPolyline
 90
2
 70
0
 10
122.230700
 20
180.444900
 30
0.0
 10
122.230700
 20
179.444900
 30
0.0
  0
LWPOLYLINE
  5
2a5
100
AcDbEntity
  8
Layer_1
 62
5
100
AcDbPolyline
 90
2
 70
0
 10
122.230700
 20
193.444900
 30
0.0
 10
122.230700
 20
192.444900
 30
0.0
  0
LWPOLYLINE
  5
2a6
100
AcDbEntity
  8
Layer_1
 62
5
100
AcDbPolyline
 90
2
 70
0
 10
121.230700
 20
193.444900
 30
0.0
 10
122.230700
 20
193.444900
 30
0.0
  0
LWPOLYLINE
  5
2a7
100
AcDbEntity
  8
Layer_1
 62
5
100
AcDbPolyline
 90
2
 70
0
 10
122.230700
 20
179.444900
 30
0.0
 10
121.230700
 20
179.444900
 30
0.0
  0
LWPOLYLINE
  5
2a8
100
AcDbEntity
  8
Layer_1
 62
5
100
AcDbPolyline
 90
2
 70
0
 10
122.230700
 20
193.444900
 30
0.0
 10
122.230700
 20
192.444900
 30
0.0
  0
LWPOLYLINE
  5
2a9
100
AcDbEntity
  8
Layer_1
 62
5
100
AcDbPolyline
 90
2
 70
0
 10
108.230700
 20
193.444900
 30
0.0
 10
109.230700
 20
193.444900
 30
0.0
  0
LWPOLYLINE
  5
2aa
100
AcDbEntity
  8
Layer_1
 62
5
100
AcDbPolyline
 90
2
 70
0
 10
108.230700
 20
192.444900
 30
0.0
 10
108.230700
 20
193.444900
 30
0.0
  0
LWPOLYLINE
  5
2ab
100
AcDbEntity
  8
Layer_1
 62
5
100
AcDbPolyline
 90
2
 70
0
 10
86.230700
 20
185.444900
 30
0.0
 10
86.230700
 20
184.444900
 30
0.0
  0
LWPOLYLINE
  5
2ac
100
AcDbEntity
  8
Layer_1
 62
5
100
AcDbPolyline
 90
3
 70
0
 10
86.230700
 20
172.444900
 30
0.0
 10
86.230700
 20
171.444900
 30
0.0
 10
85.230700
 20
171.444900
 30
0.0
  0
LWPOLYLINE
  5
2ad
100
AcDbEntity
  8
Layer_1
 62
5
100
AcDbPolyline
 90
2
 70
0
 10
72.230700
 20
171.444900
 30
0.0
 10
72.230700
 20
172.444900
 30
0.0
  0
LWPOLYLINE
  5
2ae
100
AcDbEntity
  8
Layer_1
 62
5
100
AcDbPolyline
 90
3
 70
0
 10
72.230700
 20
184.444900
 30
0.0
 10
72.230700
 20
185.444900
 30
0.0
 10
73.230700
 20
185.444900
 30
0.0
  0
LWPOLYLINE
  5
2af
100
AcDbEntity
  8
Layer_1
 62
5
100
AcDbPolyline
 90
2
 70
0
 10
85.230700
 20
185.444900
 30
0.0
 10
86.230700
 20
185.444900
 30
0.0
  0
LWPOLYLINE
  5
2b0
100
AcDbEntity
  8
Layer_1
 62
5
100
AcDbPolyline
 90
2
 70
0
 10
73.230700
 20
171.444900
 30
0.0
 10
72.230700
 20
171.444900
 30
0.0
  0
LWPOLYLINE
  5
2b1
100
AcDbEntity
  8
Layer_1
 62
5
100
AcDbPolyline
 90
2
 70
0
 10
85.230700
 20
185.444900
 30
0.0
 10
86.230700
 20
185.444900
 30
0.0
  0
LWPOLYLINE
  5
2b2
100
AcDbEntity
  8
Layer_1
 62
5
100
AcDbPolyline
 90
2
 70
0
 10
72.230700
 20
184.444900
 30
0.0
 10
72.230700
 20
185.444900
 30
0.0
  0
LWPOLYLINE
  5
2b3
100
AcDbEntity
  8
Layer_1
 62
5
100
AcDbPolyline
 90
2
 70
0
 10
86.230700
 20
185.444900
 30
0.0
 10
86.230700
 20
184.444900
 30
0.0
  0
LWPOLYLINE
  5
2b4
100
AcDbEntity
  8
Layer_1
 62
5
100
AcDbPolyline
 90
2
 70
0
 10
72.230700
 20
171.444900
 30
0.0
 10
72.230700
 20
172.444900
 30
0.0
  0
LWPOLYLINE
  5
2b5
100
AcDbEntity
  8
Layer_1
 62
5
100
AcDbPolyline
 90
2
 70
0
 10
86.230700
 20
171.444900
 30
0.0
 10
85.230700
 20
171.444900
 30
0.0
  0
LWPOLYLINE
  5
2b6
100
AcDbEntity
  8
Layer_1
 62
5
100
AcDbPolyline
 90
2
 70
0
 10
73.230700
 20
171.444900
 30
0.0
 10
72.230700
 20
171.444900
 30
0.0
  0
LWPOLYLINE
  5
2b7
100
AcDbEntity
  8
Layer_1
 62
5
100
AcDbPolyline
 90
2
 70
0
 10
72.230700
 20
185.444900
 30
0.0
 10
73.230700
 20
185.444900
 30
0.0
  0
LWPOLYLINE
  5
2b8
100
AcDbEntity
  8
Layer_1
 62
5
100
AcDbPolyline
 90
2
 70
0
 10
86.230700
 20
172.444900
 30
0.0
 10
86.230700
 20
171.444900
 30
0.0
  0
LWPOLYLINE
  5
2b9
100
AcDbEntity
  8
Layer_1
 62
5
100
AcDbPolyline
 90
2
 70
0
 10
90.230700
 20
139.444900
 30
0.0
 10
90.230700
 20
140.444900
 30
0.0
  0
LWPOLYLINE
  5
2ba
100
AcDbEntity
  8
Layer_1
 62
5
100
AcDbPolyline
 90
2
 70
0
 10
90.230700
 20
152.444900
 30
0.0
 10
90.230700
 20
153.444900
 30
0.0
  0
LWPOLYLINE
  5
2bb
100
AcDbEntity
  8
Layer_1
 62
5
100
AcDbPolyline
 90
2
 70
0
 10
104.230700
 20
140.444900
 30
0.0
 10
104.230700
 20
139.444900
 30
0.0
  0
LWPOLYLINE
  5
2bc
100
AcDbEntity
  8
Layer_1
 62
5
100
AcDbPolyline
 90
2
 70
0
 10
90.230700
 20
153.444900
 30
0.0
 10
91.230700
 20
153.444900
 30
0.0
  0
LWPOLYLINE
  5
2bd
100
AcDbEntity
  8
Layer_1
 62
5
100
AcDbPolyline
 90
2
 70
0
 10
91.230700
 20
139.444900
 30
0.0
 10
90.230700
 20
139.444900
 30
0.0
  0
LWPOLYLINE
  5
2be
100
AcDbEntity
  8
Layer_1
 62
5
100
AcDbPolyline
 90
2
 70
0
 10
103.230700
 20
153.444900
 30
0.0
 10
104.230700
 20
153.444900
 30
0.0
  0
LWPOLYLINE
  5
2bf
100
AcDbEntity
  8
Layer_1
 62
5
100
AcDbPolyline
 90
2
 70
0
 10
90.230700
 20
152.444900
 30
0.0
 10
90.230700
 20
153.444900
 30
0.0
  0
LWPOLYLINE
  5
2c0
100
AcDbEntity
  8
Layer_1
 62
5
100
AcDbPolyline
 90
3
 70
0
 10
104.230700
 20
140.444900
 30
0.0
 10
104.230700
 20
139.444900
 30
0.0
 10
103.230700
 20
139.444900
 30
0.0
  0
LWPOLYLINE
  5
2c1
100
AcDbEntity
  8
Layer_1
 62
5
100
AcDbPolyline
 90
2
 70
0
 10
104.230700
 20
139.444900
 30
0.0
 10
103.230700
 20
139.444900
 30
0.0
  0
LWPOLYLINE
  5
2c2
100
AcDbEntity
  8
Layer_1
 62
5
100
AcDbPolyline
 90
2
 70
0
 10
104.230700
 20
153.444900
 30
0.0
 10
104.230700
 20
152.444900
 30
0.0
  0
LWPOLYLINE
  5
2c3
100
AcDbEntity
  8
Layer_1
 62
5
100
AcDbPolyline
 90
2
 70
0
 10
104.230700
 20
153.444900
 30
0.0
 10
104.230700
 20
152.444900
 30
0.0
  0
LWPOLYLINE
  5
2c4
100
AcDbEntity
  8
Layer_1
 62
5
100
AcDbPolyline
 90
2
 70
0
 10
90.230700
 20
139.444900
 30
0.0
 10
90.230700
 20
140.444900
 30
0.0
  0
LWPOLYLINE
  5
2c5
100
AcDbEntity
  8
Layer_1
 62
5
100
AcDbPolyline
 90
2
 70
0
 10
103.230700
 20
153.444900
 30
0.0
 10
104.230700
 20
153.444900
 30
0.0
  0
LWPOLYLINE
  5
2c6
100
AcDbEntity
  8
Layer_1
 62
5
100
AcDbPolyline
 90
2
 70
0
 10
91.230700
 20
139.444900
 30
0.0
 10
90.230700
 20
139.444900
 30
0.0
  0
LWPOLYLINE
  5
2c7
100
AcDbEntity
  8
Layer_1
 62
5
100
AcDbPolyline
 90
2
 70
0
 10
90.230700
 20
153.444900
 30
0.0
 10
91.230700
 20
153.444900
 30
0.0
  0
LWPOLYLINE
  5
2c8
100
AcDbEntity
  8
Layer_1
 62
5
100
AcDbPolyline
 90
2
 70
0
 10
157.230700
 20
181.444900
 30
0.0
 10
158.230700
 20
181.444900
 30
0.0
  0
LWPOLYLINE
  5
2c9
100
AcDbEntity
  8
Layer_1
 62
5
100
AcDbPolyline
 90
2
 70
0
 10
158.230700
 20
167.444900
 30
0.0
 10
157.230700
 20
167.444900
 30
0.0
  0
LWPOLYLINE
  5
2ca
100
AcDbEntity
  8
Layer_1
 62
5
100
AcDbPolyline
 90
2
 70
0
 10
144.230700
 20
181.444900
 30
0.0
 10
145.230700
 20
181.444900
 30
0.0
  0
LWPOLYLINE
  5
2cb
100
AcDbEntity
  8
Layer_1
 62
5
100
AcDbPolyline
 90
2
 70
0
 10
144.230700
 20
181.444900
 30
0.0
 10
145.230700
 20
181.444900
 30
0.0
  0
LWPOLYLINE
  5
2cc
100
AcDbEntity
  8
Layer_1
 62
5
100
AcDbPolyline
 90
2
 70
0
 10
158.230700
 20
181.444900
 30
0.0
 10
158.230700
 20
180.444900
 30
0.0
  0
LWPOLYLINE
  5
2cd
100
AcDbEntity
  8
Layer_1
 62
5
100
AcDbPolyline
 90
2
 70
0
 10
144.230700
 20
167.444900
 30
0.0
 10
144.230700
 20
168.444900
 30
0.0
  0
LWPOLYLINE
  5
2ce
100
AcDbEntity
  8
Layer_1
 62
5
100
AcDbPolyline
 90
2
 70
0
 10
145.230700
 20
167.444900
 30
0.0
 10
144.230700
 20
167.444900
 30
0.0
  0
LWPOLYLINE
  5
2cf
100
AcDbEntity
  8
Layer_1
 62
5
100
AcDbPolyline
 90
2
 70
0
 10
144.230700
 20
180.444900
 30
0.0
 10
144.230700
 20
181.444900
 30
0.0
  0
LWPOLYLINE
  5
2d0
100
AcDbEntity
  8
Layer_1
 62
5
100
AcDbPolyline
 90
2
 70
0
 10
158.230700
 20
168.444900
 30
0.0
 10
158.230700
 20
167.444900
 30
0.0
  0
LWPOLYLINE
  5
2d1
100
AcDbEntity
  8
Layer_1
 62
5
100
AcDbPolyline
 90
2
 70
0
 10
158.230700
 20
181.444900
 30
0.0
 10
158.230700
 20
180.444900
 30
0.0
  0
LWPOLYLINE
  5
2d2
100
AcDbEntity
  8
Layer_1
 62
5
100
AcDbPolyline
 90
2
 70
0
 10
144.230700
 20
167.444900
 30
0.0
 10
144.230700
 20
168.444900
 30
0.0
  0
LWPOLYLINE
  5
2d3
100
AcDbEntity
  8
Layer_1
 62
5
100
AcDbPolyline
 90
2
 70
0
 10
157.230700
 20
181.444900
 30
0.0
 10
158.230700
 20
181.444900
 30
0.0
  0
LWPOLYLINE
  5
2d4
100
AcDbEntity
  8
Layer_1
 62
5
100
AcDbPolyline
 90
3
 70
0
 10
158.230700
 20
168.444900
 30
0.0
 10
158.230700
 20
167.444900
 30
0.0
 10
157.230700
 20
167.444900
 30
0.0
  0
LWPOLYLINE
  5
2d5
100
AcDbEntity
  8
Layer_1
 62
5
100
AcDbPolyline
 90
2
 70
0
 10
144.230700
 20
180.444900
 30
0.0
 10
144.230700
 20
181.444900
 30
0.0
  0
LWPOLYLINE
  5
2d6
100
AcDbEntity
  8
Layer_1
 62
5
100
AcDbPolyline
 90
2
 70
0
 10
145.230700
 20
167.444900
 30
0.0
 10
144.230700
 20
167.444900
 30
0.0
  0
LWPOLYLINE
  5
2d7
100
AcDbEntity
  8
Layer_1
 62
5
100
AcDbPolyline
 90
2
 70
0
 10
144.230700
 20
163.444900
 30
0.0
 10
144.230700
 20
164.444900
 30
0.0
  0
LWPOLYLINE
  5
2d8
100
AcDbEntity
  8
Layer_1
 62
5
100
AcDbPolyline
 90
2
 70
0
 10
158.230700
 20
150.444900
 30
0.0
 10
157.230700
 20
150.444900
 30
0.0
  0
LWPOLYLINE
  5
2d9
100
AcDbEntity
  8
Layer_1
 62
5
100
AcDbPolyline
 90
2
 70
0
 10
158.230700
 20
164.444900
 30
0.0
 10
158.230700
 20
163.444900
 30
0.0
  0
LWPOLYLINE
  5
2da
100
AcDbEntity
  8
Layer_1
 62
5
100
AcDbPolyline
 90
2
 70
0
 10
158.230700
 20
150.444900
 30
0.0
 10
157.230700
 20
150.444900
 30
0.0
  0
LWPOLYLINE
  5
2db
100
AcDbEntity
  8
Layer_1
 62
5
100
AcDbPolyline
 90
2
 70
0
 10
144.230700
 20
150.444900
 30
0.0
 10
144.230700
 20
151.444900
 30
0.0
  0
LWPOLYLINE
  5
2dc
100
AcDbEntity
  8
Layer_1
 62
5
100
AcDbPolyline
 90
2
 70
0
 10
158.230700
 20
151.444900
 30
0.0
 10
158.230700
 20
150.444900
 30
0.0
  0
LWPOLYLINE
  5
2dd
100
AcDbEntity
  8
Layer_1
 62
5
100
AcDbPolyline
 90
2
 70
0
 10
144.230700
 20
164.444900
 30
0.0
 10
145.230700
 20
164.444900
 30
0.0
  0
LWPOLYLINE
  5
2de
100
AcDbEntity
  8
Layer_1
 62
5
100
AcDbPolyline
 90
2
 70
0
 10
144.230700
 20
150.444900
 30
0.0
 10
144.230700
 20
151.444900
 30
0.0
  0
LWPOLYLINE
  5
2df
100
AcDbEntity
  8
Layer_1
 62
5
100
AcDbPolyline
 90
2
 70
0
 10
157.230700
 20
164.444900
 30
0.0
 10
158.230700
 20
164.444900
 30
0.0
  0
LWPOLYLINE
  5
2e0
100
AcDbEntity
  8
Layer_1
 62
5
100
AcDbPolyline
 90
2
 70
0
 10
144.230700
 20
163.444900
 30
0.0
 10
144.230700
 20
164.444900
 30
0.0
  0
LWPOLYLINE
  5
2e1
100
AcDbEntity
  8
Layer_1
 62
5
100
AcDbPolyline
 90
2
 70
0
 10
145.230700
 20
150.444900
 30
0.0
 10
144.230700
 20
150.444900
 30
0.0
  0
LWPOLYLINE
  5
2e2
100
AcDbEntity
  8
Layer_1
 62
5
100
AcDbPolyline
 90
2
 70
0
 10
144.230700
 20
164.444900
 30
0.0
 10
145.230700
 20
164.444900
 30
0.0
  0
LWPOLYLINE
  5
2e3
100
AcDbEntity
  8
Layer_1
 62
5
100
AcDbPolyline
 90
2
 70
0
 10
145.230700
 20
150.444900
 30
0.0
 10
144.230700
 20
150.444900
 30
0.0
  0
LWPOLYLINE
  5
2e4
100
AcDbEntity
  8
Layer_1
 62
5
100
AcDbPolyline
 90
2
 70
0
 10
158.230700
 20
151.444900
 30
0.0
 10
158.230700
 20
150.444900
 30
0.0
  0
LWPOLYLINE
  5
2e5
100
AcDbEntity
  8
Layer_1
 62
5
100
AcDbPolyline
 90
3
 70
0
 10
157.230700
 20
164.444900
 30
0.0
 10
158.230700
 20
164.444900
 30
0.0
 10
158.230700
 20
163.444900
 30
0.0
  0
LWPOLYLINE
  5
2e6
100
AcDbEntity
  8
Layer_1
 62
5
100
AcDbPolyline
 90
2
 70
0
 10
104.230700
 20
173.444900
 30
0.0
 10
103.230700
 20
173.444900
 30
0.0
  0
LWPOLYLINE
  5
2e7
100
AcDbEntity
  8
Layer_1
 62
5
100
AcDbPolyline
 90
2
 70
0
 10
104.230700
 20
173.444900
 30
0.0
 10
103.230700
 20
173.444900
 30
0.0
  0
LWPOLYLINE
  5
2e8
100
AcDbEntity
  8
Layer_1
 62
5
100
AcDbPolyline
 90
2
 70
0
 10
91.230700
 20
173.444900
 30
0.0
 10
90.230700
 20
173.444900
 30
0.0
  0
LWPOLYLINE
  5
2e9
100
AcDbEntity
  8
Layer_1
 62
5
100
AcDbPolyline
 90
3
 70
0
 10
103.230700
 20
187.444900
 30
0.0
 10
104.230700
 20
187.444900
 30
0.0
 10
104.230700
 20
186.444900
 30
0.0
  0
LWPOLYLINE
  5
2ea
100
AcDbEntity
  8
Layer_1
 62
5
100
AcDbPolyline
 90
2
 70
0
 10
90.230700
 20
187.444900
 30
0.0
 10
91.230700
 20
187.444900
 30
0.0
  0
LWPOLYLINE
  5
2eb
100
AcDbEntity
  8
Layer_1
 62
5
100
AcDbPolyline
 90
2
 70
0
 10
90.230700
 20
187.444900
 30
0.0
 10
91.230700
 20
187.444900
 30
0.0
  0
LWPOLYLINE
  5
2ec
100
AcDbEntity
  8
Layer_1
 62
5
100
AcDbPolyline
 90
2
 70
0
 10
104.230700
 20
174.444900
 30
0.0
 10
104.230700
 20
173.444900
 30
0.0
  0
LWPOLYLINE
  5
2ed
100
AcDbEntity
  8
Layer_1
 62
5
100
AcDbPolyline
 90
2
 70
0
 10
90.230700
 20
173.444900
 30
0.0
 10
90.230700
 20
174.444900
 30
0.0
  0
LWPOLYLINE
  5
2ee
100
AcDbEntity
  8
Layer_1
 62
5
100
AcDbPolyline
 90
2
 70
0
 10
103.230700
 20
187.444900
 30
0.0
 10
104.230700
 20
187.444900
 30
0.0
  0
LWPOLYLINE
  5
2ef
100
AcDbEntity
  8
Layer_1
 62
5
100
AcDbPolyline
 90
2
 70
0
 10
91.230700
 20
173.444900
 30
0.0
 10
90.230700
 20
173.444900
 30
0.0
  0
LWPOLYLINE
  5
2f0
100
AcDbEntity
  8
Layer_1
 62
5
100
AcDbPolyline
 90
2
 70
0
 10
104.230700
 20
174.444900
 30
0.0
 10
104.230700
 20
173.444900
 30
0.0
  0
LWPOLYLINE
  5
2f1
100
AcDbEntity
  8
Layer_1
 62
5
100
AcDbPolyline
 90
2
 70
0
 10
90.230700
 20
173.444900
 30
0.0
 10
90.230700
 20
174.444900
 30
0.0
  0
LWPOLYLINE
  5
2f2
100
AcDbEntity
  8
Layer_1
 62
5
100
AcDbPolyline
 90
2
 70
0
 10
104.230700
 20
187.444900
 30
0.0
 10
104.230700
 20
186.444900
 30
0.0
  0
LWPOLYLINE
  5
2f3
100
AcDbEntity
  8
Layer_1
 62
5
100
AcDbPolyline
 90
2
 70
0
 10
90.230700
 20
186.444900
 30
0.0
 10
90.230700
 20
187.444900
 30
0.0
  0
LWPOLYLINE
  5
2f4
100
AcDbEntity
  8
Layer_1
 62
5
100
AcDbPolyline
 90
2
 70
0
 10
90.230700
 20
186.444900
 30
0.0
 10
90.230700
 20
187.444900
 30
0.0
  0
LWPOLYLINE
  5
2f5
100
AcDbEntity
  8
Layer_1
 62
5
100
AcDbPolyline
 90
2
 70
0
 10
72.230700
 20
151.444900
 30
0.0
 10
73.230700
 20
151.444900
 30
0.0
  0
LWPOLYLINE
  5
2f6
100
AcDbEntity
  8
Layer_1
 62
5
100
AcDbPolyline
 90
2
 70
0
 10
86.230700
 20
138.444900
 30
0.0
 10
86.230700
 20
137.444900
 30
0.0
  0
LWPOLYLINE
  5
2f7
100
AcDbEntity
  8
Layer_1
 62
5
100
AcDbPolyline
 90
2
 70
0
 10
73.230700
 20
137.444900
 30
0.0
 10
72.230700
 20
137.444900
 30
0.0
  0
LWPOLYLINE
  5
2f8
100
AcDbEntity
  8
Layer_1
 62
5
100
AcDbPolyline
 90
2
 70
0
 10
72.230700
 20
150.444900
 30
0.0
 10
72.230700
 20
151.444900
 30
0.0
  0
LWPOLYLINE
  5
2f9
100
AcDbEntity
  8
Layer_1
 62
5
100
AcDbPolyline
 90
3
 70
0
 10
85.230700
 20
151.444900
 30
0.0
 10
86.230700
 20
151.444900
 30
0.0
 10
86.230700
 20
150.444900
 30
0.0
  0
LWPOLYLINE
  5
2fa
100
AcDbEntity
  8
Layer_1
 62
5
100
AcDbPolyline
 90
2
 70
0
 10
73.230700
 20
137.444900
 30
0.0
 10
72.230700
 20
137.444900
 30
0.0
  0
LWPOLYLINE
  5
2fb
100
AcDbEntity
  8
Layer_1
 62
5
100
AcDbPolyline
 90
2
 70
0
 10
72.230700
 20
150.444900
 30
0.0
 10
72.230700
 20
151.444900
 30
0.0
  0
LWPOLYLINE
  5
2fc
100
AcDbEntity
  8
Layer_1
 62
5
100
AcDbPolyline
 90
2
 70
0
 10
72.230700
 20
137.444900
 30
0.0
 10
72.230700
 20
138.444900
 30
0.0
  0
LWPOLYLINE
  5
2fd
100
AcDbEntity
  8
Layer_1
 62
5
100
AcDbPolyline
 90
2
 70
0
 10
72.230700
 20
137.444900
 30
0.0
 10
72.230700
 20
138.444900
 30
0.0
  0
LWPOLYLINE
  5
2fe
100
AcDbEntity
  8
Layer_1
 62
5
100
AcDbPolyline
 90
2
 70
0
 10
72.230700
 20
151.444900
 30
0.0
 10
73.230700
 20
151.444900
 30
0.0
  0
LWPOLYLINE
  5
2ff
100
AcDbEntity
  8
Layer_1
 62
5
100
AcDbPolyline
 90
2
 70
0
 10
85.230700
 20
151.444900
 30
0.0
 10
86.230700
 20
151.444900
 30
0.0
  0
LWPOLYLINE
  5
300
100
AcDbEntity
  8
Layer_1
 62
5
100
AcDbPolyline
 90
3
 70
0
 10
86.230700
 20
138.444900
 30
0.0
 10
86.230700
 20
137.444900
 30
0.0
 10
85.230700
 20
137.444900
 30
0.0
  0
LWPOLYLINE
  5
301
100
AcDbEntity
  8
Layer_1
 62
5
100
AcDbPolyline
 90
2
 70
0
 10
86.230700
 20
137.444900
 30
0.0
 10
85.230700
 20
137.444900
 30
0.0
  0
LWPOLYLINE
  5
302
100
AcDbEntity
  8
Layer_1
 62
5
100
AcDbPolyline
 90
2
 70
0
 10
86.230700
 20
151.444900
 30
0.0
 10
86.230700
 20
150.444900
 30
0.0
  0
LWPOLYLINE
  5
303
100
AcDbEntity
  8
Layer_1
 62
5
100
AcDbPolyline
 90
4
 70
1
 10
49.340700
 20
165.944900
 30
0.0
 10
67.120700
 20
165.944900
 30
0.0
 10
67.120700
 20
186.944900
 30
0.0
 10
49.340700
 20
186.944900
 30
0.0
  0
LWPOLYLINE
  5
304
100
AcDbEntity
  8
Layer_1
 62
5
100
AcDbPolyline
 90
2
 70
0
 10
98.330700
 20
119.644900
 30
0.0
 10
97.330700
 20
119.644900
 30
0.0
  0
LWPOLYLINE
  5
305
100
AcDbEntity
  8
Layer_1
 62
5
100
AcDbPolyline
 90
3
 70
0
 10
98.330700
 20
119.644900
 30
0.0
 10
97.330700
 20
119.644900
 30
0.0
 10
97.330700
 20
120.644900
 30
0.0
  0
LWPOLYLINE
  5
306
100
AcDbEntity
  8
Layer_1
 62
5
100
AcDbPolyline
 90
2
 70
0
 10
97.330700
 20
132.644900
 30
0.0
 10
97.330700
 20
133.644900
 30
0.0
  0
LWPOLYLINE
  5
307
100
AcDbEntity
  8
Layer_1
 62
5
100
AcDbPolyline
 90
2
 70
0
 10
97.330700
 20
132.644900
 30
0.0
 10
97.330700
 20
133.644900
 30
0.0
  0
LWPOLYLINE
  5
308
100
AcDbEntity
  8
Layer_1
 62
5
100
AcDbPolyline
 90
2
 70
0
 10
111.330700
 20
133.644900
 30
0.0
 10
111.330700
 20
132.644900
 30
0.0
  0
LWPOLYLINE
  5
309
100
AcDbEntity
  8
Layer_1
 62
5
100
AcDbPolyline
 90
2
 70
0
 10
97.330700
 20
133.644900
 30
0.0
 10
98.330700
 20
133.644900
 30
0.0
  0
LWPOLYLINE
  5
30a
100
AcDbEntity
  8
Layer_1
 62
5
100
AcDbPolyline
 90
2
 70
0
 10
111.330700
 20
120.644900
 30
0.0
 10
111.330700
 20
119.644900
 30
0.0
  0
LWPOLYLINE
  5
30b
100
AcDbEntity
  8
Layer_1
 62
5
100
AcDbPolyline
 90
2
 70
0
 10
111.330700
 20
120.644900
 30
0.0
 10
111.330700
 20
119.644900
 30
0.0
  0
LWPOLYLINE
  5
30c
100
AcDbEntity
  8
Layer_1
 62
5
100
AcDbPolyline
 90
2
 70
0
 10
110.330700
 20
133.644900
 30
0.0
 10
111.330700
 20
133.644900
 30
0.0
  0
LWPOLYLINE
  5
30d
100
AcDbEntity
  8
Layer_1
 62
5
100
AcDbPolyline
 90
2
 70
0
 10
97.330700
 20
133.644900
 30
0.0
 10
98.330700
 20
133.644900
 30
0.0
  0
LWPOLYLINE
  5
30e
100
AcDbEntity
  8
Layer_1
 62
5
100
AcDbPolyline
 90
2
 70
0
 10
97.330700
 20
119.644900
 30
0.0
 10
97.330700
 20
120.644900
 30
0.0
  0
LWPOLYLINE
  5
30f
100
AcDbEntity
  8
Layer_1
 62
5
100
AcDbPolyline
 90
3
 70
0
 10
110.330700
 20
133.644900
 30
0.0
 10
111.330700
 20
133.644900
 30
0.0
 10
111.330700
 20
132.644900
 30
0.0
  0
LWPOLYLINE
  5
310
100
AcDbEntity
  8
Layer_1
 62
5
100
AcDbPolyline
 90
2
 70
0
 10
111.330700
 20
119.644900
 30
0.0
 10
110.330700
 20
119.644900
 30
0.0
  0
LWPOLYLINE
  5
311
100
AcDbEntity
  8
Layer_1
 62
5
100
AcDbPolyline
 90
2
 70
0
 10
111.330700
 20
119.644900
 30
0.0
 10
110.330700
 20
119.644900
 30
0.0
  0
LWPOLYLINE
  5
312
100
AcDbEntity
  8
Layer_1
 62
5
100
AcDbPolyline
 90
2
 70
0
 10
103.230700
 20
170.444900
 30
0.0
 10
104.230700
 20
170.444900
 30
0.0
  0
LWPOLYLINE
  5
313
100
AcDbEntity
  8
Layer_1
 62
5
100
AcDbPolyline
 90
2
 70
0
 10
90.230700
 20
156.444900
 30
0.0
 10
90.230700
 20
157.444900
 30
0.0
  0
LWPOLYLINE
  5
314
100
AcDbEntity
  8
Layer_1
 62
5
100
AcDbPolyline
 90
2
 70
0
 10
104.230700
 20
157.444900
 30
0.0
 10
104.230700
 20
156.444900
 30
0.0
  0
LWPOLYLINE
  5
315
100
AcDbEntity
  8
Layer_1
 62
5
100
AcDbPolyline
 90
2
 70
0
 10
104.230700
 20
170.444900
 30
0.0
 10
104.230700
 20
169.444900
 30
0.0
  0
LWPOLYLINE
  5
316
100
AcDbEntity
  8
Layer_1
 62
5
100
AcDbPolyline
 90
2
 70
0
 10
90.230700
 20
170.444900
 30
0.0
 10
91.230700
 20
170.444900
 30
0.0
  0
LWPOLYLINE
  5
317
100
AcDbEntity
  8
Layer_1
 62
5
100
AcDbPolyline
 90
2
 70
0
 10
90.230700
 20
169.444900
 30
0.0
 10
90.230700
 20
170.444900
 30
0.0
  0
LWPOLYLINE
  5
318
100
AcDbEntity
  8
Layer_1
 62
5
100
AcDbPolyline
 90
2
 70
0
 10
104.230700
 20
156.444900
 30
0.0
 10
103.230700
 20
156.444900
 30
0.0
  0
LWPOLYLINE
  5
319
100
AcDbEntity
  8
Layer_1
 62
5
100
AcDbPolyline
 90
3
 70
0
 10
91.230700
 20
156.444900
 30
0.0
 10
90.230700
 20
156.444900
 30
0.0
 10
90.230700
 20
157.444900
 30
0.0
  0
LWPOLYLINE
  5
31a
100
AcDbEntity
  8
Layer_1
 62
5
100
AcDbPolyline
 90
2
 70
0
 10
104.230700
 20
156.444900
 30
0.0
 10
103.230700
 20
156.444900
 30
0.0
  0
LWPOLYLINE
  5
31b
100
AcDbEntity
  8
Layer_1
 62
5
100
AcDbPolyline
 90
2
 70
0
 10
90.230700
 20
169.444900
 30
0.0
 10
90.230700
 20
170.444900
 30
0.0
  0
LWPOLYLINE
  5
31c
100
AcDbEntity
  8
Layer_1
 62
5
100
AcDbPolyline
 90
2
 70
0
 10
103.230700
 20
170.444900
 30
0.0
 10
104.230700
 20
170.444900
 30
0.0
  0
LWPOLYLINE
  5
31d
100
AcDbEntity
  8
Layer_1
 62
5
100
AcDbPolyline
 90
2
 70
0
 10
91.230700
 20
156.444900
 30
0.0
 10
90.230700
 20
156.444900
 30
0.0
  0
LWPOLYLINE
  5
31e
100
AcDbEntity
  8
Layer_1
 62
5
100
AcDbPolyline
 90
2
 70
0
 10
90.230700
 20
170.444900
 30
0.0
 10
91.230700
 20
170.444900
 30
0.0
  0
LWPOLYLINE
  5
31f
100
AcDbEntity
  8
Layer_1
 62
5
100
AcDbPolyline
 90
2
 70
0
 10
104.230700
 20
170.444900
 30
0.0
 10
104.230700
 20
169.444900
 30
0.0
  0
LWPOLYLINE
  5
320
100
AcDbEntity
  8
Layer_1
 62
5
100
AcDbPolyline
 90
2
 70
0
 10
104.230700
 20
157.444900
 30
0.0
 10
104.230700
 20
156.444900
 30
0.0
  0
LWPOLYLINE
  5
321
100
AcDbEntity
  8
Layer_1
 62
5
100
AcDbPolyline
 90
4
 70
1
 10
67.120700
 20
165.944900
 30
0.0
 10
49.340700
 20
165.944900
 30
0.0
 10
49.340700
 20
186.944900
 30
0.0
 10
67.120700
 20
186.944900
 30
0.0
  0
LWPOLYLINE
  5
322
100
AcDbEntity
  8
Layer_1
 62
7
100
AcDbPolyline
 90
2
 70
0
 10
85.930699
 20
192.214900
 30
0.0
 10
85.930699
 20
188.414900
 30
0.0
  0
LWPOLYLINE
  5
323
100
AcDbEntity
  8
Layer_1
 62
7
100
AcDbPolyline
 90
2
 70
0
 10
84.030700
 20
190.314900
 30
0.0
 10
87.830699
 20
190.314900
 30
0.0
  0
LWPOLYLINE
  5
324
100
AcDbEntity
  8
Layer_1
 62
7
100
AcDbPolyline
 90
2
 70
0
 10
67.930701
 20
162.214900
 30
0.0
 10
67.930701
 20
158.414900
 30
0.0
  0
LWPOLYLINE
  5
325
100
AcDbEntity
  8
Layer_1
 62
7
100
AcDbPolyline
 90
2
 70
0
 10
69.830700
 20
160.314900
 30
0.0
 10
66.030699
 20
160.314900
 30
0.0
  0
LWPOLYLINE
  5
326
100
AcDbEntity
  8
Layer_1
 62
7
100
AcDbPolyline
 90
2
 70
0
 10
57.930700
 20
134.214900
 30
0.0
 10
57.930700
 20
130.414900
 30
0.0
  0
LWPOLYLINE
  5
327
100
AcDbEntity
  8
Layer_1
 62
7
100
AcDbPolyline
 90
2
 70
0
 10
56.030701
 20
132.314900
 30
0.0
 10
59.830699
 20
132.314900
 30
0.0
  0
LWPOLYLINE
  5
328
100
AcDbEntity
  8
Layer_1
 62
7
100
AcDbPolyline
 90
2
 70
0
 10
99.930700
 20
117.214900
 30
0.0
 10
99.930700
 20
113.414900
 30
0.0
  0
LWPOLYLINE
  5
329
100
AcDbEntity
  8
Layer_1
 62
7
100
AcDbPolyline
 90
2
 70
0
 10
101.830700
 20
115.314900
 30
0.0
 10
98.030701
 20
115.314900
 30
0.0
  0
LWPOLYLINE
  5
32a
100
AcDbEntity
  8
Layer_1
 62
7
100
AcDbPolyline
 90
2
 70
0
 10
134.930700
 20
133.214900
 30
0.0
 10
134.930700
 20
129.414900
 30
0.0
  0
LWPOLYLINE
  5
32b
100
AcDbEntity
  8
Layer_1
 62
7
100
AcDbPolyline
 90
2
 70
0
 10
136.830700
 20
131.314900
 30
0.0
 10
133.030700
 20
131.314900
 30
0.0
  0
LWPOLYLINE
  5
32c
100
AcDbEntity
  8
Layer_1
 62
7
100
AcDbPolyline
 90
2
 70
0
 10
110.230700
 20
141.344900
 30
0.0
 10
110.230700
 20
137.544900
 30
0.0
  0
LWPOLYLINE
  5
32d
100
AcDbEntity
  8
Layer_1
 62
7
100
AcDbPolyline
 90
2
 70
0
 10
112.130700
 20
139.444900
 30
0.0
 10
108.330700
 20
139.444900
 30
0.0
  0
LWPOLYLINE
  5
32e
100
AcDbEntity
  8
Layer_1
 62
7
100
AcDbPolyline
 90
2
 70
0
 10
89.592900
 20
158.662100
 30
0.0
 10
89.592900
 20
154.862100
 30
0.0
  0
LWPOLYLINE
  5
32f
100
AcDbEntity
  8
Layer_1
 62
7
100
AcDbPolyline
 90
2
 70
0
 10
91.492900
 20
156.762100
 30
0.0
 10
87.692901
 20
156.762100
 30
0.0
  0
LWPOLYLINE
  5
330
100
AcDbEntity
  8
Layer_1
 62
7
100
AcDbPolyline
 90
2
 70
0
 10
106.910000
 20
179.300000
 30
0.0
 10
106.910000
 20
175.500000
 30
0.0
  0
LWPOLYLINE
  5
331
100
AcDbEntity
  8
Layer_1
 62
7
100
AcDbPolyline
 90
2
 70
0
 10
108.810000
 20
177.400000
 30
0.0
 10
105.010000
 20
177.400000
 30
0.0
  0
LWPOLYLINE
  5
332
100
AcDbEntity
  8
Layer_1
 62
7
100
AcDbPolyline
 90
2
 70
0
 10
145.930700
 20
188.214900
 30
0.0
 10
145.930700
 20
184.414900
 30
0.0
  0
LWPOLYLINE
  5
333
100
AcDbEntity
  8
Layer_1
 62
7
100
AcDbPolyline
 90
2
 70
0
 10
147.830700
 20
186.314900
 30
0.0
 10
144.030700
 20
186.314900
 30
0.0
  0
ENDSEC
  0
SECTION
  2
OBJECTS
  0
DICTIONARY
  5
C
330
0
100
AcDbDictionary
  3
ACAD_GROUP
350
D
  3
ACAD_MLINESTYLE
350
17
  0
DICTIONARY
  5
D
330
C
100
AcDbDictionary
  0
DICTIONARY
  5
1A
330
C
100
AcDbDictionary
  0
DICTIONARY
  5
17
330
C
100
AcDbDictionary
  3
STANDARD
350
18
  0
DICTIONARY
  5
19
330
C
100
AcDbDictionary
  0
ENDSEC
  0
EOF
