<?xml version="1.0" standalone="no"?>
 <!DOCTYPE svg PUBLIC "-//W3C//DTD SVG 1.1//EN" 
 "http://www.w3.org/Graphics/SVG/1.1/DTD/svg11.dtd"> 
<svg
  xmlns:svg="http://www.w3.org/2000/svg"
  xmlns="http://www.w3.org/2000/svg"
  xmlns:xlink="http://www.w3.org/1999/xlink"
  version="1.1"
  width="14.099540cm" height="12.247880cm" viewBox="0 0 140995400 122478800">
<title>SVG Picture created as rknt36-User_9.svg date 2023/01/29 11:45:36 </title>
  <desc>Picture generated by PCBNEW </desc>
<g style="fill:#000000; fill-opacity:1.000000;stroke:#000000; stroke-opacity:1.000000;
stroke-linecap:round; stroke-linejoin:round;"
 transform="translate(0 0) scale(1 1)">
</g>
<g style="fill:#000000; fill-opacity:0.0; 
stroke:#000000; stroke-width:0.000000; stroke-opacity:1; 
stroke-linecap:round; stroke-linejoin:round;">
</g>
<g style="fill:#E8B2A7; fill-opacity:0.0; 
stroke:#E8B2A7; stroke-width:0.000000; stroke-opacity:1; 
stroke-linecap:round; stroke-linejoin:round;">
</g>
<g style="fill:#E8B2A7; fill-opacity:0.0; 
stroke:#E8B2A7; stroke-width:120000.000000; stroke-opacity:1; 
stroke-linecap:round; stroke-linejoin:round;">
<path d="M88000000 49000000
L106000000 49000000
" />
<path d="M106000000 49000000
L106000000 32000000
" />
<path d="M106000000 32000000
L88000000 32000000
" />
<path d="M88000000 32000000
L88000000 49000000
" />
<path d="M106000000 72000000
L124000000 72000000
" />
<path d="M124000000 72000000
L124000000 55000000
" />
<path d="M124000000 55000000
L106000000 55000000
" />
<path d="M106000000 55000000
L106000000 72000000
" />
<path d="M88000000 66000000
L106000000 66000000
" />
<path d="M106000000 66000000
L106000000 49000000
" />
<path d="M106000000 49000000
L88000000 49000000
" />
<path d="M88000000 49000000
L88000000 66000000
" />
<path d="M34000000 51000000
L52000000 51000000
" />
<path d="M52000000 51000000
L52000000 34000000
" />
<path d="M52000000 34000000
L34000000 34000000
" />
<path d="M34000000 34000000
L34000000 51000000
" />
<path d="M88000000 32000000
L106000000 32000000
" />
<path d="M106000000 32000000
L106000000 15000000
" />
<path d="M106000000 15000000
L88000000 15000000
" />
<path d="M88000000 15000000
L88000000 32000000
" />
<path d="M70000000 60000000
L88000000 60000000
" />
<path d="M88000000 60000000
L88000000 43000000
" />
<path d="M88000000 43000000
L70000000 43000000
" />
<path d="M70000000 43000000
L70000000 60000000
" />
<path d="M24555260 97957002
L41941925 93298260
" />
<path d="M41941925 93298260
L37542001 76877521
" />
<path d="M37542001 76877521
L20155336 81536263
" />
<path d="M20155336 81536263
L24555260 97957002
" />
<path d="M41941925 93298259
L59328590 88639517
" />
<path d="M59328590 88639517
L54928666 72218778
" />
<path d="M54928666 72218778
L37542001 76877520
" />
<path d="M37542001 76877520
L41941925 93298259
" />
<path d="M70000000 43000000
L88000000 43000000
" />
<path d="M88000000 43000000
L88000000 26000000
" />
<path d="M88000000 26000000
L70000000 26000000
" />
<path d="M70000000 26000000
L70000000 43000000
" />
<path d="M70000000 26000000
L88000000 26000000
" />
<path d="M88000000 26000000
L88000000 9000000
" />
<path d="M88000000 9000000
L70000000 9000000
" />
<path d="M70000000 9000000
L70000000 26000000
" />
<path d="M34000000 34000000
L52000000 34000000
" />
<path d="M52000000 34000000
L52000000 17000000
" />
<path d="M52000000 17000000
L34000000 17000000
" />
<path d="M34000000 17000000
L34000000 34000000
" />
<path d="M52000000 66000000
L70000000 66000000
" />
<path d="M70000000 66000000
L70000000 49000000
" />
<path d="M70000000 49000000
L52000000 49000000
" />
<path d="M52000000 49000000
L52000000 66000000
" />
<path d="M106000000 38000000
L124000000 38000000
" />
<path d="M124000000 38000000
L124000000 21000000
" />
<path d="M124000000 21000000
L106000000 21000000
" />
<path d="M106000000 21000000
L106000000 38000000
" />
<path d="M106000000 55000000
L124000000 55000000
" />
<path d="M124000000 55000000
L124000000 38000000
" />
<path d="M124000000 38000000
L106000000 38000000
" />
<path d="M106000000 38000000
L106000000 55000000
" />
<path d="M52000000 32000000
L70000000 32000000
" />
<path d="M70000000 32000000
L70000000 15000000
" />
<path d="M70000000 15000000
L52000000 15000000
" />
<path d="M52000000 15000000
L52000000 32000000
" />
<path d="M34000000 68000000
L52000000 68000000
" />
<path d="M52000000 68000000
L52000000 51000000
" />
<path d="M52000000 51000000
L34000000 51000000
" />
<path d="M34000000 51000000
L34000000 68000000
" />
<path d="M59100000 85550000
L77100000 85550000
" />
<path d="M77100000 85550000
L77100000 68550000
" />
<path d="M77100000 68550000
L59100000 68550000
" />
<path d="M59100000 68550000
L59100000 85550000
" />
<path d="M52000000 49000000
L70000000 49000000
" />
<path d="M70000000 49000000
L70000000 32000000
" />
<path d="M70000000 32000000
L52000000 32000000
" />
<path d="M52000000 32000000
L52000000 49000000
" />
<g >
</g>
<g >
</g>
<g >
</g>
<g >
</g>
<g >
</g>
<g >
</g>
<g >
</g>
<g >
</g>
<g >
</g>
<g >
</g>
<g >
</g>
<g >
</g>
<g >
</g>
<g >
</g>
<g >
</g>
<g >
</g>
<g >
</g>
<g >
</g>
<g >
</g>
<g >
</g>
<g >
</g>
<g >
</g>
<g >
</g>
<g >
</g>
<g >
</g>
<g >
</g>
<g >
</g>
<g >
</g>
<g >
</g>
<g >
</g>
<g >
</g>
<g >
</g>
<g >
</g>
<g >
</g>
<g >
</g>
<g >
</g>
<g >
</g>
<g >
</g>
<g >
</g>
<g >
</g>
<g >
</g>
<g >
</g>
<g >
</g>
<g >
</g>
<g >
</g>
<g >
</g>
<g >
</g>
<g >
</g>
<g >
</g>
<g >
</g>
<g >
</g>
<g >
</g>
<g >
</g>
<g >
</g>
<g >
</g>
<g >
</g>
<g >
</g>
<g >
</g>
<g >
</g>
<g >
</g>
<g >
</g>
<g >
</g>
<g >
</g>
<g >
</g>
<g >
</g>
<g >
</g>
<g >
</g>
<g >
</g>
<g >
</g>
<g >
</g>
<g >
</g>
</g>
<g style="fill:#000000; fill-opacity:0.0; 
stroke:#000000; stroke-width:120000.000000; stroke-opacity:1; 
stroke-linecap:round; stroke-linejoin:round;">
</g>
<g style="fill:#D0D2CD; fill-opacity:0.0; 
stroke:#D0D2CD; stroke-width:120000.000000; stroke-opacity:1; 
stroke-linecap:round; stroke-linejoin:round;">
</g>
<g style="fill:#D0D2CD; fill-opacity:0.0; 
stroke:#D0D2CD; stroke-width:200000.000000; stroke-opacity:1; 
stroke-linecap:round; stroke-linejoin:round;">
<path style="fill:#D0D2CD; fill-opacity:0.0; 
stroke:#D0D2CD; stroke-width:200000.000000; stroke-opacity:1; 
stroke-linecap:round; stroke-linejoin:round;fill:none"
d="M 80500000.000000,8000000.000000
85205986.000000,8227993.000000
89514347.000000,8678227.000000
93446991.000000,9318056.000000
97025826.000000,10114833.000000
100272761.000000,11035912.000000
103209705.000000,12048647.000000
105858565.000000,13120391.000000
108241251.000000,14218497.000000
110379671.000000,15310319.000000
112295733.000000,16363210.000000
115548419.000000,18221616.000000
116928859.000000,18961837.000000
118174576.000000,19532541.000000
119307478.000000,19901082.000000
120349472.000000,20034813.000000
122058548.000000,20043816.000000
122818119.000000,20040553.000000
123157278.000000,20043072.000000
123469710.000000,20057175.000000
123755679.000000,20089472.000000
123888823.000000,20114511.000000
124015451.000000,20146577.000000
124135598.000000,20186498.000000
124249295.000000,20235100.000000
124356576.000000,20293210.000000
124457474.000000,20361654.000000
124552023.000000,20441258.000000
124640256.000000,20532850.000000
124722207.000000,20637255.000000
124797907.000000,20755300.000000
124867392.000000,20887812.000000
124930694.000000,21035617.000000
124987846.000000,21199541.000000
125038882.000000,21380411.000000
125083834.000000,21579054.000000
125122737.000000,21796296.000000
125155623.000000,22032963.000000
125182527.000000,22289882.000000
125203480.000000,22567879.000000
125218516.000000,22867781.000000
125230973.000000,23536606.000000
125280976.000000,69724198.000000
125273767.000000,70062860.000000
125250354.000000,70398955.000000
125209184.000000,70730776.000000
125148702.000000,71056615.000000
125067354.000000,71374767.000000
124963584.000000,71683524.000000
124835840.000000,71981179.000000
124762491.000000,72125310.000000
124682566.000000,72266026.000000
124595870.000000,72403113.000000
124502208.000000,72536358.000000
124401388.000000,72665547.000000
124293213.000000,72790468.000000
124177490.000000,72910907.000000
124054025.000000,73026650.000000
123922623.000000,73137484.000000
123783091.000000,73243196.000000
123635233.000000,73343572.000000
123478855.000000,73438400.000000
123313764.000000,73527465.000000
123139764.000000,73610555.000000
122956663.000000,73687456.000000
122764264.000000,73757954.000000
122562375.000000,73821837.000000
122350800.000000,73878891.000000
120883234.000000,74115166.000000
118376884.000000,74410328.000000
115078480.000000,74786703.000000
111234756.000000,75266617.000000
107092443.000000,75872396.000000
104986421.000000,76229462.000000
102898275.000000,76626366.000000
100858849.000000,77065899.000000
98898984.000000,77550853.000000
97049521.000000,78084017.000000
95341301.000000,78668183.000000
91768745.000000,80114069.000000
87674204.000000,81923936.000000
78602385.000000,86123164.000000
73966717.000000,88256304.000000
69492282.000000,90240981.000000
65349887.000000,91949084.000000
63456580.000000,92659386.000000
61710335.000000,93252503.000000
53089811.000000,95842402.000000
42634164.000000,98831257.000000
28704373.000000,102721711.000000
28516331.000000,102771097.000000
28331290.000000,102812240.000000
28149368.000000,102845278.000000
27970686.000000,102870351.000000
27795363.000000,102887597.000000
27623518.000000,102897155.000000
27455273.000000,102899164.000000
27290745.000000,102893762.000000
27130055.000000,102881089.000000
26973324.000000,102861283.000000
26820669.000000,102834484.000000
26672212.000000,102800829.000000
26528072.000000,102760458.000000
26388368.000000,102713510.000000
26253221.000000,102660123.000000
26122750.000000,102600436.000000
25997075.000000,102534588.000000
25876315.000000,102462718.000000
25760591.000000,102384964.000000
25650022.000000,102301466.000000
25544727.000000,102212363.000000
25444827.000000,102117792.000000
25350441.000000,102017894.000000
25261689.000000,101912806.000000
25178691.000000,101802667.000000
25101566.000000,101687617.000000
25030435.000000,101567795.000000
24965416.000000,101443338.000000
24906630.000000,101314386.000000
24854196.000000,101181078.000000
24808234.000000,101043552.000000
24768864.000000,100901947.000000
19402909.000000,79518570.000000
19116801.000000,78342474.000000
18869423.000000,77251103.000000
18655484.000000,76226821.000000
18469694.000000,75251994.000000
18161398.000000,73380162.000000
17902211.000000,71494524.000000
17361868.000000,67117497.000000
16996065.000000,64343942.000000
16510075.000000,60992249.000000
16255560.000000,59530373.000000
15967974.000000,58233493.000000
15654134.000000,57079671.000000
15320856.000000,56046966.000000
14974954.000000,55113439.000000
14623246.000000,54257151.000000
13929672.000000,52688534.000000
13601438.000000,51932327.000000
13294660.000000,51165601.000000
13016155.000000,50366417.000000
12772737.000000,49512836.000000
12571223.000000,48582919.000000
12418429.000000,47554726.000000
12362432.000000,46996919.000000
12321170.000000,46406317.000000
12295497.000000,45780176.000000
12286263.000000,45115754.000000
12257622.000000,18260575.000000
12259132.000000,18031463.000000
12265468.000000,17807927.000000
12278604.000000,17591239.000000
12300518.000000,17382666.000000
12333186.000000,17183481.000000
12378582.000000,16994953.000000
12406671.000000,16905082.000000
12438684.000000,16818352.000000
12474866.000000,16734921.000000
12515466.000000,16654948.000000
12560730.000000,16578592.000000
12610906.000000,16506011.000000
12666239.000000,16437365.000000
12726978.000000,16372812.000000
12793369.000000,16312510.000000
12865659.000000,16256620.000000
12944096.000000,16205299.000000
13028926.000000,16158706.000000
13120396.000000,16117000.000000
13218753.000000,16080339.000000
13324244.000000,16048883.000000
13437116.000000,16022791.000000
13557617.000000,16002220.000000
13685993.000000,15987330.000000
13822491.000000,15978280.000000
13967358.000000,15975228.000000
13967339.000000,15975487.000000
26282810.000000,15975487.000000
28888238.000000,15879330.000000
31482860.000000,15608192.000000
34091369.000000,15188074.000000
36738455.000000,14644979.000000
42247122.000000,13293859.000000
48206389.000000,11762842.000000
51416725.000000,10994875.000000
54813783.000000,10259937.000000
58422255.000000,9584030.000000
62266831.000000,8993155.000000
66372203.000000,8513314.000000
70763061.000000,8170506.000000
75464097.000000,7990735.000000
Z" /> 
<g >
</g>
<g >
</g>
<g >
</g>
<g >
</g>
<g >
</g>
<g >
</g>
<g >
</g>
<g >
</g>
<g >
</g>
<g >
</g>
<g >
</g>
<g >
</g>
<g >
</g>
<g >
</g>
<g >
</g>
<g >
</g>
<g >
</g>
<g >
</g>
<g >
</g>
<g >
</g>
<g >
</g>
<g >
</g>
<g >
</g>
<g >
</g>
<g >
</g>
<g >
</g>
<g >
</g>
<g >
</g>
<g >
</g>
<g >
</g>
<g >
</g>
<g >
</g>
<g >
</g>
<g >
</g>
<g >
</g>
<g >
</g>
<g >
</g>
<g >
</g>
<g >
</g>
<g >
</g>
<g >
</g>
<g >
</g>
<g >
</g>
<g >
</g>
<g >
</g>
<g >
</g>
<g >
</g>
<g >
</g>
<g >
</g>
<g >
</g>
<g >
</g>
<g >
</g>
<g >
</g>
<g >
</g>
<g >
</g>
<g >
</g>
<g >
</g>
<g >
</g>
<g >
</g>
<g >
</g>
<g >
</g>
<g >
</g>
<g >
</g>
<g >
</g>
<g >
</g>
<g >
</g>
<g >
</g>
<g >
</g>
<g >
</g>
<g >
</g>
<g >
</g>
</g> 
</svg>
