<?xml version="1.0" standalone="no"?>
 <!DOCTYPE svg PUBLIC "-//W3C//DTD SVG 1.1//EN" 
 "http://www.w3.org/Graphics/SVG/1.1/DTD/svg11.dtd"> 
<svg
  xmlns:svg="http://www.w3.org/2000/svg"
  xmlns="http://www.w3.org/2000/svg"
  xmlns:xlink="http://www.w3.org/1999/xlink"
  version="1.1"
  width="113.2078mm" height="95.0976mm" viewBox="0.0000 0.0000 113.2078 95.0976">
<title>SVG Image created as rknt36-F_Silkscreen.svg date 2023/04/02 11:31:32 </title>
  <desc>Image generated by PCBNEW </desc>
<g style="fill:#000000; fill-opacity:1.0000;stroke:#000000; stroke-opacity:1.0000;
stroke-linecap:round; stroke-linejoin:round;"
 transform="translate(0 0) scale(1 1)">
</g>
<g style="fill:#000000; fill-opacity:0.0; 
stroke:#000000; stroke-width:0.0000; stroke-opacity:1; 
stroke-linecap:round; stroke-linejoin:round;">
</g>
<g style="fill:#F2EDA1; fill-opacity:0.0; 
stroke:#F2EDA1; stroke-width:0.0000; stroke-opacity:1; 
stroke-linecap:round; stroke-linejoin:round;">
</g>
<g style="fill:#F2EDA1; fill-opacity:0.0; 
stroke:#F2EDA1; stroke-width:0.1200; stroke-opacity:1; 
stroke-linecap:round; stroke-linejoin:round;">
<path d="M20.2243 77.3161
L19.7274 75.4615
" />
<path d="M17.4618 78.0563
L20.2243 77.3161
" />
<path d="M18.3267 76.2613
L18.6114 77.3238
" />
<path d="M19.7274 75.4615
L16.9649 76.2018
" />
</g>
<g style="fill:#F2EDA1; fill-opacity:1.0000; 
stroke:#F2EDA1; stroke-width:0.1200; stroke-opacity:1; 
stroke-linecap:round; stroke-linejoin:round;">
<path style="fill:#F2EDA1; fill-opacity:1.0000; 
stroke:#F2EDA1; stroke-width:0.1200; stroke-opacity:1; 
stroke-linecap:round; stroke-linejoin:round;fill-rule:evenodd;"
d="M 18.3595,76.7702
18.0318,77.4791
17.7471,76.4166
Z" /> 
</g>
<g style="fill:#F2EDA1; fill-opacity:1.0000; 
stroke:#F2EDA1; stroke-width:0.1500; stroke-opacity:1; 
stroke-linecap:round; stroke-linejoin:round;">
</g>
<g style="fill:#F2EDA1; fill-opacity:0.0; 
stroke:#F2EDA1; stroke-width:0.1500; stroke-opacity:1; 
stroke-linecap:round; stroke-linejoin:round;">
<path d="M82.8424 25.9093
L82.8424 24.9093
" />
<path d="M77.8424 27.0093
L77.8424 26.4093
" />
<path d="M77.8424 26.4093
L82.3424 26.4093
" />
<path d="M82.3424 30.4093
L82.3424 31.1093
" />
<path d="M83.3424 24.4093
L82.8424 24.9093
" />
<path d="M86.3424 28.9093
L83.8424 28.9093
" />
<path d="M86.8424 28.4093
L86.3424 28.9093
" />
<path d="M86.3424 24.4093
L83.3424 24.4093
" />
<path d="M77.8424 31.1093
L77.8424 30.6093
" />
<path d="M82.3424 31.1093
L77.8424 31.1093
" />
<path d="M86.8424 24.9093
L86.3424 24.4093
" />
<path d="M83.8424 28.9093 A1.5000 1.5000 0.0 0 0 82.3424 30.4093" />
<path d="M82.3424 26.4093 A0.5000 0.5000 0.0 0 0 82.8424 25.9093" />
<path d="M95.8424 54.1093
L95.8424 53.6093
" />
<path d="M104.8424 51.4093
L104.3424 51.9093
" />
<path d="M100.3424 53.4093
L100.3424 54.1093
" />
<path d="M95.8424 50.0093
L95.8424 49.4093
" />
<path d="M95.8424 49.4093
L100.3424 49.4093
" />
<path d="M101.3424 47.4093
L100.8424 47.9093
" />
<path d="M104.8424 47.9093
L104.3424 47.4093
" />
<path d="M100.3424 54.1093
L95.8424 54.1093
" />
<path d="M104.3424 47.4093
L101.3424 47.4093
" />
<path d="M100.8424 48.9093
L100.8424 47.9093
" />
<path d="M104.3424 51.9093
L101.8424 51.9093
" />
<path d="M100.3424 49.4093 A0.5000 0.5000 0.0 0 0 100.8424 48.9093" />
<path d="M101.8424 51.9093 A1.5000 1.5000 0.0 0 0 100.3424 53.4093" />
</g>
<g style="fill:#F2EDA1; fill-opacity:0.0; 
stroke:#F2EDA1; stroke-width:0.1200; stroke-opacity:1; 
stroke-linecap:round; stroke-linejoin:round;">
<path d="M33.8924 56.4093
L32.7924 56.4093
" />
<path d="M32.3824 57.9693
L34.3024 57.9693
" />
<path d="M32.3824 55.1093
L32.3824 57.9693
" />
<path d="M34.3024 57.9693
L34.3024 55.1093
" />
</g>
<g style="fill:#F2EDA1; fill-opacity:1.0000; 
stroke:#F2EDA1; stroke-width:0.1200; stroke-opacity:1; 
stroke-linecap:round; stroke-linejoin:round;">
<path style="fill:#F2EDA1; fill-opacity:1.0000; 
stroke:#F2EDA1; stroke-width:0.1200; stroke-opacity:1; 
stroke-linecap:round; stroke-linejoin:round;fill-rule:evenodd;"
d="M 33.3924,56.3093
32.7924,55.8093
33.8924,55.8093
Z" /> 
</g>
<g style="fill:#F2EDA1; fill-opacity:1.0000; 
stroke:#F2EDA1; stroke-width:0.1500; stroke-opacity:1; 
stroke-linecap:round; stroke-linejoin:round;">
</g>
<g style="fill:#F2EDA1; fill-opacity:0.0; 
stroke:#F2EDA1; stroke-width:0.1500; stroke-opacity:1; 
stroke-linecap:round; stroke-linejoin:round;">
<path d="M77.8424 44.0093
L77.8424 43.4093
" />
<path d="M83.3424 41.4093
L82.8424 41.9093
" />
<path d="M86.3424 45.9093
L83.8424 45.9093
" />
<path d="M82.8424 42.9093
L82.8424 41.9093
" />
<path d="M86.8424 41.9093
L86.3424 41.4093
" />
<path d="M77.8424 48.1093
L77.8424 47.6093
" />
<path d="M77.8424 43.4093
L82.3424 43.4093
" />
<path d="M82.3424 48.1093
L77.8424 48.1093
" />
<path d="M86.3424 41.4093
L83.3424 41.4093
" />
<path d="M82.3424 47.4093
L82.3424 48.1093
" />
<path d="M86.8424 45.4093
L86.3424 45.9093
" />
<path d="M83.8424 45.9093 A1.5000 1.5000 0.0 0 0 82.3424 47.4093" />
<path d="M82.3424 43.4093 A0.5000 0.5000 0.0 0 0 82.8424 42.9093" />
<path d="M32.8424 26.9093
L32.3424 26.4093
" />
<path d="M28.8424 27.9093
L28.8424 26.9093
" />
<path d="M28.3424 32.4093
L28.3424 33.1093
" />
<path d="M29.3424 26.4093
L28.8424 26.9093
" />
<path d="M28.3424 33.1093
L23.8424 33.1093
" />
<path d="M32.3424 26.4093
L29.3424 26.4093
" />
<path d="M23.8424 29.0093
L23.8424 28.4093
" />
<path d="M23.8424 28.4093
L28.3424 28.4093
" />
<path d="M23.8424 33.1093
L23.8424 32.6093
" />
<path d="M32.3424 30.9093
L29.8424 30.9093
" />
<path d="M32.8424 30.4093
L32.3424 30.9093
" />
<path d="M28.3424 28.4093 A0.5000 0.5000 0.0 0 0 28.8424 27.9093" />
<path d="M29.8424 30.9093 A1.5000 1.5000 0.0 0 0 28.3424 32.4093" />
</g>
<g style="fill:#F2EDA1; fill-opacity:0.0; 
stroke:#F2EDA1; stroke-width:0.1200; stroke-opacity:1; 
stroke-linecap:round; stroke-linejoin:round;">
<path d="M14.3124 45.5793
L15.6424 45.5793
" />
<path d="M14.3124 48.1793
L14.3124 58.3993
" />
<path d="M14.3124 58.3993
L16.9724 58.3993
" />
<path d="M16.9724 48.1793
L16.9724 58.3993
" />
<path d="M14.3124 46.9093
L14.3124 45.5793
" />
<path d="M14.3124 48.1793
L16.9724 48.1793
" />
<path d="M87.8924 37.4093
L86.7924 37.4093
" />
<path d="M88.3024 38.9693
L88.3024 36.1093
" />
<path d="M86.3824 36.1093
L86.3824 38.9693
" />
<path d="M86.3824 38.9693
L88.3024 38.9693
" />
</g>
<g style="fill:#F2EDA1; fill-opacity:1.0000; 
stroke:#F2EDA1; stroke-width:0.1200; stroke-opacity:1; 
stroke-linecap:round; stroke-linejoin:round;">
<path style="fill:#F2EDA1; fill-opacity:1.0000; 
stroke:#F2EDA1; stroke-width:0.1200; stroke-opacity:1; 
stroke-linecap:round; stroke-linejoin:round;fill-rule:evenodd;"
d="M 87.3924,37.3093
86.7924,36.8093
87.8924,36.8093
Z" /> 
</g>
<g style="fill:#F2EDA1; fill-opacity:1.0000; 
stroke:#F2EDA1; stroke-width:0.1500; stroke-opacity:1; 
stroke-linecap:round; stroke-linejoin:round;">
</g>
<g style="fill:#F2EDA1; fill-opacity:0.0; 
stroke:#F2EDA1; stroke-width:0.1500; stroke-opacity:1; 
stroke-linecap:round; stroke-linejoin:round;">
<path d="M77.8424 10.0093
L77.8424 9.4093
" />
<path d="M86.3424 7.4093
L83.3424 7.4093
" />
<path d="M77.8424 9.4093
L82.3424 9.4093
" />
<path d="M77.8424 14.1093
L77.8424 13.6093
" />
<path d="M86.8424 11.4093
L86.3424 11.9093
" />
<path d="M83.3424 7.4093
L82.8424 7.9093
" />
<path d="M82.3424 13.4093
L82.3424 14.1093
" />
<path d="M82.3424 14.1093
L77.8424 14.1093
" />
<path d="M86.8424 7.9093
L86.3424 7.4093
" />
<path d="M86.3424 11.9093
L83.8424 11.9093
" />
<path d="M82.8424 8.9093
L82.8424 7.9093
" />
<path d="M83.8424 11.9093 A1.5000 1.5000 0.0 0 0 82.3424 13.4093" />
<path d="M82.3424 9.4093 A0.5000 0.5000 0.0 0 0 82.8424 8.9093" />
</g>
<g style="fill:#F2EDA1; fill-opacity:0.0; 
stroke:#F2EDA1; stroke-width:0.1200; stroke-opacity:1; 
stroke-linecap:round; stroke-linejoin:round;">
<path d="M104.3824 25.1093
L104.3824 27.9693
" />
<path d="M104.3824 27.9693
L106.3024 27.9693
" />
<path d="M106.3024 27.9693
L106.3024 25.1093
" />
<path d="M105.8924 26.4093
L104.7924 26.4093
" />
</g>
<g style="fill:#F2EDA1; fill-opacity:1.0000; 
stroke:#F2EDA1; stroke-width:0.1200; stroke-opacity:1; 
stroke-linecap:round; stroke-linejoin:round;">
<path style="fill:#F2EDA1; fill-opacity:1.0000; 
stroke:#F2EDA1; stroke-width:0.1200; stroke-opacity:1; 
stroke-linecap:round; stroke-linejoin:round;fill-rule:evenodd;"
d="M 105.3924,26.3093
104.7924,25.8093
105.8924,25.8093
Z" /> 
</g>
<g style="fill:#F2EDA1; fill-opacity:0.0; 
stroke:#F2EDA1; stroke-width:0.1200; stroke-opacity:1; 
stroke-linecap:round; stroke-linejoin:round;">
<path d="M69.8924 31.4093
L68.7924 31.4093
" />
<path d="M68.3824 30.1093
L68.3824 32.9693
" />
<path d="M70.3024 32.9693
L70.3024 30.1093
" />
<path d="M68.3824 32.9693
L70.3024 32.9693
" />
</g>
<g style="fill:#F2EDA1; fill-opacity:1.0000; 
stroke:#F2EDA1; stroke-width:0.1200; stroke-opacity:1; 
stroke-linecap:round; stroke-linejoin:round;">
<path style="fill:#F2EDA1; fill-opacity:1.0000; 
stroke:#F2EDA1; stroke-width:0.1200; stroke-opacity:1; 
stroke-linecap:round; stroke-linejoin:round;fill-rule:evenodd;"
d="M 69.3924,31.3093
68.7924,30.8093
69.8924,30.8093
Z" /> 
</g>
<g style="fill:#F2EDA1; fill-opacity:1.0000; 
stroke:#F2EDA1; stroke-width:0.1500; stroke-opacity:1; 
stroke-linecap:round; stroke-linejoin:round;">
</g>
<g style="fill:#F2EDA1; fill-opacity:0.0; 
stroke:#F2EDA1; stroke-width:0.1500; stroke-opacity:1; 
stroke-linecap:round; stroke-linejoin:round;">
<path d="M59.8424 42.1093
L59.8424 41.6093
" />
<path d="M59.8424 38.0093
L59.8424 37.4093
" />
<path d="M64.3424 41.4093
L64.3424 42.1093
" />
<path d="M64.8424 36.9093
L64.8424 35.9093
" />
<path d="M68.3424 35.4093
L65.3424 35.4093
" />
<path d="M68.8424 35.9093
L68.3424 35.4093
" />
<path d="M64.3424 42.1093
L59.8424 42.1093
" />
<path d="M68.8424 39.4093
L68.3424 39.9093
" />
<path d="M68.3424 39.9093
L65.8424 39.9093
" />
<path d="M59.8424 37.4093
L64.3424 37.4093
" />
<path d="M65.3424 35.4093
L64.8424 35.9093
" />
<path d="M64.3424 37.4093 A0.5000 0.5000 0.0 0 0 64.8424 36.9093" />
<path d="M65.8424 39.9093 A1.5000 1.5000 0.0 0 0 64.3424 41.4093" />
</g>
<g style="fill:#F2EDA1; fill-opacity:0.0; 
stroke:#F2EDA1; stroke-width:0.1200; stroke-opacity:1; 
stroke-linecap:round; stroke-linejoin:round;">
<path d="M86.3824 21.9693
L88.3024 21.9693
" />
<path d="M86.3824 19.1093
L86.3824 21.9693
" />
<path d="M87.8924 20.4093
L86.7924 20.4093
" />
<path d="M88.3024 21.9693
L88.3024 19.1093
" />
</g>
<g style="fill:#F2EDA1; fill-opacity:1.0000; 
stroke:#F2EDA1; stroke-width:0.1200; stroke-opacity:1; 
stroke-linecap:round; stroke-linejoin:round;">
<path style="fill:#F2EDA1; fill-opacity:1.0000; 
stroke:#F2EDA1; stroke-width:0.1200; stroke-opacity:1; 
stroke-linecap:round; stroke-linejoin:round;fill-rule:evenodd;"
d="M 87.3924,20.3093
86.7924,19.8093
87.8924,19.8093
Z" /> 
</g>
<g style="fill:#F2EDA1; fill-opacity:0.0; 
stroke:#F2EDA1; stroke-width:0.1200; stroke-opacity:1; 
stroke-linecap:round; stroke-linejoin:round;">
<path d="M51.8924 54.4093
L50.7924 54.4093
" />
<path d="M50.3824 55.9693
L52.3024 55.9693
" />
<path d="M50.3824 53.1093
L50.3824 55.9693
" />
<path d="M52.3024 55.9693
L52.3024 53.1093
" />
</g>
<g style="fill:#F2EDA1; fill-opacity:1.0000; 
stroke:#F2EDA1; stroke-width:0.1200; stroke-opacity:1; 
stroke-linecap:round; stroke-linejoin:round;">
<path style="fill:#F2EDA1; fill-opacity:1.0000; 
stroke:#F2EDA1; stroke-width:0.1200; stroke-opacity:1; 
stroke-linecap:round; stroke-linejoin:round;fill-rule:evenodd;"
d="M 51.3924,54.3093
50.7924,53.8093
51.8924,53.8093
Z" /> 
</g>
<g style="fill:#F2EDA1; fill-opacity:0.0; 
stroke:#F2EDA1; stroke-width:0.1200; stroke-opacity:1; 
stroke-linecap:round; stroke-linejoin:round;">
<path d="M106.3024 44.9693
L106.3024 42.1093
" />
<path d="M105.8924 43.4093
L104.7924 43.4093
" />
<path d="M104.3824 44.9693
L106.3024 44.9693
" />
<path d="M104.3824 42.1093
L104.3824 44.9693
" />
</g>
<g style="fill:#F2EDA1; fill-opacity:1.0000; 
stroke:#F2EDA1; stroke-width:0.1200; stroke-opacity:1; 
stroke-linecap:round; stroke-linejoin:round;">
<path style="fill:#F2EDA1; fill-opacity:1.0000; 
stroke:#F2EDA1; stroke-width:0.1200; stroke-opacity:1; 
stroke-linecap:round; stroke-linejoin:round;fill-rule:evenodd;"
d="M 105.3924,43.3093
104.7924,42.8093
105.8924,42.8093
Z" /> 
</g>
<g style="fill:#F2EDA1; fill-opacity:0.0; 
stroke:#F2EDA1; stroke-width:0.1200; stroke-opacity:1; 
stroke-linecap:round; stroke-linejoin:round;">
<path d="M34.3024 40.9693
L34.3024 38.1093
" />
<path d="M33.8924 39.4093
L32.7924 39.4093
" />
<path d="M32.3824 40.9693
L34.3024 40.9693
" />
<path d="M32.3824 38.1093
L32.3824 40.9693
" />
</g>
<g style="fill:#F2EDA1; fill-opacity:1.0000; 
stroke:#F2EDA1; stroke-width:0.1200; stroke-opacity:1; 
stroke-linecap:round; stroke-linejoin:round;">
<path style="fill:#F2EDA1; fill-opacity:1.0000; 
stroke:#F2EDA1; stroke-width:0.1200; stroke-opacity:1; 
stroke-linecap:round; stroke-linejoin:round;fill-rule:evenodd;"
d="M 33.3924,39.3093
32.7924,38.8093
33.8924,38.8093
Z" /> 
</g>
<g style="fill:#F2EDA1; fill-opacity:1.0000; 
stroke:#F2EDA1; stroke-width:0.1500; stroke-opacity:1; 
stroke-linecap:round; stroke-linejoin:round;">
</g>
<g style="fill:#F2EDA1; fill-opacity:0.0; 
stroke:#F2EDA1; stroke-width:0.1500; stroke-opacity:1; 
stroke-linecap:round; stroke-linejoin:round;">
<path d="M68.8424 22.4093
L68.3424 22.9093
" />
<path d="M64.3424 24.4093
L64.3424 25.1093
" />
<path d="M65.3424 18.4093
L64.8424 18.9093
" />
<path d="M68.3424 22.9093
L65.8424 22.9093
" />
<path d="M68.3424 18.4093
L65.3424 18.4093
" />
<path d="M59.8424 20.4093
L64.3424 20.4093
" />
<path d="M59.8424 21.0093
L59.8424 20.4093
" />
<path d="M59.8424 25.1093
L59.8424 24.6093
" />
<path d="M64.8424 19.9093
L64.8424 18.9093
" />
<path d="M64.3424 25.1093
L59.8424 25.1093
" />
<path d="M68.8424 18.9093
L68.3424 18.4093
" />
<path d="M64.3424 20.4093 A0.5000 0.5000 0.0 0 0 64.8424 19.9093" />
<path d="M65.8424 22.9093 A1.5000 1.5000 0.0 0 0 64.3424 24.4093" />
<path d="M59.8424 3.4093
L64.3424 3.4093
" />
<path d="M68.3424 1.4093
L65.3424 1.4093
" />
<path d="M64.3424 8.1093
L59.8424 8.1093
" />
<path d="M68.8424 1.9093
L68.3424 1.4093
" />
<path d="M68.8424 5.4093
L68.3424 5.9093
" />
<path d="M64.3424 7.4093
L64.3424 8.1093
" />
<path d="M59.8424 4.0093
L59.8424 3.4093
" />
<path d="M59.8424 8.1093
L59.8424 7.6093
" />
<path d="M65.3424 1.4093
L64.8424 1.9093
" />
<path d="M64.8424 2.9093
L64.8424 1.9093
" />
<path d="M68.3424 5.9093
L65.8424 5.9093
" />
<path d="M65.8424 5.9093 A1.5000 1.5000 0.0 0 0 64.3424 7.4093" />
<path d="M64.3424 3.4093 A0.5000 0.5000 0.0 0 0 64.8424 2.9093" />
<path d="M23.8424 16.1093
L23.8424 15.6093
" />
<path d="M32.8424 9.9093
L32.3424 9.4093
" />
<path d="M32.3424 9.4093
L29.3424 9.4093
" />
<path d="M29.3424 9.4093
L28.8424 9.9093
" />
<path d="M28.3424 15.4093
L28.3424 16.1093
" />
<path d="M32.3424 13.9093
L29.8424 13.9093
" />
<path d="M23.8424 11.4093
L28.3424 11.4093
" />
<path d="M32.8424 13.4093
L32.3424 13.9093
" />
<path d="M28.3424 16.1093
L23.8424 16.1093
" />
<path d="M28.8424 10.9093
L28.8424 9.9093
" />
<path d="M23.8424 12.0093
L23.8424 11.4093
" />
<path d="M28.3424 11.4093 A0.5000 0.5000 0.0 0 0 28.8424 10.9093" />
<path d="M29.8424 13.9093 A1.5000 1.5000 0.0 0 0 28.3424 15.4093" />
</g>
<g style="fill:#F2EDA1; fill-opacity:0.0; 
stroke:#F2EDA1; stroke-width:0.1200; stroke-opacity:1; 
stroke-linecap:round; stroke-linejoin:round;">
<path d="M50.3824 19.1093
L50.3824 21.9693
" />
<path d="M52.3024 21.9693
L52.3024 19.1093
" />
<path d="M51.8924 20.4093
L50.7924 20.4093
" />
<path d="M50.3824 21.9693
L52.3024 21.9693
" />
</g>
<g style="fill:#F2EDA1; fill-opacity:1.0000; 
stroke:#F2EDA1; stroke-width:0.1200; stroke-opacity:1; 
stroke-linecap:round; stroke-linejoin:round;">
<path style="fill:#F2EDA1; fill-opacity:1.0000; 
stroke:#F2EDA1; stroke-width:0.1200; stroke-opacity:1; 
stroke-linecap:round; stroke-linejoin:round;fill-rule:evenodd;"
d="M 51.3924,20.3093
50.7924,19.8093
51.8924,19.8093
Z" /> 
</g>
<g style="fill:#F2EDA1; fill-opacity:0.0; 
stroke:#F2EDA1; stroke-width:0.1200; stroke-opacity:1; 
stroke-linecap:round; stroke-linejoin:round;">
<path d="M32.3824 21.1093
L32.3824 23.9693
" />
<path d="M34.3024 23.9693
L34.3024 21.1093
" />
<path d="M33.8924 22.4093
L32.7924 22.4093
" />
<path d="M32.3824 23.9693
L34.3024 23.9693
" />
</g>
<g style="fill:#F2EDA1; fill-opacity:1.0000; 
stroke:#F2EDA1; stroke-width:0.1200; stroke-opacity:1; 
stroke-linecap:round; stroke-linejoin:round;">
<path style="fill:#F2EDA1; fill-opacity:1.0000; 
stroke:#F2EDA1; stroke-width:0.1200; stroke-opacity:1; 
stroke-linecap:round; stroke-linejoin:round;fill-rule:evenodd;"
d="M 33.3924,22.3093
32.7924,21.8093
33.8924,21.8093
Z" /> 
</g>
<g style="fill:#F2EDA1; fill-opacity:0.0; 
stroke:#F2EDA1; stroke-width:0.1200; stroke-opacity:1; 
stroke-linecap:round; stroke-linejoin:round;">
<path d="M104.3824 59.1093
L104.3824 61.9693
" />
<path d="M106.3024 61.9693
L106.3024 59.1093
" />
<path d="M105.8924 60.4093
L104.7924 60.4093
" />
<path d="M104.3824 61.9693
L106.3024 61.9693
" />
</g>
<g style="fill:#F2EDA1; fill-opacity:1.0000; 
stroke:#F2EDA1; stroke-width:0.1200; stroke-opacity:1; 
stroke-linecap:round; stroke-linejoin:round;">
<path style="fill:#F2EDA1; fill-opacity:1.0000; 
stroke:#F2EDA1; stroke-width:0.1200; stroke-opacity:1; 
stroke-linecap:round; stroke-linejoin:round;fill-rule:evenodd;"
d="M 105.3924,60.3093
104.7924,59.8093
105.8924,59.8093
Z" /> 
</g>
<g style="fill:#F2EDA1; fill-opacity:1.0000; 
stroke:#F2EDA1; stroke-width:0.1500; stroke-opacity:1; 
stroke-linecap:round; stroke-linejoin:round;">
</g>
<g style="fill:#F2EDA1; fill-opacity:0.0; 
stroke:#F2EDA1; stroke-width:0.1500; stroke-opacity:1; 
stroke-linecap:round; stroke-linejoin:round;">
<path d="M41.8424 44.0093
L41.8424 43.4093
" />
<path d="M50.8424 45.4093
L50.3424 45.9093
" />
<path d="M50.3424 41.4093
L47.3424 41.4093
" />
<path d="M46.3424 47.4093
L46.3424 48.1093
" />
<path d="M46.3424 48.1093
L41.8424 48.1093
" />
<path d="M41.8424 48.1093
L41.8424 47.6093
" />
<path d="M46.8424 42.9093
L46.8424 41.9093
" />
<path d="M50.8424 41.9093
L50.3424 41.4093
" />
<path d="M50.3424 45.9093
L47.8424 45.9093
" />
<path d="M41.8424 43.4093
L46.3424 43.4093
" />
<path d="M47.3424 41.4093
L46.8424 41.9093
" />
<path d="M46.3424 43.4093 A0.5000 0.5000 0.0 0 0 46.8424 42.9093" />
<path d="M47.8424 45.9093 A1.5000 1.5000 0.0 0 0 46.3424 47.4093" />
<path d="M100.8424 14.9093
L100.8424 13.9093
" />
<path d="M100.3424 19.4093
L100.3424 20.1093
" />
<path d="M101.3424 13.4093
L100.8424 13.9093
" />
<path d="M104.3424 13.4093
L101.3424 13.4093
" />
<path d="M95.8424 16.0093
L95.8424 15.4093
" />
<path d="M104.8424 13.9093
L104.3424 13.4093
" />
<path d="M104.3424 17.9093
L101.8424 17.9093
" />
<path d="M100.3424 20.1093
L95.8424 20.1093
" />
<path d="M104.8424 17.4093
L104.3424 17.9093
" />
<path d="M95.8424 15.4093
L100.3424 15.4093
" />
<path d="M95.8424 20.1093
L95.8424 19.6093
" />
<path d="M101.8424 17.9093 A1.5000 1.5000 0.0 0 0 100.3424 19.4093" />
<path d="M100.3424 15.4093 A0.5000 0.5000 0.0 0 0 100.8424 14.9093" />
<path d="M104.3424 34.9093
L101.8424 34.9093
" />
<path d="M104.3424 30.4093
L101.3424 30.4093
" />
<path d="M95.8424 33.0093
L95.8424 32.4093
" />
<path d="M104.8424 30.9093
L104.3424 30.4093
" />
<path d="M100.8424 31.9093
L100.8424 30.9093
" />
<path d="M101.3424 30.4093
L100.8424 30.9093
" />
<path d="M104.8424 34.4093
L104.3424 34.9093
" />
<path d="M95.8424 37.1093
L95.8424 36.6093
" />
<path d="M100.3424 36.4093
L100.3424 37.1093
" />
<path d="M100.3424 37.1093
L95.8424 37.1093
" />
<path d="M95.8424 32.4093
L100.3424 32.4093
" />
<path d="M100.3424 32.4093 A0.5000 0.5000 0.0 0 0 100.8424 31.9093" />
<path d="M101.8424 34.9093 A1.5000 1.5000 0.0 0 0 100.3424 36.4093" />
</g>
<g style="fill:#F2EDA1; fill-opacity:0.0; 
stroke:#F2EDA1; stroke-width:0.1200; stroke-opacity:1; 
stroke-linecap:round; stroke-linejoin:round;">
<path d="M87.8924 54.4093
L86.7924 54.4093
" />
<path d="M86.3824 55.9693
L88.3024 55.9693
" />
<path d="M88.3024 55.9693
L88.3024 53.1093
" />
<path d="M86.3824 53.1093
L86.3824 55.9693
" />
</g>
<g style="fill:#F2EDA1; fill-opacity:1.0000; 
stroke:#F2EDA1; stroke-width:0.1200; stroke-opacity:1; 
stroke-linecap:round; stroke-linejoin:round;">
<path style="fill:#F2EDA1; fill-opacity:1.0000; 
stroke:#F2EDA1; stroke-width:0.1200; stroke-opacity:1; 
stroke-linecap:round; stroke-linejoin:round;fill-rule:evenodd;"
d="M 87.3924,54.3093
86.7924,53.8093
87.8924,53.8093
Z" /> 
</g>
<g style="fill:#F2EDA1; fill-opacity:0.0; 
stroke:#F2EDA1; stroke-width:0.1200; stroke-opacity:1; 
stroke-linecap:round; stroke-linejoin:round;">
<path d="M34.8485 73.3976
L37.6110 72.6574
" />
<path d="M37.1141 70.8028
L34.3515 71.5430
" />
<path d="M35.7133 71.6026
L35.9980 72.6651
" />
<path d="M37.6110 72.6574
L37.1141 70.8028
" />
</g>
<g style="fill:#F2EDA1; fill-opacity:1.0000; 
stroke:#F2EDA1; stroke-width:0.1200; stroke-opacity:1; 
stroke-linecap:round; stroke-linejoin:round;">
<path style="fill:#F2EDA1; fill-opacity:1.0000; 
stroke:#F2EDA1; stroke-width:0.1200; stroke-opacity:1; 
stroke-linecap:round; stroke-linejoin:round;fill-rule:evenodd;"
d="M 35.7462,72.1114
35.4185,72.8204
35.1338,71.7579
Z" /> 
</g>
<g style="fill:#F2EDA1; fill-opacity:0.0; 
stroke:#F2EDA1; stroke-width:0.1200; stroke-opacity:1; 
stroke-linecap:round; stroke-linejoin:round;">
<path d="M51.8924 37.4093
L50.7924 37.4093
" />
<path d="M50.3824 36.1093
L50.3824 38.9693
" />
<path d="M52.3024 38.9693
L52.3024 36.1093
" />
<path d="M50.3824 38.9693
L52.3024 38.9693
" />
</g>
<g style="fill:#F2EDA1; fill-opacity:1.0000; 
stroke:#F2EDA1; stroke-width:0.1200; stroke-opacity:1; 
stroke-linecap:round; stroke-linejoin:round;">
<path style="fill:#F2EDA1; fill-opacity:1.0000; 
stroke:#F2EDA1; stroke-width:0.1200; stroke-opacity:1; 
stroke-linecap:round; stroke-linejoin:round;fill-rule:evenodd;"
d="M 51.3924,37.3093
50.7924,36.8093
51.8924,36.8093
Z" /> 
</g>
<g style="fill:#F2EDA1; fill-opacity:0.0; 
stroke:#F2EDA1; stroke-width:0.1200; stroke-opacity:1; 
stroke-linecap:round; stroke-linejoin:round;">
<path d="M69.8924 48.4093
L68.7924 48.4093
" />
<path d="M68.3824 49.9693
L70.3024 49.9693
" />
<path d="M70.3024 49.9693
L70.3024 47.1093
" />
<path d="M68.3824 47.1093
L68.3824 49.9693
" />
</g>
<g style="fill:#F2EDA1; fill-opacity:1.0000; 
stroke:#F2EDA1; stroke-width:0.1200; stroke-opacity:1; 
stroke-linecap:round; stroke-linejoin:round;">
<path style="fill:#F2EDA1; fill-opacity:1.0000; 
stroke:#F2EDA1; stroke-width:0.1200; stroke-opacity:1; 
stroke-linecap:round; stroke-linejoin:round;fill-rule:evenodd;"
d="M 69.3924,48.3093
68.7924,47.8093
69.8924,47.8093
Z" /> 
</g>
<g style="fill:#F2EDA1; fill-opacity:1.0000; 
stroke:#F2EDA1; stroke-width:0.1500; stroke-opacity:1; 
stroke-linecap:round; stroke-linejoin:round;">
</g>
<g style="fill:#F2EDA1; fill-opacity:0.0; 
stroke:#F2EDA1; stroke-width:0.1500; stroke-opacity:1; 
stroke-linecap:round; stroke-linejoin:round;">
<path d="M46.3424 13.4093
L46.3424 14.1093
" />
<path d="M46.3424 14.1093
L41.8424 14.1093
" />
<path d="M50.3424 7.4093
L47.3424 7.4093
" />
<path d="M41.8424 10.0093
L41.8424 9.4093
" />
<path d="M50.3424 11.9093
L47.8424 11.9093
" />
<path d="M50.8424 7.9093
L50.3424 7.4093
" />
<path d="M41.8424 9.4093
L46.3424 9.4093
" />
<path d="M47.3424 7.4093
L46.8424 7.9093
" />
<path d="M50.8424 11.4093
L50.3424 11.9093
" />
<path d="M41.8424 14.1093
L41.8424 13.6093
" />
<path d="M46.8424 8.9093
L46.8424 7.9093
" />
<path d="M46.3424 9.4093 A0.5000 0.5000 0.0 0 0 46.8424 8.9093" />
<path d="M47.8424 11.9093 A1.5000 1.5000 0.0 0 0 46.3424 13.4093" />
<path d="M28.8424 44.9093
L28.8424 43.9093
" />
<path d="M28.3424 49.4093
L28.3424 50.1093
" />
<path d="M23.8424 50.1093
L23.8424 49.6093
" />
<path d="M29.3424 43.4093
L28.8424 43.9093
" />
<path d="M23.8424 45.4093
L28.3424 45.4093
" />
<path d="M23.8424 46.0093
L23.8424 45.4093
" />
<path d="M32.8424 43.9093
L32.3424 43.4093
" />
<path d="M28.3424 50.1093
L23.8424 50.1093
" />
<path d="M32.3424 43.4093
L29.3424 43.4093
" />
<path d="M32.3424 47.9093
L29.8424 47.9093
" />
<path d="M32.8424 47.4093
L32.3424 47.9093
" />
<path d="M28.3424 45.4093 A0.5000 0.5000 0.0 0 0 28.8424 44.9093" />
<path d="M29.8424 47.9093 A1.5000 1.5000 0.0 0 0 28.3424 49.4093" />
</g>
<g style="fill:#F2EDA1; fill-opacity:0.0; 
stroke:#F2EDA1; stroke-width:0.1200; stroke-opacity:1; 
stroke-linecap:round; stroke-linejoin:round;">
<path d="M56.2424 65.8593
L56.2424 66.9593
" />
<path d="M57.8024 65.4493
L54.9424 65.4493
" />
<path d="M54.9424 67.3693
L57.8024 67.3693
" />
<path d="M57.8024 67.3693
L57.8024 65.4493
" />
</g>
<g style="fill:#F2EDA1; fill-opacity:1.0000; 
stroke:#F2EDA1; stroke-width:0.1200; stroke-opacity:1; 
stroke-linecap:round; stroke-linejoin:round;">
<path style="fill:#F2EDA1; fill-opacity:1.0000; 
stroke:#F2EDA1; stroke-width:0.1200; stroke-opacity:1; 
stroke-linecap:round; stroke-linejoin:round;fill-rule:evenodd;"
d="M 56.1424,66.3593
55.6424,66.9593
55.6424,65.8593
Z" /> 
</g>
<g style="fill:#F2EDA1; fill-opacity:1.0000; 
stroke:#F2EDA1; stroke-width:0.1500; stroke-opacity:1; 
stroke-linecap:round; stroke-linejoin:round;">
</g>
<g style="fill:#F2EDA1; fill-opacity:0.0; 
stroke:#F2EDA1; stroke-width:0.1500; stroke-opacity:1; 
stroke-linecap:round; stroke-linejoin:round;">
<path d="M41.8424 26.4093
L46.3424 26.4093
" />
<path d="M41.8424 27.0093
L41.8424 26.4093
" />
<path d="M46.3424 30.4093
L46.3424 31.1093
" />
<path d="M50.8424 24.9093
L50.3424 24.4093
" />
<path d="M50.3424 24.4093
L47.3424 24.4093
" />
<path d="M46.8424 25.9093
L46.8424 24.9093
" />
<path d="M46.3424 31.1093
L41.8424 31.1093
" />
<path d="M47.3424 24.4093
L46.8424 24.9093
" />
<path d="M41.8424 31.1093
L41.8424 30.6093
" />
<path d="M50.3424 28.9093
L47.8424 28.9093
" />
<path d="M50.8424 28.4093
L50.3424 28.9093
" />
<path d="M46.3424 26.4093 A0.5000 0.5000 0.0 0 0 46.8424 25.9093" />
<path d="M47.8424 28.9093 A1.5000 1.5000 0.0 0 0 46.3424 30.4093" />
</g>
<g style="fill:#F2EDA1; fill-opacity:0.0; 
stroke:#F2EDA1; stroke-width:0.1200; stroke-opacity:1; 
stroke-linecap:round; stroke-linejoin:round;">
<path d="M69.8924 14.4093
L68.7924 14.4093
" />
<path d="M68.3824 15.9693
L70.3024 15.9693
" />
<path d="M68.3824 13.1093
L68.3824 15.9693
" />
<path d="M70.3024 15.9693
L70.3024 13.1093
" />
</g>
<g style="fill:#F2EDA1; fill-opacity:1.0000; 
stroke:#F2EDA1; stroke-width:0.1200; stroke-opacity:1; 
stroke-linecap:round; stroke-linejoin:round;">
<path style="fill:#F2EDA1; fill-opacity:1.0000; 
stroke:#F2EDA1; stroke-width:0.1200; stroke-opacity:1; 
stroke-linecap:round; stroke-linejoin:round;fill-rule:evenodd;"
d="M 69.3924,14.3093
68.7924,13.8093
69.8924,13.8093
Z" /> 
<g >
</g>
<g >
</g>
<g >
</g>
<g >
</g>
<g >
</g>
<g >
</g>
<g >
</g>
<g >
</g>
<g >
</g>
<g >
</g>
<g >
</g>
<g >
</g>
<g >
</g>
<g >
</g>
<g >
</g>
<g >
</g>
<g >
</g>
<g >
</g>
<g >
</g>
<g >
</g>
<g >
</g>
<g >
</g>
<g >
</g>
<g >
</g>
<g >
</g>
<g >
</g>
<g >
</g>
<g >
</g>
<g >
</g>
<g >
</g>
<g >
</g>
<g >
</g>
<g >
</g>
<g >
</g>
<g >
</g>
<g >
</g>
<g >
</g>
<g >
</g>
<g >
</g>
<g >
</g>
<g >
</g>
<g >
</g>
<g >
</g>
<g >
</g>
<g >
</g>
<g >
</g>
<g >
</g>
<g >
</g>
<g >
</g>
<g >
</g>
<g >
</g>
<g >
</g>
<g >
</g>
<g >
</g>
<g >
</g>
<g >
</g>
<g >
</g>
<g >
</g>
<g >
</g>
<g >
</g>
<g >
</g>
<g >
</g>
<g >
</g>
<g >
</g>
<g >
</g>
<g >
</g>
<g >
</g>
<g >
</g>
<g >
</g>
<g >
</g>
<g >
</g>
<g >
</g>
</g>
<g style="fill:#000000; fill-opacity:1.0000; 
stroke:#000000; stroke-width:0.1200; stroke-opacity:1; 
stroke-linecap:round; stroke-linejoin:round;">
</g>
<g style="fill:#D0D2CD; fill-opacity:1.0000; 
stroke:#D0D2CD; stroke-width:0.1200; stroke-opacity:1; 
stroke-linecap:round; stroke-linejoin:round;">
</g>
<g style="fill:#D0D2CD; fill-opacity:1.0000; 
stroke:#D0D2CD; stroke-width:0.2000; stroke-opacity:1; 
stroke-linecap:round; stroke-linejoin:round;">
</g>
<g style="fill:#D0D2CD; fill-opacity:0.0; 
stroke:#D0D2CD; stroke-width:0.2000; stroke-opacity:1; 
stroke-linecap:round; stroke-linejoin:round;">
<path style="fill:#D0D2CD; fill-opacity:0.0; 
stroke:#D0D2CD; stroke-width:0.2000; stroke-opacity:1; 
stroke-linecap:round; stroke-linejoin:round;fill:none"
d="M 68.3424,0.1093
73.0484,0.3373
77.3567,0.7875
81.2894,1.4273
84.8682,2.2241
88.1151,3.1452
91.0521,4.1579
93.7009,5.2297
96.0836,6.3278
98.2220,7.4196
100.1381,8.4725
103.3908,10.3309
104.7712,11.0711
106.0170,11.6418
107.1499,12.0103
108.1918,12.1441
109.9009,12.1531
110.6605,12.1498
110.9997,12.1523
111.3121,12.1664
111.5981,12.1987
111.7312,12.2238
111.8578,12.2558
111.9780,12.2958
112.0917,12.3444
112.1990,12.4025
112.2999,12.4709
112.3944,12.5505
112.4826,12.6421
112.5646,12.7465
112.6403,12.8646
112.7098,12.9971
112.7731,13.1449
112.8302,13.3088
112.8813,13.4897
112.9262,13.6883
112.9651,13.9056
112.9980,14.1422
113.0249,14.3991
113.0459,14.6771
113.0609,14.9770
113.0734,15.6459
113.1234,61.8335
113.1161,62.1721
113.0927,62.5082
113.0516,62.8400
112.9911,63.1659
112.9097,63.4840
112.8060,63.7928
112.6782,64.0904
112.6049,64.2346
112.5249,64.3753
112.4382,64.5124
112.3446,64.6456
112.2438,64.7748
112.1356,64.8997
112.0199,65.0202
111.8964,65.1359
111.7650,65.2467
111.6255,65.3525
111.4776,65.4528
111.3212,65.5477
111.1561,65.6367
110.9821,65.7198
110.7990,65.7967
110.6066,65.8672
110.4048,65.9311
110.1932,65.9882
108.7256,66.2244
106.2193,66.5196
102.9209,66.8960
99.0771,67.3759
94.9348,67.9817
92.8288,68.3387
90.7407,68.7356
88.7012,69.1752
86.7414,69.6601
84.8919,70.1933
83.1837,70.7774
79.6111,72.2233
75.5166,74.0332
66.4448,78.2324
61.8091,80.3656
57.3347,82.3502
53.1923,84.0583
51.2990,84.7687
49.5527,85.3618
40.9322,87.9517
30.4765,90.9405
16.5468,94.8310
16.3587,94.8804
16.1737,94.9215
15.9917,94.9545
15.8131,94.9796
15.6377,94.9969
15.4659,95.0064
15.2977,95.0084
15.1331,95.0030
14.9724,94.9904
14.8157,94.9705
14.6630,94.9437
14.5146,94.9101
14.3704,94.8697
14.2307,94.8228
14.0956,94.7694
13.9651,94.7097
13.8395,94.6439
13.7187,94.5720
13.6030,94.4942
13.4924,94.4107
13.3871,94.3216
13.2872,94.2271
13.1928,94.1272
13.1041,94.0221
13.0211,93.9119
12.9439,93.7969
12.8728,93.6771
12.8078,93.5526
12.7490,93.4237
12.6966,93.2903
12.6506,93.1528
12.6112,93.0112
7.2453,71.6278
6.9592,70.4517
6.7118,69.3604
6.4979,68.3361
6.3121,67.3613
6.0038,65.4894
5.7446,63.6038
5.2042,59.2268
4.8384,56.4532
4.3525,53.1015
4.0979,51.6396
3.8104,50.3428
3.4965,49.1889
3.1632,48.1562
2.8173,47.2227
2.4656,46.3664
1.7720,44.7978
1.4438,44.0416
1.1370,43.2749
0.8585,42.4757
0.6151,41.6221
0.4136,40.6922
0.2608,39.6640
0.2048,39.1062
0.1635,38.5156
0.1379,37.8894
0.1286,37.2250
0.1000,10.3698
0.1015,10.1407
0.1078,9.9172
0.1210,9.7005
0.1429,9.4919
0.1756,9.2927
0.2210,9.1042
0.2490,9.0143
0.2811,8.9276
0.3172,8.8442
0.3578,8.7642
0.4031,8.6879
0.4533,8.6153
0.5086,8.5466
0.5694,8.4821
0.6357,8.4218
0.7080,8.3659
0.7865,8.3146
0.8713,8.2680
0.9628,8.2263
1.0611,8.1896
1.1666,8.1581
1.2795,8.1321
1.4000,8.1115
1.5284,8.0966
1.6649,8.0875
1.8097,8.0845
1.8097,8.0848
14.1252,8.0848
16.7306,7.9886
19.3252,7.7175
21.9337,7.2973
24.5808,6.7542
30.0895,5.4031
36.0488,3.8721
39.2591,3.1041
42.6562,2.3692
46.2646,1.6933
50.1092,1.1024
54.2146,0.6226
58.6054,0.2798
63.3065,0.1000
Z" /> 
<g >
</g>
<g >
</g>
<g >
</g>
<g >
</g>
<g >
</g>
<g >
</g>
<g >
</g>
<g >
</g>
<g >
</g>
<g >
</g>
<g >
</g>
<g >
</g>
<g >
</g>
<g >
</g>
<g >
</g>
<g >
</g>
<g >
</g>
<g >
</g>
<g >
</g>
<g >
</g>
<g >
</g>
<g >
</g>
<g >
</g>
<g >
</g>
<g >
</g>
<g >
</g>
<g >
</g>
<g >
</g>
<g >
</g>
<g >
</g>
<g >
</g>
<g >
</g>
<g >
</g>
<g >
</g>
<g >
</g>
<g >
</g>
<g >
</g>
<g >
</g>
<g >
</g>
<g >
</g>
<g >
</g>
<g >
</g>
<g >
</g>
<g >
</g>
<g >
</g>
<g >
</g>
<g >
</g>
<g >
</g>
<g >
</g>
<g >
</g>
<g >
</g>
<g >
</g>
<g >
</g>
<g >
</g>
<g >
</g>
<g >
</g>
<g >
</g>
<g >
</g>
<g >
</g>
<g >
</g>
<g >
</g>
<g >
</g>
<g >
</g>
<g >
</g>
<g >
</g>
<g >
</g>
<g >
</g>
<g >
</g>
<g >
</g>
<g >
</g>
<g >
</g>
<g >
</g>
</g> 
</svg>
