<?xml version="1.0" standalone="no"?>
 <!DOCTYPE svg PUBLIC "-//W3C//DTD SVG 1.1//EN" 
 "http://www.w3.org/Graphics/SVG/1.1/DTD/svg11.dtd"> 
<svg
  xmlns:svg="http://www.w3.org/2000/svg"
  xmlns="http://www.w3.org/2000/svg"
  xmlns:xlink="http://www.w3.org/1999/xlink"
  version="1.1"
  width="11.320780cm" height="9.509760cm" viewBox="0 0 113207800 95097600">
<title>SVG Picture created as rknt36-F_Paste.svg date 2023/01/29 14:51:21 </title>
  <desc>Picture generated by PCBNEW </desc>
<g style="fill:#000000; fill-opacity:1.000000;stroke:#000000; stroke-opacity:1.000000;
stroke-linecap:round; stroke-linejoin:round;"
 transform="translate(0 0) scale(1 1)">
</g>
<g style="fill:#000000; fill-opacity:0.0; 
stroke:#000000; stroke-width:0.000000; stroke-opacity:1; 
stroke-linecap:round; stroke-linejoin:round;">
<g >
</g>
<g >
</g>
<g style="fill:#000000; fill-opacity:0.0; 
stroke:#000000; stroke-width:0.000000; stroke-opacity:1; 
stroke-linecap:round; stroke-linejoin:round;">
</g>
<g style="fill:#000000; fill-opacity:0.0; 
stroke:#000000; stroke-width:1.000000; stroke-opacity:1; 
stroke-linecap:round; stroke-linejoin:round;">
</g>
<g style="fill:#000000; fill-opacity:1.0; 
stroke:#000000; stroke-width:1.000000; stroke-opacity:1; 
stroke-linecap:round; stroke-linejoin:round;">
<path style="fill:#000000; fill-opacity:1.0; 
stroke:#000000; stroke-width:1.000000; stroke-opacity:1; 
stroke-linecap:round; stroke-linejoin:round;fill-rule:evenodd;"
d="M 19841206.000000,76890786.000000
19847586.000000,76988122.000000
19816231.000000,77080491.000000
19751915.000000,77153829.000000
19664429.000000,77196972.000000
19036577.000000,77365204.000000
18939241.000000,77371584.000000
18846872.000000,77340230.000000
18773534.000000,77275913.000000
18730391.000000,77188428.000000
18497454.000000,76319094.000000
18491074.000000,76221758.000000
18522429.000000,76129389.000000
18586745.000000,76056051.000000
18674231.000000,76012908.000000
19302083.000000,75844676.000000
19399419.000000,75838296.000000
19491788.000000,75869650.000000
19565126.000000,75933967.000000
19608269.000000,76021452.000000
Z" /> 
<path style="fill:#000000; fill-opacity:1.0; 
stroke:#000000; stroke-width:1.000000; stroke-opacity:1; 
stroke-linecap:round; stroke-linejoin:round;fill-rule:evenodd;"
d="M 17861058.000000,77421366.000000
17867438.000000,77518702.000000
17836083.000000,77611071.000000
17771767.000000,77684409.000000
17684281.000000,77727552.000000
17056429.000000,77895784.000000
16959093.000000,77902164.000000
16866724.000000,77870810.000000
16793386.000000,77806493.000000
16750243.000000,77719008.000000
16517306.000000,76849674.000000
16510926.000000,76752338.000000
16542281.000000,76659969.000000
16606597.000000,76586631.000000
16694083.000000,76543488.000000
17321935.000000,76375256.000000
17419271.000000,76368876.000000
17511640.000000,76400230.000000
17584978.000000,76464547.000000
17628121.000000,76552032.000000
Z" /> 
</g>
<g >
</g>
<g style="fill:#000000; fill-opacity:1.0; 
stroke:#000000; stroke-width:1.000000; stroke-opacity:1; 
stroke-linecap:round; stroke-linejoin:round;">
<path style="fill:#000000; fill-opacity:1.0; 
stroke:#000000; stroke-width:1.000000; stroke-opacity:1; 
stroke-linecap:round; stroke-linejoin:round;fill-rule:evenodd;"
d="M 86817378.000000,27959265.000000
86817378.000000,25359265.000000
89417378.000000,25359265.000000
89417378.000000,27959265.000000
Z" /> 
<path style="fill:#000000; fill-opacity:1.0; 
stroke:#000000; stroke-width:1.000000; stroke-opacity:1; 
stroke-linecap:round; stroke-linejoin:round;fill-rule:evenodd;"
d="M 75267378.000000,30159265.000000
75267378.000000,27559265.000000
77867378.000000,27559265.000000
77867378.000000,30159265.000000
Z" /> 
</g>
<g >
</g>
<g style="fill:#000000; fill-opacity:1.0; 
stroke:#000000; stroke-width:1.000000; stroke-opacity:1; 
stroke-linecap:round; stroke-linejoin:round;">
<path style="fill:#000000; fill-opacity:1.0; 
stroke:#000000; stroke-width:1.000000; stroke-opacity:1; 
stroke-linecap:round; stroke-linejoin:round;fill-rule:evenodd;"
d="M 104817378.000000,50959265.000000
104817378.000000,48359265.000000
107417378.000000,48359265.000000
107417378.000000,50959265.000000
Z" /> 
<path style="fill:#000000; fill-opacity:1.0; 
stroke:#000000; stroke-width:1.000000; stroke-opacity:1; 
stroke-linecap:round; stroke-linejoin:round;fill-rule:evenodd;"
d="M 93267378.000000,53159265.000000
93267378.000000,50559265.000000
95867378.000000,50559265.000000
95867378.000000,53159265.000000
Z" /> 
</g>
<g >
</g>
<g style="fill:#000000; fill-opacity:1.0; 
stroke:#000000; stroke-width:1.000000; stroke-opacity:1; 
stroke-linecap:round; stroke-linejoin:round;">
<path style="fill:#000000; fill-opacity:1.0; 
stroke:#000000; stroke-width:1.000000; stroke-opacity:1; 
stroke-linecap:round; stroke-linejoin:round;fill-rule:evenodd;"
d="M 32892378.000000,57709265.000000
32796707.000000,57690235.000000
32715601.000000,57636042.000000
32661408.000000,57554936.000000
32642378.000000,57459265.000000
32642378.000000,56809265.000000
32661408.000000,56713594.000000
32715601.000000,56632488.000000
32796707.000000,56578295.000000
32892378.000000,56559265.000000
33792378.000000,56559265.000000
33888049.000000,56578295.000000
33969155.000000,56632488.000000
34023348.000000,56713594.000000
34042378.000000,56809265.000000
34042378.000000,57459265.000000
34023348.000000,57554936.000000
33969155.000000,57636042.000000
33888049.000000,57690235.000000
33792378.000000,57709265.000000
Z" /> 
<path style="fill:#000000; fill-opacity:1.0; 
stroke:#000000; stroke-width:1.000000; stroke-opacity:1; 
stroke-linecap:round; stroke-linejoin:round;fill-rule:evenodd;"
d="M 32892378.000000,55659265.000000
32796707.000000,55640235.000000
32715601.000000,55586042.000000
32661408.000000,55504936.000000
32642378.000000,55409265.000000
32642378.000000,54759265.000000
32661408.000000,54663594.000000
32715601.000000,54582488.000000
32796707.000000,54528295.000000
32892378.000000,54509265.000000
33792378.000000,54509265.000000
33888049.000000,54528295.000000
33969155.000000,54582488.000000
34023348.000000,54663594.000000
34042378.000000,54759265.000000
34042378.000000,55409265.000000
34023348.000000,55504936.000000
33969155.000000,55586042.000000
33888049.000000,55640235.000000
33792378.000000,55659265.000000
Z" /> 
</g>
<g >
</g>
<g style="fill:#000000; fill-opacity:1.0; 
stroke:#000000; stroke-width:1.000000; stroke-opacity:1; 
stroke-linecap:round; stroke-linejoin:round;">
<path style="fill:#000000; fill-opacity:1.0; 
stroke:#000000; stroke-width:1.000000; stroke-opacity:1; 
stroke-linecap:round; stroke-linejoin:round;fill-rule:evenodd;"
d="M 86817378.000000,44959265.000000
86817378.000000,42359265.000000
89417378.000000,42359265.000000
89417378.000000,44959265.000000
Z" /> 
<path style="fill:#000000; fill-opacity:1.0; 
stroke:#000000; stroke-width:1.000000; stroke-opacity:1; 
stroke-linecap:round; stroke-linejoin:round;fill-rule:evenodd;"
d="M 75267378.000000,47159265.000000
75267378.000000,44559265.000000
77867378.000000,44559265.000000
77867378.000000,47159265.000000
Z" /> 
</g>
<g >
</g>
<g style="fill:#000000; fill-opacity:1.0; 
stroke:#000000; stroke-width:1.000000; stroke-opacity:1; 
stroke-linecap:round; stroke-linejoin:round;">
<path style="fill:#000000; fill-opacity:1.0; 
stroke:#000000; stroke-width:1.000000; stroke-opacity:1; 
stroke-linecap:round; stroke-linejoin:round;fill-rule:evenodd;"
d="M 32817378.000000,29959265.000000
32817378.000000,27359265.000000
35417378.000000,27359265.000000
35417378.000000,29959265.000000
Z" /> 
<path style="fill:#000000; fill-opacity:1.0; 
stroke:#000000; stroke-width:1.000000; stroke-opacity:1; 
stroke-linecap:round; stroke-linejoin:round;fill-rule:evenodd;"
d="M 21267378.000000,32159265.000000
21267378.000000,29559265.000000
23867378.000000,29559265.000000
23867378.000000,32159265.000000
Z" /> 
</g>
<g >
</g>
<g style="fill:#000000; fill-opacity:1.0; 
stroke:#000000; stroke-width:1.000000; stroke-opacity:1; 
stroke-linecap:round; stroke-linejoin:round;">
<path style="fill:#000000; fill-opacity:1.0; 
stroke:#000000; stroke-width:1.000000; stroke-opacity:1; 
stroke-linecap:round; stroke-linejoin:round;fill-rule:evenodd;"
d="M 86892378.000000,38709265.000000
86796707.000000,38690235.000000
86715601.000000,38636042.000000
86661408.000000,38554936.000000
86642378.000000,38459265.000000
86642378.000000,37809265.000000
86661408.000000,37713594.000000
86715601.000000,37632488.000000
86796707.000000,37578295.000000
86892378.000000,37559265.000000
87792378.000000,37559265.000000
87888049.000000,37578295.000000
87969155.000000,37632488.000000
88023348.000000,37713594.000000
88042378.000000,37809265.000000
88042378.000000,38459265.000000
88023348.000000,38554936.000000
87969155.000000,38636042.000000
87888049.000000,38690235.000000
87792378.000000,38709265.000000
Z" /> 
<path style="fill:#000000; fill-opacity:1.0; 
stroke:#000000; stroke-width:1.000000; stroke-opacity:1; 
stroke-linecap:round; stroke-linejoin:round;fill-rule:evenodd;"
d="M 86892378.000000,36659265.000000
86796707.000000,36640235.000000
86715601.000000,36586042.000000
86661408.000000,36504936.000000
86642378.000000,36409265.000000
86642378.000000,35759265.000000
86661408.000000,35663594.000000
86715601.000000,35582488.000000
86796707.000000,35528295.000000
86892378.000000,35509265.000000
87792378.000000,35509265.000000
87888049.000000,35528295.000000
87969155.000000,35582488.000000
88023348.000000,35663594.000000
88042378.000000,35759265.000000
88042378.000000,36409265.000000
88023348.000000,36504936.000000
87969155.000000,36586042.000000
87888049.000000,36640235.000000
87792378.000000,36659265.000000
Z" /> 
</g>
<g >
</g>
<g style="fill:#000000; fill-opacity:1.0; 
stroke:#000000; stroke-width:1.000000; stroke-opacity:1; 
stroke-linecap:round; stroke-linejoin:round;">
<path style="fill:#000000; fill-opacity:1.0; 
stroke:#000000; stroke-width:1.000000; stroke-opacity:1; 
stroke-linecap:round; stroke-linejoin:round;fill-rule:evenodd;"
d="M 86817378.000000,10959265.000000
86817378.000000,8359265.000000
89417378.000000,8359265.000000
89417378.000000,10959265.000000
Z" /> 
<path style="fill:#000000; fill-opacity:1.0; 
stroke:#000000; stroke-width:1.000000; stroke-opacity:1; 
stroke-linecap:round; stroke-linejoin:round;fill-rule:evenodd;"
d="M 75267378.000000,13159265.000000
75267378.000000,10559265.000000
77867378.000000,10559265.000000
77867378.000000,13159265.000000
Z" /> 
</g>
<g >
</g>
<g style="fill:#000000; fill-opacity:1.0; 
stroke:#000000; stroke-width:1.000000; stroke-opacity:1; 
stroke-linecap:round; stroke-linejoin:round;">
<path style="fill:#000000; fill-opacity:1.0; 
stroke:#000000; stroke-width:1.000000; stroke-opacity:1; 
stroke-linecap:round; stroke-linejoin:round;fill-rule:evenodd;"
d="M 104892378.000000,27709265.000000
104796707.000000,27690235.000000
104715601.000000,27636042.000000
104661408.000000,27554936.000000
104642378.000000,27459265.000000
104642378.000000,26809265.000000
104661408.000000,26713594.000000
104715601.000000,26632488.000000
104796707.000000,26578295.000000
104892378.000000,26559265.000000
105792378.000000,26559265.000000
105888049.000000,26578295.000000
105969155.000000,26632488.000000
106023348.000000,26713594.000000
106042378.000000,26809265.000000
106042378.000000,27459265.000000
106023348.000000,27554936.000000
105969155.000000,27636042.000000
105888049.000000,27690235.000000
105792378.000000,27709265.000000
Z" /> 
<path style="fill:#000000; fill-opacity:1.0; 
stroke:#000000; stroke-width:1.000000; stroke-opacity:1; 
stroke-linecap:round; stroke-linejoin:round;fill-rule:evenodd;"
d="M 104892378.000000,25659265.000000
104796707.000000,25640235.000000
104715601.000000,25586042.000000
104661408.000000,25504936.000000
104642378.000000,25409265.000000
104642378.000000,24759265.000000
104661408.000000,24663594.000000
104715601.000000,24582488.000000
104796707.000000,24528295.000000
104892378.000000,24509265.000000
105792378.000000,24509265.000000
105888049.000000,24528295.000000
105969155.000000,24582488.000000
106023348.000000,24663594.000000
106042378.000000,24759265.000000
106042378.000000,25409265.000000
106023348.000000,25504936.000000
105969155.000000,25586042.000000
105888049.000000,25640235.000000
105792378.000000,25659265.000000
Z" /> 
</g>
<g >
</g>
<g style="fill:#000000; fill-opacity:1.0; 
stroke:#000000; stroke-width:1.000000; stroke-opacity:1; 
stroke-linecap:round; stroke-linejoin:round;">
<path style="fill:#000000; fill-opacity:1.0; 
stroke:#000000; stroke-width:1.000000; stroke-opacity:1; 
stroke-linecap:round; stroke-linejoin:round;fill-rule:evenodd;"
d="M 68892378.000000,32709265.000000
68796707.000000,32690235.000000
68715601.000000,32636042.000000
68661408.000000,32554936.000000
68642378.000000,32459265.000000
68642378.000000,31809265.000000
68661408.000000,31713594.000000
68715601.000000,31632488.000000
68796707.000000,31578295.000000
68892378.000000,31559265.000000
69792378.000000,31559265.000000
69888049.000000,31578295.000000
69969155.000000,31632488.000000
70023348.000000,31713594.000000
70042378.000000,31809265.000000
70042378.000000,32459265.000000
70023348.000000,32554936.000000
69969155.000000,32636042.000000
69888049.000000,32690235.000000
69792378.000000,32709265.000000
Z" /> 
<path style="fill:#000000; fill-opacity:1.0; 
stroke:#000000; stroke-width:1.000000; stroke-opacity:1; 
stroke-linecap:round; stroke-linejoin:round;fill-rule:evenodd;"
d="M 68892378.000000,30659265.000000
68796707.000000,30640235.000000
68715601.000000,30586042.000000
68661408.000000,30504936.000000
68642378.000000,30409265.000000
68642378.000000,29759265.000000
68661408.000000,29663594.000000
68715601.000000,29582488.000000
68796707.000000,29528295.000000
68892378.000000,29509265.000000
69792378.000000,29509265.000000
69888049.000000,29528295.000000
69969155.000000,29582488.000000
70023348.000000,29663594.000000
70042378.000000,29759265.000000
70042378.000000,30409265.000000
70023348.000000,30504936.000000
69969155.000000,30586042.000000
69888049.000000,30640235.000000
69792378.000000,30659265.000000
Z" /> 
</g>
<g >
</g>
<g style="fill:#000000; fill-opacity:1.0; 
stroke:#000000; stroke-width:1.000000; stroke-opacity:1; 
stroke-linecap:round; stroke-linejoin:round;">
<path style="fill:#000000; fill-opacity:1.0; 
stroke:#000000; stroke-width:1.000000; stroke-opacity:1; 
stroke-linecap:round; stroke-linejoin:round;fill-rule:evenodd;"
d="M 68817378.000000,38959265.000000
68817378.000000,36359265.000000
71417378.000000,36359265.000000
71417378.000000,38959265.000000
Z" /> 
<path style="fill:#000000; fill-opacity:1.0; 
stroke:#000000; stroke-width:1.000000; stroke-opacity:1; 
stroke-linecap:round; stroke-linejoin:round;fill-rule:evenodd;"
d="M 57267378.000000,41159265.000000
57267378.000000,38559265.000000
59867378.000000,38559265.000000
59867378.000000,41159265.000000
Z" /> 
</g>
<g >
</g>
<g style="fill:#000000; fill-opacity:1.0; 
stroke:#000000; stroke-width:1.000000; stroke-opacity:1; 
stroke-linecap:round; stroke-linejoin:round;">
<path style="fill:#000000; fill-opacity:1.0; 
stroke:#000000; stroke-width:1.000000; stroke-opacity:1; 
stroke-linecap:round; stroke-linejoin:round;fill-rule:evenodd;"
d="M 86892378.000000,21709265.000000
86796707.000000,21690235.000000
86715601.000000,21636042.000000
86661408.000000,21554936.000000
86642378.000000,21459265.000000
86642378.000000,20809265.000000
86661408.000000,20713594.000000
86715601.000000,20632488.000000
86796707.000000,20578295.000000
86892378.000000,20559265.000000
87792378.000000,20559265.000000
87888049.000000,20578295.000000
87969155.000000,20632488.000000
88023348.000000,20713594.000000
88042378.000000,20809265.000000
88042378.000000,21459265.000000
88023348.000000,21554936.000000
87969155.000000,21636042.000000
87888049.000000,21690235.000000
87792378.000000,21709265.000000
Z" /> 
<path style="fill:#000000; fill-opacity:1.0; 
stroke:#000000; stroke-width:1.000000; stroke-opacity:1; 
stroke-linecap:round; stroke-linejoin:round;fill-rule:evenodd;"
d="M 86892378.000000,19659265.000000
86796707.000000,19640235.000000
86715601.000000,19586042.000000
86661408.000000,19504936.000000
86642378.000000,19409265.000000
86642378.000000,18759265.000000
86661408.000000,18663594.000000
86715601.000000,18582488.000000
86796707.000000,18528295.000000
86892378.000000,18509265.000000
87792378.000000,18509265.000000
87888049.000000,18528295.000000
87969155.000000,18582488.000000
88023348.000000,18663594.000000
88042378.000000,18759265.000000
88042378.000000,19409265.000000
88023348.000000,19504936.000000
87969155.000000,19586042.000000
87888049.000000,19640235.000000
87792378.000000,19659265.000000
Z" /> 
</g>
<g >
</g>
<g style="fill:#000000; fill-opacity:1.0; 
stroke:#000000; stroke-width:1.000000; stroke-opacity:1; 
stroke-linecap:round; stroke-linejoin:round;">
<path style="fill:#000000; fill-opacity:1.0; 
stroke:#000000; stroke-width:1.000000; stroke-opacity:1; 
stroke-linecap:round; stroke-linejoin:round;fill-rule:evenodd;"
d="M 50892378.000000,55709265.000000
50796707.000000,55690235.000000
50715601.000000,55636042.000000
50661408.000000,55554936.000000
50642378.000000,55459265.000000
50642378.000000,54809265.000000
50661408.000000,54713594.000000
50715601.000000,54632488.000000
50796707.000000,54578295.000000
50892378.000000,54559265.000000
51792378.000000,54559265.000000
51888049.000000,54578295.000000
51969155.000000,54632488.000000
52023348.000000,54713594.000000
52042378.000000,54809265.000000
52042378.000000,55459265.000000
52023348.000000,55554936.000000
51969155.000000,55636042.000000
51888049.000000,55690235.000000
51792378.000000,55709265.000000
Z" /> 
<path style="fill:#000000; fill-opacity:1.0; 
stroke:#000000; stroke-width:1.000000; stroke-opacity:1; 
stroke-linecap:round; stroke-linejoin:round;fill-rule:evenodd;"
d="M 50892378.000000,53659265.000000
50796707.000000,53640235.000000
50715601.000000,53586042.000000
50661408.000000,53504936.000000
50642378.000000,53409265.000000
50642378.000000,52759265.000000
50661408.000000,52663594.000000
50715601.000000,52582488.000000
50796707.000000,52528295.000000
50892378.000000,52509265.000000
51792378.000000,52509265.000000
51888049.000000,52528295.000000
51969155.000000,52582488.000000
52023348.000000,52663594.000000
52042378.000000,52759265.000000
52042378.000000,53409265.000000
52023348.000000,53504936.000000
51969155.000000,53586042.000000
51888049.000000,53640235.000000
51792378.000000,53659265.000000
Z" /> 
</g>
<g >
</g>
<g >
</g>
<g >
</g>
<g style="fill:#000000; fill-opacity:1.0; 
stroke:#000000; stroke-width:1.000000; stroke-opacity:1; 
stroke-linecap:round; stroke-linejoin:round;">
<path style="fill:#000000; fill-opacity:1.0; 
stroke:#000000; stroke-width:1.000000; stroke-opacity:1; 
stroke-linecap:round; stroke-linejoin:round;fill-rule:evenodd;"
d="M 104892378.000000,44709265.000000
104796707.000000,44690235.000000
104715601.000000,44636042.000000
104661408.000000,44554936.000000
104642378.000000,44459265.000000
104642378.000000,43809265.000000
104661408.000000,43713594.000000
104715601.000000,43632488.000000
104796707.000000,43578295.000000
104892378.000000,43559265.000000
105792378.000000,43559265.000000
105888049.000000,43578295.000000
105969155.000000,43632488.000000
106023348.000000,43713594.000000
106042378.000000,43809265.000000
106042378.000000,44459265.000000
106023348.000000,44554936.000000
105969155.000000,44636042.000000
105888049.000000,44690235.000000
105792378.000000,44709265.000000
Z" /> 
<path style="fill:#000000; fill-opacity:1.0; 
stroke:#000000; stroke-width:1.000000; stroke-opacity:1; 
stroke-linecap:round; stroke-linejoin:round;fill-rule:evenodd;"
d="M 104892378.000000,42659265.000000
104796707.000000,42640235.000000
104715601.000000,42586042.000000
104661408.000000,42504936.000000
104642378.000000,42409265.000000
104642378.000000,41759265.000000
104661408.000000,41663594.000000
104715601.000000,41582488.000000
104796707.000000,41528295.000000
104892378.000000,41509265.000000
105792378.000000,41509265.000000
105888049.000000,41528295.000000
105969155.000000,41582488.000000
106023348.000000,41663594.000000
106042378.000000,41759265.000000
106042378.000000,42409265.000000
106023348.000000,42504936.000000
105969155.000000,42586042.000000
105888049.000000,42640235.000000
105792378.000000,42659265.000000
Z" /> 
</g>
<g >
</g>
<g style="fill:#000000; fill-opacity:1.0; 
stroke:#000000; stroke-width:1.000000; stroke-opacity:1; 
stroke-linecap:round; stroke-linejoin:round;">
<path style="fill:#000000; fill-opacity:1.0; 
stroke:#000000; stroke-width:1.000000; stroke-opacity:1; 
stroke-linecap:round; stroke-linejoin:round;fill-rule:evenodd;"
d="M 32892378.000000,40709265.000000
32796707.000000,40690235.000000
32715601.000000,40636042.000000
32661408.000000,40554936.000000
32642378.000000,40459265.000000
32642378.000000,39809265.000000
32661408.000000,39713594.000000
32715601.000000,39632488.000000
32796707.000000,39578295.000000
32892378.000000,39559265.000000
33792378.000000,39559265.000000
33888049.000000,39578295.000000
33969155.000000,39632488.000000
34023348.000000,39713594.000000
34042378.000000,39809265.000000
34042378.000000,40459265.000000
34023348.000000,40554936.000000
33969155.000000,40636042.000000
33888049.000000,40690235.000000
33792378.000000,40709265.000000
Z" /> 
<path style="fill:#000000; fill-opacity:1.0; 
stroke:#000000; stroke-width:1.000000; stroke-opacity:1; 
stroke-linecap:round; stroke-linejoin:round;fill-rule:evenodd;"
d="M 32892378.000000,38659265.000000
32796707.000000,38640235.000000
32715601.000000,38586042.000000
32661408.000000,38504936.000000
32642378.000000,38409265.000000
32642378.000000,37759265.000000
32661408.000000,37663594.000000
32715601.000000,37582488.000000
32796707.000000,37528295.000000
32892378.000000,37509265.000000
33792378.000000,37509265.000000
33888049.000000,37528295.000000
33969155.000000,37582488.000000
34023348.000000,37663594.000000
34042378.000000,37759265.000000
34042378.000000,38409265.000000
34023348.000000,38504936.000000
33969155.000000,38586042.000000
33888049.000000,38640235.000000
33792378.000000,38659265.000000
Z" /> 
</g>
<g >
</g>
<g style="fill:#000000; fill-opacity:1.0; 
stroke:#000000; stroke-width:1.000000; stroke-opacity:1; 
stroke-linecap:round; stroke-linejoin:round;">
<path style="fill:#000000; fill-opacity:1.0; 
stroke:#000000; stroke-width:1.000000; stroke-opacity:1; 
stroke-linecap:round; stroke-linejoin:round;fill-rule:evenodd;"
d="M 68817378.000000,21959265.000000
68817378.000000,19359265.000000
71417378.000000,19359265.000000
71417378.000000,21959265.000000
Z" /> 
<path style="fill:#000000; fill-opacity:1.0; 
stroke:#000000; stroke-width:1.000000; stroke-opacity:1; 
stroke-linecap:round; stroke-linejoin:round;fill-rule:evenodd;"
d="M 57267378.000000,24159265.000000
57267378.000000,21559265.000000
59867378.000000,21559265.000000
59867378.000000,24159265.000000
Z" /> 
</g>
<g >
</g>
<g style="fill:#000000; fill-opacity:1.0; 
stroke:#000000; stroke-width:1.000000; stroke-opacity:1; 
stroke-linecap:round; stroke-linejoin:round;">
<path style="fill:#000000; fill-opacity:1.0; 
stroke:#000000; stroke-width:1.000000; stroke-opacity:1; 
stroke-linecap:round; stroke-linejoin:round;fill-rule:evenodd;"
d="M 68817378.000000,4959265.000000
68817378.000000,2359265.000000
71417378.000000,2359265.000000
71417378.000000,4959265.000000
Z" /> 
<path style="fill:#000000; fill-opacity:1.0; 
stroke:#000000; stroke-width:1.000000; stroke-opacity:1; 
stroke-linecap:round; stroke-linejoin:round;fill-rule:evenodd;"
d="M 57267378.000000,7159265.000000
57267378.000000,4559265.000000
59867378.000000,4559265.000000
59867378.000000,7159265.000000
Z" /> 
</g>
<g >
</g>
<g style="fill:#000000; fill-opacity:1.0; 
stroke:#000000; stroke-width:1.000000; stroke-opacity:1; 
stroke-linecap:round; stroke-linejoin:round;">
<path style="fill:#000000; fill-opacity:1.0; 
stroke:#000000; stroke-width:1.000000; stroke-opacity:1; 
stroke-linecap:round; stroke-linejoin:round;fill-rule:evenodd;"
d="M 32817378.000000,12959265.000000
32817378.000000,10359265.000000
35417378.000000,10359265.000000
35417378.000000,12959265.000000
Z" /> 
<path style="fill:#000000; fill-opacity:1.0; 
stroke:#000000; stroke-width:1.000000; stroke-opacity:1; 
stroke-linecap:round; stroke-linejoin:round;fill-rule:evenodd;"
d="M 21267378.000000,15159265.000000
21267378.000000,12559265.000000
23867378.000000,12559265.000000
23867378.000000,15159265.000000
Z" /> 
</g>
<g >
</g>
<g >
</g>
<g style="fill:#000000; fill-opacity:1.0; 
stroke:#000000; stroke-width:1.000000; stroke-opacity:1; 
stroke-linecap:round; stroke-linejoin:round;">
<path style="fill:#000000; fill-opacity:1.0; 
stroke:#000000; stroke-width:1.000000; stroke-opacity:1; 
stroke-linecap:round; stroke-linejoin:round;fill-rule:evenodd;"
d="M 50892378.000000,21709265.000000
50796707.000000,21690235.000000
50715601.000000,21636042.000000
50661408.000000,21554936.000000
50642378.000000,21459265.000000
50642378.000000,20809265.000000
50661408.000000,20713594.000000
50715601.000000,20632488.000000
50796707.000000,20578295.000000
50892378.000000,20559265.000000
51792378.000000,20559265.000000
51888049.000000,20578295.000000
51969155.000000,20632488.000000
52023348.000000,20713594.000000
52042378.000000,20809265.000000
52042378.000000,21459265.000000
52023348.000000,21554936.000000
51969155.000000,21636042.000000
51888049.000000,21690235.000000
51792378.000000,21709265.000000
Z" /> 
<path style="fill:#000000; fill-opacity:1.0; 
stroke:#000000; stroke-width:1.000000; stroke-opacity:1; 
stroke-linecap:round; stroke-linejoin:round;fill-rule:evenodd;"
d="M 50892378.000000,19659265.000000
50796707.000000,19640235.000000
50715601.000000,19586042.000000
50661408.000000,19504936.000000
50642378.000000,19409265.000000
50642378.000000,18759265.000000
50661408.000000,18663594.000000
50715601.000000,18582488.000000
50796707.000000,18528295.000000
50892378.000000,18509265.000000
51792378.000000,18509265.000000
51888049.000000,18528295.000000
51969155.000000,18582488.000000
52023348.000000,18663594.000000
52042378.000000,18759265.000000
52042378.000000,19409265.000000
52023348.000000,19504936.000000
51969155.000000,19586042.000000
51888049.000000,19640235.000000
51792378.000000,19659265.000000
Z" /> 
</g>
<g >
</g>
<g style="fill:#000000; fill-opacity:1.0; 
stroke:#000000; stroke-width:1.000000; stroke-opacity:1; 
stroke-linecap:round; stroke-linejoin:round;">
<path style="fill:#000000; fill-opacity:1.0; 
stroke:#000000; stroke-width:1.000000; stroke-opacity:1; 
stroke-linecap:round; stroke-linejoin:round;fill-rule:evenodd;"
d="M 32892378.000000,23709265.000000
32796707.000000,23690235.000000
32715601.000000,23636042.000000
32661408.000000,23554936.000000
32642378.000000,23459265.000000
32642378.000000,22809265.000000
32661408.000000,22713594.000000
32715601.000000,22632488.000000
32796707.000000,22578295.000000
32892378.000000,22559265.000000
33792378.000000,22559265.000000
33888049.000000,22578295.000000
33969155.000000,22632488.000000
34023348.000000,22713594.000000
34042378.000000,22809265.000000
34042378.000000,23459265.000000
34023348.000000,23554936.000000
33969155.000000,23636042.000000
33888049.000000,23690235.000000
33792378.000000,23709265.000000
Z" /> 
<path style="fill:#000000; fill-opacity:1.0; 
stroke:#000000; stroke-width:1.000000; stroke-opacity:1; 
stroke-linecap:round; stroke-linejoin:round;fill-rule:evenodd;"
d="M 32892378.000000,21659265.000000
32796707.000000,21640235.000000
32715601.000000,21586042.000000
32661408.000000,21504936.000000
32642378.000000,21409265.000000
32642378.000000,20759265.000000
32661408.000000,20663594.000000
32715601.000000,20582488.000000
32796707.000000,20528295.000000
32892378.000000,20509265.000000
33792378.000000,20509265.000000
33888049.000000,20528295.000000
33969155.000000,20582488.000000
34023348.000000,20663594.000000
34042378.000000,20759265.000000
34042378.000000,21409265.000000
34023348.000000,21504936.000000
33969155.000000,21586042.000000
33888049.000000,21640235.000000
33792378.000000,21659265.000000
Z" /> 
</g>
<g >
</g>
<g style="fill:#000000; fill-opacity:1.0; 
stroke:#000000; stroke-width:1.000000; stroke-opacity:1; 
stroke-linecap:round; stroke-linejoin:round;">
<path style="fill:#000000; fill-opacity:1.0; 
stroke:#000000; stroke-width:1.000000; stroke-opacity:1; 
stroke-linecap:round; stroke-linejoin:round;fill-rule:evenodd;"
d="M 104892378.000000,61709265.000000
104796707.000000,61690235.000000
104715601.000000,61636042.000000
104661408.000000,61554936.000000
104642378.000000,61459265.000000
104642378.000000,60809265.000000
104661408.000000,60713594.000000
104715601.000000,60632488.000000
104796707.000000,60578295.000000
104892378.000000,60559265.000000
105792378.000000,60559265.000000
105888049.000000,60578295.000000
105969155.000000,60632488.000000
106023348.000000,60713594.000000
106042378.000000,60809265.000000
106042378.000000,61459265.000000
106023348.000000,61554936.000000
105969155.000000,61636042.000000
105888049.000000,61690235.000000
105792378.000000,61709265.000000
Z" /> 
<path style="fill:#000000; fill-opacity:1.0; 
stroke:#000000; stroke-width:1.000000; stroke-opacity:1; 
stroke-linecap:round; stroke-linejoin:round;fill-rule:evenodd;"
d="M 104892378.000000,59659265.000000
104796707.000000,59640235.000000
104715601.000000,59586042.000000
104661408.000000,59504936.000000
104642378.000000,59409265.000000
104642378.000000,58759265.000000
104661408.000000,58663594.000000
104715601.000000,58582488.000000
104796707.000000,58528295.000000
104892378.000000,58509265.000000
105792378.000000,58509265.000000
105888049.000000,58528295.000000
105969155.000000,58582488.000000
106023348.000000,58663594.000000
106042378.000000,58759265.000000
106042378.000000,59409265.000000
106023348.000000,59504936.000000
105969155.000000,59586042.000000
105888049.000000,59640235.000000
105792378.000000,59659265.000000
Z" /> 
</g>
<g >
</g>
<g style="fill:#000000; fill-opacity:1.0; 
stroke:#000000; stroke-width:1.000000; stroke-opacity:1; 
stroke-linecap:round; stroke-linejoin:round;">
<path style="fill:#000000; fill-opacity:1.0; 
stroke:#000000; stroke-width:1.000000; stroke-opacity:1; 
stroke-linecap:round; stroke-linejoin:round;fill-rule:evenodd;"
d="M 50817378.000000,44959265.000000
50817378.000000,42359265.000000
53417378.000000,42359265.000000
53417378.000000,44959265.000000
Z" /> 
<path style="fill:#000000; fill-opacity:1.0; 
stroke:#000000; stroke-width:1.000000; stroke-opacity:1; 
stroke-linecap:round; stroke-linejoin:round;fill-rule:evenodd;"
d="M 39267378.000000,47159265.000000
39267378.000000,44559265.000000
41867378.000000,44559265.000000
41867378.000000,47159265.000000
Z" /> 
</g>
<g >
</g>
<g style="fill:#000000; fill-opacity:1.0; 
stroke:#000000; stroke-width:1.000000; stroke-opacity:1; 
stroke-linecap:round; stroke-linejoin:round;">
<path style="fill:#000000; fill-opacity:1.0; 
stroke:#000000; stroke-width:1.000000; stroke-opacity:1; 
stroke-linecap:round; stroke-linejoin:round;fill-rule:evenodd;"
d="M 104817378.000000,16959265.000000
104817378.000000,14359265.000000
107417378.000000,14359265.000000
107417378.000000,16959265.000000
Z" /> 
<path style="fill:#000000; fill-opacity:1.0; 
stroke:#000000; stroke-width:1.000000; stroke-opacity:1; 
stroke-linecap:round; stroke-linejoin:round;fill-rule:evenodd;"
d="M 93267378.000000,19159265.000000
93267378.000000,16559265.000000
95867378.000000,16559265.000000
95867378.000000,19159265.000000
Z" /> 
</g>
<g >
</g>
<g style="fill:#000000; fill-opacity:1.0; 
stroke:#000000; stroke-width:1.000000; stroke-opacity:1; 
stroke-linecap:round; stroke-linejoin:round;">
<path style="fill:#000000; fill-opacity:1.0; 
stroke:#000000; stroke-width:1.000000; stroke-opacity:1; 
stroke-linecap:round; stroke-linejoin:round;fill-rule:evenodd;"
d="M 104817378.000000,33959265.000000
104817378.000000,31359265.000000
107417378.000000,31359265.000000
107417378.000000,33959265.000000
Z" /> 
<path style="fill:#000000; fill-opacity:1.0; 
stroke:#000000; stroke-width:1.000000; stroke-opacity:1; 
stroke-linecap:round; stroke-linejoin:round;fill-rule:evenodd;"
d="M 93267378.000000,36159265.000000
93267378.000000,33559265.000000
95867378.000000,33559265.000000
95867378.000000,36159265.000000
Z" /> 
</g>
<g >
</g>
<g >
</g>
<g style="fill:#000000; fill-opacity:1.0; 
stroke:#000000; stroke-width:1.000000; stroke-opacity:1; 
stroke-linecap:round; stroke-linejoin:round;">
<path style="fill:#000000; fill-opacity:1.0; 
stroke:#000000; stroke-width:1.000000; stroke-opacity:1; 
stroke-linecap:round; stroke-linejoin:round;fill-rule:evenodd;"
d="M 86892378.000000,55709265.000000
86796707.000000,55690235.000000
86715601.000000,55636042.000000
86661408.000000,55554936.000000
86642378.000000,55459265.000000
86642378.000000,54809265.000000
86661408.000000,54713594.000000
86715601.000000,54632488.000000
86796707.000000,54578295.000000
86892378.000000,54559265.000000
87792378.000000,54559265.000000
87888049.000000,54578295.000000
87969155.000000,54632488.000000
88023348.000000,54713594.000000
88042378.000000,54809265.000000
88042378.000000,55459265.000000
88023348.000000,55554936.000000
87969155.000000,55636042.000000
87888049.000000,55690235.000000
87792378.000000,55709265.000000
Z" /> 
<path style="fill:#000000; fill-opacity:1.0; 
stroke:#000000; stroke-width:1.000000; stroke-opacity:1; 
stroke-linecap:round; stroke-linejoin:round;fill-rule:evenodd;"
d="M 86892378.000000,53659265.000000
86796707.000000,53640235.000000
86715601.000000,53586042.000000
86661408.000000,53504936.000000
86642378.000000,53409265.000000
86642378.000000,52759265.000000
86661408.000000,52663594.000000
86715601.000000,52582488.000000
86796707.000000,52528295.000000
86892378.000000,52509265.000000
87792378.000000,52509265.000000
87888049.000000,52528295.000000
87969155.000000,52582488.000000
88023348.000000,52663594.000000
88042378.000000,52759265.000000
88042378.000000,53409265.000000
88023348.000000,53504936.000000
87969155.000000,53586042.000000
87888049.000000,53640235.000000
87792378.000000,53659265.000000
Z" /> 
</g>
<g >
</g>
<g >
</g>
<g style="fill:#000000; fill-opacity:1.0; 
stroke:#000000; stroke-width:1.000000; stroke-opacity:1; 
stroke-linecap:round; stroke-linejoin:round;">
<path style="fill:#000000; fill-opacity:1.0; 
stroke:#000000; stroke-width:1.000000; stroke-opacity:1; 
stroke-linecap:round; stroke-linejoin:round;fill-rule:evenodd;"
d="M 37227871.000000,72232044.000000
37234251.000000,72329380.000000
37202896.000000,72421749.000000
37138580.000000,72495087.000000
37051094.000000,72538230.000000
36423242.000000,72706462.000000
36325906.000000,72712842.000000
36233537.000000,72681488.000000
36160199.000000,72617171.000000
36117056.000000,72529686.000000
35884119.000000,71660352.000000
35877739.000000,71563016.000000
35909094.000000,71470647.000000
35973410.000000,71397309.000000
36060896.000000,71354166.000000
36688748.000000,71185934.000000
36786084.000000,71179554.000000
36878453.000000,71210908.000000
36951791.000000,71275225.000000
36994934.000000,71362710.000000
Z" /> 
<path style="fill:#000000; fill-opacity:1.0; 
stroke:#000000; stroke-width:1.000000; stroke-opacity:1; 
stroke-linecap:round; stroke-linejoin:round;fill-rule:evenodd;"
d="M 35247723.000000,72762624.000000
35254103.000000,72859960.000000
35222748.000000,72952329.000000
35158432.000000,73025667.000000
35070946.000000,73068810.000000
34443094.000000,73237042.000000
34345758.000000,73243422.000000
34253389.000000,73212068.000000
34180051.000000,73147751.000000
34136908.000000,73060266.000000
33903971.000000,72190932.000000
33897591.000000,72093596.000000
33928946.000000,72001227.000000
33993262.000000,71927889.000000
34080748.000000,71884746.000000
34708600.000000,71716514.000000
34805936.000000,71710134.000000
34898305.000000,71741488.000000
34971643.000000,71805805.000000
35014786.000000,71893290.000000
Z" /> 
</g>
<g >
</g>
<g >
</g>
<g style="fill:#000000; fill-opacity:1.0; 
stroke:#000000; stroke-width:1.000000; stroke-opacity:1; 
stroke-linecap:round; stroke-linejoin:round;">
<path style="fill:#000000; fill-opacity:1.0; 
stroke:#000000; stroke-width:1.000000; stroke-opacity:1; 
stroke-linecap:round; stroke-linejoin:round;fill-rule:evenodd;"
d="M 50892378.000000,38709265.000000
50796707.000000,38690235.000000
50715601.000000,38636042.000000
50661408.000000,38554936.000000
50642378.000000,38459265.000000
50642378.000000,37809265.000000
50661408.000000,37713594.000000
50715601.000000,37632488.000000
50796707.000000,37578295.000000
50892378.000000,37559265.000000
51792378.000000,37559265.000000
51888049.000000,37578295.000000
51969155.000000,37632488.000000
52023348.000000,37713594.000000
52042378.000000,37809265.000000
52042378.000000,38459265.000000
52023348.000000,38554936.000000
51969155.000000,38636042.000000
51888049.000000,38690235.000000
51792378.000000,38709265.000000
Z" /> 
<path style="fill:#000000; fill-opacity:1.0; 
stroke:#000000; stroke-width:1.000000; stroke-opacity:1; 
stroke-linecap:round; stroke-linejoin:round;fill-rule:evenodd;"
d="M 50892378.000000,36659265.000000
50796707.000000,36640235.000000
50715601.000000,36586042.000000
50661408.000000,36504936.000000
50642378.000000,36409265.000000
50642378.000000,35759265.000000
50661408.000000,35663594.000000
50715601.000000,35582488.000000
50796707.000000,35528295.000000
50892378.000000,35509265.000000
51792378.000000,35509265.000000
51888049.000000,35528295.000000
51969155.000000,35582488.000000
52023348.000000,35663594.000000
52042378.000000,35759265.000000
52042378.000000,36409265.000000
52023348.000000,36504936.000000
51969155.000000,36586042.000000
51888049.000000,36640235.000000
51792378.000000,36659265.000000
Z" /> 
</g>
<g >
</g>
<g >
</g>
<g style="fill:#000000; fill-opacity:1.0; 
stroke:#000000; stroke-width:1.000000; stroke-opacity:1; 
stroke-linecap:round; stroke-linejoin:round;">
<path style="fill:#000000; fill-opacity:1.0; 
stroke:#000000; stroke-width:1.000000; stroke-opacity:1; 
stroke-linecap:round; stroke-linejoin:round;fill-rule:evenodd;"
d="M 68892378.000000,49709265.000000
68796707.000000,49690235.000000
68715601.000000,49636042.000000
68661408.000000,49554936.000000
68642378.000000,49459265.000000
68642378.000000,48809265.000000
68661408.000000,48713594.000000
68715601.000000,48632488.000000
68796707.000000,48578295.000000
68892378.000000,48559265.000000
69792378.000000,48559265.000000
69888049.000000,48578295.000000
69969155.000000,48632488.000000
70023348.000000,48713594.000000
70042378.000000,48809265.000000
70042378.000000,49459265.000000
70023348.000000,49554936.000000
69969155.000000,49636042.000000
69888049.000000,49690235.000000
69792378.000000,49709265.000000
Z" /> 
<path style="fill:#000000; fill-opacity:1.0; 
stroke:#000000; stroke-width:1.000000; stroke-opacity:1; 
stroke-linecap:round; stroke-linejoin:round;fill-rule:evenodd;"
d="M 68892378.000000,47659265.000000
68796707.000000,47640235.000000
68715601.000000,47586042.000000
68661408.000000,47504936.000000
68642378.000000,47409265.000000
68642378.000000,46759265.000000
68661408.000000,46663594.000000
68715601.000000,46582488.000000
68796707.000000,46528295.000000
68892378.000000,46509265.000000
69792378.000000,46509265.000000
69888049.000000,46528295.000000
69969155.000000,46582488.000000
70023348.000000,46663594.000000
70042378.000000,46759265.000000
70042378.000000,47409265.000000
70023348.000000,47504936.000000
69969155.000000,47586042.000000
69888049.000000,47640235.000000
69792378.000000,47659265.000000
Z" /> 
</g>
<g >
</g>
<g style="fill:#000000; fill-opacity:1.0; 
stroke:#000000; stroke-width:1.000000; stroke-opacity:1; 
stroke-linecap:round; stroke-linejoin:round;">
<path style="fill:#000000; fill-opacity:1.0; 
stroke:#000000; stroke-width:1.000000; stroke-opacity:1; 
stroke-linecap:round; stroke-linejoin:round;fill-rule:evenodd;"
d="M 50817378.000000,10959265.000000
50817378.000000,8359265.000000
53417378.000000,8359265.000000
53417378.000000,10959265.000000
Z" /> 
<path style="fill:#000000; fill-opacity:1.0; 
stroke:#000000; stroke-width:1.000000; stroke-opacity:1; 
stroke-linecap:round; stroke-linejoin:round;fill-rule:evenodd;"
d="M 39267378.000000,13159265.000000
39267378.000000,10559265.000000
41867378.000000,10559265.000000
41867378.000000,13159265.000000
Z" /> 
</g>
<g >
</g>
<g >
</g>
<g >
</g>
<g style="fill:#000000; fill-opacity:1.0; 
stroke:#000000; stroke-width:1.000000; stroke-opacity:1; 
stroke-linecap:round; stroke-linejoin:round;">
<path style="fill:#000000; fill-opacity:1.0; 
stroke:#000000; stroke-width:1.000000; stroke-opacity:1; 
stroke-linecap:round; stroke-linejoin:round;fill-rule:evenodd;"
d="M 32817378.000000,46959265.000000
32817378.000000,44359265.000000
35417378.000000,44359265.000000
35417378.000000,46959265.000000
Z" /> 
<path style="fill:#000000; fill-opacity:1.0; 
stroke:#000000; stroke-width:1.000000; stroke-opacity:1; 
stroke-linecap:round; stroke-linejoin:round;fill-rule:evenodd;"
d="M 21267378.000000,49159265.000000
21267378.000000,46559265.000000
23867378.000000,46559265.000000
23867378.000000,49159265.000000
Z" /> 
</g>
<g >
</g>
<g style="fill:#000000; fill-opacity:1.0; 
stroke:#000000; stroke-width:1.000000; stroke-opacity:1; 
stroke-linecap:round; stroke-linejoin:round;">
<path style="fill:#000000; fill-opacity:1.0; 
stroke:#000000; stroke-width:1.000000; stroke-opacity:1; 
stroke-linecap:round; stroke-linejoin:round;fill-rule:evenodd;"
d="M 57542378.000000,66859265.000000
57523348.000000,66954936.000000
57469155.000000,67036042.000000
57388049.000000,67090235.000000
57292378.000000,67109265.000000
56642378.000000,67109265.000000
56546707.000000,67090235.000000
56465601.000000,67036042.000000
56411408.000000,66954936.000000
56392378.000000,66859265.000000
56392378.000000,65959265.000000
56411408.000000,65863594.000000
56465601.000000,65782488.000000
56546707.000000,65728295.000000
56642378.000000,65709265.000000
57292378.000000,65709265.000000
57388049.000000,65728295.000000
57469155.000000,65782488.000000
57523348.000000,65863594.000000
57542378.000000,65959265.000000
Z" /> 
<path style="fill:#000000; fill-opacity:1.0; 
stroke:#000000; stroke-width:1.000000; stroke-opacity:1; 
stroke-linecap:round; stroke-linejoin:round;fill-rule:evenodd;"
d="M 55492378.000000,66859265.000000
55473348.000000,66954936.000000
55419155.000000,67036042.000000
55338049.000000,67090235.000000
55242378.000000,67109265.000000
54592378.000000,67109265.000000
54496707.000000,67090235.000000
54415601.000000,67036042.000000
54361408.000000,66954936.000000
54342378.000000,66859265.000000
54342378.000000,65959265.000000
54361408.000000,65863594.000000
54415601.000000,65782488.000000
54496707.000000,65728295.000000
54592378.000000,65709265.000000
55242378.000000,65709265.000000
55338049.000000,65728295.000000
55419155.000000,65782488.000000
55473348.000000,65863594.000000
55492378.000000,65959265.000000
Z" /> 
</g>
<g >
</g>
<g >
</g>
<g style="fill:#000000; fill-opacity:1.0; 
stroke:#000000; stroke-width:1.000000; stroke-opacity:1; 
stroke-linecap:round; stroke-linejoin:round;">
</g>
<g style="fill:#000000; fill-opacity:1.0; 
stroke:#000000; stroke-width:1800000.000000; stroke-opacity:1; 
stroke-linecap:round; stroke-linejoin:round;">
</g>
<g style="fill:#000000; fill-opacity:0.0; 
stroke:#000000; stroke-width:1800000.000000; stroke-opacity:1; 
stroke-linecap:round; stroke-linejoin:round;">
<path d="M2222418 11989265
L1272418 11989265
" />
<path d="M2222418 14529265
L1272418 14529265
" />
<path d="M2222418 17069265
L1272418 17069265
" />
<path d="M2222418 19609265
L1272418 19609265
" />
<path d="M2222418 22149265
L1272418 22149265
" />
<path d="M2222418 24689265
L1272418 24689265
" />
<path d="M2222418 27229265
L1272418 27229265
" />
<path d="M17462338 27229265
L18412338 27229265
" />
<path d="M17462338 24689265
L18412338 24689265
" />
<path d="M17462338 22149265
L18412338 22149265
" />
<path d="M17462338 19609265
L18412338 19609265
" />
<path d="M17462338 17069265
L18412338 17069265
" />
<path d="M17462338 14529265
L18412338 14529265
" />
<path d="M17462338 11989265
L18412338 11989265
" />
</g>
<g >
</g>
<g >
</g>
<g >
</g>
<g style="fill:#000000; fill-opacity:0.0; 
stroke:#000000; stroke-width:1800000.000000; stroke-opacity:1; 
stroke-linecap:round; stroke-linejoin:round;">
</g>
<g style="fill:#000000; fill-opacity:0.0; 
stroke:#000000; stroke-width:1.000000; stroke-opacity:1; 
stroke-linecap:round; stroke-linejoin:round;">
</g>
<g style="fill:#000000; fill-opacity:1.0; 
stroke:#000000; stroke-width:1.000000; stroke-opacity:1; 
stroke-linecap:round; stroke-linejoin:round;">
<path style="fill:#000000; fill-opacity:1.0; 
stroke:#000000; stroke-width:1.000000; stroke-opacity:1; 
stroke-linecap:round; stroke-linejoin:round;fill-rule:evenodd;"
d="M 50817378.000000,27959265.000000
50817378.000000,25359265.000000
53417378.000000,25359265.000000
53417378.000000,27959265.000000
Z" /> 
<path style="fill:#000000; fill-opacity:1.0; 
stroke:#000000; stroke-width:1.000000; stroke-opacity:1; 
stroke-linecap:round; stroke-linejoin:round;fill-rule:evenodd;"
d="M 39267378.000000,30159265.000000
39267378.000000,27559265.000000
41867378.000000,27559265.000000
41867378.000000,30159265.000000
Z" /> 
</g>
<g >
</g>
<g style="fill:#000000; fill-opacity:1.0; 
stroke:#000000; stroke-width:1.000000; stroke-opacity:1; 
stroke-linecap:round; stroke-linejoin:round;">
<path style="fill:#000000; fill-opacity:1.0; 
stroke:#000000; stroke-width:1.000000; stroke-opacity:1; 
stroke-linecap:round; stroke-linejoin:round;fill-rule:evenodd;"
d="M 68892378.000000,15709265.000000
68796707.000000,15690235.000000
68715601.000000,15636042.000000
68661408.000000,15554936.000000
68642378.000000,15459265.000000
68642378.000000,14809265.000000
68661408.000000,14713594.000000
68715601.000000,14632488.000000
68796707.000000,14578295.000000
68892378.000000,14559265.000000
69792378.000000,14559265.000000
69888049.000000,14578295.000000
69969155.000000,14632488.000000
70023348.000000,14713594.000000
70042378.000000,14809265.000000
70042378.000000,15459265.000000
70023348.000000,15554936.000000
69969155.000000,15636042.000000
69888049.000000,15690235.000000
69792378.000000,15709265.000000
Z" /> 
<path style="fill:#000000; fill-opacity:1.0; 
stroke:#000000; stroke-width:1.000000; stroke-opacity:1; 
stroke-linecap:round; stroke-linejoin:round;fill-rule:evenodd;"
d="M 68892378.000000,13659265.000000
68796707.000000,13640235.000000
68715601.000000,13586042.000000
68661408.000000,13504936.000000
68642378.000000,13409265.000000
68642378.000000,12759265.000000
68661408.000000,12663594.000000
68715601.000000,12582488.000000
68796707.000000,12528295.000000
68892378.000000,12509265.000000
69792378.000000,12509265.000000
69888049.000000,12528295.000000
69969155.000000,12582488.000000
70023348.000000,12663594.000000
70042378.000000,12759265.000000
70042378.000000,13409265.000000
70023348.000000,13504936.000000
69969155.000000,13586042.000000
69888049.000000,13640235.000000
69792378.000000,13659265.000000
Z" /> 
</g>
<g >
</g>
<g >
</g>
<g >
</g>
<g >
</g>
<g >
</g>
<g >
</g>
<g >
</g>
<g >
</g>
<g >
</g>
<g >
</g>
<g >
</g>
<g >
</g>
<g >
</g>
<g >
</g>
<g >
</g>
<g >
</g>
<g >
</g>
<g >
</g>
<g >
</g>
<g >
</g>
<g >
</g>
<g >
</g>
<g >
</g>
<g >
</g>
</g>
<g style="fill:#000000; fill-opacity:1.0; 
stroke:#000000; stroke-width:1.000000; stroke-opacity:1; 
stroke-linecap:round; stroke-linejoin:round;">
</g>
<g style="fill:#D0D2CD; fill-opacity:1.0; 
stroke:#D0D2CD; stroke-width:1.000000; stroke-opacity:1; 
stroke-linecap:round; stroke-linejoin:round;">
</g>
<g style="fill:#D0D2CD; fill-opacity:1.0; 
stroke:#D0D2CD; stroke-width:200000.000000; stroke-opacity:1; 
stroke-linecap:round; stroke-linejoin:round;">
</g>
<g style="fill:#D0D2CD; fill-opacity:0.0; 
stroke:#D0D2CD; stroke-width:200000.000000; stroke-opacity:1; 
stroke-linecap:round; stroke-linejoin:round;">
<path style="fill:#D0D2CD; fill-opacity:0.0; 
stroke:#D0D2CD; stroke-width:200000.000000; stroke-opacity:1; 
stroke-linecap:round; stroke-linejoin:round;fill:none"
d="M 68342378.000000,109265.000000
73048364.000000,337258.000000
77356725.000000,787492.000000
81289369.000000,1427321.000000
84868204.000000,2224098.000000
88115139.000000,3145177.000000
91052083.000000,4157912.000000
93700943.000000,5229656.000000
96083629.000000,6327762.000000
98222049.000000,7419584.000000
100138111.000000,8472475.000000
103390797.000000,10330881.000000
104771237.000000,11071102.000000
106016954.000000,11641806.000000
107149856.000000,12010347.000000
108191850.000000,12144078.000000
109900926.000000,12153081.000000
110660497.000000,12149818.000000
110999656.000000,12152337.000000
111312088.000000,12166440.000000
111598057.000000,12198737.000000
111731201.000000,12223776.000000
111857829.000000,12255842.000000
111977976.000000,12295763.000000
112091673.000000,12344365.000000
112198954.000000,12402475.000000
112299852.000000,12470919.000000
112394401.000000,12550523.000000
112482634.000000,12642115.000000
112564585.000000,12746520.000000
112640285.000000,12864565.000000
112709770.000000,12997077.000000
112773072.000000,13144882.000000
112830224.000000,13308806.000000
112881260.000000,13489676.000000
112926212.000000,13688319.000000
112965115.000000,13905561.000000
112998001.000000,14142228.000000
113024905.000000,14399147.000000
113045858.000000,14677144.000000
113060894.000000,14977046.000000
113073351.000000,15645871.000000
113123354.000000,61833463.000000
113116145.000000,62172125.000000
113092732.000000,62508220.000000
113051562.000000,62840041.000000
112991080.000000,63165880.000000
112909732.000000,63484032.000000
112805962.000000,63792789.000000
112678218.000000,64090444.000000
112604869.000000,64234575.000000
112524944.000000,64375291.000000
112438248.000000,64512378.000000
112344586.000000,64645623.000000
112243766.000000,64774812.000000
112135591.000000,64899733.000000
112019868.000000,65020172.000000
111896403.000000,65135915.000000
111765001.000000,65246749.000000
111625469.000000,65352461.000000
111477611.000000,65452837.000000
111321233.000000,65547665.000000
111156142.000000,65636730.000000
110982142.000000,65719820.000000
110799041.000000,65796721.000000
110606642.000000,65867219.000000
110404753.000000,65931102.000000
110193178.000000,65988156.000000
108725612.000000,66224431.000000
106219262.000000,66519593.000000
102920858.000000,66895968.000000
99077134.000000,67375882.000000
94934821.000000,67981661.000000
92828799.000000,68338727.000000
90740653.000000,68735631.000000
88701227.000000,69175164.000000
86741362.000000,69660118.000000
84891899.000000,70193282.000000
83183679.000000,70777448.000000
79611123.000000,72223334.000000
75516582.000000,74033201.000000
66444763.000000,78232429.000000
61809095.000000,80365569.000000
57334660.000000,82350246.000000
53192265.000000,84058349.000000
51298958.000000,84768651.000000
49552713.000000,85361768.000000
40932189.000000,87951667.000000
30476542.000000,90940522.000000
16546751.000000,94830976.000000
16358709.000000,94880362.000000
16173668.000000,94921505.000000
15991746.000000,94954543.000000
15813064.000000,94979616.000000
15637741.000000,94996862.000000
15465896.000000,95006420.000000
15297651.000000,95008429.000000
15133123.000000,95003027.000000
14972433.000000,94990354.000000
14815702.000000,94970548.000000
14663047.000000,94943749.000000
14514590.000000,94910094.000000
14370450.000000,94869723.000000
14230746.000000,94822775.000000
14095599.000000,94769388.000000
13965128.000000,94709701.000000
13839453.000000,94643853.000000
13718693.000000,94571983.000000
13602969.000000,94494229.000000
13492400.000000,94410731.000000
13387105.000000,94321628.000000
13287205.000000,94227057.000000
13192819.000000,94127159.000000
13104067.000000,94022071.000000
13021069.000000,93911932.000000
12943944.000000,93796882.000000
12872813.000000,93677060.000000
12807794.000000,93552603.000000
12749008.000000,93423651.000000
12696574.000000,93290343.000000
12650612.000000,93152817.000000
12611242.000000,93011212.000000
7245287.000000,71627835.000000
6959179.000000,70451739.000000
6711801.000000,69360368.000000
6497862.000000,68336086.000000
6312072.000000,67361259.000000
6003776.000000,65489427.000000
5744589.000000,63603789.000000
5204246.000000,59226762.000000
4838443.000000,56453207.000000
4352453.000000,53101514.000000
4097938.000000,51639638.000000
3810352.000000,50342758.000000
3496512.000000,49188936.000000
3163234.000000,48156231.000000
2817332.000000,47222704.000000
2465624.000000,46366416.000000
1772050.000000,44797799.000000
1443816.000000,44041592.000000
1137038.000000,43274866.000000
858533.000000,42475682.000000
615115.000000,41622101.000000
413601.000000,40692184.000000
260807.000000,39663991.000000
204810.000000,39106184.000000
163548.000000,38515582.000000
137875.000000,37889441.000000
128641.000000,37225019.000000
100000.000000,10369840.000000
101510.000000,10140728.000000
107846.000000,9917192.000000
120982.000000,9700504.000000
142896.000000,9491931.000000
175564.000000,9292746.000000
220960.000000,9104218.000000
249049.000000,9014347.000000
281062.000000,8927617.000000
317244.000000,8844186.000000
357844.000000,8764213.000000
403108.000000,8687857.000000
453284.000000,8615276.000000
508617.000000,8546630.000000
569356.000000,8482077.000000
635747.000000,8421775.000000
708037.000000,8365885.000000
786474.000000,8314564.000000
871304.000000,8267971.000000
962774.000000,8226265.000000
1061131.000000,8189604.000000
1166622.000000,8158148.000000
1279494.000000,8132056.000000
1399995.000000,8111485.000000
1528371.000000,8096595.000000
1664869.000000,8087545.000000
1809736.000000,8084493.000000
1809717.000000,8084752.000000
14125188.000000,8084752.000000
16730616.000000,7988595.000000
19325238.000000,7717457.000000
21933747.000000,7297339.000000
24580833.000000,6754244.000000
30089500.000000,5403124.000000
36048767.000000,3872107.000000
39259103.000000,3104140.000000
42656161.000000,2369202.000000
46264633.000000,1693295.000000
50109209.000000,1102420.000000
54214581.000000,622579.000000
58605439.000000,279771.000000
63306475.000000,100000.000000
Z" /> 
<g >
</g>
<g >
</g>
<g >
</g>
<g >
</g>
<g >
</g>
<g >
</g>
<g >
</g>
<g >
</g>
<g >
</g>
<g >
</g>
<g >
</g>
<g >
</g>
<g >
</g>
<g >
</g>
<g >
</g>
<g >
</g>
<g >
</g>
<g >
</g>
<g >
</g>
<g >
</g>
<g >
</g>
<g >
</g>
<g >
</g>
<g >
</g>
<g >
</g>
<g >
</g>
<g >
</g>
<g >
</g>
<g >
</g>
<g >
</g>
<g >
</g>
<g >
</g>
<g >
</g>
<g >
</g>
<g >
</g>
<g >
</g>
<g >
</g>
<g >
</g>
<g >
</g>
<g >
</g>
<g >
</g>
<g >
</g>
<g >
</g>
<g >
</g>
<g >
</g>
<g >
</g>
<g >
</g>
<g >
</g>
<g >
</g>
<g >
</g>
<g >
</g>
<g >
</g>
<g >
</g>
<g >
</g>
<g >
</g>
<g >
</g>
<g >
</g>
<g >
</g>
<g >
</g>
<g >
</g>
<g >
</g>
<g >
</g>
<g >
</g>
<g >
</g>
<g >
</g>
<g >
</g>
<g >
</g>
<g >
</g>
<g >
</g>
<g >
</g>
<g >
</g>
</g> 
</svg>
