<?xml version="1.0" standalone="no"?>
 <!DOCTYPE svg PUBLIC "-//W3C//DTD SVG 1.1//EN" 
 "http://www.w3.org/Graphics/SVG/1.1/DTD/svg11.dtd"> 
<svg
  xmlns:svg="http://www.w3.org/2000/svg"
  xmlns="http://www.w3.org/2000/svg"
  xmlns:xlink="http://www.w3.org/1999/xlink"
  version="1.1"
  width="11.320780cm" height="9.509760cm" viewBox="0 0 113207800 95097600">
<title>SVG Picture created as rknt36-rounded-User_Drawings.svg date 2023/01/28 21:17:41 </title>
  <desc>Picture generated by PCBNEW </desc>
<g style="fill:#000000; fill-opacity:1.000000;stroke:#000000; stroke-opacity:1.000000;
stroke-linecap:round; stroke-linejoin:round;"
 transform="translate(0 0) scale(1 1)">
</g>
<g style="fill:#000000; fill-opacity:0.0; 
stroke:#000000; stroke-width:0.000000; stroke-opacity:1; 
stroke-linecap:round; stroke-linejoin:round;">
</g>
<g style="fill:#C2C2C2; fill-opacity:0.0; 
stroke:#C2C2C2; stroke-width:0.000000; stroke-opacity:1; 
stroke-linecap:round; stroke-linejoin:round;">
</g>
<g style="fill:#C2C2C2; fill-opacity:0.0; 
stroke:#C2C2C2; stroke-width:150000.000000; stroke-opacity:1; 
stroke-linecap:round; stroke-linejoin:round;">
<g transform="rotate(-90.000000 17042378.000000 35609265.000000)">
<text x="17042378.000000" y="36109265.000000"
textLength="2150000.000000" font-size="1333333.000000" lengthAdjust="spacingAndGlyphs"
text-anchor="middle" opacity="0">U3</text>
</g>
<g class="stroked-text"><desc>U3</desc>
<path d="M16494758 36371169
L17304282 36371169
L17399520 36323550
L17447139 36275931
L17494758 36180693
L17494758 35990217
L17447139 35894979
L17399520 35847360
L17304282 35799741
L16494758 35799741
" />
<path d="M16494758 35418788
L16494758 34799741
L16875711 35133074
L16875711 34990217
L16923330 34894979
L16970949 34847360
L17066187 34799741
L17304282 34799741
L17399520 34847360
L17447139 34894979
L17494758 34990217
L17494758 35275931
L17447139 35371169
L17399520 35418788
" />
</g><g transform="rotate(-90.000000 17042378.000000 35609265.000000)">
<text x="17042378.000000" y="36109265.000000"
textLength="2195000.000000" font-size="1333333.000000" lengthAdjust="spacingAndGlyphs"
text-anchor="middle" opacity="0">U4</text>
</g>
<g class="stroked-text"><desc>U4</desc>
<path d="M16494758 36371169
L17304282 36371169
L17399520 36323550
L17447139 36275931
L17494758 36180693
L17494758 35990217
L17447139 35894979
L17399520 35847360
L17304282 35799741
L16494758 35799741
" />
<path d="M16828092 34894979
L17494758 34894979
" />
<path d="M16447139 35133074
L17161425 35371169
L17161425 34752122
" />
</g><path d="M77842378 25609265
L78842378 25609265
" />
<path d="M78842378 39609265
L77842378 39609265
" />
<path d="M77842378 26609265
L77842378 25609265
" />
<path d="M90842378 25609265
L91842378 25609265
" />
<path d="M77842378 39609265
L77842378 38609265
" />
<path d="M91842378 25609265
L91842378 26609265
" />
<path d="M91842378 38609265
L91842378 39609265
" />
<path d="M91842378 39609265
L90842378 39609265
" />
<path d="M95842378 48609265
L96842378 48609265
" />
<path d="M96842378 62609265
L95842378 62609265
" />
<path d="M95842378 49609265
L95842378 48609265
" />
<path d="M108842378 48609265
L109842378 48609265
" />
<path d="M95842378 62609265
L95842378 61609265
" />
<path d="M109842378 48609265
L109842378 49609265
" />
<path d="M109842378 61609265
L109842378 62609265
" />
<path d="M109842378 62609265
L108842378 62609265
" />
<path d="M77842378 42609265
L78842378 42609265
" />
<path d="M78842378 56609265
L77842378 56609265
" />
<path d="M77842378 43609265
L77842378 42609265
" />
<path d="M90842378 42609265
L91842378 42609265
" />
<path d="M77842378 56609265
L77842378 55609265
" />
<path d="M91842378 42609265
L91842378 43609265
" />
<path d="M91842378 55609265
L91842378 56609265
" />
<path d="M91842378 56609265
L90842378 56609265
" />
<path d="M23842378 27609265
L24842378 27609265
" />
<path d="M24842378 41609265
L23842378 41609265
" />
<path d="M23842378 28609265
L23842378 27609265
" />
<path d="M36842378 27609265
L37842378 27609265
" />
<path d="M23842378 41609265
L23842378 40609265
" />
<path d="M37842378 27609265
L37842378 28609265
" />
<path d="M37842378 40609265
L37842378 41609265
" />
<path d="M37842378 41609265
L36842378 41609265
" />
<path d="M77842378 8609265
L78842378 8609265
" />
<path d="M78842378 22609265
L77842378 22609265
" />
<path d="M77842378 9609265
L77842378 8609265
" />
<path d="M90842378 8609265
L91842378 8609265
" />
<path d="M77842378 22609265
L77842378 21609265
" />
<path d="M91842378 8609265
L91842378 9609265
" />
<path d="M91842378 21609265
L91842378 22609265
" />
<path d="M91842378 22609265
L90842378 22609265
" />
<path d="M59842378 36609265
L60842378 36609265
" />
<path d="M60842378 50609265
L59842378 50609265
" />
<path d="M59842378 37609265
L59842378 36609265
" />
<path d="M72842378 36609265
L73842378 36609265
" />
<path d="M59842378 50609265
L59842378 49609265
" />
<path d="M73842378 36609265
L73842378 37609265
" />
<path d="M73842378 49609265
L73842378 50609265
" />
<path d="M73842378 50609265
L72842378 50609265
" />
<path d="M59842378 19609265
L60842378 19609265
" />
<path d="M60842378 33609265
L59842378 33609265
" />
<path d="M59842378 20609265
L59842378 19609265
" />
<path d="M72842378 19609265
L73842378 19609265
" />
<path d="M59842378 33609265
L59842378 32609265
" />
<path d="M73842378 19609265
L73842378 20609265
" />
<path d="M73842378 32609265
L73842378 33609265
" />
<path d="M73842378 33609265
L72842378 33609265
" />
<path d="M59842378 2609265
L60842378 2609265
" />
<path d="M60842378 16609265
L59842378 16609265
" />
<path d="M59842378 3609265
L59842378 2609265
" />
<path d="M72842378 2609265
L73842378 2609265
" />
<path d="M59842378 16609265
L59842378 15609265
" />
<path d="M73842378 2609265
L73842378 3609265
" />
<path d="M73842378 15609265
L73842378 16609265
" />
<path d="M73842378 16609265
L72842378 16609265
" />
<path d="M23842378 10609265
L24842378 10609265
" />
<path d="M24842378 24609265
L23842378 24609265
" />
<path d="M23842378 11609265
L23842378 10609265
" />
<path d="M36842378 10609265
L37842378 10609265
" />
<path d="M23842378 24609265
L23842378 23609265
" />
<path d="M37842378 10609265
L37842378 11609265
" />
<path d="M37842378 23609265
L37842378 24609265
" />
<path d="M37842378 24609265
L36842378 24609265
" />
<path d="M41842378 42609265
L42842378 42609265
" />
<path d="M42842378 56609265
L41842378 56609265
" />
<path d="M41842378 43609265
L41842378 42609265
" />
<path d="M54842378 42609265
L55842378 42609265
" />
<path d="M41842378 56609265
L41842378 55609265
" />
<path d="M55842378 42609265
L55842378 43609265
" />
<path d="M55842378 55609265
L55842378 56609265
" />
<path d="M55842378 56609265
L54842378 56609265
" />
<path d="M95842378 14609265
L96842378 14609265
" />
<path d="M96842378 28609265
L95842378 28609265
" />
<path d="M95842378 15609265
L95842378 14609265
" />
<path d="M108842378 14609265
L109842378 14609265
" />
<path d="M95842378 28609265
L95842378 27609265
" />
<path d="M109842378 14609265
L109842378 15609265
" />
<path d="M109842378 27609265
L109842378 28609265
" />
<path d="M109842378 28609265
L108842378 28609265
" />
<path d="M95842378 31609265
L96842378 31609265
" />
<path d="M96842378 45609265
L95842378 45609265
" />
<path d="M95842378 32609265
L95842378 31609265
" />
<path d="M108842378 31609265
L109842378 31609265
" />
<path d="M95842378 45609265
L95842378 44609265
" />
<path d="M109842378 31609265
L109842378 32609265
" />
<path d="M109842378 44609265
L109842378 45609265
" />
<path d="M109842378 45609265
L108842378 45609265
" />
<path d="M41842378 8609265
L42842378 8609265
" />
<path d="M42842378 22609265
L41842378 22609265
" />
<path d="M41842378 9609265
L41842378 8609265
" />
<path d="M54842378 8609265
L55842378 8609265
" />
<path d="M41842378 22609265
L41842378 21609265
" />
<path d="M55842378 8609265
L55842378 9609265
" />
<path d="M55842378 21609265
L55842378 22609265
" />
<path d="M55842378 22609265
L54842378 22609265
" />
<path d="M23842378 44609265
L24842378 44609265
" />
<path d="M24842378 58609265
L23842378 58609265
" />
<path d="M23842378 45609265
L23842378 44609265
" />
<path d="M36842378 44609265
L37842378 44609265
" />
<path d="M23842378 58609265
L23842378 57609265
" />
<path d="M37842378 44609265
L37842378 45609265
" />
<path d="M37842378 57609265
L37842378 58609265
" />
<path d="M37842378 58609265
L36842378 58609265
" />
<path d="M41842378 25609265
L42842378 25609265
" />
<path d="M42842378 39609265
L41842378 39609265
" />
<path d="M41842378 26609265
L41842378 25609265
" />
<path d="M54842378 25609265
L55842378 25609265
" />
<path d="M41842378 39609265
L41842378 38609265
" />
<path d="M55842378 25609265
L55842378 26609265
" />
<path d="M55842378 38609265
L55842378 39609265
" />
<path d="M55842378 39609265
L54842378 39609265
" />
</g>
<g style="fill:#C2C2C2; fill-opacity:0.0; 
stroke:#C2C2C2; stroke-width:120000.000000; stroke-opacity:1; 
stroke-linecap:round; stroke-linejoin:round;">
<path d="M6334567 11426452
L4556567 11426452
" />
<path d="M4556567 11426452
L4556567 8759452
" />
<path d="M4556567 8759452
L6334567 8759452
" />
<path d="M6334567 8759452
L6334567 11426452
" />
<path d="M952378 30109265
L18732378 30109265
" />
<path d="M18732378 30109265
L18732378 9109265
" />
<path d="M18732378 9109265
L952378 9109265
" />
<path d="M952378 9109265
L952378 30109265
" />
<path d="M4556567 12823452
L6334567 12823452
" />
<path d="M6334567 12823452
L6334567 15490452
" />
<path d="M6334567 15490452
L4556567 15490452
" />
<path d="M4556567 15490452
L4556567 12823452
" />
<path d="M13192575 8759452
L14970575 8759452
" />
<path d="M14970575 8759452
L14970575 11426452
" />
<path d="M14970575 11426452
L13192575 11426452
" />
<path d="M13192575 11426452
L13192575 8759452
" />
<path d="M13192575 12823452
L14970575 12823452
" />
<path d="M14970575 12823452
L14970575 15490452
" />
<path d="M14970575 15490452
L13192575 15490452
" />
<path d="M13192575 15490452
L13192575 12823452
" />
<path d="M13350189 11426452
L15128189 11426452
" />
<path d="M15128189 11426452
L15128189 8759452
" />
<path d="M15128189 8759452
L13350189 8759452
" />
<path d="M13350189 8759452
L13350189 11426452
" />
<path d="M6492181 8759452
L4714181 8759452
" />
<path d="M4714181 8759452
L4714181 11426452
" />
<path d="M4714181 11426452
L6492181 11426452
" />
<path d="M6492181 11426452
L6492181 8759452
" />
<path d="M18732378 30109265
L952378 30109265
" />
<path d="M952378 30109265
L952378 9109265
" />
<path d="M952378 9109265
L18732378 9109265
" />
<path d="M18732378 9109265
L18732378 30109265
" />
<path d="M15128189 12823452
L13350189 12823452
" />
<path d="M13350189 12823452
L13350189 15490452
" />
<path d="M13350189 15490452
L15128189 15490452
" />
<path d="M15128189 15490452
L15128189 12823452
" />
<path d="M6492181 12823452
L4714181 12823452
" />
<path d="M4714181 12823452
L4714181 15490452
" />
<path d="M4714181 15490452
L6492181 15490452
" />
<path d="M6492181 15490452
L6492181 12823452
" />
<g >
</g>
<g >
</g>
<g >
</g>
<g >
</g>
<g >
</g>
<g >
</g>
<g >
</g>
<g >
</g>
<g >
</g>
<g >
</g>
<g >
</g>
<g >
</g>
<g >
</g>
<g >
</g>
<g >
</g>
<g >
</g>
<g >
</g>
<g >
</g>
<g >
</g>
<g >
</g>
<g >
</g>
<g >
</g>
<g >
</g>
<g >
</g>
<g >
</g>
<g >
</g>
<g >
</g>
<g >
</g>
<g >
</g>
<g >
</g>
<g >
</g>
<g >
</g>
<g >
</g>
<g >
</g>
<g >
</g>
<g >
</g>
<g >
</g>
<g >
</g>
<g >
</g>
<g >
</g>
<g >
</g>
<g >
</g>
<g >
</g>
<g >
</g>
<g >
</g>
<g >
</g>
<g >
</g>
<g >
</g>
<g >
</g>
<g >
</g>
<g >
</g>
<g >
</g>
<g >
</g>
<g >
</g>
<g >
</g>
<g >
</g>
<g >
</g>
<g >
</g>
<g >
</g>
<g >
</g>
<g >
</g>
<g >
</g>
</g>
<g style="fill:#000000; fill-opacity:0.0; 
stroke:#000000; stroke-width:120000.000000; stroke-opacity:1; 
stroke-linecap:round; stroke-linejoin:round;">
</g>
<g style="fill:#D0D2CD; fill-opacity:0.0; 
stroke:#D0D2CD; stroke-width:120000.000000; stroke-opacity:1; 
stroke-linecap:round; stroke-linejoin:round;">
</g>
<g style="fill:#D0D2CD; fill-opacity:0.0; 
stroke:#D0D2CD; stroke-width:200000.000000; stroke-opacity:1; 
stroke-linecap:round; stroke-linejoin:round;">
<path style="fill:#D0D2CD; fill-opacity:0.0; 
stroke:#D0D2CD; stroke-width:200000.000000; stroke-opacity:1; 
stroke-linecap:round; stroke-linejoin:round;fill:none"
d="M 68342378.000000,109265.000000
73048364.000000,337258.000000
77356725.000000,787492.000000
81289369.000000,1427321.000000
84868204.000000,2224098.000000
88115139.000000,3145177.000000
91052083.000000,4157912.000000
93700943.000000,5229656.000000
96083629.000000,6327762.000000
98222049.000000,7419584.000000
100138111.000000,8472475.000000
103390797.000000,10330881.000000
104771237.000000,11071102.000000
106016954.000000,11641806.000000
107149856.000000,12010347.000000
108191850.000000,12144078.000000
109900926.000000,12153081.000000
110660497.000000,12149818.000000
110999656.000000,12152337.000000
111312088.000000,12166440.000000
111598057.000000,12198737.000000
111731201.000000,12223776.000000
111857829.000000,12255842.000000
111977976.000000,12295763.000000
112091673.000000,12344365.000000
112198954.000000,12402475.000000
112299852.000000,12470919.000000
112394401.000000,12550523.000000
112482634.000000,12642115.000000
112564585.000000,12746520.000000
112640285.000000,12864565.000000
112709770.000000,12997077.000000
112773072.000000,13144882.000000
112830224.000000,13308806.000000
112881260.000000,13489676.000000
112926212.000000,13688319.000000
112965115.000000,13905561.000000
112998001.000000,14142228.000000
113024905.000000,14399147.000000
113045858.000000,14677144.000000
113060894.000000,14977046.000000
113073351.000000,15645871.000000
113123354.000000,61833463.000000
113116145.000000,62172125.000000
113092732.000000,62508220.000000
113051562.000000,62840041.000000
112991080.000000,63165880.000000
112909732.000000,63484032.000000
112805962.000000,63792789.000000
112678218.000000,64090444.000000
112604869.000000,64234575.000000
112524944.000000,64375291.000000
112438248.000000,64512378.000000
112344586.000000,64645623.000000
112243766.000000,64774812.000000
112135591.000000,64899733.000000
112019868.000000,65020172.000000
111896403.000000,65135915.000000
111765001.000000,65246749.000000
111625469.000000,65352461.000000
111477611.000000,65452837.000000
111321233.000000,65547665.000000
111156142.000000,65636730.000000
110982142.000000,65719820.000000
110799041.000000,65796721.000000
110606642.000000,65867219.000000
110404753.000000,65931102.000000
110193178.000000,65988156.000000
108725612.000000,66224431.000000
106219262.000000,66519593.000000
102920858.000000,66895968.000000
99077134.000000,67375882.000000
94934821.000000,67981661.000000
92828799.000000,68338727.000000
90740653.000000,68735631.000000
88701227.000000,69175164.000000
86741362.000000,69660118.000000
84891899.000000,70193282.000000
83183679.000000,70777448.000000
79611123.000000,72223334.000000
75516582.000000,74033201.000000
66444763.000000,78232429.000000
61809095.000000,80365569.000000
57334660.000000,82350246.000000
53192265.000000,84058349.000000
51298958.000000,84768651.000000
49552713.000000,85361768.000000
40932189.000000,87951667.000000
30476542.000000,90940522.000000
16546751.000000,94830976.000000
16358709.000000,94880362.000000
16173668.000000,94921505.000000
15991746.000000,94954543.000000
15813064.000000,94979616.000000
15637741.000000,94996862.000000
15465896.000000,95006420.000000
15297651.000000,95008429.000000
15133123.000000,95003027.000000
14972433.000000,94990354.000000
14815702.000000,94970548.000000
14663047.000000,94943749.000000
14514590.000000,94910094.000000
14370450.000000,94869723.000000
14230746.000000,94822775.000000
14095599.000000,94769388.000000
13965128.000000,94709701.000000
13839453.000000,94643853.000000
13718693.000000,94571983.000000
13602969.000000,94494229.000000
13492400.000000,94410731.000000
13387105.000000,94321628.000000
13287205.000000,94227057.000000
13192819.000000,94127159.000000
13104067.000000,94022071.000000
13021069.000000,93911932.000000
12943944.000000,93796882.000000
12872813.000000,93677060.000000
12807794.000000,93552603.000000
12749008.000000,93423651.000000
12696574.000000,93290343.000000
12650612.000000,93152817.000000
12611242.000000,93011212.000000
7245287.000000,71627835.000000
6959179.000000,70451739.000000
6711801.000000,69360368.000000
6497862.000000,68336086.000000
6312072.000000,67361259.000000
6003776.000000,65489427.000000
5744589.000000,63603789.000000
5204246.000000,59226762.000000
4838443.000000,56453207.000000
4352453.000000,53101514.000000
4097938.000000,51639638.000000
3810352.000000,50342758.000000
3496512.000000,49188936.000000
3163234.000000,48156231.000000
2817332.000000,47222704.000000
2465624.000000,46366416.000000
1772050.000000,44797799.000000
1443816.000000,44041592.000000
1137038.000000,43274866.000000
858533.000000,42475682.000000
615115.000000,41622101.000000
413601.000000,40692184.000000
260807.000000,39663991.000000
204810.000000,39106184.000000
163548.000000,38515582.000000
137875.000000,37889441.000000
128641.000000,37225019.000000
100000.000000,10369840.000000
101510.000000,10140728.000000
107846.000000,9917192.000000
120982.000000,9700504.000000
142896.000000,9491931.000000
175564.000000,9292746.000000
220960.000000,9104218.000000
249049.000000,9014347.000000
281062.000000,8927617.000000
317244.000000,8844186.000000
357844.000000,8764213.000000
403108.000000,8687857.000000
453284.000000,8615276.000000
508617.000000,8546630.000000
569356.000000,8482077.000000
635747.000000,8421775.000000
708037.000000,8365885.000000
786474.000000,8314564.000000
871304.000000,8267971.000000
962774.000000,8226265.000000
1061131.000000,8189604.000000
1166622.000000,8158148.000000
1279494.000000,8132056.000000
1399995.000000,8111485.000000
1528371.000000,8096595.000000
1664869.000000,8087545.000000
1809736.000000,8084493.000000
1809717.000000,8084752.000000
14125188.000000,8084752.000000
16730616.000000,7988595.000000
19325238.000000,7717457.000000
21933747.000000,7297339.000000
24580833.000000,6754244.000000
30089500.000000,5403124.000000
36048767.000000,3872107.000000
39259103.000000,3104140.000000
42656161.000000,2369202.000000
46264633.000000,1693295.000000
50109209.000000,1102420.000000
54214581.000000,622579.000000
58605439.000000,279771.000000
63306475.000000,100000.000000
Z" /> 
<g >
</g>
<g >
</g>
<g >
</g>
<g >
</g>
<g >
</g>
<g >
</g>
<g >
</g>
<g >
</g>
<g >
</g>
<g >
</g>
<g >
</g>
<g >
</g>
<g >
</g>
<g >
</g>
<g >
</g>
<g >
</g>
<g >
</g>
<g >
</g>
<g >
</g>
<g >
</g>
<g >
</g>
<g >
</g>
<g >
</g>
<g >
</g>
<g >
</g>
<g >
</g>
<g >
</g>
<g >
</g>
<g >
</g>
<g >
</g>
<g >
</g>
<g >
</g>
<g >
</g>
<g >
</g>
<g >
</g>
<g >
</g>
<g >
</g>
<g >
</g>
<g >
</g>
<g >
</g>
<g >
</g>
<g >
</g>
<g >
</g>
<g >
</g>
<g >
</g>
<g >
</g>
<g >
</g>
<g >
</g>
<g >
</g>
<g >
</g>
<g >
</g>
<g >
</g>
<g >
</g>
<g >
</g>
<g >
</g>
<g >
</g>
<g >
</g>
<g >
</g>
<g >
</g>
<g >
</g>
<g >
</g>
<g >
</g>
</g> 
</svg>
