<?xml version="1.0" standalone="no"?>
 <!DOCTYPE svg PUBLIC "-//W3C//DTD SVG 1.1//EN" 
 "http://www.w3.org/Graphics/SVG/1.1/DTD/svg11.dtd"> 
<svg
  xmlns:svg="http://www.w3.org/2000/svg"
  xmlns="http://www.w3.org/2000/svg"
  xmlns:xlink="http://www.w3.org/1999/xlink"
  version="1.1"
  width="113.2078mm" height="95.0976mm" viewBox="0.0000 0.0000 113.2078 95.0976">
<title>SVG Image created as rknt36-User_Drawings.svg date 2023/04/02 11:31:50 </title>
  <desc>Image generated by PCBNEW </desc>
<g style="fill:#000000; fill-opacity:1.0000;stroke:#000000; stroke-opacity:1.0000;
stroke-linecap:round; stroke-linejoin:round;"
 transform="translate(0 0) scale(1 1)">
</g>
<g style="fill:#000000; fill-opacity:0.0; 
stroke:#000000; stroke-width:0.0000; stroke-opacity:1; 
stroke-linecap:round; stroke-linejoin:round;">
</g>
<g style="fill:#C2C2C2; fill-opacity:0.0; 
stroke:#C2C2C2; stroke-width:0.0000; stroke-opacity:1; 
stroke-linecap:round; stroke-linejoin:round;">
</g>
<g style="fill:#C2C2C2; fill-opacity:0.0; 
stroke:#C2C2C2; stroke-width:0.1500; stroke-opacity:1; 
stroke-linecap:round; stroke-linejoin:round;">
<g transform="rotate(-90.000000 17.0424 35.6093)">
<text x="17.0424" y="36.1093"
textLength="2.1750" font-size="1.3333" lengthAdjust="spacingAndGlyphs"
text-anchor="middle" opacity="0">U3</text>
</g>
<g class="stroked-text"><desc>U3</desc>
<path d="M16.4098 36.3712
L17.2193 36.3712
" />
<path d="M17.2193 36.3712
L17.3145 36.3235
" />
<path d="M17.3145 36.3235
L17.3621 36.2759
" />
<path d="M17.3621 36.2759
L17.4098 36.1807
" />
<path d="M17.4098 36.1807
L17.4098 35.9902
" />
<path d="M17.4098 35.9902
L17.3621 35.8950
" />
<path d="M17.3621 35.8950
L17.3145 35.8474
" />
<path d="M17.3145 35.8474
L17.2193 35.7997
" />
<path d="M17.2193 35.7997
L16.4098 35.7997
" />
<path d="M16.4098 35.4188
L16.4098 34.7997
" />
<path d="M16.4098 34.7997
L16.7907 35.1331
" />
<path d="M16.7907 35.1331
L16.7907 34.9902
" />
<path d="M16.7907 34.9902
L16.8383 34.8950
" />
<path d="M16.8383 34.8950
L16.8859 34.8474
" />
<path d="M16.8859 34.8474
L16.9812 34.7997
" />
<path d="M16.9812 34.7997
L17.2193 34.7997
" />
<path d="M17.2193 34.7997
L17.3145 34.8474
" />
<path d="M17.3145 34.8474
L17.3621 34.8950
" />
<path d="M17.3621 34.8950
L17.4098 34.9902
" />
<path d="M17.4098 34.9902
L17.4098 35.2759
" />
<path d="M17.4098 35.2759
L17.3621 35.3712
" />
<path d="M17.3621 35.3712
L17.3145 35.4188
" />
</g><g transform="rotate(-90.000000 17.0424 35.6093)">
<text x="17.0424" y="36.1093"
textLength="2.1750" font-size="1.3333" lengthAdjust="spacingAndGlyphs"
text-anchor="middle" opacity="0">U4</text>
</g>
<g class="stroked-text"><desc>U4</desc>
<path d="M16.4098 36.3712
L17.2193 36.3712
" />
<path d="M17.2193 36.3712
L17.3145 36.3235
" />
<path d="M17.3145 36.3235
L17.3621 36.2759
" />
<path d="M17.3621 36.2759
L17.4098 36.1807
" />
<path d="M17.4098 36.1807
L17.4098 35.9902
" />
<path d="M17.4098 35.9902
L17.3621 35.8950
" />
<path d="M17.3621 35.8950
L17.3145 35.8474
" />
<path d="M17.3145 35.8474
L17.2193 35.7997
" />
<path d="M17.2193 35.7997
L16.4098 35.7997
" />
<path d="M16.7431 34.8950
L17.4098 34.8950
" />
<path d="M16.3621 35.1331
L17.0764 35.3712
" />
<path d="M17.0764 35.3712
L17.0764 34.7521
" />
</g><path d="M91.8424 39.6093
L90.8424 39.6093
" />
<path d="M90.8424 25.6093
L91.8424 25.6093
" />
<path d="M77.8424 39.6093
L77.8424 38.6093
" />
<path d="M77.8424 26.6093
L77.8424 25.6093
" />
<path d="M78.8424 39.6093
L77.8424 39.6093
" />
<path d="M77.8424 39.6093
L77.8424 38.6093
" />
<path d="M90.8424 25.6093
L91.8424 25.6093
" />
<path d="M78.8424 39.6093
L77.8424 39.6093
" />
<path d="M91.8424 38.6093
L91.8424 39.6093
" />
<path d="M77.8424 25.6093
L78.8424 25.6093
" />
<path d="M77.8424 26.6093
L77.8424 25.6093
" />
<path d="M91.8424 39.6093
L90.8424 39.6093
" />
<path d="M91.8424 25.6093
L91.8424 26.6093
" />
<path d="M77.8424 25.6093
L78.8424 25.6093
" />
<path d="M91.8424 38.6093
L91.8424 39.6093
" />
<path d="M91.8424 25.6093
L91.8424 26.6093
" />
<path d="M108.8424 48.6093
L109.8424 48.6093
" />
<path d="M95.8424 62.6093
L95.8424 61.6093
" />
<path d="M109.8424 61.6093
L109.8424 62.6093
" />
<path d="M96.8424 62.6093
L95.8424 62.6093
" />
<path d="M109.8424 48.6093
L109.8424 49.6093
" />
<path d="M95.8424 62.6093
L95.8424 61.6093
" />
<path d="M108.8424 48.6093
L109.8424 48.6093
" />
<path d="M109.8424 61.6093
L109.8424 62.6093
" />
<path d="M96.8424 62.6093
L95.8424 62.6093
" />
<path d="M109.8424 62.6093
L108.8424 62.6093
" />
<path d="M95.8424 49.6093
L95.8424 48.6093
" />
<path d="M109.8424 62.6093
L108.8424 62.6093
" />
<path d="M95.8424 48.6093
L96.8424 48.6093
" />
<path d="M109.8424 48.6093
L109.8424 49.6093
" />
<path d="M95.8424 48.6093
L96.8424 48.6093
" />
<path d="M95.8424 49.6093
L95.8424 48.6093
" />
<path d="M91.8424 42.6093
L91.8424 43.6093
" />
<path d="M91.8424 55.6093
L91.8424 56.6093
" />
<path d="M91.8424 55.6093
L91.8424 56.6093
" />
<path d="M77.8424 43.6093
L77.8424 42.6093
" />
<path d="M91.8424 42.6093
L91.8424 43.6093
" />
<path d="M91.8424 56.6093
L90.8424 56.6093
" />
<path d="M78.8424 56.6093
L77.8424 56.6093
" />
<path d="M77.8424 42.6093
L78.8424 42.6093
" />
<path d="M77.8424 43.6093
L77.8424 42.6093
" />
<path d="M78.8424 56.6093
L77.8424 56.6093
" />
<path d="M77.8424 56.6093
L77.8424 55.6093
" />
<path d="M90.8424 42.6093
L91.8424 42.6093
" />
<path d="M91.8424 56.6093
L90.8424 56.6093
" />
<path d="M77.8424 56.6093
L77.8424 55.6093
" />
<path d="M77.8424 42.6093
L78.8424 42.6093
" />
<path d="M90.8424 42.6093
L91.8424 42.6093
" />
<path d="M37.8424 40.6093
L37.8424 41.6093
" />
<path d="M24.8424 41.6093
L23.8424 41.6093
" />
<path d="M37.8424 27.6093
L37.8424 28.6093
" />
<path d="M23.8424 27.6093
L24.8424 27.6093
" />
<path d="M23.8424 41.6093
L23.8424 40.6093
" />
<path d="M36.8424 27.6093
L37.8424 27.6093
" />
<path d="M24.8424 41.6093
L23.8424 41.6093
" />
<path d="M23.8424 28.6093
L23.8424 27.6093
" />
<path d="M37.8424 41.6093
L36.8424 41.6093
" />
<path d="M23.8424 28.6093
L23.8424 27.6093
" />
<path d="M37.8424 41.6093
L36.8424 41.6093
" />
<path d="M37.8424 27.6093
L37.8424 28.6093
" />
<path d="M23.8424 27.6093
L24.8424 27.6093
" />
<path d="M23.8424 41.6093
L23.8424 40.6093
" />
<path d="M37.8424 40.6093
L37.8424 41.6093
" />
<path d="M36.8424 27.6093
L37.8424 27.6093
" />
<path d="M77.8424 8.6093
L78.8424 8.6093
" />
<path d="M90.8424 8.6093
L91.8424 8.6093
" />
<path d="M91.8424 22.6093
L90.8424 22.6093
" />
<path d="M91.8424 8.6093
L91.8424 9.6093
" />
<path d="M90.8424 8.6093
L91.8424 8.6093
" />
<path d="M77.8424 8.6093
L78.8424 8.6093
" />
<path d="M91.8424 21.6093
L91.8424 22.6093
" />
<path d="M77.8424 22.6093
L77.8424 21.6093
" />
<path d="M78.8424 22.6093
L77.8424 22.6093
" />
<path d="M91.8424 21.6093
L91.8424 22.6093
" />
<path d="M77.8424 9.6093
L77.8424 8.6093
" />
<path d="M91.8424 22.6093
L90.8424 22.6093
" />
<path d="M77.8424 22.6093
L77.8424 21.6093
" />
<path d="M91.8424 8.6093
L91.8424 9.6093
" />
<path d="M77.8424 9.6093
L77.8424 8.6093
" />
<path d="M78.8424 22.6093
L77.8424 22.6093
" />
<path d="M59.8424 50.6093
L59.8424 49.6093
" />
<path d="M59.8424 50.6093
L59.8424 49.6093
" />
<path d="M73.8424 50.6093
L72.8424 50.6093
" />
<path d="M59.8424 36.6093
L60.8424 36.6093
" />
<path d="M72.8424 36.6093
L73.8424 36.6093
" />
<path d="M73.8424 50.6093
L72.8424 50.6093
" />
<path d="M72.8424 36.6093
L73.8424 36.6093
" />
<path d="M60.8424 50.6093
L59.8424 50.6093
" />
<path d="M73.8424 36.6093
L73.8424 37.6093
" />
<path d="M73.8424 49.6093
L73.8424 50.6093
" />
<path d="M73.8424 49.6093
L73.8424 50.6093
" />
<path d="M59.8424 37.6093
L59.8424 36.6093
" />
<path d="M59.8424 36.6093
L60.8424 36.6093
" />
<path d="M60.8424 50.6093
L59.8424 50.6093
" />
<path d="M73.8424 36.6093
L73.8424 37.6093
" />
<path d="M59.8424 37.6093
L59.8424 36.6093
" />
<path d="M14.9719 88.0824
L14.0060 88.3412
" />
<path d="M14.0060 88.3412
L13.7471 87.3753
" />
<path d="M22.9395 71.4536
L23.9055 71.1948
" />
<path d="M14.0060 88.3412
L13.7471 87.3753
" />
<path d="M23.9055 71.1948
L24.1643 72.1607
" />
<path d="M27.2701 83.7518
L27.5289 84.7178
" />
<path d="M27.5289 84.7178
L26.5630 84.9766
" />
<path d="M22.9395 71.4536
L23.9055 71.1948
" />
<path d="M10.3825 74.8183
L11.3484 74.5594
" />
<path d="M10.6413 75.7842
L10.3825 74.8183
" />
<path d="M27.2701 83.7518
L27.5289 84.7178
" />
<path d="M23.9055 71.1948
L24.1643 72.1607
" />
<path d="M10.6413 75.7842
L10.3825 74.8183
" />
<path d="M10.3825 74.8183
L11.3484 74.5594
" />
<path d="M14.9719 88.0824
L14.0060 88.3412
" />
<path d="M27.5289 84.7178
L26.5630 84.9766
" />
<path d="M27.7692 70.1595
L28.7351 69.9007
" />
<path d="M44.6568 79.0931
L44.9156 80.0590
" />
<path d="M41.2921 66.5361
L41.5509 67.5020
" />
<path d="M40.3262 66.7949
L41.2921 66.5361
" />
<path d="M31.3926 83.6825
L31.1338 82.7166
" />
<path d="M44.9156 80.0590
L43.9497 80.3178
" />
<path d="M32.3586 83.4237
L31.3926 83.6825
" />
<path d="M41.2921 66.5361
L41.5509 67.5020
" />
<path d="M44.9156 80.0590
L43.9497 80.3178
" />
<path d="M32.3586 83.4237
L31.3926 83.6825
" />
<path d="M40.3262 66.7949
L41.2921 66.5361
" />
<path d="M31.3926 83.6825
L31.1338 82.7166
" />
<path d="M28.0280 71.1254
L27.7692 70.1595
" />
<path d="M27.7692 70.1595
L28.7351 69.9007
" />
<path d="M28.0280 71.1254
L27.7692 70.1595
" />
<path d="M44.6568 79.0931
L44.9156 80.0590
" />
<path d="M72.8424 19.6093
L73.8424 19.6093
" />
<path d="M59.8424 19.6093
L60.8424 19.6093
" />
<path d="M73.8424 33.6093
L72.8424 33.6093
" />
<path d="M72.8424 19.6093
L73.8424 19.6093
" />
<path d="M73.8424 32.6093
L73.8424 33.6093
" />
<path d="M59.8424 20.6093
L59.8424 19.6093
" />
<path d="M60.8424 33.6093
L59.8424 33.6093
" />
<path d="M59.8424 19.6093
L60.8424 19.6093
" />
<path d="M73.8424 33.6093
L72.8424 33.6093
" />
<path d="M73.8424 19.6093
L73.8424 20.6093
" />
<path d="M60.8424 33.6093
L59.8424 33.6093
" />
<path d="M73.8424 19.6093
L73.8424 20.6093
" />
<path d="M59.8424 33.6093
L59.8424 32.6093
" />
<path d="M59.8424 20.6093
L59.8424 19.6093
" />
<path d="M59.8424 33.6093
L59.8424 32.6093
" />
<path d="M73.8424 32.6093
L73.8424 33.6093
" />
<path d="M59.8424 16.6093
L59.8424 15.6093
" />
<path d="M59.8424 16.6093
L59.8424 15.6093
" />
<path d="M73.8424 15.6093
L73.8424 16.6093
" />
<path d="M59.8424 2.6093
L60.8424 2.6093
" />
<path d="M60.8424 16.6093
L59.8424 16.6093
" />
<path d="M60.8424 16.6093
L59.8424 16.6093
" />
<path d="M72.8424 2.6093
L73.8424 2.6093
" />
<path d="M73.8424 16.6093
L72.8424 16.6093
" />
<path d="M59.8424 3.6093
L59.8424 2.6093
" />
<path d="M73.8424 15.6093
L73.8424 16.6093
" />
<path d="M73.8424 2.6093
L73.8424 3.6093
" />
<path d="M72.8424 2.6093
L73.8424 2.6093
" />
<path d="M73.8424 16.6093
L72.8424 16.6093
" />
<path d="M73.8424 2.6093
L73.8424 3.6093
" />
<path d="M59.8424 2.6093
L60.8424 2.6093
" />
<path d="M59.8424 3.6093
L59.8424 2.6093
" />
<path d="M37.8424 10.6093
L37.8424 11.6093
" />
<path d="M37.8424 23.6093
L37.8424 24.6093
" />
<path d="M37.8424 24.6093
L36.8424 24.6093
" />
<path d="M23.8424 24.6093
L23.8424 23.6093
" />
<path d="M23.8424 11.6093
L23.8424 10.6093
" />
<path d="M23.8424 10.6093
L24.8424 10.6093
" />
<path d="M36.8424 10.6093
L37.8424 10.6093
" />
<path d="M24.8424 24.6093
L23.8424 24.6093
" />
<path d="M36.8424 10.6093
L37.8424 10.6093
" />
<path d="M23.8424 11.6093
L23.8424 10.6093
" />
<path d="M37.8424 10.6093
L37.8424 11.6093
" />
<path d="M23.8424 24.6093
L23.8424 23.6093
" />
<path d="M37.8424 24.6093
L36.8424 24.6093
" />
<path d="M24.8424 24.6093
L23.8424 24.6093
" />
<path d="M23.8424 10.6093
L24.8424 10.6093
" />
<path d="M37.8424 23.6093
L37.8424 24.6093
" />
<path d="M41.8424 56.6093
L41.8424 55.6093
" />
<path d="M41.8424 43.6093
L41.8424 42.6093
" />
<path d="M55.8424 55.6093
L55.8424 56.6093
" />
<path d="M41.8424 42.6093
L42.8424 42.6093
" />
<path d="M42.8424 56.6093
L41.8424 56.6093
" />
<path d="M54.8424 42.6093
L55.8424 42.6093
" />
<path d="M41.8424 43.6093
L41.8424 42.6093
" />
<path d="M55.8424 55.6093
L55.8424 56.6093
" />
<path d="M55.8424 56.6093
L54.8424 56.6093
" />
<path d="M55.8424 56.6093
L54.8424 56.6093
" />
<path d="M55.8424 42.6093
L55.8424 43.6093
" />
<path d="M55.8424 42.6093
L55.8424 43.6093
" />
<path d="M41.8424 56.6093
L41.8424 55.6093
" />
<path d="M54.8424 42.6093
L55.8424 42.6093
" />
<path d="M42.8424 56.6093
L41.8424 56.6093
" />
<path d="M41.8424 42.6093
L42.8424 42.6093
" />
<path d="M108.8424 14.6093
L109.8424 14.6093
" />
<path d="M109.8424 28.6093
L108.8424 28.6093
" />
<path d="M95.8424 14.6093
L96.8424 14.6093
" />
<path d="M95.8424 14.6093
L96.8424 14.6093
" />
<path d="M109.8424 14.6093
L109.8424 15.6093
" />
<path d="M95.8424 28.6093
L95.8424 27.6093
" />
<path d="M96.8424 28.6093
L95.8424 28.6093
" />
<path d="M95.8424 15.6093
L95.8424 14.6093
" />
<path d="M109.8424 27.6093
L109.8424 28.6093
" />
<path d="M109.8424 14.6093
L109.8424 15.6093
" />
<path d="M95.8424 28.6093
L95.8424 27.6093
" />
<path d="M108.8424 14.6093
L109.8424 14.6093
" />
<path d="M109.8424 27.6093
L109.8424 28.6093
" />
<path d="M109.8424 28.6093
L108.8424 28.6093
" />
<path d="M95.8424 15.6093
L95.8424 14.6093
" />
<path d="M96.8424 28.6093
L95.8424 28.6093
" />
<path d="M95.8424 32.6093
L95.8424 31.6093
" />
<path d="M109.8424 45.6093
L108.8424 45.6093
" />
<path d="M109.8424 31.6093
L109.8424 32.6093
" />
<path d="M109.8424 45.6093
L108.8424 45.6093
" />
<path d="M95.8424 45.6093
L95.8424 44.6093
" />
<path d="M109.8424 44.6093
L109.8424 45.6093
" />
<path d="M95.8424 31.6093
L96.8424 31.6093
" />
<path d="M95.8424 45.6093
L95.8424 44.6093
" />
<path d="M108.8424 31.6093
L109.8424 31.6093
" />
<path d="M95.8424 32.6093
L95.8424 31.6093
" />
<path d="M96.8424 45.6093
L95.8424 45.6093
" />
<path d="M95.8424 31.6093
L96.8424 31.6093
" />
<path d="M96.8424 45.6093
L95.8424 45.6093
" />
<path d="M109.8424 44.6093
L109.8424 45.6093
" />
<path d="M108.8424 31.6093
L109.8424 31.6093
" />
<path d="M109.8424 31.6093
L109.8424 32.6093
" />
<path d="M55.8424 22.6093
L54.8424 22.6093
" />
<path d="M55.8424 22.6093
L54.8424 22.6093
" />
<path d="M42.8424 22.6093
L41.8424 22.6093
" />
<path d="M54.8424 8.6093
L55.8424 8.6093
" />
<path d="M55.8424 8.6093
L55.8424 9.6093
" />
<path d="M41.8424 8.6093
L42.8424 8.6093
" />
<path d="M41.8424 8.6093
L42.8424 8.6093
" />
<path d="M55.8424 21.6093
L55.8424 22.6093
" />
<path d="M41.8424 22.6093
L41.8424 21.6093
" />
<path d="M54.8424 8.6093
L55.8424 8.6093
" />
<path d="M42.8424 22.6093
L41.8424 22.6093
" />
<path d="M55.8424 21.6093
L55.8424 22.6093
" />
<path d="M41.8424 22.6093
L41.8424 21.6093
" />
<path d="M55.8424 8.6093
L55.8424 9.6093
" />
<path d="M41.8424 9.6093
L41.8424 8.6093
" />
<path d="M41.8424 9.6093
L41.8424 8.6093
" />
<path d="M23.8424 44.6093
L24.8424 44.6093
" />
<path d="M37.8424 57.6093
L37.8424 58.6093
" />
<path d="M24.8424 58.6093
L23.8424 58.6093
" />
<path d="M23.8424 45.6093
L23.8424 44.6093
" />
<path d="M36.8424 44.6093
L37.8424 44.6093
" />
<path d="M37.8424 44.6093
L37.8424 45.6093
" />
<path d="M24.8424 58.6093
L23.8424 58.6093
" />
<path d="M23.8424 45.6093
L23.8424 44.6093
" />
<path d="M23.8424 58.6093
L23.8424 57.6093
" />
<path d="M23.8424 58.6093
L23.8424 57.6093
" />
<path d="M23.8424 44.6093
L24.8424 44.6093
" />
<path d="M36.8424 44.6093
L37.8424 44.6093
" />
<path d="M37.8424 57.6093
L37.8424 58.6093
" />
<path d="M37.8424 58.6093
L36.8424 58.6093
" />
<path d="M37.8424 58.6093
L36.8424 58.6093
" />
<path d="M37.8424 44.6093
L37.8424 45.6093
" />
</g>
<g style="fill:#C2C2C2; fill-opacity:0.0; 
stroke:#C2C2C2; stroke-width:0.1200; stroke-opacity:1; 
stroke-linecap:round; stroke-linejoin:round;">
<path d="M6.3346 11.4265
L4.5566 11.4265
" />
<path d="M4.5566 11.4265
L4.5566 8.7595
" />
<path d="M4.5566 8.7595
L6.3346 8.7595
" />
<path d="M6.3346 8.7595
L6.3346 11.4265
" />
<path d="M0.9524 30.1093
L18.7324 30.1093
" />
<path d="M18.7324 30.1093
L18.7324 9.1093
" />
<path d="M18.7324 9.1093
L0.9524 9.1093
" />
<path d="M0.9524 9.1093
L0.9524 30.1093
" />
<path d="M4.5566 12.8235
L6.3346 12.8235
" />
<path d="M6.3346 12.8235
L6.3346 15.4905
" />
<path d="M6.3346 15.4905
L4.5566 15.4905
" />
<path d="M4.5566 15.4905
L4.5566 12.8235
" />
<path d="M13.1926 8.7595
L14.9706 8.7595
" />
<path d="M14.9706 8.7595
L14.9706 11.4265
" />
<path d="M14.9706 11.4265
L13.1926 11.4265
" />
<path d="M13.1926 11.4265
L13.1926 8.7595
" />
<path d="M13.1926 12.8235
L14.9706 12.8235
" />
<path d="M14.9706 12.8235
L14.9706 15.4905
" />
<path d="M14.9706 15.4905
L13.1926 15.4905
" />
<path d="M13.1926 15.4905
L13.1926 12.8235
" />
</g>
<g style="fill:#C2C2C2; fill-opacity:0.0; 
stroke:#C2C2C2; stroke-width:0.1500; stroke-opacity:1; 
stroke-linecap:round; stroke-linejoin:round;">
<path d="M49.9424 76.4093
L48.9424 76.4093
" />
<path d="M49.9424 76.4093
L48.9424 76.4093
" />
<path d="M48.9424 76.4093
L48.9424 75.4093
" />
<path d="M48.9424 63.4093
L48.9424 62.4093
" />
<path d="M48.9424 63.4093
L48.9424 62.4093
" />
<path d="M62.9424 62.4093
L62.9424 63.4093
" />
<path d="M48.9424 62.4093
L49.9424 62.4093
" />
<path d="M62.9424 75.4093
L62.9424 76.4093
" />
<path d="M62.9424 75.4093
L62.9424 76.4093
" />
<path d="M61.9424 62.4093
L62.9424 62.4093
" />
<path d="M48.9424 62.4093
L49.9424 62.4093
" />
<path d="M48.9424 76.4093
L48.9424 75.4093
" />
<path d="M61.9424 62.4093
L62.9424 62.4093
" />
<path d="M62.9424 62.4093
L62.9424 63.4093
" />
<path d="M62.9424 76.4093
L61.9424 76.4093
" />
<path d="M62.9424 76.4093
L61.9424 76.4093
" />
<path d="M54.8424 25.6093
L55.8424 25.6093
" />
<path d="M41.8424 39.6093
L41.8424 38.6093
" />
<path d="M55.8424 38.6093
L55.8424 39.6093
" />
<path d="M55.8424 25.6093
L55.8424 26.6093
" />
<path d="M41.8424 25.6093
L42.8424 25.6093
" />
<path d="M41.8424 26.6093
L41.8424 25.6093
" />
<path d="M55.8424 39.6093
L54.8424 39.6093
" />
<path d="M42.8424 39.6093
L41.8424 39.6093
" />
<path d="M41.8424 39.6093
L41.8424 38.6093
" />
<path d="M55.8424 39.6093
L54.8424 39.6093
" />
<path d="M41.8424 26.6093
L41.8424 25.6093
" />
<path d="M54.8424 25.6093
L55.8424 25.6093
" />
<path d="M42.8424 39.6093
L41.8424 39.6093
" />
<path d="M41.8424 25.6093
L42.8424 25.6093
" />
<path d="M55.8424 25.6093
L55.8424 26.6093
" />
<path d="M55.8424 38.6093
L55.8424 39.6093
" />
</g>
<g style="fill:#C2C2C2; fill-opacity:0.0; 
stroke:#C2C2C2; stroke-width:0.1200; stroke-opacity:1; 
stroke-linecap:round; stroke-linejoin:round;">
<path d="M13.3502 11.4265
L15.1282 11.4265
" />
<path d="M15.1282 11.4265
L15.1282 8.7595
" />
<path d="M15.1282 8.7595
L13.3502 8.7595
" />
<path d="M13.3502 8.7595
L13.3502 11.4265
" />
<path d="M6.4922 8.7595
L4.7142 8.7595
" />
<path d="M4.7142 8.7595
L4.7142 11.4265
" />
<path d="M4.7142 11.4265
L6.4922 11.4265
" />
<path d="M6.4922 11.4265
L6.4922 8.7595
" />
<path d="M18.7324 30.1093
L0.9524 30.1093
" />
<path d="M0.9524 30.1093
L0.9524 9.1093
" />
<path d="M0.9524 9.1093
L18.7324 9.1093
" />
<path d="M18.7324 9.1093
L18.7324 30.1093
" />
<path d="M15.1282 12.8235
L13.3502 12.8235
" />
<path d="M13.3502 12.8235
L13.3502 15.4905
" />
<path d="M13.3502 15.4905
L15.1282 15.4905
" />
<path d="M15.1282 15.4905
L15.1282 12.8235
" />
<path d="M6.4922 12.8235
L4.7142 12.8235
" />
<path d="M4.7142 12.8235
L4.7142 15.4905
" />
<path d="M4.7142 15.4905
L6.4922 15.4905
" />
<path d="M6.4922 15.4905
L6.4922 12.8235
" />
<g >
</g>
<g >
</g>
<g >
</g>
<g >
</g>
<g >
</g>
<g >
</g>
<g >
</g>
<g >
</g>
<g >
</g>
<g >
</g>
<g >
</g>
<g >
</g>
<g >
</g>
<g >
</g>
<g >
</g>
<g >
</g>
<g >
</g>
<g >
</g>
<g >
</g>
<g >
</g>
<g >
</g>
<g >
</g>
<g >
</g>
<g >
</g>
<g >
</g>
<g >
</g>
<g >
</g>
<g >
</g>
<g >
</g>
<g >
</g>
<g >
</g>
<g >
</g>
<g >
</g>
<g >
</g>
<g >
</g>
<g >
</g>
<g >
</g>
<g >
</g>
<g >
</g>
<g >
</g>
<g >
</g>
<g >
</g>
<g >
</g>
<g >
</g>
<g >
</g>
<g >
</g>
<g >
</g>
<g >
</g>
<g >
</g>
<g >
</g>
<g >
</g>
<g >
</g>
<g >
</g>
<g >
</g>
<g >
</g>
<g >
</g>
<g >
</g>
<g >
</g>
<g >
</g>
<g >
</g>
<g >
</g>
<g >
</g>
<g >
</g>
<g >
</g>
<g >
</g>
<g >
</g>
<g >
</g>
<g >
</g>
<g >
</g>
<g >
</g>
<g >
</g>
<g >
</g>
</g>
<g style="fill:#000000; fill-opacity:0.0; 
stroke:#000000; stroke-width:0.1200; stroke-opacity:1; 
stroke-linecap:round; stroke-linejoin:round;">
</g>
<g style="fill:#D0D2CD; fill-opacity:0.0; 
stroke:#D0D2CD; stroke-width:0.1200; stroke-opacity:1; 
stroke-linecap:round; stroke-linejoin:round;">
</g>
<g style="fill:#D0D2CD; fill-opacity:0.0; 
stroke:#D0D2CD; stroke-width:0.2000; stroke-opacity:1; 
stroke-linecap:round; stroke-linejoin:round;">
<path style="fill:#D0D2CD; fill-opacity:0.0; 
stroke:#D0D2CD; stroke-width:0.2000; stroke-opacity:1; 
stroke-linecap:round; stroke-linejoin:round;fill:none"
d="M 68.3424,0.1093
73.0484,0.3373
77.3567,0.7875
81.2894,1.4273
84.8682,2.2241
88.1151,3.1452
91.0521,4.1579
93.7009,5.2297
96.0836,6.3278
98.2220,7.4196
100.1381,8.4725
103.3908,10.3309
104.7712,11.0711
106.0170,11.6418
107.1499,12.0103
108.1918,12.1441
109.9009,12.1531
110.6605,12.1498
110.9997,12.1523
111.3121,12.1664
111.5981,12.1987
111.7312,12.2238
111.8578,12.2558
111.9780,12.2958
112.0917,12.3444
112.1990,12.4025
112.2999,12.4709
112.3944,12.5505
112.4826,12.6421
112.5646,12.7465
112.6403,12.8646
112.7098,12.9971
112.7731,13.1449
112.8302,13.3088
112.8813,13.4897
112.9262,13.6883
112.9651,13.9056
112.9980,14.1422
113.0249,14.3991
113.0459,14.6771
113.0609,14.9770
113.0734,15.6459
113.1234,61.8335
113.1161,62.1721
113.0927,62.5082
113.0516,62.8400
112.9911,63.1659
112.9097,63.4840
112.8060,63.7928
112.6782,64.0904
112.6049,64.2346
112.5249,64.3753
112.4382,64.5124
112.3446,64.6456
112.2438,64.7748
112.1356,64.8997
112.0199,65.0202
111.8964,65.1359
111.7650,65.2467
111.6255,65.3525
111.4776,65.4528
111.3212,65.5477
111.1561,65.6367
110.9821,65.7198
110.7990,65.7967
110.6066,65.8672
110.4048,65.9311
110.1932,65.9882
108.7256,66.2244
106.2193,66.5196
102.9209,66.8960
99.0771,67.3759
94.9348,67.9817
92.8288,68.3387
90.7407,68.7356
88.7012,69.1752
86.7414,69.6601
84.8919,70.1933
83.1837,70.7774
79.6111,72.2233
75.5166,74.0332
66.4448,78.2324
61.8091,80.3656
57.3347,82.3502
53.1923,84.0583
51.2990,84.7687
49.5527,85.3618
40.9322,87.9517
30.4765,90.9405
16.5468,94.8310
16.3587,94.8804
16.1737,94.9215
15.9917,94.9545
15.8131,94.9796
15.6377,94.9969
15.4659,95.0064
15.2977,95.0084
15.1331,95.0030
14.9724,94.9904
14.8157,94.9705
14.6630,94.9437
14.5146,94.9101
14.3704,94.8697
14.2307,94.8228
14.0956,94.7694
13.9651,94.7097
13.8395,94.6439
13.7187,94.5720
13.6030,94.4942
13.4924,94.4107
13.3871,94.3216
13.2872,94.2271
13.1928,94.1272
13.1041,94.0221
13.0211,93.9119
12.9439,93.7969
12.8728,93.6771
12.8078,93.5526
12.7490,93.4237
12.6966,93.2903
12.6506,93.1528
12.6112,93.0112
7.2453,71.6278
6.9592,70.4517
6.7118,69.3604
6.4979,68.3361
6.3121,67.3613
6.0038,65.4894
5.7446,63.6038
5.2042,59.2268
4.8384,56.4532
4.3525,53.1015
4.0979,51.6396
3.8104,50.3428
3.4965,49.1889
3.1632,48.1562
2.8173,47.2227
2.4656,46.3664
1.7720,44.7978
1.4438,44.0416
1.1370,43.2749
0.8585,42.4757
0.6151,41.6221
0.4136,40.6922
0.2608,39.6640
0.2048,39.1062
0.1635,38.5156
0.1379,37.8894
0.1286,37.2250
0.1000,10.3698
0.1015,10.1407
0.1078,9.9172
0.1210,9.7005
0.1429,9.4919
0.1756,9.2927
0.2210,9.1042
0.2490,9.0143
0.2811,8.9276
0.3172,8.8442
0.3578,8.7642
0.4031,8.6879
0.4533,8.6153
0.5086,8.5466
0.5694,8.4821
0.6357,8.4218
0.7080,8.3659
0.7865,8.3146
0.8713,8.2680
0.9628,8.2263
1.0611,8.1896
1.1666,8.1581
1.2795,8.1321
1.4000,8.1115
1.5284,8.0966
1.6649,8.0875
1.8097,8.0845
1.8097,8.0848
14.1252,8.0848
16.7306,7.9886
19.3252,7.7175
21.9337,7.2973
24.5808,6.7542
30.0895,5.4031
36.0488,3.8721
39.2591,3.1041
42.6562,2.3692
46.2646,1.6933
50.1092,1.1024
54.2146,0.6226
58.6054,0.2798
63.3065,0.1000
Z" /> 
<g >
</g>
<g >
</g>
<g >
</g>
<g >
</g>
<g >
</g>
<g >
</g>
<g >
</g>
<g >
</g>
<g >
</g>
<g >
</g>
<g >
</g>
<g >
</g>
<g >
</g>
<g >
</g>
<g >
</g>
<g >
</g>
<g >
</g>
<g >
</g>
<g >
</g>
<g >
</g>
<g >
</g>
<g >
</g>
<g >
</g>
<g >
</g>
<g >
</g>
<g >
</g>
<g >
</g>
<g >
</g>
<g >
</g>
<g >
</g>
<g >
</g>
<g >
</g>
<g >
</g>
<g >
</g>
<g >
</g>
<g >
</g>
<g >
</g>
<g >
</g>
<g >
</g>
<g >
</g>
<g >
</g>
<g >
</g>
<g >
</g>
<g >
</g>
<g >
</g>
<g >
</g>
<g >
</g>
<g >
</g>
<g >
</g>
<g >
</g>
<g >
</g>
<g >
</g>
<g >
</g>
<g >
</g>
<g >
</g>
<g >
</g>
<g >
</g>
<g >
</g>
<g >
</g>
<g >
</g>
<g >
</g>
<g >
</g>
<g >
</g>
<g >
</g>
<g >
</g>
<g >
</g>
<g >
</g>
<g >
</g>
<g >
</g>
<g >
</g>
<g >
</g>
<g >
</g>
</g> 
</svg>
