  0
SECTION
  2
HEADER
  9
$ACADVER
  1
AC1014
  9
$HANDSEED
  5
FFFF
  9
$MEASUREMENT
 70
     1
  0
ENDSEC
  0
SECTION
  2
TABLES
  0
TABLE
  2
VPORT
  5
8
330
0
100
AcDbSymbolTable
 70
     4
  0
VPORT
  5
2E
330
8
100
AcDbSymbolTableRecord
100
AcDbViewportTableRecord
  2
*ACTIVE
 70
     0
 10
0.0
 20
0.0
 11
1.0
 21
1.0
 12
210.0
 22
148.5
 13
0.0
 23
0.0
 14
10.0
 24
10.0
 15
10.0
 25
10.0
 16
0.0
 26
0.0
 36
1.0
 17
0.0
 27
0.0
 37
0.0
 40
341.0
 41
1.24
 42
50.0
 43
0.0
 44
0.0
 50
0.0
 51
0.0
 71
     0
 72
   100
 73
     1
 74
     3
 75
     0
 76
     0
 77
     0
 78
     0
  0
ENDTAB
  0
TABLE
  2
LTYPE
  5
5
330
0
100
AcDbSymbolTable
 70
     1
  0
LTYPE
  5
14
330
5
100
AcDbSymbolTableRecord
100
AcDbLinetypeTableRecord
  2
BYBLOCK
 70
     0
  3

 72
    65
 73
     0
 40
0.0
  0
LTYPE
  5
15
330
5
100
AcDbSymbolTableRecord
100
AcDbLinetypeTableRecord
  2
BYLAYER
 70
     0
  3

 72
    65
 73
     0
 40
0.0
  0
LTYPE
  5
16
330
5
100
AcDbSymbolTableRecord
100
AcDbLinetypeTableRecord
  2
CONTINUOUS
 70
     0
  3
Solid line
 72
    65
 73
     0
 40
0.0
  0
ENDTAB
  0
TABLE
  2
LAYER
  5
2
100
AcDbSymbolTable
 70
2
  0
LAYER
  5
50
100
AcDbSymbolTableRecord
100
AcDbLayerTableRecord
  2
0
 70
0
  6
CONTINUOUS
  0
LAYER
  5
51
100
AcDbSymbolTableRecord
100
AcDbLayerTableRecord
  2
Layer_2
 70
0
  6
CONTINUOUS
  0
ENDTAB
  0
TABLE
  2
STYLE
  5
3
330
0
100
AcDbSymbolTable
 70
     1
  0
STYLE
  5
11
330
3
100
AcDbSymbolTableRecord
100
AcDbTextStyleTableRecord
  2
STANDARD
 70
     0
 40
0.0
 41
1.0
 50
0.0
 71
     0
 42
2.5
  3
txt
  4

  0
ENDTAB
  0
TABLE
  2
VIEW
  5
6
330
0
100
AcDbSymbolTable
 70
     0
  0
ENDTAB
  0
TABLE
  2
UCS
  5
7
330
0
100
AcDbSymbolTable
 70
     0
  0
ENDTAB
  0
TABLE
  2
APPID
  5
9
330
0
100
AcDbSymbolTable
 70
     2
  0
APPID
  5
12
330
9
100
AcDbSymbolTableRecord
100
AcDbRegAppTableRecord
  2
ACAD
 70
     0
  0
ENDTAB
  0
TABLE
  2
DIMSTYLE
  5
A
330
0
100
AcDbSymbolTable
 70
     1
  0
DIMSTYLE
105
27
330
A
100
AcDbSymbolTableRecord
100
AcDbDimStyleTableRecord
  2
ISO-25
 70
     0
  3

  4

  5

  6

  7

 40
1.0
 41
2.5
 42
0.625
 43
3.75
 44
1.25
 45
0.0
 46
0.0
 47
0.0
 48
0.0
140
2.5
141
2.5
142
0.0
143
0.03937007874016
144
1.0
145
0.0
146
1.0
147
0.625
 71
     0
 72
     0
 73
     0
 74
     0
 75
     0
 76
     0
 77
     1
 78
     8
170
     0
171
     3
172
     1
173
     0
174
     0
175
     0
176
     0
177
     0
178
     0
270
     2
271
     2
272
     2
273
     2
274
     3
340
11
275
     0
280
     0
281
     0
282
     0
283
     0
284
     8
285
     0
286
     0
287
     3
288
     0
  0
ENDTAB
  0
TABLE
  2
BLOCK_RECORD
  5
1
330
0
100
AcDbSymbolTable
 70
     1
  0
BLOCK_RECORD
  5
1F
330
1
100
AcDbSymbolTableRecord
100
AcDbBlockTableRecord
  2
*MODEL_SPACE
  0
BLOCK_RECORD
  5
1B
330
1
100
AcDbSymbolTableRecord
100
AcDbBlockTableRecord
  2
*PAPER_SPACE
  0
ENDTAB
  0
ENDSEC
  0
SECTION
  2
BLOCKS
  0
BLOCK
  5
20
330
1F
100
AcDbEntity
  8
0
100
AcDbBlockBegin
  2
*MODEL_SPACE
 70
     0
 10
0.0
 20
0.0
 30
0.0
  3
*MODEL_SPACE
  1

  0
ENDBLK
  5
21
330
1F
100
AcDbEntity
  8
0
100
AcDbBlockEnd
  0
BLOCK
  5
1C
330
1B
100
AcDbEntity
 67
     1
  8
0
100
AcDbBlockBegin
  2
*PAPER_SPACE
  1

  0
ENDBLK
  5
1D
330
1B
100
AcDbEntity
 67
     1
  8
0
100
AcDbBlockEnd
  0
ENDSEC
  0
SECTION
  2
ENTITIES
  0
SPLINE
  5
100
100
AcDbEntity
  8
Layer_2
 62
5
100
AcDbSpline
 70
8
 71
3
 72
8
 73
4
 74
0
 40
0
 40
0
 40
0
 40
0
 40
1
 40
1
 40
1
 40
1
 10
110.273440
 20
203.142578
 30
0.0
 10
82.478407
 20
203.742318
 30
0.0
 10
70.024962
 20
195.167970
 30
0.0
 10
56.056641
 20
195.167970
 30
0.0
  0
SPLINE
  5
101
100
AcDbEntity
  8
Layer_2
 62
5
100
AcDbSpline
 70
8
 71
3
 72
8
 73
4
 74
0
 40
0
 40
0
 40
0
 40
0
 40
1
 40
1
 40
1
 40
1
 10
43.742188
 20
195.167970
 30
0.0
 10
42.151424
 20
195.167970
 30
0.0
 10
42.029950
 20
194.117350
 30
0.0
 10
42.031250
 20
192.882810
 30
0.0
  0
LWPOLYLINE
  5
102
100
AcDbEntity
  8
Layer_2
 62
5
100
AcDbPolyline
 90
2
 70
0
 10
56.056641
 20
195.167970
 30
0.0
 10
43.742188
 20
195.167970
 30
0.0
  0
SPLINE
  5
103
100
AcDbEntity
  8
Layer_2
 62
5
100
AcDbSpline
 70
8
 71
3
 72
8
 73
4
 74
0
 40
0
 40
0
 40
0
 40
0
 40
1
 40
1
 40
1
 40
1
 10
42.060550
 20
166.027340
 30
0.0
 10
42.068350
 20
158.726260
 30
0.0
 10
45.028048
 20
158.426060
 30
0.0
 10
46.285159
 20
150.150390
 30
0.0
  0
SPLINE
  5
104
100
AcDbEntity
  8
Layer_2
 62
5
100
AcDbSpline
 70
8
 71
3
 72
8
 73
4
 74
0
 40
0
 40
0
 40
0
 40
0
 40
1
 40
1
 40
1
 40
1
 10
46.285159
 20
150.150390
 30
0.0
 10
47.779003
 20
140.316290
 30
0.0
 10
47.539146
 20
138.152850
 30
0.0
 10
49.177737
 20
131.623050
 30
0.0
  0
LWPOLYLINE
  5
105
100
AcDbEntity
  8
Layer_2
 62
5
100
AcDbPolyline
 90
2
 70
0
 10
42.031250
 20
192.882810
 30
0.0
 10
42.060550
 20
166.027340
 30
0.0
  0
SPLINE
  5
106
100
AcDbEntity
  8
Layer_2
 62
5
100
AcDbSpline
 70
8
 71
3
 72
8
 73
4
 74
0
 40
0
 40
0
 40
0
 40
0
 40
1
 40
1
 40
1
 40
1
 10
54.542972
 20
110.240230
 30
0.0
 10
54.927340
 20
108.708520
 30
0.0
 10
56.457173
 20
107.848670
 30
0.0
 10
58.478519
 20
108.419920
 30
0.0
  0
SPLINE
  5
107
100
AcDbEntity
  8
Layer_2
 62
5
100
AcDbSpline
 70
8
 71
3
 72
8
 73
4
 74
0
 40
0
 40
0
 40
0
 40
0
 40
1
 40
1
 40
1
 40
1
 10
58.478519
 20
108.419920
 30
0.0
 10
60.499864
 20
108.991170
 30
0.0
 10
82.601193
 20
115.068310
 30
0.0
 10
91.484378
 20
117.890620
 30
0.0
  0
SPLINE
  5
108
100
AcDbEntity
  8
Layer_2
 62
5
100
AcDbSpline
 70
8
 71
3
 72
8
 73
4
 74
0
 40
0
 40
0
 40
0
 40
0
 40
1
 40
1
 40
1
 40
1
 10
91.484378
 20
117.890620
 30
0.0
 10
100.367563
 20
120.712950
 30
0.0
 10
116.436223
 20
129.218100
 30
0.0
 10
125.115233
 20
132.474610
 30
0.0
  0
SPLINE
  5
109
100
AcDbEntity
  8
Layer_2
 62
5
100
AcDbSpline
 70
8
 71
3
 72
8
 73
4
 74
0
 40
0
 40
0
 40
0
 40
0
 40
1
 40
1
 40
1
 40
1
 10
125.115233
 20
132.474610
 30
0.0
 10
133.794253
 20
135.731130
 30
0.0
 10
149.815863
 20
136.692270
 30
0.0
 10
152.125003
 20
137.263670
 30
0.0
  0
SPLINE
  5
10a
100
AcDbEntity
  8
Layer_2
 62
5
100
AcDbSpline
 70
8
 71
3
 72
8
 73
4
 74
0
 40
0
 40
0
 40
0
 40
0
 40
1
 40
1
 40
1
 40
1
 10
152.125003
 20
137.263670
 30
0.0
 10
154.434143
 20
137.835070
 30
0.0
 10
155.056693
 20
139.607960
 30
0.0
 10
155.054693
 20
141.417970
 30
0.0
  0
LWPOLYLINE
  5
10b
100
AcDbEntity
  8
Layer_2
 62
5
100
AcDbPolyline
 90
2
 70
0
 10
49.177737
 20
131.623050
 30
0.0
 10
54.542972
 20
110.240230
 30
0.0
  0
SPLINE
  5
10c
100
AcDbEntity
  8
Layer_2
 62
5
100
AcDbSpline
 70
8
 71
3
 72
8
 73
4
 74
0
 40
0
 40
0
 40
0
 40
0
 40
1
 40
1
 40
1
 40
1
 10
155.005893
 20
187.605470
 30
0.0
 10
155.001893
 20
191.426760
 30
0.0
 10
154.003443
 20
191.087810
 30
0.0
 10
151.832063
 20
191.099610
 30
0.0
  0
LWPOLYLINE
  5
10d
100
AcDbEntity
  8
Layer_2
 62
5
100
AcDbPolyline
 90
2
 70
0
 10
155.054693
 20
141.417970
 30
0.0
 10
155.005893
 20
187.605470
 30
0.0
  0
SPLINE
  5
10e
100
AcDbEntity
  8
Layer_2
 62
5
100
AcDbSpline
 70
8
 71
3
 72
8
 73
4
 74
0
 40
0
 40
0
 40
0
 40
0
 40
1
 40
1
 40
1
 40
1
 10
150.123083
 20
191.107610
 30
0.0
 10
144.769253
 20
191.136610
 30
0.0
 10
136.471353
 20
202.577489
 30
0.0
 10
110.273473
 20
203.142768
 30
0.0
  0
LWPOLYLINE
  5
10f
100
AcDbEntity
  8
Layer_2
 62
5
100
AcDbPolyline
 90
2
 70
0
 10
151.832063
 20
191.099610
 30
0.0
 10
150.123083
 20
191.107610
 30
0.0
  0
SPLINE
  5
110
100
AcDbEntity
  8
Layer_2
 62
5
100
AcDbSpline
 70
8
 71
3
 72
8
 73
4
 74
0
 40
0
 40
0
 40
0
 40
0
 40
1
 40
1
 40
1
 40
1
 10
110.287110
 20
203.751953
 30
0.0
 10
82.359335
 20
204.354558
 30
0.0
 10
69.807321
 20
195.779300
 30
0.0
 10
56.056641
 20
195.779300
 30
0.0
  0
LWPOLYLINE
  5
111
100
AcDbEntity
  8
Layer_2
 62
5
100
AcDbPolyline
 90
2
 70
0
 10
110.273473
 20
203.142768
 30
0.0
 10
110.273440
 20
203.142578
 30
0.0
  0
SPLINE
  5
112
100
AcDbEntity
  8
Layer_2
 62
5
100
AcDbSpline
 70
8
 71
3
 72
8
 73
4
 74
0
 40
0
 40
0
 40
0
 40
0
 40
1
 40
1
 40
1
 40
1
 10
43.742188
 20
195.779300
 30
0.0
 10
43.003634
 20
195.779300
 30
0.0
 10
41.985001
 20
195.203900
 30
0.0
 10
41.753906
 20
194.783200
 30
0.0
  0
SPLINE
  5
113
100
AcDbEntity
  8
Layer_2
 62
5
100
AcDbSpline
 70
8
 71
3
 72
8
 73
4
 74
0
 40
0
 40
0
 40
0
 40
0
 40
1
 40
1
 40
1
 40
1
 10
41.753906
 20
194.783200
 30
0.0
 10
41.370905
 20
194.085980
 30
0.0
 10
41.419133
 20
193.631680
 30
0.0
 10
41.419922
 20
192.882810
 30
0.0
  0
LWPOLYLINE
  5
114
100
AcDbEntity
  8
Layer_2
 62
5
100
AcDbPolyline
 90
2
 70
0
 10
56.056641
 20
195.779300
 30
0.0
 10
43.742188
 20
195.779300
 30
0.0
  0
SPLINE
  5
115
100
AcDbEntity
  8
Layer_2
 62
5
100
AcDbSpline
 70
8
 71
3
 72
8
 73
4
 74
0
 40
0
 40
0
 40
0
 40
0
 40
1
 40
1
 40
1
 40
1
 10
41.449222
 20
166.027340
 30
0.0
 10
41.453222
 20
162.314330
 30
0.0
 10
42.250225
 20
160.225170
 30
0.0
 10
43.146487
 20
158.207030
 30
0.0
  0
SPLINE
  5
116
100
AcDbEntity
  8
Layer_2
 62
5
100
AcDbSpline
 70
8
 71
3
 72
8
 73
4
 74
0
 40
0
 40
0
 40
0
 40
0
 40
1
 40
1
 40
1
 40
1
 10
43.146487
 20
158.207030
 30
0.0
 10
44.050428
 20
156.171600
 30
0.0
 10
45.065071
 20
154.117540
 30
0.0
 10
45.681644
 20
150.058590
 30
0.0
  0
SPLINE
  5
117
100
AcDbEntity
  8
Layer_2
 62
5
100
AcDbSpline
 70
8
 71
3
 72
8
 73
4
 74
0
 40
0
 40
0
 40
0
 40
0
 40
1
 40
1
 40
1
 40
1
 10
45.681644
 20
150.058590
 30
0.0
 10
47.172139
 20
140.246540
 30
0.0
 10
46.936124
 20
138.049140
 30
0.0
 10
48.585941
 20
131.474610
 30
0.0
  0
LWPOLYLINE
  5
118
100
AcDbEntity
  8
Layer_2
 62
5
100
AcDbPolyline
 90
2
 70
0
 10
41.419922
 20
192.882810
 30
0.0
 10
41.449222
 20
166.027340
 30
0.0
  0
SPLINE
  5
119
100
AcDbEntity
  8
Layer_2
 62
5
100
AcDbSpline
 70
8
 71
3
 72
8
 73
4
 74
0
 40
0
 40
0
 40
0
 40
0
 40
1
 40
1
 40
1
 40
1
 10
53.951175
 20
110.091800
 30
0.0
 10
54.174784
 20
109.200710
 30
0.0
 10
54.819811
 20
108.388960
 30
0.0
 10
55.628909
 20
107.992190
 30
0.0
  0
SPLINE
  5
11a
100
AcDbEntity
  8
Layer_2
 62
5
100
AcDbSpline
 70
8
 71
3
 72
8
 73
4
 74
0
 40
0
 40
0
 40
0
 40
0
 40
1
 40
1
 40
1
 40
1
 10
55.628909
 20
107.992190
 30
0.0
 10
56.466680
 20
107.581360
 30
0.0
 10
57.524968
 20
107.515640
 30
0.0
 10
58.644534
 20
107.832030
 30
0.0
  0
SPLINE
  5
11b
100
AcDbEntity
  8
Layer_2
 62
5
100
AcDbSpline
 70
8
 71
3
 72
8
 73
4
 74
0
 40
0
 40
0
 40
0
 40
0
 40
1
 40
1
 40
1
 40
1
 10
58.644534
 20
107.832030
 30
0.0
 10
60.640046
 20
108.395990
 30
0.0
 10
82.748628
 20
114.474180
 30
0.0
 10
91.669925
 20
117.308590
 30
0.0
  0
SPLINE
  5
11c
100
AcDbEntity
  8
Layer_2
 62
5
100
AcDbSpline
 70
8
 71
3
 72
8
 73
4
 74
0
 40
0
 40
0
 40
0
 40
0
 40
1
 40
1
 40
1
 40
1
 10
91.669925
 20
117.308590
 30
0.0
 10
100.699133
 20
120.177320
 30
0.0
 10
116.735153
 20
128.680070
 30
0.0
 10
125.328123
 20
131.904300
 30
0.0
  0
SPLINE
  5
11d
100
AcDbEntity
  8
Layer_2
 62
5
100
AcDbSpline
 70
8
 71
3
 72
8
 73
4
 74
0
 40
0
 40
0
 40
0
 40
0
 40
1
 40
1
 40
1
 40
1
 10
125.328123
 20
131.904300
 30
0.0
 10
129.579223
 20
133.499380
 30
0.0
 10
135.723553
 20
134.554390
 30
0.0
 10
141.089843
 20
135.271480
 30
0.0
  0
SPLINE
  5
11e
100
AcDbEntity
  8
Layer_2
 62
5
100
AcDbSpline
 70
8
 71
3
 72
8
 73
4
 74
0
 40
0
 40
0
 40
0
 40
0
 40
1
 40
1
 40
1
 40
1
 10
141.089843
 20
135.271480
 30
0.0
 10
143.771473
 20
135.629820
 30
0.0
 10
146.256013
 20
135.903620
 30
0.0
 10
148.218753
 20
136.125000
 30
0.0
  0
SPLINE
  5
11f
100
AcDbEntity
  8
Layer_2
 62
5
100
AcDbSpline
 70
8
 71
3
 72
8
 73
4
 74
0
 40
0
 40
0
 40
0
 40
0
 40
1
 40
1
 40
1
 40
1
 10
148.218753
 20
136.125000
 30
0.0
 10
150.196853
 20
136.348130
 30
0.0
 10
151.483923
 20
136.476990
 30
0.0
 10
152.271483
 20
136.671880
 30
0.0
  0
SPLINE
  5
120
100
AcDbEntity
  8
Layer_2
 62
5
100
AcDbSpline
 70
8
 71
3
 72
8
 73
4
 74
0
 40
0
 40
0
 40
0
 40
0
 40
1
 40
1
 40
1
 40
1
 10
152.271483
 20
136.671880
 30
0.0
 10
153.513533
 20
136.979210
 30
0.0
 10
154.482213
 20
137.734380
 30
0.0
 10
154.978523
 20
138.562500
 30
0.0
  0
SPLINE
  5
121
100
AcDbEntity
  8
Layer_2
 62
5
100
AcDbSpline
 70
8
 71
3
 72
8
 73
4
 74
0
 40
0
 40
0
 40
0
 40
0
 40
1
 40
1
 40
1
 40
1
 10
154.978523
 20
138.562500
 30
0.0
 10
155.509833
 20
139.449040
 30
0.0
 10
155.667113
 20
140.433300
 30
0.0
 10
155.666023
 20
141.417970
 30
0.0
  0
LWPOLYLINE
  5
122
100
AcDbEntity
  8
Layer_2
 62
5
100
AcDbPolyline
 90
2
 70
0
 10
48.585941
 20
131.474610
 30
0.0
 10
53.951175
 20
110.091800
 30
0.0
  0
SPLINE
  5
123
100
AcDbEntity
  8
Layer_2
 62
5
100
AcDbSpline
 70
8
 71
3
 72
8
 73
4
 74
0
 40
0
 40
0
 40
0
 40
0
 40
1
 40
1
 40
1
 40
1
 10
155.617223
 20
187.605470
 30
0.0
 10
155.616223
 20
188.597030
 30
0.0
 10
155.558723
 20
189.302720
 30
0.0
 10
155.404333
 20
189.912110
 30
0.0
  0
SPLINE
  5
124
100
AcDbEntity
  8
Layer_2
 62
5
100
AcDbSpline
 70
8
 71
3
 72
8
 73
4
 74
0
 40
0
 40
0
 40
0
 40
0
 40
1
 40
1
 40
1
 40
1
 10
155.404333
 20
189.912110
 30
0.0
 10
155.264003
 20
190.466150
 30
0.0
 10
154.968463
 20
190.988660
 30
0.0
 10
154.599643
 20
191.267580
 30
0.0
  0
SPLINE
  5
125
100
AcDbEntity
  8
Layer_2
 62
5
100
AcDbSpline
 70
8
 71
3
 72
8
 73
4
 74
0
 40
0
 40
0
 40
0
 40
0
 40
1
 40
1
 40
1
 40
1
 10
154.599643
 20
191.267580
 30
0.0
 10
154.198743
 20
191.570760
 30
0.0
 10
153.749863
 20
191.659190
 30
0.0
 10
153.289093
 20
191.693360
 30
0.0
  0
SPLINE
  5
126
100
AcDbEntity
  8
Layer_2
 62
5
100
AcDbSpline
 70
8
 71
3
 72
8
 73
4
 74
0
 40
0
 40
0
 40
0
 40
0
 40
1
 40
1
 40
1
 40
1
 10
153.289093
 20
191.693360
 30
0.0
 10
152.814613
 20
191.728560
 30
0.0
 10
152.379393
 20
191.708260
 30
0.0
 10
151.841833
 20
191.710960
 30
0.0
  0
LWPOLYLINE
  5
127
100
AcDbEntity
  8
Layer_2
 62
5
100
AcDbPolyline
 90
2
 70
0
 10
155.666023
 20
141.417970
 30
0.0
 10
155.617223
 20
187.605470
 30
0.0
  0
SPLINE
  5
128
100
AcDbEntity
  8
Layer_2
 62
5
100
AcDbSpline
 70
8
 71
3
 72
8
 73
4
 74
0
 40
0
 40
0
 40
0
 40
0
 40
1
 40
1
 40
1
 40
1
 10
150.130713
 20
191.718960
 30
0.0
 10
150.128046
 20
191.718952
 30
0.0
 10
150.125380
 20
191.718952
 30
0.0
 10
150.122713
 20
191.718960
 30
0.0
  0
SPLINE
  5
129
100
AcDbEntity
  8
Layer_2
 62
5
100
AcDbSpline
 70
8
 71
3
 72
8
 73
4
 74
0
 40
0
 40
0
 40
0
 40
0
 40
1
 40
1
 40
1
 40
1
 10
150.122713
 20
191.718960
 30
0.0
 10
148.799623
 20
191.726960
 30
0.0
 10
147.572093
 20
192.360490
 30
0.0
 10
145.618803
 20
193.453330
 30
0.0
  0
SPLINE
  5
12a
100
AcDbEntity
  8
Layer_2
 62
5
100
AcDbSpline
 70
8
 71
3
 72
8
 73
4
 74
0
 40
0
 40
0
 40
0
 40
0
 40
1
 40
1
 40
1
 40
1
 10
145.618803
 20
193.453330
 30
0.0
 10
143.694853
 20
194.529760
 30
0.0
 10
141.320063
 20
195.991020
 30
0.0
 10
138.280913
 20
197.472866
 30
0.0
  0
SPLINE
  5
12b
100
AcDbEntity
  8
Layer_2
 62
5
100
AcDbSpline
 70
8
 71
3
 72
8
 73
4
 74
0
 40
0
 40
0
 40
0
 40
0
 40
1
 40
1
 40
1
 40
1
 10
138.280913
 20
197.472866
 30
0.0
 10
132.206703
 20
200.434563
 30
0.0
 10
123.471153
 20
203.467680
 30
0.0
 10
110.286773
 20
203.752163
 30
0.0
  0
LWPOLYLINE
  5
12c
100
AcDbEntity
  8
Layer_2
 62
5
100
AcDbPolyline
 90
3
 70
0
 10
151.841833
 20
191.710960
 30
0.0
 10
151.833833
 20
191.710960
 30
0.0
 10
150.130713
 20
191.718960
 30
0.0
  0
SPLINE
  5
12d
100
AcDbEntity
  8
Layer_2
 62
5
100
AcDbSpline
 70
8
 71
3
 72
8
 73
4
 74
0
 40
0
 40
0
 40
0
 40
0
 40
1
 40
1
 40
1
 40
1
 10
110.320310
 20
205.281250
 30
0.0
 10
82.069573
 20
205.890824
 30
0.0
 10
69.171017
 20
197.310547
 30
0.0
 10
56.056641
 20
197.310547
 30
0.0
  0
LWPOLYLINE
  5
12e
100
AcDbEntity
  8
Layer_2
 62
5
100
AcDbPolyline
 90
2
 70
0
 10
110.286773
 20
203.752163
 30
0.0
 10
110.287110
 20
203.751953
 30
0.0
  0
SPLINE
  5
12f
100
AcDbEntity
  8
Layer_2
 62
5
100
AcDbSpline
 70
8
 71
3
 72
8
 73
4
 74
0
 40
0
 40
0
 40
0
 40
0
 40
1
 40
1
 40
1
 40
1
 10
43.742188
 20
197.310547
 30
0.0
 10
42.975445
 20
197.310547
 30
0.0
 10
42.387496
 20
197.076037
 30
0.0
 10
41.849609
 20
196.794920
 30
0.0
  0
SPLINE
  5
130
100
AcDbEntity
  8
Layer_2
 62
5
100
AcDbSpline
 70
8
 71
3
 72
8
 73
4
 74
0
 40
0
 40
0
 40
0
 40
0
 40
1
 40
1
 40
1
 40
1
 10
41.849609
 20
196.794920
 30
0.0
 10
41.311723
 20
196.513810
 30
0.0
 10
40.842760
 20
196.303510
 30
0.0
 10
40.412109
 20
195.519530
 30
0.0
  0
SPLINE
  5
131
100
AcDbEntity
  8
Layer_2
 62
5
100
AcDbSpline
 70
8
 71
3
 72
8
 73
4
 74
0
 40
0
 40
0
 40
0
 40
0
 40
1
 40
1
 40
1
 40
1
 10
40.412109
 20
195.519530
 30
0.0
 10
39.867928
 20
194.528900
 30
0.0
 10
39.887951
 20
193.564670
 30
0.0
 10
39.888672
 20
192.880860
 30
0.0
  0
LWPOLYLINE
  5
132
100
AcDbEntity
  8
Layer_2
 62
5
100
AcDbPolyline
 90
2
 70
0
 10
56.056641
 20
197.310547
 30
0.0
 10
43.742188
 20
197.310547
 30
0.0
  0
SPLINE
  5
133
100
AcDbEntity
  8
Layer_2
 62
5
100
AcDbSpline
 70
8
 71
3
 72
8
 73
4
 74
0
 40
0
 40
0
 40
0
 40
0
 40
1
 40
1
 40
1
 40
1
 10
39.917972
 20
166.025390
 30
0.0
 10
39.922172
 20
162.093970
 30
0.0
 10
40.829376
 20
159.654540
 30
0.0
 10
41.748050
 20
157.585940
 30
0.0
  0
SPLINE
  5
134
100
AcDbEntity
  8
Layer_2
 62
5
100
AcDbSpline
 70
8
 71
3
 72
8
 73
4
 74
0
 40
0
 40
0
 40
0
 40
0
 40
1
 40
1
 40
1
 40
1
 10
41.748050
 20
157.585940
 30
0.0
 10
42.669398
 20
155.511310
 30
0.0
 10
43.577326
 20
153.716390
 30
0.0
 10
44.167972
 20
149.828120
 30
0.0
  0
SPLINE
  5
135
100
AcDbEntity
  8
Layer_2
 62
5
100
AcDbSpline
 70
8
 71
3
 72
8
 73
4
 74
0
 40
0
 40
0
 40
0
 40
0
 40
1
 40
1
 40
1
 40
1
 10
44.167972
 20
149.828120
 30
0.0
 10
45.649769
 20
140.073340
 30
0.0
 10
45.423765
 20
137.787600
 30
0.0
 10
47.101565
 20
131.101560
 30
0.0
  0
LWPOLYLINE
  5
136
100
AcDbEntity
  8
Layer_2
 62
5
100
AcDbPolyline
 90
2
 70
0
 10
39.888672
 20
192.880860
 30
0.0
 10
39.917972
 20
166.025390
 30
0.0
  0
SPLINE
  5
137
100
AcDbEntity
  8
Layer_2
 62
5
100
AcDbSpline
 70
8
 71
3
 72
8
 73
4
 74
0
 40
0
 40
0
 40
0
 40
0
 40
1
 40
1
 40
1
 40
1
 10
52.466800
 20
109.718750
 30
0.0
 10
52.806118
 20
108.366560
 30
0.0
 10
53.693767
 20
107.235720
 30
0.0
 10
54.955081
 20
106.617190
 30
0.0
  0
SPLINE
  5
138
100
AcDbEntity
  8
Layer_2
 62
5
100
AcDbSpline
 70
8
 71
3
 72
8
 73
4
 74
0
 40
0
 40
0
 40
0
 40
0
 40
1
 40
1
 40
1
 40
1
 10
54.955081
 20
106.617190
 30
0.0
 10
56.192400
 20
106.010430
 30
0.0
 10
57.644716
 20
105.959260
 30
0.0
 10
59.060550
 20
106.359380
 30
0.0
  0
SPLINE
  5
139
100
AcDbEntity
  8
Layer_2
 62
5
100
AcDbSpline
 70
8
 71
3
 72
8
 73
4
 74
0
 40
0
 40
0
 40
0
 40
0
 40
1
 40
1
 40
1
 40
1
 10
59.060550
 20
106.359380
 30
0.0
 10
60.978598
 20
106.901440
 30
0.0
 10
83.117859
 20
112.985440
 30
0.0
 10
92.132815
 20
115.849610
 30
0.0
  0
SPLINE
  5
13a
100
AcDbEntity
  8
Layer_2
 62
5
100
AcDbSpline
 70
8
 71
3
 72
8
 73
4
 74
0
 40
0
 40
0
 40
0
 40
0
 40
1
 40
1
 40
1
 40
1
 10
92.132815
 20
115.849610
 30
0.0
 10
101.495393
 20
118.824260
 30
0.0
 10
117.514523
 20
127.337370
 30
0.0
 10
125.865233
 20
130.470700
 30
0.0
  0
SPLINE
  5
13b
100
AcDbEntity
  8
Layer_2
 62
5
100
AcDbSpline
 70
8
 71
3
 72
8
 73
4
 74
0
 40
0
 40
0
 40
0
 40
0
 40
1
 40
1
 40
1
 40
1
 10
125.865233
 20
130.470700
 30
0.0
 10
129.870033
 20
131.973360
 30
0.0
 10
135.970003
 20
133.042600
 30
0.0
 10
141.292973
 20
133.753910
 30
0.0
  0
SPLINE
  5
13c
100
AcDbEntity
  8
Layer_2
 62
5
100
AcDbSpline
 70
8
 71
3
 72
8
 73
4
 74
0
 40
0
 40
0
 40
0
 40
0
 40
1
 40
1
 40
1
 40
1
 10
141.292973
 20
133.753910
 30
0.0
 10
143.953033
 20
134.109360
 30
0.0
 10
146.424603
 20
134.381770
 30
0.0
 10
148.390623
 20
134.603520
 30
0.0
  0
SPLINE
  5
13d
100
AcDbEntity
  8
Layer_2
 62
5
100
AcDbSpline
 70
8
 71
3
 72
8
 73
4
 74
0
 40
0
 40
0
 40
0
 40
0
 40
1
 40
1
 40
1
 40
1
 10
148.390623
 20
134.603520
 30
0.0
 10
150.360463
 20
134.825710
 30
0.0
 10
151.626383
 20
134.935040
 30
0.0
 10
152.638673
 20
135.185550
 30
0.0
  0
SPLINE
  5
13e
100
AcDbEntity
  8
Layer_2
 62
5
100
AcDbSpline
 70
8
 71
3
 72
8
 73
4
 74
0
 40
0
 40
0
 40
0
 40
0
 40
1
 40
1
 40
1
 40
1
 10
152.638673
 20
135.185550
 30
0.0
 10
154.268073
 20
135.588720
 30
0.0
 10
155.554213
 20
136.545980
 30
0.0
 10
156.291023
 20
137.775390
 30
0.0
  0
SPLINE
  5
13f
100
AcDbEntity
  8
Layer_2
 62
5
100
AcDbSpline
 70
8
 71
3
 72
8
 73
4
 74
0
 40
0
 40
0
 40
0
 40
0
 40
1
 40
1
 40
1
 40
1
 10
156.291023
 20
137.775390
 30
0.0
 10
157.010633
 20
138.976140
 30
0.0
 10
157.198543
 20
140.271150
 30
0.0
 10
157.197273
 20
141.419920
 30
0.0
  0
LWPOLYLINE
  5
140
100
AcDbEntity
  8
Layer_2
 62
5
100
AcDbPolyline
 90
2
 70
0
 10
47.101565
 20
131.101560
 30
0.0
 10
52.466800
 20
109.718750
 30
0.0
  0
SPLINE
  5
141
100
AcDbEntity
  8
Layer_2
 62
5
100
AcDbSpline
 70
8
 71
3
 72
8
 73
4
 74
0
 40
0
 40
0
 40
0
 40
0
 40
1
 40
1
 40
1
 40
1
 10
157.148473
 20
187.607420
 30
0.0
 10
157.147473
 20
188.657330
 30
0.0
 10
157.089873
 20
189.492770
 30
0.0
 10
156.888703
 20
190.287110
 30
0.0
  0
SPLINE
  5
142
100
AcDbEntity
  8
Layer_2
 62
5
100
AcDbSpline
 70
8
 71
3
 72
8
 73
4
 74
0
 40
0
 40
0
 40
0
 40
0
 40
1
 40
1
 40
1
 40
1
 10
156.888703
 20
190.287110
 30
0.0
 10
156.679033
 20
191.114930
 30
0.0
 10
156.312013
 20
191.891940
 30
0.0
 10
155.523473
 20
192.488280
 30
0.0
  0
SPLINE
  5
143
100
AcDbEntity
  8
Layer_2
 62
5
100
AcDbSpline
 70
8
 71
3
 72
8
 73
4
 74
0
 40
0
 40
0
 40
0
 40
0
 40
1
 40
1
 40
1
 40
1
 10
155.523473
 20
192.488280
 30
0.0
 10
154.798383
 20
193.036630
 30
0.0
 10
153.984253
 20
193.175600
 30
0.0
 10
153.402373
 20
193.218750
 30
0.0
  0
SPLINE
  5
144
100
AcDbEntity
  8
Layer_2
 62
5
100
AcDbSpline
 70
8
 71
3
 72
8
 73
4
 74
0
 40
0
 40
0
 40
0
 40
0
 40
1
 40
1
 40
1
 40
1
 10
153.402373
 20
193.218750
 30
0.0
 10
152.815803
 20
193.262250
 30
0.0
 10
152.344603
 20
193.239750
 30
0.0
 10
151.849643
 20
193.242150
 30
0.0
  0
SPLINE
  5
145
100
AcDbEntity
  8
Layer_2
 62
5
100
AcDbSpline
 70
8
 71
3
 72
8
 73
4
 74
0
 40
0
 40
0
 40
0
 40
0
 40
1
 40
1
 40
1
 40
1
 10
151.849643
 20
193.242150
 30
0.0
 10
151.846976
 20
193.242157
 30
0.0
 10
151.844310
 20
193.242157
 30
0.0
 10
151.841643
 20
193.242150
 30
0.0
  0
LWPOLYLINE
  5
146
100
AcDbEntity
  8
Layer_2
 62
5
100
AcDbPolyline
 90
2
 70
0
 10
157.197273
 20
141.419920
 30
0.0
 10
157.148473
 20
187.607420
 30
0.0
  0
SPLINE
  5
147
100
AcDbEntity
  8
Layer_2
 62
5
100
AcDbSpline
 70
8
 71
3
 72
8
 73
4
 74
0
 40
0
 40
0
 40
0
 40
0
 40
1
 40
1
 40
1
 40
1
 10
150.138423
 20
193.246150
 30
0.0
 10
150.136426
 20
193.247488
 30
0.0
 10
150.134426
 20
193.248821
 30
0.0
 10
150.132423
 20
193.250150
 30
0.0
  0
SPLINE
  5
148
100
AcDbEntity
  8
Layer_2
 62
5
100
AcDbSpline
 70
8
 71
3
 72
8
 73
4
 74
0
 40
0
 40
0
 40
0
 40
0
 40
1
 40
1
 40
1
 40
1
 10
150.132423
 20
193.250150
 30
0.0
 10
149.292093
 20
193.255150
 30
0.0
 10
148.301593
 20
193.706730
 30
0.0
 10
146.366803
 20
194.789210
 30
0.0
  0
SPLINE
  5
149
100
AcDbEntity
  8
Layer_2
 62
5
100
AcDbSpline
 70
8
 71
3
 72
8
 73
4
 74
0
 40
0
 40
0
 40
0
 40
0
 40
1
 40
1
 40
1
 40
1
 10
146.366803
 20
194.789210
 30
0.0
 10
144.489573
 20
195.839510
 30
0.0
 10
142.063893
 20
197.329901
 30
0.0
 10
138.950783
 20
198.847806
 30
0.0
  0
SPLINE
  5
14a
100
AcDbEntity
  8
Layer_2
 62
5
100
AcDbSpline
 70
8
 71
3
 72
8
 73
4
 74
0
 40
0
 40
0
 40
0
 40
0
 40
1
 40
1
 40
1
 40
1
 10
138.950783
 20
198.847806
 30
0.0
 10
132.726993
 20
201.882436
 30
0.0
 10
123.724293
 20
204.992170
 30
0.0
 10
110.319923
 20
205.281400
 30
0.0
  0
LWPOLYLINE
  5
14b
100
AcDbEntity
  8
Layer_2
 62
5
100
AcDbPolyline
 90
4
 70
0
 10
151.841643
 20
193.242150
 30
0.0
 10
151.837643
 20
193.242150
 30
0.0
 10
150.138423
 20
193.250150
 30
0.0
 10
150.138423
 20
193.246150
 30
0.0
  0
SPLINE
  5
14c
100
AcDbEntity
  8
Layer_2
 62
5
100
AcDbSpline
 70
8
 71
3
 72
8
 73
4
 74
0
 40
0
 40
0
 40
0
 40
0
 40
1
 40
1
 40
1
 40
1
 10
150.134770
 20
190.197270
 30
0.0
 10
150.135770
 20
190.107570
 30
0.0
 10
150.098570
 20
190.226070
 30
0.0
 10
150.134770
 20
190.197270
 30
0.0
  0
LWPOLYLINE
  5
14d
100
AcDbEntity
  8
Layer_2
 62
5
100
AcDbPolyline
 90
2
 70
0
 10
110.319923
 20
205.281400
 30
0.0
 10
110.320310
 20
205.281250
 30
0.0
  0
LWPOLYLINE
  5
14e
100
AcDbEntity
  8
Layer_2
 62
5
100
AcDbPolyline
 90
1
 70
1
 10
150.134770
 20
190.197270
 30
0.0
  0
LWPOLYLINE
  5
14f
100
AcDbEntity
  8
Layer_2
 62
7
100
AcDbPolyline
 90
4
 70
1
 10
158.669250
 20
-397.706003
 30
0.0
 10
177.566888
 20
-397.706003
 30
0.0
 10
177.566888
 20
-416.603641
 30
0.0
 10
158.669250
 20
-416.603641
 30
0.0
  0
ENDSEC
  0
SECTION
  2
OBJECTS
  0
DICTIONARY
  5
C
330
0
100
AcDbDictionary
  3
ACAD_GROUP
350
D
  3
ACAD_MLINESTYLE
350
17
  0
DICTIONARY
  5
D
330
C
100
AcDbDictionary
  0
DICTIONARY
  5
1A
330
C
100
AcDbDictionary
  0
DICTIONARY
  5
17
330
C
100
AcDbDictionary
  3
STANDARD
350
18
  0
DICTIONARY
  5
19
330
C
100
AcDbDictionary
  0
ENDSEC
  0
EOF
