<?xml version="1.0" encoding="UTF-8" standalone="no"?>
<!-- Created with Inkscape (http://www.inkscape.org/) -->

<svg
   width="210mm"
   height="297mm"
   viewBox="0 0 210 297"
   version="1.1"
   id="svg44536"
   xmlns="http://www.w3.org/2000/svg"
   xmlns:svg="http://www.w3.org/2000/svg">
  <defs
     id="defs44533" />
  <g
     id="layer1">
    <path
       id="circle45641"
       style="fill:#000000;fill-opacity:1;stroke-width:1.88975;stroke-linejoin:round;stroke-opacity:0.662029"
       d="M 1842.8262 491.0957 A 360.10802 360.10802 0 0 0 1816.9512 497.21875 C 1817.8769 499.51481 1818.2998 501.78789 1818.0918 504.16211 C 1817.8389 507.05027 1818.5527 509.43165 1819.9453 510.34766 C 1821.191 511.16687 1822.8413 513.16752 1823.6133 514.79102 C 1824.3854 516.41459 1826.5558 518.21224 1828.4375 518.78711 C 1831.1265 519.60863 1832.9021 522.22608 1836.7305 531.01953 C 1839.4095 537.1729 1841.7344 544.21942 1841.8965 546.67773 C 1842.0586 549.13609 1843.5473 554.98249 1845.2051 559.66797 C 1846.8628 564.35341 1848.0983 568.50613 1847.9492 568.89648 C 1847.8003 569.28683 1848.6348 573.50491 1849.8008 578.26953 C 1850.9667 583.03419 1851.3788 588.21528 1850.7148 589.78125 C 1849.9888 591.49372 1850.2401 592.93863 1851.3477 593.4082 C 1852.3604 593.83756 1852.8155 595.06861 1852.3594 596.14453 C 1851.9032 597.22049 1852.4715 598.8264 1853.6211 599.71289 C 1854.7708 600.59938 1855.5155 602.64466 1855.2754 604.25977 C 1854.8949 606.8176 1856.4149 612.83129 1860.1582 623.57422 C 1860.7281 625.20973 1860.8405 627.38101 1860.4082 628.40039 C 1859.9761 629.41977 1860.3255 631.6678 1861.1855 633.39648 C 1862.0457 635.1252 1862.3662 637.44175 1861.8984 638.54492 C 1861.4307 639.64809 1861.932 643.99577 1863.0117 648.20703 C 1864.8321 655.30313 1864.7694 655.91157 1862.1602 656.52344 C 1858.2851 657.4323 1859.0641 660.85708 1863.3555 661.78125 C 1867.4975 662.67326 1871.2159 667.80472 1869.9258 670.84766 C 1868.4716 674.27762 1868.6747 677.50964 1870.3887 678.23633 C 1871.2448 678.59916 1871.5481 680.84575 1871.0625 683.22852 C 1870.3132 686.90656 1869.4959 687.75382 1865.6543 688.8418 C 1861.3642 690.05661 1861.0514 689.96138 1859.6582 687.02344 C 1858.8497 685.31891 1858.1896 681.80862 1858.1914 679.2207 C 1858.1952 670.47476 1855.7462 672.48698 1851.7129 684.53906 C 1849.1187 692.29125 1847.0916 696.52965 1845.1074 698.34961 C 1842.5609 700.68543 1842.4551 701.38443 1844.1484 704.67383 C 1846.5955 709.42991 1848.4102 710.19412 1851.4453 707.74805 C 1854.6499 705.16504 1854.6468 702.26143 1851.4336 699.18164 C 1848.1584 696.04165 1848.9207 694.07329 1853.3496 694.24023 C 1855.2333 694.31129 1857.384 693.93778 1858.1289 693.41016 C 1858.9922 692.7987 1860.6484 694.25459 1862.6953 697.42773 C 1866.3398 703.07684 1869.6343 704.99636 1871.8125 702.73828 C 1872.6305 701.89031 1874.4696 701.73224 1875.8984 702.38867 C 1878.4676 703.56868 1878.4607 703.58139 1875.2637 703.52148 C 1873.4857 703.48747 1871.732 704.17133 1871.3789 705.04297 C 1869.3133 710.06313 1870.1511 713.18954 1875.0332 718.66797 C 1880.3869 724.6753 1881.8549 728.81542 1880.8477 735.07031 C 1880.526 737.06878 1881.6753 742.41923 1883.4004 746.96094 C 1887.0815 756.65187 1887.7889 762.52109 1885.4746 764.16016 C 1882.6013 766.19505 1879.8912 761.11401 1881.043 755.85352 C 1881.6143 753.24447 1881.4126 750.46569 1880.5957 749.67773 C 1879.779 748.88985 1879.4213 747.51417 1879.8008 746.61914 C 1880.1802 745.72415 1879.5777 744.20873 1878.4629 743.25391 C 1877.3482 742.29905 1876.4699 740.57926 1876.5098 739.43164 C 1876.5495 738.28399 1875.2514 736.78133 1873.625 736.0918 C 1870.232 734.65323 1865.7646 736.29342 1867.2734 738.42383 C 1867.7958 739.16148 1867.7149 740.97776 1867.0879 742.45703 C 1866.4633 743.9374 1866.2887 747.42503 1866.6992 750.20703 C 1867.6398 756.57958 1867.5733 756.69698 1863.9531 755.16211 C 1860.5184 753.70586 1858.7833 754.47961 1859.2129 757.27344 C 1859.4431 758.77051 1860.58 759.0779 1864.2383 758.63672 C 1869.701 757.97791 1870.9599 759.45322 1867.3906 762.33008 C 1865.4926 763.85988 1863.927 763.8428 1860.793 762.25781 C 1858.9756 761.33881 1857.1638 760.91062 1855.9688 760.91211 C 1856.7811 766.1196 1856.9949 771.73963 1856.6641 777.86523 C 1856.0177 789.8254 1854.2597 797.32638 1849.8926 805.08789 C 1850.0197 804.97695 1850.2045 804.90541 1850.4531 804.88672 C 1850.9731 804.84761 1851.7322 805.01298 1852.623 805.39062 C 1854.3508 806.12314 1855.5304 807.276 1855.2441 807.95117 C 1854.958 808.62635 1853.6523 808.72172 1852.3418 808.16602 C 1851.0314 807.61046 1849.8517 806.45948 1849.7207 805.60742 C 1849.6912 805.41565 1849.7537 805.27828 1849.8477 805.16211 C 1848.6022 807.36759 1847.1818 809.58977 1845.4727 811.94922 C 1844.1984 813.70824 1842.9151 815.39042 1841.666 816.95898 C 1845.5748 819.14471 1846.7853 821.07121 1845.8027 823.38867 C 1845.1752 824.86873 1843.5832 826.70502 1842.2637 827.46875 C 1840.057 828.746 1839.6124 828.56632 1836.7246 825.23047 C 1836.3201 824.76319 1835.8402 824.43404 1835.3867 824.01953 C 1835.1529 824.24461 1834.8873 824.55738 1834.6582 824.76367 C 1833.6451 825.67586 1833.5675 826.63899 1830.2656 827.26562 C 1829.2494 827.45854 1828.6106 827.47109 1828.0449 827.43164 C 1828.0843 827.56521 1828.0509 827.70977 1828.1035 827.83984 C 1828.6233 829.12507 1827.9175 830.92389 1825.8965 833.47266 C 1824.7676 834.8963 1824.0732 836.149 1823.6621 837.39062 C 1825.6776 838.26281 1827.6245 839.21947 1829.5137 840.25586 C 1835.2542 837.28701 1843.7448 833.48825 1844.5879 833.8457 C 1845.3636 834.17452 1847.7442 833.79985 1849.877 833.01367 C 1850.9799 832.60713 1851.9044 832.38226 1852.752 832.35352 C 1853.0345 832.34393 1853.3089 832.35637 1853.5781 832.39062 C 1854.655 832.52782 1855.6552 833.01757 1856.8164 833.89453 C 1859.4815 835.90751 1859.5369 836.24644 1857.2422 836.49805 C 1855.792 836.65716 1854.2667 837.58912 1853.8516 838.56836 C 1853.4364 839.54748 1852.0273 839.89493 1850.7227 839.3418 C 1849.4179 838.78859 1847.5323 839.29227 1846.5312 840.46094 C 1845.5303 841.62945 1843.9184 842.24992 1842.9512 841.83984 C 1841.984 841.4298 1839.6201 841.72999 1837.6973 842.50781 C 1836.6891 842.91562 1835.5762 843.16672 1834.5742 843.27148 C 1864.2484 863.01006 1875.3843 903.52149 1858.1094 938.1875 C 1853.8647 946.70547 1847.9937 954.33199 1840.9355 960.96484 C 1840.2524 964.41006 1839.8741 967.48513 1840.3008 968.31055 C 1840.9015 969.47268 1841.0207 971.32493 1840.5547 972.42383 C 1840.0923 973.52412 1839.8862 976.45329 1840.0957 978.93164 C 1840.3055 981.41007 1839.2145 986.72049 1837.6719 990.73242 C 1835.6565 995.97398 1835.276 998.70997 1836.3184 1000.4551 C 1838.5042 1004.1148 1836.3912 1007.4039 1828.5938 1012.4844 C 1821.3276 1017.2185 1819.9276 1019.9218 1821.7949 1025.5957 C 1822.2759 1027.0571 1822.0114 1029.8772 1821.2031 1031.8613 C 1820.3948 1033.8454 1819.0199 1039.0745 1818.1445 1043.4824 C 1816.3818 1052.3583 1818.4689 1055.3469 1822.459 1049.6582 C 1824.7344 1046.4141 1824.752 1046.4557 1823.002 1050.9746 C 1821.6918 1054.3572 1820.6887 1055.4235 1819.3535 1054.8574 C 1818.2638 1054.3954 1817.029 1055.2032 1816.3359 1056.8379 C 1815.6893 1058.3559 1813.281 1060.9486 1810.9824 1062.5977 C 1807.6744 1064.9706 1806.8617 1066.233 1807.082 1068.6641 C 1807.3481 1071.5997 1807.506 1071.6868 1810.6445 1070.5957 C 1812.7999 1069.8464 1816.5119 1070.3878 1821.4473 1072.1699 L 1828.9668 1074.8848 L 1826.8867 1079.7871 C 1825.5496 1082.9409 1825.2809 1085.8549 1826.1328 1087.9609 C 1827.867 1092.2481 1821.2396 1109.4089 1817.4043 1110.5605 C 1814.3291 1111.4837 1811.4395 1118.1653 1812.3809 1122.1797 C 1813.0608 1125.0785 1813.3155 1125.0425 1816.9336 1121.5059 C 1819.9111 1118.5952 1821.1831 1118.1445 1822.6445 1119.4902 C 1825.5182 1122.1364 1826.6653 1124.7146 1825.8379 1126.666 C 1824.7528 1129.2253 1825.5526 1144.3791 1826.8008 1144.9082 C 1827.3815 1145.1543 1828.6361 1144.3851 1829.5918 1143.1973 C 1830.5474 1142.0093 1832.0645 1140.1195 1832.9629 1138.998 C 1833.9737 1137.7368 1833.9814 1134.9557 1832.9824 1131.7051 C 1831.5417 1127.0228 1831.7354 1125.8263 1834.7559 1120.7051 C 1836.6201 1117.5443 1840.0968 1113.5146 1842.4805 1111.752 C 1845.9256 1109.2042 1847.5384 1106.6976 1850.3535 1099.5254 C 1855.7673 1085.7324 1855.8405 1085.6164 1857.1641 1088.8887 C 1858.991 1093.4049 1861.172 1093.267 1868.9199 1088.1484 C 1877.8538 1082.2467 1879.035 1079.2368 1873.1328 1077.4062 C 1869.4115 1076.2521 1869.1314 1075.7966 1870.3594 1072.9004 C 1871.1108 1071.128 1873.3066 1068.366 1875.2402 1066.7617 C 1878.963 1063.6734 1879.3258 1061.2119 1875.8516 1062.6172 C 1873.1159 1063.7239 1867.1443 1061.1224 1867.2773 1058.8828 C 1867.3337 1057.9111 1869.9164 1051.8388 1873.0156 1045.3867 C 1877.3458 1036.3728 1879.0493 1033.8246 1880.375 1034.3867 C 1881.3239 1034.789 1882.0373 1036.8498 1881.957 1038.9648 C 1881.8773 1041.0802 1882.8491 1045.2812 1884.1172 1048.3008 C 1886.3431 1053.6014 1885.6788 1064.0873 1882.666 1071.1934 C 1882.0403 1072.6692 1882.4064 1076.5311 1883.4805 1079.7773 C 1885.9649 1087.2867 1891.2765 1091.1061 1898.3203 1090.4492 C 1903.1762 1089.9963 1903.387 1090.0951 1905.3809 1093.7168 C 1906.9828 1096.6263 1906.9684 1097.8112 1905.3223 1099.0879 C 1904.1605 1099.9886 1903.1765 1101.7162 1903.1348 1102.9258 C 1903.0713 1104.7546 1903.6267 1104.8202 1906.4336 1103.3262 C 1910.6782 1101.0669 1913.8957 1103.5158 1914.0117 1109.0938 C 1914.1943 1117.8581 1916.474 1122.4488 1921.8594 1124.9004 C 1924.7252 1126.2049 1926.9027 1127.9957 1926.8672 1129.0176 C 1926.8332 1130.0126 1927.5773 1131.1544 1928.5215 1131.5547 C 1929.4657 1131.955 1930.7642 1135.1138 1931.4062 1138.5723 C 1932.2972 1143.3707 1933.3717 1145.1987 1935.9434 1146.2891 C 1937.9839 1147.1542 1939.5085 1148.942 1939.8066 1150.8223 C 1940.1642 1153.0751 1941.6281 1154.4904 1945.1426 1155.9805 C 1948.6289 1157.4586 1950.465 1159.2182 1951.6953 1162.2598 C 1952.6356 1164.5842 1955.1144 1167.8415 1957.2012 1169.4961 C 1959.5066 1171.3241 1962.1234 1175.7018 1963.875 1180.6562 C 1965.4604 1185.1407 1967.923 1191.6353 1969.3457 1195.0898 C 1969.967 1196.5983 1970.3976 1198.0256 1970.7363 1199.4727 A 360.10802 360.10802 0 0 0 1980.9062 1197.834 C 1979.8979 1190.1865 1972.7701 1172.2812 1968.6738 1168.1543 C 1965.9378 1165.3977 1964.8057 1162.6282 1964.5859 1158.1543 C 1964.4189 1154.7514 1964.6935 1150.9946 1965.1973 1149.8066 C 1965.7814 1148.4289 1964.2756 1145.4895 1961.0371 1141.6895 C 1958.2446 1138.4127 1955.2675 1134.29 1954.4219 1132.5273 C 1952.1388 1127.7693 1945.0117 1119.7244 1941.9043 1118.3945 C 1940.4074 1117.7558 1937.9919 1115.4306 1936.5352 1113.2305 C 1935.0784 1111.0304 1932.9494 1108.8282 1931.8027 1108.3379 C 1926.9294 1106.2512 1916.2212 1070.6242 1918.7051 1064.7656 C 1919.2095 1063.576 1919.3916 1060.0744 1919.1094 1056.9824 C 1918.827 1053.8905 1919.3308 1049.6237 1920.2305 1047.502 C 1921.13 1045.3804 1921.3732 1042.6892 1920.7695 1041.5215 C 1920.1659 1040.3536 1920.0249 1037.6862 1920.457 1035.5938 C 1920.889 1033.5013 1920.7489 1030.5694 1920.1465 1029.0801 C 1919.544 1027.5908 1919.659 1024.9404 1920.4023 1023.1875 C 1921.1456 1021.4345 1921.9812 1016.3871 1922.2598 1011.9727 C 1922.5383 1007.5583 1923.3662 1002.5326 1924.0996 1000.8027 C 1924.833 999.07291 1925.1482 996.25052 1924.7988 994.53125 C 1924.4496 992.81198 1924.8668 988.88141 1925.7266 985.79883 C 1926.5863 982.71632 1926.8248 978.85663 1926.2559 977.2207 C 1925.5308 975.13508 1926.2539 971.81195 1928.6758 966.09961 C 1930.5754 961.61909 1932.348 954.993 1932.6152 951.37305 C 1932.9879 946.32462 1933.7039 944.23743 1935.6875 942.41797 C 1937.1099 941.11328 1938.6803 939.08855 1939.1758 937.91992 C 1940.0875 935.7696 1945.3172 933.50975 1950.4648 933.04102 C 1952.0119 932.90004 1955.1269 930.63605 1957.3867 928.00977 C 1959.6466 925.3836 1962.0323 922.62645 1962.6875 921.88086 C 1964.5542 919.75605 1968.8313 926.92485 1967.0645 929.2168 C 1965.9868 930.61454 1966.366 931.19315 1968.6797 931.69141 C 1970.9104 932.17175 1972.592 934.46062 1975.1152 940.45117 C 1977.3658 945.79467 1979.6144 949.03748 1981.7109 949.95508 C 1987.4723 952.48109 1989.9788 961.55919 1986.9102 968.79688 C 1985.1105 973.04169 1985.1647 973.18166 1988.4082 972.49023 C 1991.1235 971.9114 1992.286 972.31642 1994.3984 974.58398 C 1998.8409 979.35288 1999.436 980.63497 2008.7246 1005.4707 C 2010.4796 1010.163 2014.1291 1016.4618 2016.8359 1019.4707 C 2019.5428 1022.4797 2022.3725 1025.8017 2023.123 1026.8496 C 2031.6286 1038.7259 2033.2712 1040.2218 2047.1445 1048.75 C 2063.2903 1058.6751 2069.9649 1061.8591 2071.8398 1060.5312 C 2072.5433 1060.0331 2075.1198 1060.4755 2077.5684 1061.5137 C 2080.3916 1062.7106 2083.4171 1062.887 2085.834 1061.9961 C 2088.9589 1060.8441 2090.0009 1061.0344 2091.6309 1063.0566 C 2092.9268 1064.6644 2094.5426 1065.4401 2096.2715 1065.2832 C 2097.73 1065.1509 2100.304 1065.9676 2101.9922 1067.0977 C 2105.5935 1069.5084 2112.0968 1070.7791 2111.8262 1069.0195 C 2111.7234 1068.3492 2098.5259 1062.1355 2082.5 1055.2129 C 2066.4742 1048.2903 2051.4596 1041.4276 2049.1328 1039.9609 C 2043.4727 1036.3932 2031.8668 1025.7767 2029.0898 1021.627 C 2027.8607 1019.7903 2026.3525 1018.076 2025.7402 1017.8164 C 2023.0976 1016.696 1998.954 953.41891 1999.6816 949.51953 C 1999.8838 948.43462 1999.264 947.21307 1998.3008 946.80469 C 1994.6921 945.2747 2000.2632 934.88477 2005.6836 933.03711 C 2007.9413 932.26756 2010.753 930.36246 2011.9297 928.80469 C 2013.1063 927.24688 2014.8187 926.29149 2015.7344 926.67969 C 2019.5333 928.29037 2026.072 918.46495 2024.1211 914.07812 C 2023.5815 912.86442 2023.9792 910.62029 2025.0039 909.08984 C 2026.526 906.81582 2026.4157 906.29047 2024.3984 906.2207 C 2023.0407 906.17384 2020.3776 905.47619 2018.4805 904.67188 C 2015.7607 903.51878 2014.559 903.83296 2012.8027 906.1582 C 2011.9216 907.32469 2010.5625 908.34907 2009.2754 909.08398 C 2009.1434 909.91856 2008.9143 910.71235 2008.5684 911.44922 C 2009.3412 911.71789 2009.6834 911.90985 2011.2129 912.32812 L 2017.377 914.01367 L 2015.6133 918.13672 C 2013.6955 922.62128 2001.8939 932.39699 1999.5801 931.41602 C 1998.8029 931.08644 1996.8078 931.29076 1995.1445 931.86914 C 1992.3518 932.83984 1991.8811 932.58577 1989.0234 928.55078 C 1987.3213 926.1473 1984.9386 923.75887 1983.7246 923.24414 C 1982.8062 922.85478 1981.818 921.81585 1981.0566 920.72266 C 1972.2292 920.81663 1962.6433 919.63784 1953.7051 917.42773 L 1953.7051 918.38086 L 1953.043 918.14648 C 1952.7522 918.7223 1952.4123 919.33039 1951.8965 920.1543 C 1950.4454 922.4719 1947.2185 925.72388 1944.7246 927.38086 C 1942.2308 929.03777 1938.5438 930.81068 1936.5312 931.32031 C 1932.9856 932.21806 1932.8754 932.13058 1933.0117 928.51758 C 1933.1869 923.85359 1936.3646 916.27961 1939.5391 912.86523 C 1914.4269 900.66183 1898.8705 873.60112 1893.6992 841.04883 C 1889.1768 812.58098 1892.3629 779.5859 1903.957 747.11914 C 1903.4205 744.77092 1903.1461 742.79984 1903.457 742.06641 C 1903.8297 741.18763 1903.2616 738.51206 1902.1953 736.12109 C 1899.7348 730.60382 1899.7636 730.67896 1895.4082 718.82031 C 1893.3976 713.3457 1891.7676 706.95442 1891.7871 704.61523 C 1891.806 702.27605 1891.3375 700.15586 1890.7441 699.9043 C 1890.1508 699.65258 1889.9261 698.83231 1890.2441 698.08203 C 1890.5624 697.3318 1889.7295 693.14209 1888.3965 688.77148 C 1887.0634 684.40091 1886.2701 680.1251 1886.6328 679.26953 C 1886.9956 678.414 1886.0021 674.61066 1884.4238 670.81836 C 1882.8455 667.02606 1881.8445 663.2389 1882.1992 662.40234 C 1882.5537 661.56582 1881.6361 658.34982 1880.1602 655.25586 C 1878.684 652.1619 1877.6545 649.21198 1877.8711 648.70117 C 1878.0877 648.19037 1877.8665 646.57653 1877.3809 645.11328 C 1876.8956 643.65 1876.2279 638.91606 1875.8965 634.59375 C 1875.565 630.27156 1874.5836 626.43281 1873.7148 626.06445 C 1872.8461 625.69595 1872.3374 624.01493 1872.5859 622.32812 C 1872.8346 620.64141 1872.0466 616.51089 1870.834 613.14844 C 1868.6103 606.98289 1868.8199 596.19973 1871.1953 594.51758 C 1872.957 593.2698 1874.246 585.73882 1872.8027 585.12695 C 1872.16 584.85445 1870.9115 585.46638 1870.0293 586.48633 C 1865.5762 591.63522 1865.5797 591.63301 1865.6914 589.36719 C 1865.7485 588.20445 1864.6559 584.4288 1863.2637 580.97461 C 1861.8713 577.52035 1859.8008 571.09553 1858.6641 566.69922 C 1857.5274 562.30302 1855.6109 554.85678 1854.4043 550.14844 C 1851.7862 539.93245 1850.6306 528.49654 1851.9102 525.47852 C 1852.4181 524.28048 1852.1919 521.18536 1851.4082 518.60156 C 1850.6244 516.01773 1849.834 511.88648 1849.6523 509.41992 C 1849.3602 505.45508 1845.9219 496.6092 1842.8262 491.0957 z M 2020.5742 501.02148 C 2017.4952 503.01999 2015.2754 507.80653 2015.0781 513.04492 C 2014.9651 516.04337 2014.3184 517.18218 2012.1758 518.17578 C 2008.8342 519.72554 2007.8511 521.68999 2009.5605 523.39648 C 2011.8534 525.68537 2013.8037 526.18639 2014.6543 524.70508 C 2015.1141 523.90431 2016.3486 521.65818 2017.3965 519.71289 C 2018.4442 517.76753 2020.8532 513.55031 2022.752 510.3418 C 2025.3468 505.95717 2025.8164 504.26409 2025.0039 502.33789 A 360.10802 360.10802 0 0 0 2020.5742 501.02148 z M 2099.291 536.44141 C 2098.7872 537.76326 2098.8385 539.03564 2099.4824 539.30859 C 2100.1577 539.5947 2101.0484 539.03332 2101.4609 538.06055 C 2101.495 537.97626 2101.4756 537.86692 2101.5059 537.77734 A 360.10802 360.10802 0 0 0 2099.291 536.44141 z M 1895.707 552.64453 C 1894.0515 552.91099 1893.7079 553.72099 1893.7988 557.14648 L 1893.7969 557.14453 C 1893.8781 560.20618 1894.2455 560.81412 1895.1777 559.42578 C 1896.9766 556.74636 1897.5805 554.07994 1896.8652 553.05859 C 1896.6271 552.71806 1896.2436 552.55881 1895.707 552.64453 z M 1891.8164 566.73047 C 1891.2234 566.64278 1890.511 566.74061 1889.709 567.06641 C 1888.5157 567.54905 1886.8122 567.88678 1885.9258 567.81641 C 1884.3185 567.68866 1878.6867 578.03079 1878.5273 581.40039 C 1878.4812 582.37649 1878.7998 583.32443 1879.2344 583.50781 C 1880.7616 584.15245 1891.8876 574.64676 1893.1836 571.58984 C 1894.3052 568.9444 1893.5953 566.99326 1891.8164 566.73047 z M 1677.25 571.92578 A 360.10802 360.10802 0 0 0 1669.498 578.95508 C 1669.9519 579.28163 1669.9091 579.21119 1670.3965 579.5625 C 1674.6676 582.63866 1679.2647 585.63221 1680.6094 586.21875 C 1685.4503 588.3233 1695.5569 607.32546 1693.9062 611.21875 C 1693.5446 612.07209 1694.0801 614.6538 1695.0957 616.95508 C 1696.1112 619.25643 1696.6228 621.88845 1696.2344 622.80469 C 1695.8459 623.72092 1696.242 625.15592 1697.1094 625.99414 C 1697.9781 626.83225 1698.8365 629.45833 1699.0176 631.82812 C 1699.1986 634.19789 1699.8913 636.36749 1700.5586 636.65039 C 1701.9401 637.23614 1710.6337 653.24465 1711.709 657.18359 C 1712.348 659.52471 1712.7163 659.62151 1715.4414 658.16602 C 1717.5401 657.04505 1718.443 657.09565 1718.3906 658.33008 C 1718.2961 660.56631 1720.9522 661.7343 1724.7578 661.13086 C 1727.1074 660.7582 1728.1464 661.34916 1729.9922 664.10742 C 1732.975 668.56477 1732.1479 670.31167 1727.8945 668.53711 C 1723.3997 666.66016 1720.1832 667.31593 1720.0859 670.12695 C 1719.9877 672.96995 1726.8553 676.11124 1731.25 675.23242 C 1737.015 674.07778 1746.4657 676.30661 1750.4238 679.75195 C 1757.7591 686.1369 1758.8707 687.57013 1758.4922 690.1582 C 1758.2794 691.61366 1759.4774 694.66006 1761.1543 696.92773 C 1763.7259 700.40513 1764.6525 700.94528 1767.0762 700.37695 C 1769.4419 699.82166 1770.2735 700.17412 1771.7773 702.37305 C 1772.782 703.84222 1776.1026 706.56204 1779.1562 708.41602 C 1781.4207 709.79068 1783.6116 711.90554 1785.2305 713.86523 C 1787.3862 713.79832 1789.7629 713.69166 1791.6191 713.68555 C 1797.1333 713.66738 1801.4543 713.94749 1805.3867 714.64648 C 1804.8472 713.17319 1803.0235 711.22891 1800.9766 710.125 C 1798.78 708.94042 1793.7626 705.57229 1789.8281 702.64062 C 1785.8937 699.70901 1780.4868 696.04377 1777.8125 694.49609 C 1775.1383 692.94853 1772.4428 690.22479 1771.8242 688.44531 C 1771.1334 686.45807 1769.0709 684.52182 1766.4766 683.42188 C 1762.3004 681.65128 1761.2157 680.61443 1752.8184 670.37891 C 1750.4167 667.45151 1746.0142 663.93779 1742.834 662.41211 C 1739.7048 660.91096 1734.7531 657.98253 1731.832 655.90625 C 1728.9111 653.83 1723.535 650.11618 1719.8848 647.65234 C 1715.7528 644.86328 1712.7082 641.73104 1711.8184 639.35156 C 1711.0322 637.24954 1709.5685 634.75893 1708.5664 633.81836 C 1707.5645 632.87786 1706.7912 630.64414 1706.8477 628.85352 C 1707.2399 616.43618 1706.6378 611.92633 1703.5312 604.02148 C 1698.9145 592.27399 1694.8847 585.60957 1690.7266 582.84375 C 1685.9087 579.63898 1681.409 575.81851 1677.25 571.92578 z M 1806.6875 575.02148 C 1806.5038 575.09594 1806.2328 575.49075 1805.9004 576.19336 C 1805.2985 577.46494 1805.2827 578.31306 1805.8633 578.07812 C 1806.4443 577.84305 1806.9359 576.80208 1806.957 575.76562 C 1806.9684 575.19296 1806.8712 574.94718 1806.6875 575.02148 z M 1819.4766 580.74023 C 1818.726 580.76803 1817.7754 580.887 1816.5137 581.04688 C 1807.7339 582.15884 1804.9587 591.8459 1812.2168 596.04492 C 1814.2949 597.24704 1816.6615 598.61898 1817.4766 599.0918 C 1819.3361 600.17127 1823.9707 595.44289 1825.1836 591.23242 C 1825.6866 589.48636 1825.089 586.33642 1823.8535 584.23047 C 1822.7401 582.33311 1822.1659 581.37818 1821.2402 580.97656 C 1820.7773 580.77619 1820.2271 580.71244 1819.4766 580.74023 z M 2167.082 589.5625 L 2167.0801 589.56445 C 2166.1928 590.24057 2165.2791 591.16772 2164.543 592.27539 C 2163.1664 594.34748 2161.1374 596.01263 2160.0371 595.97461 C 2158.9046 595.9353 2157.3226 597.58882 2156.3906 599.78711 C 2155.1909 602.6168 2153.1518 604.26277 2148.873 605.84961 C 2144.5136 607.46623 2142.1722 609.38182 2139.7773 613.28906 C 2138.0032 616.18358 2135.7138 618.52354 2134.6914 618.48828 C 2133.6692 618.45427 2131.7659 619.92585 2130.4629 621.76172 C 2129.16 623.5977 2127.0233 625.42097 2125.7129 625.81445 C 2124.4025 626.20798 2122.8685 627.61736 2122.3047 628.94727 C 2121.7408 630.27724 2119.58 632.30309 2117.502 633.44727 C 2115.4238 634.59137 2113.382 636.33436 2112.9648 637.31836 C 2112.5477 638.30236 2110.5059 640.04141 2108.4277 641.18555 C 2106.3496 642.32969 2104.3818 643.8963 2104.0547 644.66797 C 2103.7274 645.4396 2101.9538 646.54918 2100.1133 647.13281 C 2098.2728 647.71656 2096.2034 649.52228 2095.5156 651.14453 C 2094.8278 652.76678 2093.3006 654.06027 2092.123 654.01953 C 2090.9456 653.97871 2089.4379 655.23094 2088.7715 656.80273 C 2087.5795 659.61429 2084.8689 661.56994 2076.7812 665.44531 C 2074.5323 666.52301 2072.3035 668.31689 2071.8301 669.43359 C 2071.3567 670.55029 2070.1214 671.80681 2069.084 672.22656 C 2068.0464 672.6462 2065.6958 675.0838 2063.8613 677.64258 C 2063.6081 677.99577 2063.1734 678.3802 2062.8672 678.75195 L 2061.1113 685.67383 L 2055.5801 685.1582 C 2052.4651 686.88041 2051.0479 686.80491 2046.7871 684.73242 C 2046.3358 684.51288 2046.0205 684.40482 2045.625 684.22852 L 2039.1816 683.62891 C 2038.7802 683.80099 2038.398 683.93549 2037.9453 684.19141 C 2033.7541 686.56064 2030.5954 692.96958 2032.1426 695.96289 C 2032.7538 697.14532 2032.4107 699.26872 2031.3574 700.8418 C 2029.9079 703.0072 2028.4241 703.38421 2024.6875 702.53711 C 2017.9726 701.01468 2016.5443 701.6966 2012.6074 708.29883 C 2008.4968 715.19261 1998.4521 720.30354 1994.6992 717.41016 C 1989.7875 713.62345 1986.7704 716.08611 1986.4922 724.11133 L 1986.3516 728.12891 L 1989.5996 725.48242 C 1991.386 724.02575 1993.2363 723.38067 1993.7109 724.05078 C 1995.219 726.18017 1992.7021 729.93754 1989.5781 730.2207 C 1987.2424 730.43236 1986.0344 731.75016 1984.1953 736.08789 C 1982.6116 739.82327 1980.566 742.37274 1978.043 743.76172 C 1977.9848 743.79373 1977.924 743.87567 1977.8652 743.91016 C 1981.0318 743.2898 1984.6476 743.14262 1989.3223 743.14258 L 1989.3242 743.14258 C 1996.5644 743.1427 2003.532 743.8621 2010.1719 745.18555 C 2010.8303 744.47965 2011.4287 743.60496 2011.8027 742.72266 C 2012.5584 740.9501 2014.9794 738.30827 2017.1797 736.85156 C 2019.3798 735.39478 2021.8406 732.66891 2022.6367 730.79102 C 2023.4364 728.91463 2025.0062 727.41243 2026.125 727.45117 C 2027.244 727.48972 2029.4206 725.55157 2030.959 723.14258 C 2032.4976 720.73358 2034.6254 718.79128 2035.6895 718.82812 C 2036.7534 718.86592 2039.0468 716.5737 2040.7871 713.73438 C 2042.5274 710.89508 2044.8491 708.60273 2045.9453 708.64062 C 2047.0416 708.67842 2048.2686 707.93174 2048.6719 706.98047 C 2049.0752 706.02924 2050.4216 704.94396 2051.666 704.57031 C 2052.9103 704.19652 2057.3962 699.99252 2061.6328 695.22461 C 2065.8695 690.4567 2070.2719 686.42924 2071.416 686.27734 C 2072.5603 686.12541 2073.7811 685.33015 2074.1289 684.50977 C 2074.4766 683.68938 2076.7397 681.42539 2079.1582 679.47852 C 2081.5767 677.53164 2083.8132 675.33367 2084.127 674.59375 C 2084.4407 673.85387 2086.3965 672.31211 2088.4746 671.16797 C 2090.5527 670.02379 2092.5945 668.28086 2093.0117 667.29688 C 2093.4289 666.31291 2095.4707 664.5739 2097.5488 663.42969 C 2099.627 662.28559 2101.7389 660.3784 2102.2422 659.19141 C 2102.7454 658.00437 2104.0847 657.06428 2105.2188 657.10352 C 2106.3529 657.14282 2108.4823 655.36793 2109.9492 653.16016 C 2111.4162 650.95238 2113.0405 649.32721 2113.5586 649.54688 C 2114.0766 649.76646 2115.9862 648.45719 2117.8027 646.63867 C 2119.6193 644.82015 2122.0164 643.19848 2123.1289 643.0332 C 2124.2415 642.86804 2125.5715 641.73888 2126.0859 640.52539 C 2126.6004 639.31197 2128.6673 637.51379 2130.6777 636.5293 C 2132.6881 635.54488 2134.7368 633.78542 2135.2305 632.62109 C 2135.7241 631.45677 2137.3249 630.14475 2138.7891 629.70508 C 2140.2533 629.26541 2142.4219 627.98952 2143.6094 626.86719 C 2144.7969 625.74486 2146.6407 624.21616 2147.7051 623.47266 C 2148.7695 622.72915 2152.0739 619.89516 2155.0488 617.17383 C 2158.0237 614.45249 2161.9975 611.32454 2163.8789 610.22266 C 2165.7601 609.12066 2167.6086 607.4906 2167.9863 606.59961 C 2168.3643 605.70859 2170.6758 604.16962 2173.123 603.17969 C 2175.3689 602.27116 2177.415 602.20751 2179.625 602.74609 A 360.10802 360.10802 0 0 0 2167.082 589.5625 z M 1982.5859 595.51172 C 1982.425 595.51125 1982.2463 595.54702 1982.0508 595.62695 C 1981.4739 595.86053 1981.1369 596.93594 1981.3027 598.01562 L 1981.3027 598.01758 C 1981.5461 599.59542 1981.8345 599.71772 1982.7793 598.64648 C 1983.7903 597.50008 1983.7547 596.0191 1983.0137 595.61719 L 1983.0137 595.61523 C 1982.8901 595.54853 1982.7469 595.51219 1982.5859 595.51172 z M 2036.4824 605.40234 C 2031.3152 605.8707 2026.1367 623.76344 2028.4941 633.00586 C 2029.1822 635.70312 2029.5832 639.46977 2029.3848 641.37695 C 2029.2951 642.23849 2029.4582 642.95213 2029.4824 643.87109 C 2034.1659 644.05759 2038.814 644.36618 2043.0117 644.83984 C 2043.2064 644.44803 2043.4441 644.15587 2043.6211 643.73828 C 2044.8791 640.77116 2047.6948 636.76263 2049.877 634.83008 C 2052.8307 632.21404 2053.7362 630.64168 2053.4219 628.67969 C 2052.841 625.05414 2048.684 622.80789 2044.0938 623.63867 C 2041.0257 624.19392 2040.4055 623.99741 2040.9766 622.65039 C 2041.3687 621.72539 2041.1238 619.22712 2040.4336 617.09766 C 2039.7435 614.96823 2039.5657 612.3151 2040.0371 611.20312 C 2041.0722 608.76182 2040.3531 606.55642 2038.5801 605.72852 C 2037.9888 605.45337 2037.2818 605.32963 2036.4824 605.40234 z M 1972.832 614.69531 C 1971.3992 614.48404 1970.0708 616.69551 1969.9297 620.21289 C 1969.8288 622.7256 1970.1762 624.96206 1970.7031 625.18555 C 1972.1773 625.81053 1975.3756 617.3294 1974.2598 615.75391 C 1973.7993 615.10375 1973.3098 614.76576 1972.832 614.69531 z M 1973.873 641.15625 C 1973.4099 640.98448 1972.7815 641.14928 1971.9902 641.67578 C 1969.9707 643.01977 1964.5269 658.04817 1963.6543 663.72852 C 1966.4371 661.76247 1969.2756 659.87669 1972.1973 658.11914 C 1972.4158 655.78191 1972.8119 653.27108 1973.4492 651.08203 C 1975.1577 645.21312 1975.2624 641.67157 1973.873 641.15625 z M 2138.5605 650.25391 C 2136.6783 650.54813 2133.3983 653.61919 2133.6406 655.19531 C 2133.9445 657.17257 2136.9092 658.40299 2138.5566 657.23633 C 2140.1975 656.07424 2140.724 650.92888 2139.2656 650.31055 C 2139.0681 650.22681 2138.8294 650.21187 2138.5605 650.25391 z M 2018.3672 654.59766 C 2004.8731 654.6672 2000.1174 656.07837 1987.5957 662.20703 C 1960.4279 675.50405 1938.9415 697.6592 1923.7949 728.32031 C 1905.1464 766.07042 1899.3052 806.50453 1904.5195 839.32812 C 1909.7339 872.1517 1925.6448 896.80673 1950.0586 905.45508 C 1959.576 908.82638 1973.1064 910.28455 1983.7207 909.75977 C 1989.0279 909.49739 1993.6582 908.714 1996.418 907.75781 C 1997.3972 907.41856 1997.7457 907.16244 1998.1523 906.91602 C 1997.914 904.27738 1996.8945 900.80606 1995.1328 898.14648 C 1993.18 895.19834 1990.5325 894.18359 1991.2578 894.18359 C 1988.433 894.18359 1985.7819 893.4915 1982.6426 892.54492 C 1979.5033 891.59838 1976.1371 890.33121 1973.0684 888.875 C 1955.9428 880.74841 1946.5787 857.32849 1942.293 829.8418 C 1938.0072 802.35511 1939.4598 770.15802 1948.502 742.92773 C 1956.6307 718.44823 1968.2576 699.85124 1983.4844 687.80664 C 1998.7111 675.76208 2017.4866 670.58911 2038.4727 672.54883 L 2052.793 673.89258 L 2054.6758 666.48047 C 2055.9384 661.50688 2055.9877 659.23977 2056.125 659.16992 C 2055.6319 658.88778 2054.6857 658.42871 2053.0508 657.77148 C 2052.175 657.41938 2047.5875 656.39186 2042.3027 655.77734 C 2037.018 655.16283 2030.6767 654.72982 2024.7344 654.64062 C 2022.4019 654.60567 2020.2949 654.58772 2018.3672 654.59766 z M 1715.3652 661.0957 C 1714.9391 661.14546 1714.2528 662.35879 1713.166 664.89648 C 1711.9202 667.80585 1709.8675 671.02257 1708.6016 672.04297 C 1707.3353 673.06325 1706.4049 674.58153 1706.5332 675.41602 C 1706.8458 677.44895 1712.2673 679.6584 1713.9746 678.44922 C 1714.7226 677.91959 1714.8622 676.13579 1714.2891 674.48633 C 1713.7156 672.83675 1713.9277 669.87078 1714.75 667.89258 C 1715.5758 665.91581 1716.067 663.24537 1715.8418 661.95508 C 1715.767 661.52637 1715.6666 661.25299 1715.5312 661.14648 C 1715.4806 661.10656 1715.4261 661.08859 1715.3652 661.0957 z M 1834.498 705.1875 C 1833.1001 704.61582 1831.5645 705.12035 1830.9512 707.13477 C 1828.5713 714.95019 1818.5542 720.15682 1814.8164 715.51953 C 1813.2852 713.61975 1812.3721 713.61057 1809.6016 715.46484 C 1809.5055 715.52914 1809.5088 715.49647 1809.418 715.55664 C 1814.1514 716.83662 1818.7023 718.85194 1824.6562 721.91211 C 1825.0049 722.09131 1825.2877 722.29367 1825.6309 722.47461 C 1826.1619 721.53534 1826.9582 720.43985 1828.043 719.04883 C 1830.2625 716.20288 1833.257 713.7673 1834.6973 713.63672 C 1836.897 713.43754 1837.2992 712.80559 1837.2168 709.69727 C 1837.1561 707.40706 1835.8959 705.75918 1834.498 705.1875 z M 1810.1953 706.8457 C 1809.9315 706.84948 1809.6926 707.02918 1809.541 707.38672 C 1809.2379 708.10169 1809.5417 708.92081 1810.2168 709.20703 C 1810.8919 709.49314 1811.5475 709.48381 1811.6738 709.1875 C 1811.8001 708.88967 1811.4943 708.07067 1810.9961 707.36719 C 1810.747 707.01531 1810.4594 706.84192 1810.1953 706.8457 z M 1794.3809 724.50586 C 1790.8005 724.5175 1786.411 724.69937 1780.6602 724.95312 C 1759.9854 725.86558 1754.5633 727.12442 1742.127 733.90039 C 1738.0059 736.14585 1733.7131 738.75972 1730.2266 741.09766 C 1726.74 743.4356 1723.844 745.83031 1723.4785 746.23438 C 1722.7475 747.04209 1722.5106 747.4097 1722.3496 747.65234 C 1722.4154 747.68655 1723.2577 749.62947 1726.0859 753.46289 L 1729.6211 758.25391 L 1733.7109 755.27734 C 1740.7678 750.13681 1750.5673 747.57377 1760.5078 746.75195 C 1770.4483 745.93017 1780.4449 746.83485 1788.1367 750.8125 C 1803.9509 758.99023 1811.4055 780.98136 1808.5488 802.51562 L 1807.2793 812.12695 L 1815.1777 814.01562 C 1818.5518 814.82157 1821.9344 815.50241 1824.5527 815.93555 C 1825.7865 816.13957 1826.8107 816.26753 1827.5781 816.34766 C 1828.1237 815.83738 1828.836 815.13398 1829.7129 814.15625 C 1831.6792 811.9639 1834.1761 808.85425 1836.5918 805.51953 C 1843.69 795.72092 1844.9327 791.89218 1845.7227 777.27539 C 1846.3743 765.20978 1844.8089 756.62482 1840.8594 749.71875 C 1836.9098 742.81272 1830.3303 737.14923 1819.6426 731.65625 C 1808.5769 725.96879 1805.1219 724.47093 1794.3809 724.50586 z M 1867.8086 725.16602 C 1867.1859 725.21464 1866.7324 726.20334 1865.791 728.42383 C 1863.9049 732.87245 1865.1305 733.72561 1868.7285 730.46875 C 1870.8573 728.54176 1871.0839 727.7854 1869.8789 726.62305 C 1869.3078 726.07222 1868.8713 725.66283 1868.5117 725.41992 C 1868.242 725.23773 1868.0162 725.14981 1867.8086 725.16602 z M 1989.3223 754.10352 C 1983.6411 754.10352 1980.1267 754.49467 1978.4648 755.02539 C 1976.8029 755.55607 1976.8356 755.60313 1976.1016 756.97461 C 1974.5887 759.80113 1973.6768 764.43237 1973.7773 767.73828 C 1973.8176 769.06304 1974.0429 769.83229 1974.2051 770.38867 C 1995.0858 771.55636 2015.6805 786.88089 2023.0137 807.09766 C 2025.9127 815.0813 2026.9704 826.51899 2026.9629 837.98438 C 2026.9557 849.44971 2026.0003 860.37516 2022.8887 867.82227 C 2021.2303 871.79092 2020.7818 873.52869 2020.9023 875.49219 C 2021.023 877.45573 2021.9416 880.41057 2024.2383 885.81836 C 2025.6139 889.05741 2027.1622 892.02995 2028.3945 893.97656 L 2028.418 894.00586 C 2029.119 893.4991 2029.7914 893.03862 2030.7207 892.20508 C 2033.4016 889.80047 2036.7282 886.21928 2040.0215 882.17969 C 2046.6081 874.10046 2053.1625 863.89449 2055.457 857.76172 C 2062.6065 838.65315 2062.4275 805.26059 2055.9297 790.95508 C 2045.5354 768.07083 2021.1061 754.10352 1989.3242 754.10352 L 1989.3223 754.10352 z M 1964.8438 755.42969 C 1964.3851 756.04114 1963.9279 756.55968 1963.4746 757.62891 C 1962.2336 760.55607 1961.1268 761.60283 1959.8477 761.06055 C 1958.4582 760.47143 1957.3718 761.77787 1955.4219 766.37695 C 1954.732 768.00405 1954.0296 769.19443 1953.3027 770.18945 C 1950.2553 789.52135 1950.304 810.07978 1953.123 828.16016 C 1956.9126 852.46374 1966.1657 871.65935 1975.9531 877.94531 C 1979.1525 871.65709 1981.0397 865.69919 1980.0332 863.75195 C 1979.3769 862.48211 1979.1107 860.80545 1979.4414 860.02539 C 1980.545 857.42262 1986.2249 856.55007 1989.1816 858.5293 C 1993.1175 861.16385 1996.9273 858.19022 1995.8848 853.29883 C 1994.4409 846.52505 1988.0022 840.39842 1978.1562 836.42969 C 1969.1549 832.8013 1969.1365 832.78376 1969.9277 828.95117 C 1970.3639 826.83876 1970.2286 824.15608 1969.625 822.98828 C 1968.2741 820.37478 1969.5667 817.03319 1972.3672 815.90039 C 1973.9941 815.24226 1973.9677 813.77755 1972.252 809.33789 C 1969.7611 802.89278 1970.8408 798.94977 1976.3984 794.20117 C 1979.8213 791.27657 1980.0841 790.6568 1979.8789 785.99219 C 1979.8376 785.05426 1980.0237 783.7091 1980.3398 782.18164 C 1977.4819 781.40537 1974.6342 780.95755 1971.8867 780.94531 C 1968.1109 780.92951 1965.374 777.90785 1964.3066 775.51953 C 1963.2392 773.13125 1962.9016 770.69477 1962.8223 768.07812 C 1962.6995 764.03764 1963.3045 759.61126 1964.8438 755.42969 z M 1660.4902 756.88672 C 1657.4388 757.09624 1656.193 760.00791 1656.6367 765.81641 C 1657.0264 770.91767 1658.5428 771.87029 1663.7539 770.29102 C 1670.836 768.14466 1670.7114 760.58069 1664.7949 757.82031 C 1663.95 757.42516 1662.9877 757.13116 1661.9102 756.96289 C 1661.4002 756.88317 1660.9262 756.85679 1660.4902 756.88672 z M 1689.8281 760.0293 C 1688.84 760.0104 1689.4119 760.58524 1691.0996 761.30078 C 1692.7875 762.0164 1693.5961 762.02823 1692.8965 761.33008 C 1692.1969 760.63158 1690.8166 760.04646 1689.8281 760.0293 z M 1683.3203 761.24023 C 1682.8013 761.2402 1682.3065 761.54559 1682.0918 762.05273 C 1681.8057 762.72783 1682.1215 763.51456 1682.7969 763.80078 C 1683.4721 764.08689 1684.2607 763.76719 1684.5469 763.09375 C 1684.833 762.41854 1684.5121 761.63196 1683.8379 761.3457 C 1683.6691 761.27418 1683.4933 761.24025 1683.3203 761.24023 z M 1707.3652 761.27148 C 1704.9406 761.41884 1704.7229 763.30935 1708.7305 766.38477 C 1711.2542 768.32151 1711.9984 770.30945 1711.8789 774.7832 C 1711.7852 778.29506 1712.6192 781.33417 1713.959 782.36719 C 1715.1889 783.31528 1715.8706 784.85503 1715.4746 785.78906 C 1715.0786 786.72302 1715.3053 787.72159 1715.9805 788.00781 C 1716.6557 788.29392 1717.5608 787.70041 1717.9902 786.6875 C 1718.4196 785.67474 1718.218 784.61247 1717.543 784.32617 C 1716.8679 784.04006 1717.2416 781.62196 1718.373 778.95312 C 1721.5529 771.453 1720.9128 767.38089 1716.0762 764.35156 C 1714.0168 763.06169 1712.0826 762.2031 1710.4512 761.72461 C 1709.2275 761.36572 1708.1734 761.22237 1707.3652 761.27148 z M 1678.0664 763.38672 C 1676.0824 763.20577 1674.113 765.2419 1673.252 768.54102 C 1672.6867 770.70691 1672.9374 772.53797 1673.8066 772.61133 C 1675.6549 772.76704 1680.4752 764.26539 1678.9141 763.60352 C 1678.6332 763.48443 1678.3498 763.41257 1678.0664 763.38672 z M 1643.5234 766.99805 C 1641.7196 766.80556 1641.4874 768.51801 1642.3301 772.4707 C 1643.2787 776.92136 1646.511 777.81058 1650.2168 774.64258 C 1651.7475 773.33399 1652.9233 772.13615 1652.8301 771.98047 C 1652.7367 771.82475 1650.4388 770.40119 1647.7246 768.81836 C 1646.3573 768.02107 1645.2568 767.47495 1644.3945 767.19727 C 1644.0712 767.09307 1643.7811 767.02555 1643.5234 766.99805 z M 1881.8965 767.69531 C 1881.9582 767.72129 1881.9965 767.78013 1882.0117 767.87305 C 1882.0729 768.24457 1881.7642 769.16719 1881.1055 770.75977 C 1879.2941 775.14542 1878.4454 775.59295 1878.5664 772.09375 C 1878.6095 770.84885 1879.5691 769.13646 1880.7012 768.29102 C 1881.3151 767.83245 1881.7113 767.61739 1881.8965 767.69531 z M 1871.3379 768.54297 C 1871.5024 768.53909 1871.6693 768.56938 1871.8281 768.63672 C 1872.4634 768.9062 1873.0897 769.82372 1873.2207 770.67578 C 1873.3519 771.52788 1872.5974 771.86031 1871.5449 771.41406 C 1870.4924 770.96785 1869.8661 770.05017 1870.1523 769.375 C 1870.3669 768.86862 1870.8445 768.55461 1871.3379 768.54297 z M 1789.6016 773.26562 C 1788.1973 773.21916 1786.4461 773.24551 1784.1582 773.29297 C 1778.9087 773.40182 1773.983 773.93711 1773.2129 774.48242 C 1772.4431 775.02781 1770.5533 774.9389 1769.0117 774.28516 C 1767.1653 773.50234 1762.8996 774.59344 1756.5137 777.48633 C 1751.1824 779.9016 1745.416 781.73771 1743.6973 781.56445 C 1738.5297 781.04356 1739.3662 783.12466 1744.8145 784.34375 C 1747.6049 784.96809 1751.5891 784.789 1753.6699 783.94727 C 1755.7507 783.10556 1758.3341 782.79066 1759.4082 783.24609 C 1760.4824 783.70153 1764.4712 783.0881 1768.2734 781.88281 C 1772.0758 780.67767 1776.7003 780.00931 1778.5488 780.39648 C 1780.3973 780.78362 1783.8299 781.28633 1786.1797 781.51367 C 1791.0687 781.98668 1793.5032 782.9563 1797.4473 786.50195 C 1796.7675 782.03202 1795.5518 777.86012 1793.9473 774.14258 C 1792.8182 773.64718 1791.579 773.33105 1789.6016 773.26562 z M 1667.7988 773.84375 C 1667.2229 773.84245 1666.8649 774.05428 1666.6875 774.47266 C 1666.3194 775.34108 1664.3252 776.79874 1662.2539 777.71289 L 1658.4883 779.375 L 1659.623 784.51172 L 1660.7578 789.64453 L 1664.8652 787.61328 C 1668.376 785.87636 1669.0749 785.93197 1669.6953 787.99805 C 1670.1004 789.34722 1672.4033 791.21396 1674.9082 792.22461 C 1678.6922 793.75131 1679.0503 793.69347 1677.207 791.85352 C 1676.005 790.65374 1674.9015 788.88593 1674.7539 787.92578 C 1674.2778 784.82914 1678.1447 781.19873 1682.0293 781.0957 C 1684.1081 781.04052 1685.7027 780.30152 1685.5723 779.45312 C 1685.4033 778.35394 1684.1917 777.39369 1682.8379 776.90039 C 1681.484 776.40724 1679.9867 776.38247 1679.2461 777.15039 C 1678.4245 778.00214 1676.1908 777.4976 1672.6797 775.66797 C 1670.3259 774.44142 1668.7586 773.84591 1667.7988 773.84375 z M 1680.7988 798.13867 C 1679.0147 798.19282 1679.2315 800.11047 1681.8125 802.84766 C 1683.3236 804.45014 1684.7214 806.80372 1684.918 808.07812 C 1685.2037 809.93077 1685.5256 810.11174 1686.5215 808.98242 C 1687.2068 808.20558 1687.3915 806.99935 1686.9355 806.30078 C 1686.4793 805.60214 1686.1597 803.9132 1686.2246 802.54688 C 1686.2945 801.07653 1685.0754 799.52389 1683.2363 798.74414 C 1682.2104 798.30917 1681.3935 798.12062 1680.7988 798.13867 z M 1995.0508 800.95312 C 1993.4894 800.8935 1991.55 801.4155 1989.623 802.55273 L 1985.4336 805.02539 L 1987.9668 806.66797 C 1990.7101 808.44798 1998.7257 805.87673 1998.3359 803.3418 C 1998.2271 802.6323 1997.8852 802.07631 1997.3691 801.67969 C 1996.7884 801.23347 1995.9876 800.98891 1995.0508 800.95312 z M 1980.7383 806.67188 C 1980.5546 806.74632 1980.2858 807.14129 1979.9531 807.84375 L 1979.9512 807.8418 C 1979.3492 809.11338 1979.3335 809.9615 1979.9141 809.72656 C 1980.4951 809.49148 1980.9868 808.4506 1981.0078 807.41406 C 1981.0192 806.84139 1980.922 806.59749 1980.7383 806.67188 z M 1687.1523 811.22656 C 1686.1198 810.92043 1685.8052 812.42532 1686.0547 815.58594 C 1686.6941 823.68766 1693.2945 833.85797 1701.416 839.25 C 1703.6264 840.71763 1706.8973 843.4123 1708.6855 845.24023 C 1710.4736 847.06805 1713.7421 849.35017 1715.9492 850.31055 C 1718.1562 851.27089 1721.5964 854.35568 1723.5918 857.16406 C 1725.5872 859.97244 1728.6727 862.88926 1730.4492 863.64648 C 1737.6919 866.7336 1730.8171 873.15917 1720.1406 873.28125 C 1717.7684 873.30771 1713.4527 875.52939 1709.0234 879.00391 C 1700.4499 885.72946 1693.8462 886.58074 1684.5605 882.1582 C 1678.6019 879.32031 1677.6714 879.50686 1678.3145 883.4082 C 1678.6998 885.74497 1671.7963 892.25173 1667.5938 893.51367 C 1665.2391 894.22086 1665.1761 893.04675 1667.1523 885.33398 C 1668.1673 881.37262 1664.5794 880.77887 1661.5547 884.4082 C 1656.4642 890.51622 1654.383 891.73538 1649.4883 891.4707 C 1645.7673 891.26963 1644.3025 890.68498 1643.4668 889.06836 C 1642.6331 887.45548 1641.5575 887.00566 1639.0684 887.23047 C 1636.5098 887.46253 1635.2594 886.89641 1633.4883 884.69922 C 1631.5599 882.30659 1630.7775 882.04044 1628.4297 882.99023 C 1625.8909 884.01725 1625.79 884.6313 1627.2676 890.10156 C 1628.6811 895.33492 1629.4255 896.22363 1633.1973 897.17773 C 1636.9706 898.13218 1637.6049 898.88746 1638.2422 903.20508 C 1638.6429 905.91984 1638.5961 908.96048 1638.1426 909.96289 C 1637.303 911.81354 1624.7371 912.96753 1621.2988 911.50977 C 1620.2643 911.07111 1618.4244 911.22693 1617.209 911.85547 C 1615.9935 912.48378 1613.3775 912.69502 1611.3984 912.32617 C 1608.1808 911.72651 1606.0935 912.71256 1597.3809 918.94727 C 1596.1685 919.81486 1593.6427 921.05617 1591.7656 921.70508 C 1589.8584 922.36461 1585.8114 926.23844 1582.5938 930.48633 C 1579.4273 934.66641 1575.5713 938.87784 1574.0234 939.8457 C 1572.4753 940.8136 1570.5943 943.0537 1569.8438 944.82422 C 1569.4555 945.73996 1568.6876 946.69302 1567.7852 947.50781 A 360.10802 360.10802 0 0 0 1571.3164 958.54688 C 1572.1744 956.67321 1574.2745 953.99258 1576.1328 952.46289 C 1580.7466 948.66473 1590.0536 938.12308 1591.2344 935.37695 C 1592.2724 932.94793 1600.7073 927.2146 1607.502 924.32031 C 1612.4655 922.20616 1625.92 920.71048 1628.8418 921.94922 C 1630.6607 922.72039 1640.1369 919.49601 1648.3379 915.31445 C 1650.4322 914.24677 1653.6693 913.52841 1655.5312 913.71875 C 1657.3936 913.90924 1661.2274 912.88185 1664.0488 911.4375 C 1666.8702 909.993 1670.4155 908.92805 1671.9297 909.07031 C 1673.4437 909.21242 1675.0177 908.53952 1675.4277 907.57227 C 1675.8379 906.60501 1677.2786 906.28099 1678.6289 906.85352 C 1679.9792 907.42604 1682.6592 907.25811 1684.582 906.48047 C 1689.2024 904.61145 1690.6196 905.38894 1690.457 909.69727 C 1690.3675 912.06933 1691.2604 913.65166 1693.125 914.42578 C 1694.8257 915.13456 1695.5125 914.99171 1694.875 914.06641 C 1694.2978 913.22852 1694.0754 910.93505 1694.3828 908.96875 C 1695.4338 902.24618 1700.6093 899.62317 1731.1094 890.35547 C 1735.7659 888.94068 1742.4541 886.89107 1745.9746 885.79883 C 1749.4952 884.70673 1753.1059 883.87528 1753.998 883.95312 C 1756.7766 884.19539 1763.241 881.49256 1763.9648 879.78516 C 1764.3443 878.89016 1765.2586 878.41388 1765.9961 878.72656 C 1766.7335 879.03913 1769.2089 878.78246 1771.498 878.16016 C 1773.7873 877.53763 1776.7134 877.47483 1777.998 878.01953 C 1779.2824 878.56409 1783.6744 877.65906 1787.7598 876.00586 C 1788.3221 875.77832 1788.941 875.56739 1789.5195 875.3418 C 1782.9144 870.38786 1774.0038 866.57348 1762.5293 864.19141 C 1760.9612 863.86587 1759.8589 863.54136 1758.5195 863.22852 C 1757.6271 863.47939 1755.8374 863.79455 1755.5859 863.97266 C 1754.1113 865.01686 1730.6647 855.1733 1729.5664 853.04883 C 1729.036 852.02269 1725.649 849.32195 1722.0391 847.04688 C 1718.429 844.77183 1714.9007 841.66914 1714.1973 840.15234 C 1713.426 838.48935 1710.5959 836.41078 1707.0703 834.91602 C 1703.0856 833.22664 1700.5216 831.20295 1699.0176 828.5625 C 1692.5893 817.27702 1688.8733 811.73678 1687.1523 811.22656 z M 1767.2285 841.97656 C 1763.6446 841.97907 1760.3265 842.04451 1757.4805 842.17773 C 1754.7979 842.30329 1752.6346 842.50388 1751.0664 842.72461 C 1751.1246 843.86274 1751.2479 845.21879 1751.6035 846.63672 L 1751.5977 846.63672 C 1752.2362 849.18072 1752.2957 849.28876 1753.6484 850.13477 C 1755.0012 850.98078 1758.4948 852.15646 1764.7598 853.45703 C 1780.8771 856.80293 1793.6214 862.91528 1802.4141 872.11133 C 1811.2068 881.30741 1815.682 893.50918 1815.6934 907.5293 C 1815.7063 924.17815 1811.6486 934.24441 1799.8516 946.89062 C 1790.9393 956.44451 1777.4719 961.19005 1763.873 961.83008 C 1750.2742 962.47014 1736.2589 959.01139 1726.0996 950.46289 C 1722.4468 947.3893 1721.2426 946.83462 1721.3008 946.60938 C 1720.9879 946.97141 1720.9347 946.99425 1720.4668 947.5918 C 1715.5252 953.9018 1713.6701 957.65758 1713.5254 958.03906 C 1713.5479 958.06379 1713.5504 958.05962 1713.5801 958.0957 C 1713.9775 958.57937 1715.2354 959.67617 1717.248 961.08594 C 1729.8086 969.88441 1738.2535 973.84387 1748.7773 976.09961 C 1748.7811 976.1001 1748.7828 976.09908 1748.7852 976.09961 C 1761.3775 978.79483 1790.238 976.01473 1805.7129 970.13477 C 1825.1738 962.74012 1840.1587 949.63807 1848.3008 933.29883 C 1865.6314 898.52098 1850.1673 857.99345 1815.3691 845.80273 C 1813.6776 845.2101 1807.9573 844.19283 1801.2109 843.53516 C 1794.4646 842.87744 1786.3869 842.39814 1778.5703 842.15625 L 1778.5703 842.1543 C 1774.662 842.03373 1770.8124 841.97406 1767.2285 841.97656 z M 1599.3906 858.05469 C 1598.5386 858.18584 1597.3685 859.41258 1596.7891 860.7793 C 1596.2096 862.14605 1596.4138 863.31697 1597.2422 863.38281 C 1598.0705 863.44858 1598.8742 863.08326 1599.0312 862.57227 C 1599.1885 862.06135 1599.6826 860.78307 1600.1289 859.73047 C 1600.5753 858.67768 1600.2428 857.92358 1599.3906 858.05469 z M 1617.7344 875.50195 C 1616.1606 875.77672 1615.9738 876.18957 1616.8438 877.47461 C 1618.2005 879.47863 1627.047 882.20732 1626.791 880.54297 C 1626.582 879.18192 1622.8696 876.80436 1620.0684 875.86719 C 1619.1347 875.55462 1618.3015 875.40301 1617.7344 875.50195 z M 2056.2305 878.71484 C 2053.7901 882.27314 2051.2013 885.8045 2048.5117 889.10352 C 2045.2456 893.10976 2041.9774 896.64912 2038.8867 899.52539 C 2039.8727 899.18605 2041.1042 898.35647 2042.6758 896.82031 C 2044.7533 894.78957 2047.8248 893.33677 2049.875 893.41406 C 2058.3854 893.73494 2065.189 887.14358 2061.3125 882.33398 C 2060.1809 880.93004 2058.8204 879.87622 2057.4492 879.17188 C 2057.0381 878.96068 2056.6379 878.86306 2056.2305 878.71484 z M 1798.4785 887.59375 C 1798.1515 887.93865 1799.4288 888.98294 1801.4961 890.32227 C 1801.1137 889.42497 1800.7065 888.5437 1800.2559 887.69141 C 1799.5133 887.58426 1798.6468 887.41626 1798.4785 887.59375 z M 1882.2539 909.91406 L 1884.5918 915.50195 C 1888.0026 923.65145 1885.4553 928.86455 1875.6309 933.8457 C 1869.2622 937.07482 1867.8876 938.38404 1866.5312 942.50195 C 1865.0549 946.98398 1865.2538 947.57295 1869.1523 950.26562 C 1871.4729 951.86845 1874.3423 954.63056 1875.5293 956.4043 C 1876.7163 958.17826 1878.8525 959.73914 1880.2773 959.87305 C 1882.2486 960.05824 1882.9244 961.35605 1883.0977 965.29492 C 1883.2401 968.53201 1884.2007 970.8402 1885.6602 971.45898 C 1888.4011 972.62104 1889.968 979.60146 1888.5254 984.2168 C 1885.5631 993.69479 1884.4521 1000.044 1885.4258 1001.9277 C 1887.0174 1005.0065 1880.0425 1021.2136 1877.5762 1020.168 C 1875.6053 1019.3324 1871.0175 1024.4361 1866 1033.0449 C 1864.2208 1036.0974 1862.2824 1038.6687 1861.6914 1038.7598 C 1861.1005 1038.8509 1860.1381 1036.9703 1859.5527 1034.582 C 1858.5311 1030.4124 1858.3624 1030.2889 1855.3633 1031.502 C 1851.7563 1032.9611 1851.8588 1033.3094 1850.9863 1016.1348 C 1850.7176 1010.8434 1850.3705 1004.619 1850.2188 1002.3008 C 1849.9519 998.23599 1850.7581 985.82918 1852.2637 970.78711 C 1853.2058 961.3748 1865.2954 932.17439 1868.8457 930.73828 C 1870.1326 930.21773 1873.6752 925.31797 1876.7188 919.85156 L 1882.2539 909.91406 z M 2067.3203 921.26367 C 2066.7218 921.45157 2066.0407 922.19625 2065.6113 923.20898 C 2065.0388 924.55926 2065.1219 925.89733 2065.7969 926.18359 C 2066.4721 926.4697 2067.492 925.60027 2068.0645 924.25 C 2068.637 922.89965 2068.5541 921.55778 2067.8789 921.27148 C 2067.7101 921.19996 2067.5198 921.20104 2067.3203 921.26367 z M 1905.6367 933.36523 C 1905.6874 933.43213 1905.6933 933.62284 1905.6445 933.95117 C 1905.4525 935.26369 1904.6323 937.1994 1903.8223 938.25 C 1903.0124 939.30048 1903.1721 938.22734 1904.1738 935.86328 C 1904.9252 934.09114 1905.4843 933.16397 1905.6367 933.36523 z M 1968.1836 935.88477 C 1967.8821 935.92596 1967.5348 936.03229 1967.127 936.19727 C 1965.4955 936.85721 1965.6851 937.32343 1967.9766 938.29492 C 1970.268 939.26645 1970.7341 939.07678 1970.0742 937.44531 C 1969.7443 936.62961 1969.4149 936.15372 1968.9648 935.96289 C 1968.7398 935.86746 1968.4851 935.84357 1968.1836 935.88477 z M 2056.5176 935.9082 C 2054.6814 935.7831 2050.8725 940.57942 2050.1543 944.42188 C 2049.7644 946.50771 2049.8893 948.40275 2050.4316 948.63281 C 2052.7159 949.60132 2058.7568 938.52474 2057.168 936.28125 C 2057.0005 936.04541 2056.7798 935.92634 2056.5176 935.9082 z M 1818.6523 976.38867 C 1816.7628 977.32576 1814.8079 978.17263 1812.8359 979 C 1811.9295 981.98805 1811.7966 983.5879 1812.7363 983.98633 C 1813.9635 984.50662 1815.2924 984.2568 1815.6895 983.42969 C 1815.8034 983.19227 1817.5412 979.03377 1818.6523 976.38867 z M 1728.748 980.7207 C 1725.4963 981.96064 1725.3197 984.33677 1728.0391 991.82617 C 1729.5066 995.86739 1730.6135 1000.2765 1730.5 1001.623 C 1730.2464 1004.6358 1733.9232 1006.3723 1737.0879 1004.7363 C 1739.19 1003.6513 1739.5687 1003.8161 1740.7285 1006.3184 C 1742.9629 1011.1365 1746.4149 1009.9887 1749.1602 1003.5137 C 1750.5035 1000.3452 1752.5323 997.3761 1753.6699 996.91602 C 1756.4508 995.79115 1755.416 993.59182 1752.5156 994.46289 C 1750.0787 995.19476 1743.2671 991.28973 1742.9082 988.95508 C 1742.7941 988.21308 1741.3781 987.04463 1739.7617 986.35938 C 1738.6156 985.87344 1737.1564 984.82088 1735.8555 983.72461 C 1733.4917 982.85583 1731.128 981.86185 1728.748 980.7207 z M 1806.8613 983.18945 C 1805.9704 983.29317 1805.1657 984.14222 1804.5098 985.68945 C 1802.8793 989.53512 1805.9409 990.33719 1808.1855 986.65234 C 1809.1968 984.99238 1809.0589 983.87845 1807.7793 983.33594 C 1807.4659 983.20308 1807.1583 983.15488 1806.8613 983.18945 z M 1906.7656 987.70898 C 1906.9129 987.73056 1907.0678 987.7759 1907.2324 987.8457 C 1908.266 988.28386 1908.4883 989.78985 1907.7715 991.48047 C 1906.1345 995.34141 1905.6914 1003.1247 1907.0742 1003.7109 C 1907.6833 1003.9691 1907.0971 1006.7424 1905.7676 1009.875 C 1904.0782 1013.8597 1902.4984 1015.7873 1900.5117 1016.291 C 1895.7575 1017.4958 1895.3325 1016.3913 1898.4961 1011.0801 C 1901.0786 1006.7445 1901.2514 1005.5765 1899.666 1003.1758 C 1898.0388 1000.7118 1898.148 1000.0805 1900.5547 998.14062 C 1902.0804 996.91153 1903.7898 993.95738 1904.3887 991.51172 C 1905.0943 988.62979 1905.7344 987.55792 1906.7656 987.70898 z M 1799.2129 990.01953 C 1798.6493 990.12495 1798.0495 990.67534 1797.7148 991.46484 C 1797.2686 992.51729 1797.601 993.26967 1798.4531 993.13867 C 1799.3053 993.00752 1800.2228 992.38147 1800.4922 991.74609 C 1800.7617 991.11083 1800.4292 990.35657 1799.7539 990.07031 C 1799.5851 989.99878 1799.4008 989.98439 1799.2129 990.01953 z M 1792.6699 991.875 C 1788.7862 992.1862 1781.8641 995.29179 1779.4863 998.85547 C 1777.4087 1001.9691 1777.3263 1002.4711 1779.1016 1001.2266 C 1780.3406 1000.3578 1782.0911 999.96059 1782.9902 1000.3418 C 1784.761 1001.0926 1794.2749 996.16002 1795.1816 994.02148 C 1795.7076 992.78089 1795.2171 992.1236 1794.127 991.91992 C 1793.7183 991.84355 1793.2247 991.83054 1792.6699 991.875 z M 1837.8652 1015.5938 C 1838.3557 1015.5744 1838.8201 1015.7098 1839.2363 1015.9844 C 1840.9014 1017.0824 1841.8049 1020.4191 1840.6016 1025.1094 C 1837.8012 1036.0243 1837.662 1037.821 1839.2656 1042.2637 C 1841.1751 1047.5535 1839.8478 1051.6021 1835.875 1052.6094 C 1832.5015 1053.4647 1830.9793 1053.0568 1831.6484 1051.4785 C 1831.916 1050.8473 1832.201 1048.5878 1832.2812 1046.457 L 1832.4258 1042.582 L 1828.7344 1044.2305 C 1826.7035 1045.1368 1824.8813 1045.4822 1824.6855 1044.998 C 1823.8033 1042.8171 1828.5898 1024.7832 1830.2266 1024.1211 C 1831.1784 1023.7361 1832.5589 1022.0127 1833.3027 1020.2969 C 1834.6822 1017.094 1836.3938 1015.6516 1837.8652 1015.5938 z M 1906.1152 1046.8398 C 1906.5988 1046.8848 1906.801 1048.1123 1906.291 1050.4805 C 1905.8946 1052.3226 1905.0448 1053.911 1904.4023 1054.0098 C 1903.76 1054.1084 1903.6922 1052.4351 1904.252 1050.291 C 1904.8672 1047.9326 1905.6315 1046.7947 1906.1152 1046.8398 z M 2129.5254 1071.7598 C 2128.2795 1071.8466 2129.3254 1072.935 2132.2969 1075.0508 C 2140.5682 1080.9405 2157.8198 1085.096 2155.1289 1080.5508 C 2154.7354 1079.8863 2153.3587 1079.066 2150.9414 1078.0625 C 2148.5245 1077.0583 2145.0663 1075.8731 2140.5039 1074.4805 C 2134.3077 1072.5889 2130.7713 1071.6729 2129.5254 1071.7598 z M 1861.373 1074.4473 C 1861.775 1074.4349 1862.1579 1074.4948 1862.5117 1074.625 C 1863.9268 1075.1461 1864.8825 1076.781 1864.7871 1079.3125 C 1864.6333 1083.3905 1863.1708 1085.0255 1860.6367 1083.9512 C 1859.7201 1083.5625 1858.5998 1083.6095 1858.1445 1084.0566 C 1857.6893 1084.5038 1856.7404 1083.6893 1856.0371 1082.2461 C 1855.0171 1080.1525 1855.3105 1079.0127 1857.4785 1076.6211 C 1858.787 1075.1778 1860.1671 1074.4844 1861.373 1074.4473 z M 1864.9375 1110.8184 C 1864.3848 1110.8467 1863.8674 1110.9892 1863.5156 1111.2383 C 1862.8121 1111.7365 1863.3736 1112.6254 1864.7637 1113.2148 C 1866.1538 1113.8042 1867.5263 1113.7358 1867.8125 1113.0605 C 1868.0986 1112.3853 1867.5373 1111.4946 1866.5645 1111.082 C 1866.078 1110.8758 1865.4902 1110.79 1864.9375 1110.8184 z M 1806.5566 1139.6543 C 1806.3471 1139.6179 1806.0945 1139.652 1805.7988 1139.7715 C 1804.9002 1140.1347 1803.9547 1141.8728 1803.6973 1143.6328 C 1803.2881 1146.4302 1803.4844 1146.6363 1805.252 1145.2656 C 1807.0976 1143.8343 1807.8141 1140.9201 1807.0586 1139.957 C 1806.9327 1139.7966 1806.7662 1139.6907 1806.5566 1139.6543 z M 1806.6016 1150.7012 C 1805.3075 1150.9068 1802.5873 1154.7904 1801.4531 1158.7852 C 1798.0697 1170.7016 1797.9936 1172.1079 1800.7012 1172.5039 C 1802.0991 1172.7084 1803.5663 1173.9498 1803.9609 1175.2637 C 1805.2982 1179.717 1808.7181 1178.9261 1811.4863 1173.5215 C 1813.7804 1169.042 1813.7771 1168.1865 1811.4414 1165.9473 C 1809.2127 1163.8105 1807.3286 1157.3828 1807.3105 1151.8535 C 1807.3075 1150.9728 1807.033 1150.6327 1806.6016 1150.7012 z M 1970.1582 1151.1172 C 1969.0128 1151.0945 1969.1808 1151.5087 1970.5859 1152.1738 C 1971.8572 1152.7756 1972.7056 1152.7935 1972.4707 1152.2129 C 1972.3532 1151.9226 1972.0343 1151.6533 1971.6152 1151.4551 C 1971.1961 1151.257 1970.6764 1151.1278 1970.1582 1151.1172 z M 1796.4414 1176.1484 C 1796.0455 1176.255 1795.4656 1176.8718 1794.5898 1178.0312 C 1793.3612 1179.6574 1792.322 1181.9937 1792.2793 1183.2227 L 1792.2812 1183.2227 C 1792.2738 1183.3882 1792.3698 1183.4768 1792.3887 1183.6289 A 360.10802 360.10802 0 0 0 1794.791 1184.5449 C 1796.3272 1183.1917 1797.6001 1179.8025 1797.1934 1177.3301 C 1797.0478 1176.4462 1796.8371 1176.0416 1796.4414 1176.1484 z "
       transform="scale(0.26458333)" />
  </g>
</svg>
