%TF.GenerationSoftware,KiCad,Pcbnew,6.0.7*%
%TF.CreationDate,2023-01-29T15:54:58+00:00*%
%TF.ProjectId,rknt36-rounded,726b6e74-3336-42d7-926f-756e6465642e,rev?*%
%TF.SameCoordinates,Original*%
%TF.FileFunction,Paste,Top*%
%TF.FilePolarity,Positive*%
%FSLAX46Y46*%
G04 Gerber Fmt 4.6, Leading zero omitted, Abs format (unit mm)*
G04 Created by KiCad (PCBNEW 6.0.7) date 2023-01-29 15:54:58*
%MOMM*%
%LPD*%
G01*
G04 APERTURE LIST*
G04 Aperture macros list*
%AMRoundRect*
0 Rectangle with rounded corners*
0 $1 Rounding radius*
0 $2 $3 $4 $5 $6 $7 $8 $9 X,Y pos of 4 corners*
0 Add a 4 corners polygon primitive as box body*
4,1,4,$2,$3,$4,$5,$6,$7,$8,$9,$2,$3,0*
0 Add four circle primitives for the rounded corners*
1,1,$1+$1,$2,$3*
1,1,$1+$1,$4,$5*
1,1,$1+$1,$6,$7*
1,1,$1+$1,$8,$9*
0 Add four rect primitives between the rounded corners*
20,1,$1+$1,$2,$3,$4,$5,0*
20,1,$1+$1,$4,$5,$6,$7,0*
20,1,$1+$1,$6,$7,$8,$9,0*
20,1,$1+$1,$8,$9,$2,$3,0*%
G04 Aperture macros list end*
%ADD10RoundRect,0.250000X0.197457X0.518783X-0.430394X0.350550X-0.197457X-0.518783X0.430394X-0.350550X0*%
%ADD11R,2.600000X2.600000*%
%ADD12RoundRect,0.250000X0.450000X-0.325000X0.450000X0.325000X-0.450000X0.325000X-0.450000X-0.325000X0*%
%ADD13RoundRect,0.250000X0.325000X0.450000X-0.325000X0.450000X-0.325000X-0.450000X0.325000X-0.450000X0*%
%ADD14O,2.750000X1.800000*%
G04 APERTURE END LIST*
D10*
%TO.C,D31*%
X102326952Y-115995675D03*
X100346804Y-116526255D03*
%TD*%
D11*
%TO.C,SW9*%
X171275000Y-66050000D03*
X159725000Y-68250000D03*
%TD*%
%TO.C,SW15*%
X189275000Y-89050000D03*
X177725000Y-91250000D03*
%TD*%
D12*
%TO.C,D21*%
X116500000Y-96525000D03*
X116500000Y-94475000D03*
%TD*%
D11*
%TO.C,SW14*%
X171275000Y-83050000D03*
X159725000Y-85250000D03*
%TD*%
%TO.C,SW6*%
X117275000Y-68050000D03*
X105725000Y-70250000D03*
%TD*%
D12*
%TO.C,D17*%
X170500000Y-77525000D03*
X170500000Y-75475000D03*
%TD*%
D11*
%TO.C,SW4*%
X171275000Y-49050000D03*
X159725000Y-51250000D03*
%TD*%
D12*
%TO.C,D9*%
X188500000Y-66525000D03*
X188500000Y-64475000D03*
%TD*%
%TO.C,D15*%
X152500000Y-71525000D03*
X152500000Y-69475000D03*
%TD*%
D11*
%TO.C,SW13*%
X153275000Y-77050000D03*
X141725000Y-79250000D03*
%TD*%
D12*
%TO.C,D7*%
X170500000Y-60525000D03*
X170500000Y-58475000D03*
%TD*%
%TO.C,D23*%
X134500000Y-94525000D03*
X134500000Y-92475000D03*
%TD*%
%TO.C,D19*%
X188500000Y-83525000D03*
X188500000Y-81475000D03*
%TD*%
%TO.C,D11*%
X116500000Y-79525000D03*
X116500000Y-77475000D03*
%TD*%
D11*
%TO.C,SW8*%
X153275000Y-60050000D03*
X141725000Y-62250000D03*
%TD*%
%TO.C,SW3*%
X153275000Y-43050000D03*
X141725000Y-45250000D03*
%TD*%
%TO.C,SW1*%
X117275000Y-51050000D03*
X105725000Y-53250000D03*
%TD*%
D12*
%TO.C,D3*%
X134500000Y-60525000D03*
X134500000Y-58475000D03*
%TD*%
%TO.C,D1*%
X116500000Y-62525000D03*
X116500000Y-60475000D03*
%TD*%
%TO.C,D29*%
X188500000Y-100525000D03*
X188500000Y-98475000D03*
%TD*%
D11*
%TO.C,SW12*%
X135275000Y-83050000D03*
X123725000Y-85250000D03*
%TD*%
%TO.C,SW5*%
X189275000Y-55050000D03*
X177725000Y-57250000D03*
%TD*%
%TO.C,SW10*%
X189275000Y-72050000D03*
X177725000Y-74250000D03*
%TD*%
D12*
%TO.C,D27*%
X170500000Y-94525000D03*
X170500000Y-92475000D03*
%TD*%
D10*
%TO.C,D33*%
X119713617Y-111336933D03*
X117733469Y-111867513D03*
%TD*%
D12*
%TO.C,D13*%
X134500000Y-77525000D03*
X134500000Y-75475000D03*
%TD*%
%TO.C,D25*%
X152500000Y-88525000D03*
X152500000Y-86475000D03*
%TD*%
D11*
%TO.C,SW2*%
X135275000Y-49050000D03*
X123725000Y-51250000D03*
%TD*%
%TO.C,SW11*%
X117275000Y-85050000D03*
X105725000Y-87250000D03*
%TD*%
D13*
%TO.C,D35*%
X140125000Y-105800000D03*
X138075000Y-105800000D03*
%TD*%
D14*
%TO.C,U1*%
X84905040Y-51380000D03*
X84905040Y-53920000D03*
X84905040Y-56460000D03*
X84905040Y-59000000D03*
X84905040Y-61540000D03*
X84905040Y-64080000D03*
X84905040Y-66620000D03*
X101094960Y-66620000D03*
X101094960Y-64080000D03*
X101094960Y-61540000D03*
X101094960Y-59000000D03*
X101094960Y-56460000D03*
X101094960Y-53920000D03*
X101094960Y-51380000D03*
%TD*%
D11*
%TO.C,SW7*%
X135275000Y-66050000D03*
X123725000Y-68250000D03*
%TD*%
D12*
%TO.C,D5*%
X152500000Y-54525000D03*
X152500000Y-52475000D03*
%TD*%
M02*
