M48
; DRILL file {KiCad 6.0.7} date Sun 29 Jan 2023 03:54:58 PM GMT
; FORMAT={-:-/ absolute / inch / decimal}
; #@! TF.CreationDate,2023-01-29T15:54:58+00:00
; #@! TF.GenerationSoftware,Kicad,Pcbnew,6.0.7
; #@! TF.FileFunction,NonPlated,1,2,NPTH
FMAT,2
INCH
; #@! TA.AperFunction,NonPlated,NPTH,ComponentDrill
T1C0.0315
; #@! TA.AperFunction,NonPlated,NPTH,ComponentDrill
T2C0.0390
; #@! TA.AperFunction,NonPlated,NPTH,ComponentDrill
T3C0.0670
; #@! TA.AperFunction,NonPlated,NPTH,ComponentDrill
T4C0.1181
; #@! TA.AperFunction,NonPlated,NPTH,ComponentDrill
T5C0.1350
%
G90
G05
T1
X3.4488Y-2.9528
X3.4488Y-2.9528
X3.7244Y-2.9528
X3.7244Y-2.9528
T2
X3.7789Y-4.5848
X4.1267Y-4.45
X4.1759Y-4.4784
X4.2331Y-4.847
X4.4634Y-4.4013
X4.8113Y-4.2666
X4.8604Y-4.295
X4.9176Y-4.6636
X5.2709Y-4.1181
X5.6417Y-4.078
X5.6417Y-4.489
X5.6819Y-4.1181
T3
X3.9642Y-4.4821
X4.2294Y-4.6352
X4.2717Y-2.2441
X4.2717Y-2.9134
X4.2717Y-3.5827
X4.6487Y-4.2987
X4.7047Y-2.2441
X4.7047Y-2.9134
X4.7047Y-3.5827
X4.9139Y-4.4518
X4.9803Y-2.1654
X4.9803Y-2.8346
X4.9803Y-3.5039
X5.4134Y-2.1654
X5.4134Y-2.8346
X5.4134Y-3.5039
X5.4764Y-4.0669
X5.689Y-1.9291
X5.689Y-2.5984
X5.689Y-3.2677
X5.6929Y-4.2835
X6.122Y-1.9291
X6.122Y-2.5984
X6.122Y-3.2677
X6.3976Y-2.1654
X6.3976Y-2.8346
X6.3976Y-3.5039
X6.8307Y-2.1654
X6.8307Y-2.8346
X6.8307Y-3.5039
X7.1063Y-2.4016
X7.1063Y-3.0709
X7.1063Y-3.7402
X7.5394Y-2.4016
X7.5394Y-3.0709
X7.5394Y-3.7402
T4
X4.2913Y-2.0965
X4.2913Y-2.7657
X4.2913Y-3.435
X4.4882Y-2.0098
X4.4882Y-2.6791
X4.4882Y-3.3484
X4.685Y-2.0965
X4.685Y-2.7657
X4.685Y-3.435
X5.0Y-2.0177
X5.0Y-2.687
X5.0Y-3.3563
X5.1969Y-1.9311
X5.1969Y-2.6004
X5.1969Y-3.2697
X5.3937Y-2.0177
X5.3937Y-2.687
X5.3937Y-3.3563
X5.7087Y-1.7815
X5.7087Y-2.4508
X5.7087Y-3.1201
X5.9055Y-1.6949
X5.9055Y-2.3642
X5.9055Y-3.0335
X6.1024Y-1.7815
X6.1024Y-2.4508
X6.1024Y-3.1201
X6.4173Y-2.0177
X6.4173Y-2.687
X6.4173Y-3.3563
X6.6142Y-1.9311
X6.6142Y-2.6004
X6.6142Y-3.2697
X6.811Y-2.0177
X6.811Y-2.687
X6.811Y-3.3563
X7.126Y-2.2539
X7.126Y-2.9232
X7.126Y-3.5925
X7.3228Y-2.1673
X7.3228Y-2.8366
X7.3228Y-3.5059
X7.5197Y-2.2539
X7.5197Y-2.9232
X7.5197Y-3.5925
T5
X4.0202Y-4.6913
X4.4882Y-2.2441
X4.4882Y-2.9134
X4.4882Y-3.5827
X4.7047Y-4.5079
X5.1969Y-2.1654
X5.1969Y-2.8346
X5.1969Y-3.5039
X5.4764Y-4.2835
X5.9055Y-1.9291
X5.9055Y-2.5984
X5.9055Y-3.2677
X6.6142Y-2.1654
X6.6142Y-2.8346
X6.6142Y-3.5039
X7.3228Y-2.4016
X7.3228Y-3.0709
X7.3228Y-3.7402
T0
M30
