%TF.GenerationSoftware,KiCad,Pcbnew,6.0.7*%
%TF.CreationDate,2023-01-29T15:54:58+00:00*%
%TF.ProjectId,rknt36-rounded,726b6e74-3336-42d7-926f-756e6465642e,rev?*%
%TF.SameCoordinates,Original*%
%TF.FileFunction,Profile,NP*%
%FSLAX46Y46*%
G04 Gerber Fmt 4.6, Leading zero omitted, Abs format (unit mm)*
G04 Created by KiCad (PCBNEW 6.0.7) date 2023-01-29 15:54:58*
%MOMM*%
%LPD*%
G01*
G04 APERTURE LIST*
%TA.AperFunction,Profile*%
%ADD10C,0.200000*%
%TD*%
G04 APERTURE END LIST*
D10*
X151500000Y-39500000D02*
X156205986Y-39727993D01*
X160514347Y-40178227D01*
X164446991Y-40818056D01*
X168025826Y-41614833D01*
X171272761Y-42535912D01*
X174209705Y-43548647D01*
X176858565Y-44620391D01*
X179241251Y-45718497D01*
X181379671Y-46810319D01*
X183295733Y-47863210D01*
X186548419Y-49721616D01*
X187928859Y-50461837D01*
X189174576Y-51032541D01*
X190307478Y-51401082D01*
X191349472Y-51534813D01*
X193058548Y-51543816D01*
X193818119Y-51540553D01*
X194157278Y-51543072D01*
X194469710Y-51557175D01*
X194755679Y-51589472D01*
X194888823Y-51614511D01*
X195015451Y-51646577D01*
X195135598Y-51686498D01*
X195249295Y-51735100D01*
X195356576Y-51793210D01*
X195457474Y-51861654D01*
X195552023Y-51941258D01*
X195640256Y-52032850D01*
X195722207Y-52137255D01*
X195797907Y-52255300D01*
X195867392Y-52387812D01*
X195930694Y-52535617D01*
X195987846Y-52699541D01*
X196038882Y-52880411D01*
X196083834Y-53079054D01*
X196122737Y-53296296D01*
X196155623Y-53532963D01*
X196182527Y-53789882D01*
X196203480Y-54067879D01*
X196218516Y-54367781D01*
X196230973Y-55036606D01*
X196280976Y-101224198D01*
X196273767Y-101562860D01*
X196250354Y-101898955D01*
X196209184Y-102230776D01*
X196148702Y-102556615D01*
X196067354Y-102874767D01*
X195963584Y-103183524D01*
X195835840Y-103481179D01*
X195762491Y-103625310D01*
X195682566Y-103766026D01*
X195595870Y-103903113D01*
X195502208Y-104036358D01*
X195401388Y-104165547D01*
X195293213Y-104290468D01*
X195177490Y-104410907D01*
X195054025Y-104526650D01*
X194922623Y-104637484D01*
X194783091Y-104743196D01*
X194635233Y-104843572D01*
X194478855Y-104938400D01*
X194313764Y-105027465D01*
X194139764Y-105110555D01*
X193956663Y-105187456D01*
X193764264Y-105257954D01*
X193562375Y-105321837D01*
X193350800Y-105378891D01*
X191883234Y-105615166D01*
X189376884Y-105910328D01*
X186078480Y-106286703D01*
X182234756Y-106766617D01*
X178092443Y-107372396D01*
X175986421Y-107729462D01*
X173898275Y-108126366D01*
X171858849Y-108565899D01*
X169898984Y-109050853D01*
X168049521Y-109584017D01*
X166341301Y-110168183D01*
X162768745Y-111614069D01*
X158674204Y-113423936D01*
X149602385Y-117623164D01*
X144966717Y-119756304D01*
X140492282Y-121740981D01*
X136349887Y-123449084D01*
X134456580Y-124159386D01*
X132710335Y-124752503D01*
X124089811Y-127342402D01*
X113634164Y-130331257D01*
X99704373Y-134221711D01*
X99516331Y-134271097D01*
X99331290Y-134312240D01*
X99149368Y-134345278D01*
X98970686Y-134370351D01*
X98795363Y-134387597D01*
X98623518Y-134397155D01*
X98455273Y-134399164D01*
X98290745Y-134393762D01*
X98130055Y-134381089D01*
X97973324Y-134361283D01*
X97820669Y-134334484D01*
X97672212Y-134300829D01*
X97528072Y-134260458D01*
X97388368Y-134213510D01*
X97253221Y-134160123D01*
X97122750Y-134100436D01*
X96997075Y-134034588D01*
X96876315Y-133962718D01*
X96760591Y-133884964D01*
X96650022Y-133801466D01*
X96544727Y-133712363D01*
X96444827Y-133617792D01*
X96350441Y-133517894D01*
X96261689Y-133412806D01*
X96178691Y-133302667D01*
X96101566Y-133187617D01*
X96030435Y-133067795D01*
X95965416Y-132943338D01*
X95906630Y-132814386D01*
X95854196Y-132681078D01*
X95808234Y-132543552D01*
X95768864Y-132401947D01*
X90402909Y-111018570D01*
X90116801Y-109842474D01*
X89869423Y-108751103D01*
X89655484Y-107726821D01*
X89469694Y-106751994D01*
X89161398Y-104880162D01*
X88902211Y-102994524D01*
X88361868Y-98617497D01*
X87996065Y-95843942D01*
X87510075Y-92492249D01*
X87255560Y-91030373D01*
X86967974Y-89733493D01*
X86654134Y-88579671D01*
X86320856Y-87546966D01*
X85974954Y-86613439D01*
X85623246Y-85757151D01*
X84929672Y-84188534D01*
X84601438Y-83432327D01*
X84294660Y-82665601D01*
X84016155Y-81866417D01*
X83772737Y-81012836D01*
X83571223Y-80082919D01*
X83418429Y-79054726D01*
X83362432Y-78496919D01*
X83321170Y-77906317D01*
X83295497Y-77280176D01*
X83286263Y-76615754D01*
X83257622Y-49760575D01*
X83259132Y-49531463D01*
X83265468Y-49307927D01*
X83278604Y-49091239D01*
X83300518Y-48882666D01*
X83333186Y-48683481D01*
X83378582Y-48494953D01*
X83406671Y-48405082D01*
X83438684Y-48318352D01*
X83474866Y-48234921D01*
X83515466Y-48154948D01*
X83560730Y-48078592D01*
X83610906Y-48006011D01*
X83666239Y-47937365D01*
X83726978Y-47872812D01*
X83793369Y-47812510D01*
X83865659Y-47756620D01*
X83944096Y-47705299D01*
X84028926Y-47658706D01*
X84120396Y-47617000D01*
X84218753Y-47580339D01*
X84324244Y-47548883D01*
X84437116Y-47522791D01*
X84557617Y-47502220D01*
X84685993Y-47487330D01*
X84822491Y-47478280D01*
X84967358Y-47475228D01*
X84967339Y-47475487D01*
X97282810Y-47475487D01*
X99888238Y-47379330D01*
X102482860Y-47108192D01*
X105091369Y-46688074D01*
X107738455Y-46144979D01*
X113247122Y-44793859D01*
X119206389Y-43262842D01*
X122416725Y-42494875D01*
X125813783Y-41759937D01*
X129422255Y-41084030D01*
X133266831Y-40493155D01*
X137372203Y-40013314D01*
X141763061Y-39670506D01*
X146464097Y-39490735D01*
X151500000Y-39500000D01*
M02*
