M48
; DRILL file {KiCad 6.0.7} date Sun 29 Jan 2023 03:54:58 PM GMT
; FORMAT={-:-/ absolute / inch / decimal}
; #@! TF.CreationDate,2023-01-29T15:54:58+00:00
; #@! TF.GenerationSoftware,Kicad,Pcbnew,6.0.7
; #@! TF.FileFunction,Plated,1,2,PTH
FMAT,2
INCH
; #@! TA.AperFunction,Plated,PTH,ViaDrill
T1C0.0157
; #@! TA.AperFunction,Plated,PTH,ComponentDrill
T2C0.0354
; #@! TA.AperFunction,Plated,PTH,ComponentDrill
T3C0.0394
; #@! TA.AperFunction,Plated,PTH,ComponentDrill
T4C0.0400
; #@! TA.AperFunction,Plated,PTH,ComponentDrill
T5C0.0500
; #@! TA.AperFunction,Plated,PTH,ComponentDrill
T6C0.0700
; #@! TA.AperFunction,Plated,PTH,ComponentDrill
T7C0.0866
%
G90
G05
T1
X3.5039Y-2.0276
X3.5039Y-2.1654
X3.5039Y-2.2638
X3.5039Y-2.3622
X3.5039Y-2.4606
X3.5039Y-2.5591
X3.5827Y-2.6378
X3.8691Y-2.5
X3.8691Y-2.5984
X3.878Y-1.9488
X3.878Y-2.126
X3.878Y-2.3031
X3.878Y-2.4016
X4.0748Y-2.2638
X4.0945Y-2.5394
X4.1038Y-2.3922
X4.1142Y-2.3228
X4.1143Y-4.5668
X4.1535Y-1.8898
X4.1732Y-2.6575
X4.5866Y-2.5197
X4.5866Y-3.2087
X4.5866Y-3.878
X4.7244Y-4.2913
X5.2953Y-2.4606
X5.2953Y-3.1102
X5.2953Y-3.7992
X5.4724Y-1.7913
X5.5694Y-4.1127
X6.0039Y-2.2244
X6.0039Y-2.874
X6.0039Y-3.563
X6.1417Y-1.6732
X6.7126Y-2.4606
X6.7126Y-3.1299
X6.7126Y-3.7992
X7.4213Y-2.6772
X7.4213Y-3.3465
X7.4213Y-4.0354
T3
X3.8898Y-3.3976
X3.8898Y-3.4976
X3.8898Y-3.5976
X3.8898Y-3.6976
X3.8898Y-3.7976
T4
X3.6114Y-1.9854
X3.7114Y-1.9854
T5
X3.8248Y-4.5399
X3.8688Y-4.8867
X3.9267Y-4.9202
X4.2491Y-4.7848
X4.2913Y-2.3937
X4.2913Y-3.063
X4.2913Y-3.7323
X4.4882Y-2.4764
X4.4882Y-3.1457
X4.4882Y-3.815
X4.5093Y-4.3565
X4.5533Y-4.7033
X4.6112Y-4.7367
X4.685Y-2.3937
X4.685Y-3.063
X4.685Y-3.7323
X4.9336Y-4.6014
X5.0Y-2.315
X5.0Y-2.9843
X5.0Y-3.6535
X5.1969Y-2.3976
X5.1969Y-3.0669
X5.1969Y-3.7362
X5.2795Y-4.4331
X5.3268Y-4.0866
X5.3268Y-4.4803
X5.3937Y-2.315
X5.3937Y-2.9843
X5.3937Y-3.6535
X5.6732Y-4.4331
X5.7087Y-2.0787
X5.7087Y-2.748
X5.7087Y-3.4173
X5.9055Y-2.1614
X5.9055Y-2.8307
X5.9055Y-3.5
X6.1024Y-2.0787
X6.1024Y-2.748
X6.1024Y-3.4173
X6.4173Y-2.315
X6.4173Y-2.9843
X6.4173Y-3.6535
X6.6142Y-2.3976
X6.6142Y-3.0669
X6.6142Y-3.7362
X6.811Y-2.315
X6.811Y-2.9843
X6.811Y-3.6535
X7.126Y-2.5512
X7.126Y-3.2205
X7.126Y-3.8898
X7.3228Y-2.6339
X7.3228Y-3.3031
X7.3228Y-3.9724
X7.5197Y-2.5512
X7.5197Y-3.2205
X7.5197Y-3.8898
T6
X3.8111Y-4.7473
X4.0763Y-4.9004
X4.4956Y-4.5639
X4.7608Y-4.717
X5.2598Y-4.2835
X5.4764Y-4.5
T7
X3.6496Y-4.0602
X4.0433Y-2.9579
X4.752Y-1.7768
X4.8961Y-3.0977
X5.3031Y-4.7295
X5.5779Y-2.2852
X5.7087Y-3.7795
X6.6811Y-4.0996
X7.1142Y-1.9343
T2
G00X3.5039Y-2.8622
M15
G01X3.5197Y-2.8622
M16
G05
G00X3.5197Y-3.0433
M15
G01X3.5039Y-3.0433
M16
G05
G00X3.622Y-2.8622
M15
G01X3.6378Y-2.8622
M16
G05
G00X3.6378Y-3.0433
M15
G01X3.622Y-3.0433
M16
G05
G00X3.7795Y-2.8622
M15
G01X3.7953Y-2.8622
M16
G05
G00X3.7953Y-3.0433
M15
G01X3.7795Y-3.0433
M16
G05
G00X3.8386Y-2.8622
M15
G01X3.8228Y-2.8622
M16
G05
G00X3.8228Y-3.0433
M15
G01X3.8386Y-3.0433
M16
G05
T0
M30
